# Blender 3.6.5
# www.blender.org
mtllib 105.mtl
o mesh_471
v -0.046875 -0.075061 -0.050781
v -0.046875 -0.051623 -0.050781
v -0.062500 -0.059435 -0.035156
v -0.062500 -0.051623 -0.042969
v -0.062500 -0.059435 -0.035156
v -0.046875 -0.051623 -0.050781
v -0.062500 -0.059435 -0.035156
v -0.062500 -0.121935 -0.035156
v -0.046875 -0.075061 -0.050781
v 0.046875 -0.075061 -0.050781
v 0.062500 -0.059435 -0.035156
v 0.046875 -0.051623 -0.050781
v 0.062500 -0.051623 -0.042969
v 0.046875 -0.051623 -0.050781
v 0.062500 -0.059435 -0.035156
v 0.062500 -0.059435 -0.035156
v 0.046875 -0.075061 -0.050781
v 0.062500 -0.121935 -0.035156
v -0.003906 -0.075061 -0.109375
v 0.003906 -0.075061 -0.109375
v 0.000000 -0.075061 -0.113281
v -0.085938 -0.075061 -0.062500
v -0.089844 -0.075061 -0.054688
v -0.046875 -0.075061 -0.050781
v -0.027344 -0.075061 -0.070312
v -0.085938 -0.075061 -0.062500
v -0.046875 -0.075061 -0.050781
v -0.089844 -0.075061 -0.054688
v -0.089844 -0.075061 -0.050781
v -0.046875 -0.075061 -0.050781
v -0.027344 -0.075061 -0.070312
v -0.003906 -0.075061 -0.109375
v -0.085938 -0.075061 -0.062500
v 0.085938 -0.075061 -0.062500
v 0.046875 -0.075061 -0.050781
v 0.089844 -0.075061 -0.054688
v 0.027344 -0.075061 -0.070312
v 0.046875 -0.075061 -0.050781
v 0.085938 -0.075061 -0.062500
v 0.089844 -0.075061 -0.054688
v 0.046875 -0.075061 -0.050781
v 0.089844 -0.075061 -0.050781
v 0.027344 -0.075061 -0.070312
v 0.085938 -0.075061 -0.062500
v 0.003906 -0.075061 -0.109375
v -0.093750 -0.141467 -0.035156
v -0.062500 -0.121935 -0.035156
v -0.093750 -0.129748 -0.035156
v -0.085938 -0.153185 -0.035156
v -0.062500 -0.121935 -0.035156
v -0.093750 -0.141467 -0.035156
v -0.085938 -0.153185 -0.035156
v -0.062500 -0.141467 -0.035156
v -0.062500 -0.121935 -0.035156
v 0.093750 -0.141467 -0.035156
v 0.093750 -0.129748 -0.035156
v 0.062500 -0.121935 -0.035156
v 0.085938 -0.153185 -0.035156
v 0.093750 -0.141467 -0.035156
v 0.062500 -0.121935 -0.035156
v 0.085938 -0.153185 -0.035156
v 0.062500 -0.121935 -0.035156
v 0.062500 -0.141467 -0.035156
v -0.062500 -0.153185 -0.035156
v -0.062500 -0.141467 -0.035156
v -0.085938 -0.153185 -0.035156
v 0.062500 -0.153185 -0.035156
v 0.085938 -0.153185 -0.035156
v 0.062500 -0.141467 -0.035156
v 0.003906 -0.153185 -0.097656
v -0.003906 -0.153185 -0.097656
v 0.000000 -0.153185 -0.097656
v -0.082031 -0.153185 -0.046875
v -0.027344 -0.153185 -0.070312
v -0.085938 -0.153185 -0.035156
v -0.003906 -0.153185 -0.097656
v -0.027344 -0.153185 -0.070312
v -0.082031 -0.153185 -0.046875
v 0.082031 -0.153185 -0.046875
v 0.085938 -0.153185 -0.035156
v 0.027344 -0.153185 -0.070312
v 0.003906 -0.153185 -0.097656
v 0.082031 -0.153185 -0.046875
v 0.027344 -0.153185 -0.070312
v 0.046875 -0.075061 0.050781
v 0.046875 -0.051623 0.050781
v 0.062500 -0.059435 0.031250
v 0.062500 -0.051623 0.042969
v 0.062500 -0.059435 0.031250
v 0.046875 -0.051623 0.050781
v 0.062500 -0.059435 0.031250
v 0.062500 -0.121935 0.031250
v 0.046875 -0.075061 0.050781
v -0.046875 -0.075061 0.050781
v -0.062500 -0.059435 0.031250
v -0.046875 -0.051623 0.050781
v -0.062500 -0.051623 0.042969
v -0.046875 -0.051623 0.050781
v -0.062500 -0.059435 0.031250
v -0.062500 -0.059435 0.031250
v -0.046875 -0.075061 0.050781
v -0.062500 -0.121935 0.031250
v 0.003906 -0.075061 0.109375
v -0.003906 -0.075061 0.109375
v 0.000000 -0.075061 0.109375
v 0.085938 -0.075061 0.062500
v 0.089844 -0.075061 0.054688
v 0.046875 -0.075061 0.050781
v 0.027344 -0.075061 0.070312
v 0.085938 -0.075061 0.062500
v 0.046875 -0.075061 0.050781
v 0.089844 -0.075061 0.054688
v 0.089844 -0.075061 0.046875
v 0.046875 -0.075061 0.050781
v 0.027344 -0.075061 0.070312
v 0.003906 -0.075061 0.109375
v 0.085938 -0.075061 0.062500
v -0.085938 -0.075061 0.062500
v -0.046875 -0.075061 0.050781
v -0.089844 -0.075061 0.054688
v -0.027344 -0.075061 0.070312
v -0.046875 -0.075061 0.050781
v -0.085938 -0.075061 0.062500
v -0.089844 -0.075061 0.054688
v -0.046875 -0.075061 0.050781
v -0.089844 -0.075061 0.046875
v -0.027344 -0.075061 0.070312
v -0.085938 -0.075061 0.062500
v -0.003906 -0.075061 0.109375
v 0.093750 -0.141467 0.031250
v 0.062500 -0.121935 0.031250
v 0.093750 -0.129748 0.031250
v 0.085938 -0.153185 0.031250
v 0.062500 -0.121935 0.031250
v 0.093750 -0.141467 0.031250
v 0.085938 -0.153185 0.031250
v 0.062500 -0.141467 0.031250
v 0.062500 -0.121935 0.031250
v -0.093750 -0.141467 0.031250
v -0.093750 -0.129748 0.031250
v -0.062500 -0.121935 0.031250
v -0.085938 -0.153185 0.031250
v -0.093750 -0.141467 0.031250
v -0.062500 -0.121935 0.031250
v -0.085938 -0.153185 0.031250
v -0.062500 -0.121935 0.031250
v -0.062500 -0.141467 0.031250
v 0.062500 -0.153185 0.031250
v 0.062500 -0.141467 0.031250
v 0.085938 -0.153185 0.031250
v -0.062500 -0.153185 0.031250
v -0.085938 -0.153185 0.031250
v -0.062500 -0.141467 0.031250
v -0.003906 -0.153185 0.097656
v 0.003906 -0.153185 0.097656
v 0.000000 -0.153185 0.097656
v 0.082031 -0.153185 0.046875
v 0.027344 -0.153185 0.070312
v 0.085938 -0.153185 0.035156
v 0.003906 -0.153185 0.097656
v 0.027344 -0.153185 0.070312
v 0.082031 -0.153185 0.046875
v -0.082031 -0.153185 0.046875
v -0.085938 -0.153185 0.035156
v -0.027344 -0.153185 0.070312
v -0.003906 -0.153185 0.097656
v -0.082031 -0.153185 0.046875
v -0.027344 -0.153185 0.070312
v 0.054688 -0.051623 -0.023438
v 0.054688 -0.203967 -0.023438
v 0.054688 -0.203967 0.019531
v 0.054688 -0.051623 0.019531
v 0.054688 -0.203967 -0.023438
v 0.054688 -0.051623 -0.023438
v 0.019531 -0.051623 -0.054688
v 0.019531 -0.203967 -0.054688
v 0.019531 -0.051623 -0.054688
v -0.019531 -0.051623 -0.054688
v -0.019531 -0.203967 -0.054688
v 0.019531 -0.203967 -0.054688
v -0.019531 -0.051623 -0.054688
v -0.054688 -0.051623 -0.023438
v -0.054688 -0.203967 -0.023438
v -0.019531 -0.203967 -0.054688
v -0.054688 -0.051623 -0.023438
v -0.054688 -0.051623 0.019531
v -0.054688 -0.203967 0.019531
v -0.054688 -0.203967 -0.023438
v -0.054688 -0.203967 0.019531
v -0.054688 -0.051623 0.019531
v -0.019531 -0.051623 0.054688
v -0.019531 -0.203967 0.054688
v 0.019531 -0.051623 0.054688
v 0.019531 -0.203967 0.054688
v -0.019531 -0.203967 0.054688
v -0.019531 -0.051623 0.054688
v 0.019531 -0.203967 0.054688
v 0.019531 -0.051623 0.054688
v 0.054688 -0.051623 0.019531
v 0.054688 -0.203967 0.019531
v 0.070312 -0.176623 -0.027344
v 0.070312 -0.051623 -0.027344
v 0.070312 -0.051623 0.027344
v 0.070312 -0.176623 0.027344
v 0.070312 -0.051623 -0.027344
v 0.070312 -0.176623 -0.027344
v 0.027344 -0.176623 -0.070312
v 0.027344 -0.051623 -0.070312
v 0.027344 -0.200061 -0.070312
v 0.027344 -0.176623 -0.070312
v 0.070312 -0.176623 -0.027344
v 0.070312 -0.200061 -0.027344
v -0.027344 -0.176623 -0.070312
v -0.027344 -0.051623 -0.070312
v 0.027344 -0.051623 -0.070312
v 0.027344 -0.176623 -0.070312
v -0.027344 -0.200061 -0.070312
v -0.027344 -0.176623 -0.070312
v 0.027344 -0.176623 -0.070312
v 0.027344 -0.200061 -0.070312
v -0.070312 -0.051623 -0.027344
v -0.027344 -0.051623 -0.070312
v -0.027344 -0.176623 -0.070312
v -0.070312 -0.176623 -0.027344
v -0.070312 -0.200061 -0.027344
v -0.070312 -0.176623 -0.027344
v -0.027344 -0.176623 -0.070312
v -0.027344 -0.200061 -0.070312
v -0.070312 -0.176623 0.027344
v -0.070312 -0.051623 0.027344
v -0.070312 -0.051623 -0.027344
v -0.070312 -0.176623 -0.027344
v -0.082031 -0.196154 0.027344
v -0.082031 -0.176623 0.027344
v -0.082031 -0.176623 -0.027344
v -0.082031 -0.196154 -0.027344
v -0.027344 -0.176623 0.070312
v -0.027344 -0.051623 0.070312
v -0.070312 -0.051623 0.027344
v -0.070312 -0.176623 0.027344
v -0.027344 -0.200061 0.070312
v -0.027344 -0.176623 0.070312
v -0.070312 -0.176623 0.027344
v -0.070312 -0.200061 0.027344
v 0.027344 -0.176623 0.070312
v 0.027344 -0.051623 0.070312
v -0.027344 -0.051623 0.070312
v -0.027344 -0.176623 0.070312
v 0.027344 -0.200061 0.070312
v 0.027344 -0.176623 0.070312
v -0.027344 -0.176623 0.070312
v -0.027344 -0.200061 0.070312
v 0.027344 -0.051623 0.070312
v 0.027344 -0.176623 0.070312
v 0.070312 -0.176623 0.027344
v 0.070312 -0.051623 0.027344
v 0.027344 -0.176623 0.070312
v 0.027344 -0.200061 0.070312
v 0.070312 -0.200061 0.027344
v 0.070312 -0.176623 0.027344
v 0.082031 -0.196154 -0.027344
v 0.082031 -0.176623 -0.027344
v 0.082031 -0.176623 0.027344
v 0.082031 -0.196154 0.027344
v -0.156250 -0.106311 0.042969
v -0.156250 -0.125842 0.042969
v -0.152344 -0.125842 0.050781
v -0.152344 -0.106311 0.050781
v -0.152344 -0.106311 0.050781
v -0.152344 -0.125842 0.050781
v -0.140625 -0.125842 0.054688
v -0.140625 -0.106311 0.054688
v -0.136719 -0.102404 0.035156
v -0.152344 -0.102404 0.039062
v -0.148438 -0.102404 0.046875
v -0.136719 -0.102404 0.050781
v -0.148438 -0.129748 0.046875
v -0.152344 -0.129748 0.039062
v -0.136719 -0.129748 0.035156
v -0.136719 -0.129748 0.050781
v -0.140625 -0.125842 0.054688
v -0.039062 -0.125842 0.054688
v -0.039062 -0.106311 0.054688
v -0.140625 -0.106311 0.054688
v -0.058594 -0.106311 0.031250
v -0.058594 -0.125842 0.031250
v -0.132812 -0.125842 0.031250
v -0.132812 -0.106311 0.031250
v -0.039062 -0.102404 0.050781
v -0.058594 -0.102404 0.035156
v -0.136719 -0.102404 0.035156
v -0.136719 -0.102404 0.050781
v -0.136719 -0.129748 0.035156
v -0.058594 -0.129748 0.035156
v -0.039062 -0.129748 0.050781
v -0.136719 -0.129748 0.050781
v -0.152344 -0.125842 -0.050781
v -0.156250 -0.125842 -0.042969
v -0.156250 -0.106311 -0.042969
v -0.152344 -0.106311 -0.050781
v -0.140625 -0.125842 -0.058594
v -0.152344 -0.125842 -0.050781
v -0.152344 -0.106311 -0.050781
v -0.140625 -0.106311 -0.058594
v -0.148438 -0.102404 -0.050781
v -0.152344 -0.102404 -0.039062
v -0.136719 -0.102404 -0.039062
v -0.136719 -0.102404 -0.054688
v -0.136719 -0.129748 -0.039062
v -0.152344 -0.129748 -0.039062
v -0.148438 -0.129748 -0.050781
v -0.136719 -0.129748 -0.054688
v -0.136719 -0.129748 0.035156
v -0.152344 -0.129748 0.039062
v -0.152344 -0.129748 -0.039062
v -0.136719 -0.129748 -0.039062
v -0.132812 -0.106311 0.031250
v -0.132812 -0.125842 0.031250
v -0.132812 -0.125842 -0.035156
v -0.132812 -0.106311 -0.035156
v -0.156250 -0.125842 0.042969
v -0.156250 -0.106311 0.042969
v -0.156250 -0.106311 -0.042969
v -0.156250 -0.125842 -0.042969
v -0.152344 -0.102404 -0.039062
v -0.152344 -0.102404 0.039062
v -0.136719 -0.102404 0.035156
v -0.136719 -0.102404 -0.039062
v -0.035156 -0.106311 -0.058594
v -0.035156 -0.125842 -0.058594
v -0.140625 -0.125842 -0.058594
v -0.140625 -0.106311 -0.058594
v -0.132812 -0.125842 -0.035156
v -0.058594 -0.125842 -0.035156
v -0.058594 -0.106311 -0.035156
v -0.132812 -0.106311 -0.035156
v -0.136719 -0.102404 -0.039062
v -0.054688 -0.102404 -0.039062
v -0.039062 -0.102404 -0.054688
v -0.136719 -0.102404 -0.054688
v -0.039062 -0.129748 -0.054688
v -0.054688 -0.129748 -0.039062
v -0.136719 -0.129748 -0.039062
v -0.136719 -0.129748 -0.054688
v -0.136719 -0.102404 0.050781
v -0.148438 -0.102404 0.046875
v -0.152344 -0.106311 0.050781
v -0.140625 -0.106311 0.054688
v -0.148438 -0.102404 0.046875
v -0.152344 -0.102404 0.039062
v -0.156250 -0.106311 0.042969
v -0.152344 -0.106311 0.050781
v -0.156250 -0.125842 0.042969
v -0.152344 -0.129748 0.039062
v -0.148438 -0.129748 0.046875
v -0.152344 -0.125842 0.050781
v -0.152344 -0.125842 0.050781
v -0.148438 -0.129748 0.046875
v -0.136719 -0.129748 0.050781
v -0.140625 -0.125842 0.054688
v -0.039062 -0.106311 0.054688
v -0.039062 -0.102404 0.050781
v -0.136719 -0.102404 0.050781
v -0.140625 -0.106311 0.054688
v -0.136719 -0.102404 0.035156
v -0.058594 -0.102404 0.035156
v -0.058594 -0.106311 0.031250
v -0.132812 -0.106311 0.031250
v -0.058594 -0.125842 0.031250
v -0.058594 -0.129748 0.035156
v -0.136719 -0.129748 0.035156
v -0.132812 -0.125842 0.031250
v -0.136719 -0.129748 0.050781
v -0.039062 -0.129748 0.050781
v -0.039062 -0.125842 0.054688
v -0.140625 -0.125842 0.054688
v -0.152344 -0.102404 -0.039062
v -0.148438 -0.102404 -0.050781
v -0.152344 -0.106311 -0.050781
v -0.156250 -0.106311 -0.042969
v -0.148438 -0.102404 -0.050781
v -0.136719 -0.102404 -0.054688
v -0.140625 -0.106311 -0.058594
v -0.152344 -0.106311 -0.050781
v -0.140625 -0.125842 -0.058594
v -0.136719 -0.129748 -0.054688
v -0.148438 -0.129748 -0.050781
v -0.152344 -0.125842 -0.050781
v -0.152344 -0.125842 -0.050781
v -0.148438 -0.129748 -0.050781
v -0.152344 -0.129748 -0.039062
v -0.156250 -0.125842 -0.042969
v -0.132812 -0.125842 0.031250
v -0.136719 -0.129748 0.035156
v -0.136719 -0.129748 -0.039062
v -0.132812 -0.125842 -0.035156
v -0.152344 -0.129748 0.039062
v -0.156250 -0.125842 0.042969
v -0.156250 -0.125842 -0.042969
v -0.152344 -0.129748 -0.039062
v -0.156250 -0.106311 -0.042969
v -0.156250 -0.106311 0.042969
v -0.152344 -0.102404 0.039062
v -0.152344 -0.102404 -0.039062
v -0.136719 -0.102404 -0.039062
v -0.136719 -0.102404 0.035156
v -0.132812 -0.106311 0.031250
v -0.132812 -0.106311 -0.035156
v -0.058594 -0.106311 -0.035156
v -0.054688 -0.102404 -0.039062
v -0.136719 -0.102404 -0.039062
v -0.132812 -0.106311 -0.035156
v -0.136719 -0.102404 -0.054688
v -0.039062 -0.102404 -0.054688
v -0.035156 -0.106311 -0.058594
v -0.140625 -0.106311 -0.058594
v -0.035156 -0.125842 -0.058594
v -0.039062 -0.129748 -0.054688
v -0.136719 -0.129748 -0.054688
v -0.140625 -0.125842 -0.058594
v -0.136719 -0.129748 -0.039062
v -0.054688 -0.129748 -0.039062
v -0.058594 -0.125842 -0.035156
v -0.132812 -0.125842 -0.035156
v 0.156250 -0.106311 -0.042969
v 0.156250 -0.125842 -0.042969
v 0.152344 -0.125842 -0.050781
v 0.152344 -0.106311 -0.050781
v 0.152344 -0.106311 -0.050781
v 0.152344 -0.125842 -0.050781
v 0.140625 -0.125842 -0.058594
v 0.140625 -0.106311 -0.058594
v 0.136719 -0.102404 -0.039062
v 0.152344 -0.102404 -0.039062
v 0.148438 -0.102404 -0.050781
v 0.136719 -0.102404 -0.054688
v 0.148438 -0.129748 -0.050781
v 0.152344 -0.129748 -0.039062
v 0.136719 -0.129748 -0.039062
v 0.136719 -0.129748 -0.054688
v 0.140625 -0.125842 -0.058594
v 0.039062 -0.125842 -0.058594
v 0.039062 -0.106311 -0.058594
v 0.140625 -0.106311 -0.058594
v 0.058594 -0.106311 -0.035156
v 0.058594 -0.125842 -0.035156
v 0.132812 -0.125842 -0.035156
v 0.132812 -0.106311 -0.035156
v 0.039062 -0.102404 -0.054688
v 0.058594 -0.102404 -0.039062
v 0.136719 -0.102404 -0.039062
v 0.136719 -0.102404 -0.054688
v 0.136719 -0.129748 -0.039062
v 0.058594 -0.129748 -0.039062
v 0.039062 -0.129748 -0.054688
v 0.136719 -0.129748 -0.054688
v 0.152344 -0.125842 0.050781
v 0.156250 -0.125842 0.042969
v 0.156250 -0.106311 0.042969
v 0.152344 -0.106311 0.050781
v 0.140625 -0.125842 0.054688
v 0.152344 -0.125842 0.050781
v 0.152344 -0.106311 0.050781
v 0.140625 -0.106311 0.054688
v 0.148438 -0.102404 0.046875
v 0.152344 -0.102404 0.039062
v 0.136719 -0.102404 0.035156
v 0.136719 -0.102404 0.050781
v 0.136719 -0.129748 0.035156
v 0.152344 -0.129748 0.039062
v 0.148438 -0.129748 0.046875
v 0.136719 -0.129748 0.050781
v 0.136719 -0.129748 -0.039062
v 0.152344 -0.129748 -0.039062
v 0.152344 -0.129748 0.039062
v 0.136719 -0.129748 0.035156
v 0.132812 -0.106311 -0.035156
v 0.132812 -0.125842 -0.035156
v 0.132812 -0.125842 0.031250
v 0.132812 -0.106311 0.031250
v 0.156250 -0.125842 -0.042969
v 0.156250 -0.106311 -0.042969
v 0.156250 -0.106311 0.042969
v 0.156250 -0.125842 0.042969
v 0.152344 -0.102404 0.039062
v 0.152344 -0.102404 -0.039062
v 0.136719 -0.102404 -0.039062
v 0.136719 -0.102404 0.035156
v 0.035156 -0.106311 0.054688
v 0.035156 -0.125842 0.054688
v 0.140625 -0.125842 0.054688
v 0.140625 -0.106311 0.054688
v 0.132812 -0.125842 0.031250
v 0.058594 -0.125842 0.031250
v 0.058594 -0.106311 0.031250
v 0.132812 -0.106311 0.031250
v 0.136719 -0.102404 0.035156
v 0.054688 -0.102404 0.035156
v 0.039062 -0.102404 0.050781
v 0.136719 -0.102404 0.050781
v 0.039062 -0.129748 0.050781
v 0.054688 -0.129748 0.035156
v 0.136719 -0.129748 0.035156
v 0.136719 -0.129748 0.050781
v 0.136719 -0.102404 -0.054688
v 0.148438 -0.102404 -0.050781
v 0.152344 -0.106311 -0.050781
v 0.140625 -0.106311 -0.058594
v 0.148438 -0.102404 -0.050781
v 0.152344 -0.102404 -0.039062
v 0.156250 -0.106311 -0.042969
v 0.152344 -0.106311 -0.050781
v 0.156250 -0.125842 -0.042969
v 0.152344 -0.129748 -0.039062
v 0.148438 -0.129748 -0.050781
v 0.152344 -0.125842 -0.050781
v 0.152344 -0.125842 -0.050781
v 0.148438 -0.129748 -0.050781
v 0.136719 -0.129748 -0.054688
v 0.140625 -0.125842 -0.058594
v 0.039062 -0.106311 -0.058594
v 0.039062 -0.102404 -0.054688
v 0.136719 -0.102404 -0.054688
v 0.140625 -0.106311 -0.058594
v 0.136719 -0.102404 -0.039062
v 0.058594 -0.102404 -0.039062
v 0.058594 -0.106311 -0.035156
v 0.132812 -0.106311 -0.035156
v 0.058594 -0.125842 -0.035156
v 0.058594 -0.129748 -0.039062
v 0.136719 -0.129748 -0.039062
v 0.132812 -0.125842 -0.035156
v 0.136719 -0.129748 -0.054688
v 0.039062 -0.129748 -0.054688
v 0.039062 -0.125842 -0.058594
v 0.140625 -0.125842 -0.058594
v 0.152344 -0.102404 0.039062
v 0.148438 -0.102404 0.046875
v 0.152344 -0.106311 0.050781
v 0.156250 -0.106311 0.042969
v 0.148438 -0.102404 0.046875
v 0.136719 -0.102404 0.050781
v 0.140625 -0.106311 0.054688
v 0.152344 -0.106311 0.050781
v 0.140625 -0.125842 0.054688
v 0.136719 -0.129748 0.050781
v 0.148438 -0.129748 0.046875
v 0.152344 -0.125842 0.050781
v 0.152344 -0.125842 0.050781
v 0.148438 -0.129748 0.046875
v 0.152344 -0.129748 0.039062
v 0.156250 -0.125842 0.042969
v 0.132812 -0.125842 -0.035156
v 0.136719 -0.129748 -0.039062
v 0.136719 -0.129748 0.035156
v 0.132812 -0.125842 0.031250
v 0.152344 -0.129748 -0.039062
v 0.156250 -0.125842 -0.042969
v 0.156250 -0.125842 0.042969
v 0.152344 -0.129748 0.039062
v 0.156250 -0.106311 0.042969
v 0.156250 -0.106311 -0.042969
v 0.152344 -0.102404 -0.039062
v 0.152344 -0.102404 0.039062
v 0.136719 -0.102404 0.035156
v 0.136719 -0.102404 -0.039062
v 0.132812 -0.106311 -0.035156
v 0.132812 -0.106311 0.031250
v 0.058594 -0.106311 0.031250
v 0.054688 -0.102404 0.035156
v 0.136719 -0.102404 0.035156
v 0.132812 -0.106311 0.031250
v 0.136719 -0.102404 0.050781
v 0.039062 -0.102404 0.050781
v 0.035156 -0.106311 0.054688
v 0.140625 -0.106311 0.054688
v 0.035156 -0.125842 0.054688
v 0.039062 -0.129748 0.050781
v 0.136719 -0.129748 0.050781
v 0.140625 -0.125842 0.054688
v 0.136719 -0.129748 0.035156
v 0.054688 -0.129748 0.035156
v 0.058594 -0.125842 0.031250
v 0.132812 -0.125842 0.031250
v 0.027344 -0.200061 -0.070312
v 0.070312 -0.200061 -0.027344
v 0.054688 -0.203967 -0.023438
v 0.019531 -0.203967 -0.054688
v -0.019531 -0.203967 -0.054688
v -0.027344 -0.200061 -0.070312
v 0.027344 -0.200061 -0.070312
v 0.019531 -0.203967 -0.054688
v -0.054688 -0.203967 -0.023438
v -0.070312 -0.200061 -0.027344
v -0.027344 -0.200061 -0.070312
v -0.019531 -0.203967 -0.054688
v -0.054688 -0.203967 0.019531
v -0.070312 -0.200061 0.027344
v -0.070312 -0.200061 -0.027344
v -0.054688 -0.203967 -0.023438
v -0.027344 -0.200061 0.070312
v -0.070312 -0.200061 0.027344
v -0.054688 -0.203967 0.019531
v -0.019531 -0.203967 0.054688
v 0.019531 -0.203967 0.054688
v 0.027344 -0.200061 0.070312
v -0.027344 -0.200061 0.070312
v -0.019531 -0.203967 0.054688
v 0.054688 -0.203967 0.019531
v 0.070312 -0.200061 0.027344
v 0.027344 -0.200061 0.070312
v 0.019531 -0.203967 0.054688
v 0.054688 -0.203967 -0.023438
v 0.070312 -0.200061 -0.027344
v 0.070312 -0.200061 0.027344
v 0.054688 -0.203967 0.019531
v 0.027344 -0.051623 0.070312
v 0.070312 -0.051623 0.027344
v 0.054688 -0.051623 0.019531
v 0.019531 -0.051623 0.054688
v -0.027344 -0.051623 0.070312
v 0.027344 -0.051623 0.070312
v 0.019531 -0.051623 0.054688
v -0.019531 -0.051623 0.054688
v -0.054688 -0.051623 0.019531
v -0.070312 -0.051623 0.027344
v -0.027344 -0.051623 0.070312
v -0.019531 -0.051623 0.054688
v -0.070312 -0.051623 -0.027344
v -0.070312 -0.051623 0.027344
v -0.054688 -0.051623 0.019531
v -0.054688 -0.051623 -0.023438
v -0.027344 -0.051623 -0.070312
v -0.070312 -0.051623 -0.027344
v -0.054688 -0.051623 -0.023438
v -0.019531 -0.051623 -0.054688
v 0.027344 -0.051623 -0.070312
v -0.027344 -0.051623 -0.070312
v -0.019531 -0.051623 -0.054688
v 0.019531 -0.051623 -0.054688
v 0.054688 -0.051623 -0.023438
v 0.070312 -0.051623 -0.027344
v 0.027344 -0.051623 -0.070312
v 0.019531 -0.051623 -0.054688
v 0.070312 -0.051623 0.027344
v 0.070312 -0.051623 -0.027344
v 0.054688 -0.051623 -0.023438
v 0.054688 -0.051623 0.019531
v -0.070312 -0.200061 0.027344
v -0.082031 -0.196154 0.027344
v -0.082031 -0.196154 -0.027344
v -0.070312 -0.200061 -0.027344
v 0.070312 -0.200061 -0.027344
v 0.082031 -0.196154 -0.027344
v 0.082031 -0.196154 0.027344
v 0.070312 -0.200061 0.027344
v -0.003906 -0.121935 -0.128906
v 0.000000 -0.121935 -0.132812
v 0.000000 -0.129748 -0.128906
v -0.003906 -0.129748 -0.125000
v -0.113281 -0.121935 -0.050781
v -0.105469 -0.121935 -0.066406
v -0.101562 -0.129748 -0.066406
v -0.109375 -0.129748 -0.050781
v -0.105469 -0.121935 -0.066406
v -0.003906 -0.121935 -0.128906
v -0.003906 -0.129748 -0.125000
v -0.101562 -0.129748 -0.066406
v -0.113281 -0.121935 -0.035156
v -0.113281 -0.121935 -0.050781
v -0.109375 -0.129748 -0.050781
v -0.109375 -0.129748 -0.035156
v -0.113281 -0.059435 -0.050781
v -0.105469 -0.051623 -0.042969
v -0.097656 -0.051623 -0.058594
v -0.105469 -0.059435 -0.066406
v -0.011719 -0.051623 -0.113281
v -0.003906 -0.059435 -0.128906
v -0.105469 -0.059435 -0.066406
v -0.097656 -0.051623 -0.058594
v -0.113281 -0.059435 -0.035156
v -0.105469 -0.051623 -0.042969
v -0.105469 -0.051623 -0.042969
v -0.113281 -0.059435 -0.050781
v -0.003906 -0.059435 -0.128906
v -0.011719 -0.051623 -0.113281
v 0.000000 -0.051623 -0.117188
v 0.000000 -0.059435 -0.132812
v -0.062500 -0.059435 -0.035156
v -0.062500 -0.051623 -0.042969
v -0.105469 -0.051623 -0.042969
v -0.113281 -0.059435 -0.035156
v 0.000000 -0.129748 -0.128906
v 0.000000 -0.121935 -0.132812
v 0.003906 -0.121935 -0.128906
v 0.003906 -0.129748 -0.125000
v 0.101562 -0.129748 -0.066406
v 0.105469 -0.121935 -0.066406
v 0.113281 -0.121935 -0.050781
v 0.109375 -0.129748 -0.050781
v 0.003906 -0.129748 -0.125000
v 0.003906 -0.121935 -0.128906
v 0.105469 -0.121935 -0.066406
v 0.101562 -0.129748 -0.066406
v 0.109375 -0.129748 -0.050781
v 0.113281 -0.121935 -0.050781
v 0.113281 -0.121935 -0.035156
v 0.109375 -0.129748 -0.035156
v 0.097656 -0.051623 -0.058594
v 0.105469 -0.051623 -0.042969
v 0.113281 -0.059435 -0.050781
v 0.105469 -0.059435 -0.066406
v 0.105469 -0.059435 -0.066406
v 0.003906 -0.059435 -0.128906
v 0.011719 -0.051623 -0.113281
v 0.097656 -0.051623 -0.058594
v 0.105469 -0.051623 -0.042969
v 0.105469 -0.051623 -0.042969
v 0.113281 -0.059435 -0.035156
v 0.113281 -0.059435 -0.050781
v 0.000000 -0.051623 -0.117188
v 0.011719 -0.051623 -0.113281
v 0.003906 -0.059435 -0.128906
v 0.000000 -0.059435 -0.132812
v 0.105469 -0.051623 -0.042969
v 0.062500 -0.051623 -0.042969
v 0.062500 -0.059435 -0.035156
v 0.113281 -0.059435 -0.035156
v -0.003906 -0.121935 -0.128906
v -0.003906 -0.059435 -0.128906
v 0.000000 -0.059435 -0.132812
v 0.000000 -0.121935 -0.132812
v -0.113281 -0.121935 -0.050781
v -0.113281 -0.059435 -0.050781
v -0.105469 -0.059435 -0.066406
v -0.105469 -0.121935 -0.066406
v -0.003906 -0.059435 -0.128906
v -0.003906 -0.121935 -0.128906
v -0.105469 -0.121935 -0.066406
v -0.105469 -0.059435 -0.066406
v -0.113281 -0.121935 -0.050781
v -0.113281 -0.121935 -0.035156
v -0.113281 -0.059435 -0.035156
v -0.113281 -0.059435 -0.050781
v 0.000000 -0.059435 -0.132812
v 0.003906 -0.059435 -0.128906
v 0.003906 -0.121935 -0.128906
v 0.000000 -0.121935 -0.132812
v 0.105469 -0.059435 -0.066406
v 0.113281 -0.059435 -0.050781
v 0.113281 -0.121935 -0.050781
v 0.105469 -0.121935 -0.066406
v 0.105469 -0.121935 -0.066406
v 0.003906 -0.121935 -0.128906
v 0.003906 -0.059435 -0.128906
v 0.105469 -0.059435 -0.066406
v 0.113281 -0.059435 -0.035156
v 0.113281 -0.121935 -0.035156
v 0.113281 -0.121935 -0.050781
v 0.113281 -0.059435 -0.050781
v 0.000000 -0.129748 -0.105469
v 0.000000 -0.141467 -0.105469
v -0.003906 -0.141467 -0.105469
v -0.003906 -0.129748 -0.105469
v -0.085938 -0.129748 -0.054688
v -0.085938 -0.141467 -0.054688
v -0.089844 -0.141467 -0.042969
v -0.089844 -0.129748 -0.042969
v -0.003906 -0.129748 -0.105469
v -0.003906 -0.141467 -0.105469
v -0.085938 -0.141467 -0.054688
v -0.085938 -0.129748 -0.054688
v -0.089844 -0.129748 -0.042969
v -0.089844 -0.141467 -0.042969
v -0.093750 -0.141467 -0.035156
v -0.093750 -0.129748 -0.035156
v 0.003906 -0.141467 -0.105469
v 0.000000 -0.141467 -0.105469
v 0.000000 -0.129748 -0.105469
v 0.003906 -0.129748 -0.105469
v 0.089844 -0.141467 -0.042969
v 0.085938 -0.141467 -0.054688
v 0.085938 -0.129748 -0.054688
v 0.089844 -0.129748 -0.042969
v 0.085938 -0.141467 -0.054688
v 0.003906 -0.141467 -0.105469
v 0.003906 -0.129748 -0.105469
v 0.085938 -0.129748 -0.054688
v 0.093750 -0.141467 -0.035156
v 0.089844 -0.141467 -0.042969
v 0.089844 -0.129748 -0.042969
v 0.093750 -0.129748 -0.035156
v -0.003906 -0.051623 -0.109375
v -0.003906 -0.075061 -0.109375
v 0.000000 -0.075061 -0.113281
v 0.000000 -0.051623 -0.113281
v -0.089844 -0.051623 -0.054688
v -0.089844 -0.075061 -0.054688
v -0.085938 -0.075061 -0.062500
v -0.085938 -0.051623 -0.062500
v -0.003906 -0.075061 -0.109375
v -0.003906 -0.051623 -0.109375
v -0.085938 -0.051623 -0.062500
v -0.085938 -0.075061 -0.062500
v -0.046875 -0.051623 -0.050781
v -0.046875 -0.075061 -0.050781
v -0.089844 -0.075061 -0.050781
v -0.089844 -0.051623 -0.050781
v -0.089844 -0.051623 -0.050781
v -0.089844 -0.075061 -0.050781
v -0.089844 -0.075061 -0.054688
v -0.089844 -0.051623 -0.054688
v 0.000000 -0.075061 -0.113281
v 0.003906 -0.075061 -0.109375
v 0.003906 -0.051623 -0.109375
v 0.000000 -0.051623 -0.113281
v 0.085938 -0.075061 -0.062500
v 0.089844 -0.075061 -0.054688
v 0.089844 -0.051623 -0.054688
v 0.085938 -0.051623 -0.062500
v 0.085938 -0.051623 -0.062500
v 0.003906 -0.051623 -0.109375
v 0.003906 -0.075061 -0.109375
v 0.085938 -0.075061 -0.062500
v 0.089844 -0.075061 -0.050781
v 0.046875 -0.075061 -0.050781
v 0.046875 -0.051623 -0.050781
v 0.089844 -0.051623 -0.050781
v 0.089844 -0.075061 -0.054688
v 0.089844 -0.075061 -0.050781
v 0.089844 -0.051623 -0.050781
v 0.089844 -0.051623 -0.054688
v -0.027344 -0.075061 -0.070312
v 0.027344 -0.075061 -0.070312
v 0.003906 -0.075061 -0.109375
v -0.003906 -0.075061 -0.109375
v -0.062500 -0.059435 -0.035156
v -0.113281 -0.059435 -0.035156
v -0.113281 -0.121935 -0.035156
v -0.062500 -0.121935 -0.035156
v 0.113281 -0.121935 -0.035156
v 0.113281 -0.059435 -0.035156
v 0.062500 -0.059435 -0.035156
v 0.062500 -0.121935 -0.035156
v -0.093750 -0.129748 -0.035156
v -0.062500 -0.121935 -0.035156
v -0.113281 -0.121935 -0.035156
v -0.109375 -0.129748 -0.035156
v 0.113281 -0.121935 -0.035156
v 0.062500 -0.121935 -0.035156
v 0.093750 -0.129748 -0.035156
v 0.109375 -0.129748 -0.035156
v -0.003906 -0.129748 -0.125000
v 0.000000 -0.129748 -0.128906
v 0.000000 -0.129748 -0.105469
v -0.003906 -0.129748 -0.105469
v -0.109375 -0.129748 -0.050781
v -0.101562 -0.129748 -0.066406
v -0.085938 -0.129748 -0.054688
v -0.089844 -0.129748 -0.042969
v -0.109375 -0.129748 -0.035156
v -0.109375 -0.129748 -0.050781
v -0.089844 -0.129748 -0.042969
v -0.093750 -0.129748 -0.035156
v 0.003906 -0.129748 -0.105469
v 0.003906 -0.129748 -0.125000
v 0.101562 -0.129748 -0.066406
v 0.085938 -0.129748 -0.054688
v 0.093750 -0.129748 -0.035156
v 0.089844 -0.129748 -0.042969
v 0.109375 -0.129748 -0.050781
v 0.109375 -0.129748 -0.035156
v -0.101562 -0.129748 -0.066406
v -0.003906 -0.129748 -0.125000
v -0.003906 -0.129748 -0.105469
v -0.085938 -0.129748 -0.054688
v 0.000000 -0.129748 -0.128906
v 0.003906 -0.129748 -0.125000
v 0.003906 -0.129748 -0.105469
v 0.000000 -0.129748 -0.105469
v 0.085938 -0.129748 -0.054688
v 0.101562 -0.129748 -0.066406
v 0.109375 -0.129748 -0.050781
v 0.089844 -0.129748 -0.042969
v -0.085938 -0.141467 -0.054688
v -0.003906 -0.141467 -0.105469
v -0.003906 -0.153185 -0.097656
v -0.082031 -0.153185 -0.046875
v -0.003906 -0.141467 -0.105469
v 0.000000 -0.141467 -0.105469
v 0.000000 -0.153185 -0.097656
v -0.003906 -0.153185 -0.097656
v -0.089844 -0.141467 -0.042969
v -0.085938 -0.141467 -0.054688
v -0.082031 -0.153185 -0.046875
v -0.085938 -0.153185 -0.035156
v -0.093750 -0.141467 -0.035156
v -0.089844 -0.141467 -0.042969
v -0.085938 -0.153185 -0.035156
v -0.085938 -0.153185 -0.035156
v 0.000000 -0.153185 -0.097656
v 0.000000 -0.141467 -0.105469
v 0.003906 -0.141467 -0.105469
v 0.003906 -0.153185 -0.097656
v 0.082031 -0.153185 -0.046875
v 0.085938 -0.141467 -0.054688
v 0.089844 -0.141467 -0.042969
v 0.085938 -0.153185 -0.035156
v 0.085938 -0.153185 -0.035156
v 0.089844 -0.141467 -0.042969
v 0.093750 -0.141467 -0.035156
v 0.085938 -0.153185 -0.035156
v 0.003906 -0.141467 -0.105469
v 0.085938 -0.141467 -0.054688
v 0.082031 -0.153185 -0.046875
v 0.003906 -0.153185 -0.097656
v -0.062500 -0.141467 -0.035156
v -0.062500 -0.153185 -0.035156
v -0.027344 -0.153185 -0.070312
v -0.027344 -0.141467 -0.070312
v -0.027344 -0.141467 -0.070312
v -0.027344 -0.153185 -0.070312
v 0.027344 -0.153185 -0.070312
v 0.027344 -0.141467 -0.070312
v 0.027344 -0.153185 -0.070312
v 0.062500 -0.153185 -0.035156
v 0.062500 -0.141467 -0.035156
v 0.027344 -0.141467 -0.070312
v -0.085938 -0.153185 -0.035156
v -0.085938 -0.153185 -0.035156
v -0.027344 -0.153185 -0.070312
v -0.062500 -0.153185 -0.035156
v -0.003906 -0.153185 -0.097656
v 0.003906 -0.153185 -0.097656
v 0.027344 -0.153185 -0.070312
v -0.027344 -0.153185 -0.070312
v 0.027344 -0.153185 -0.070312
v 0.085938 -0.153185 -0.035156
v 0.085938 -0.153185 -0.035156
v 0.062500 -0.153185 -0.035156
v -0.105469 -0.051623 -0.042969
v -0.089844 -0.051623 -0.054688
v -0.085938 -0.051623 -0.062500
v -0.097656 -0.051623 -0.058594
v -0.003906 -0.051623 -0.109375
v -0.011719 -0.051623 -0.113281
v -0.097656 -0.051623 -0.058594
v -0.085938 -0.051623 -0.062500
v -0.105469 -0.051623 -0.042969
v -0.089844 -0.051623 -0.050781
v -0.089844 -0.051623 -0.054688
v -0.105469 -0.051623 -0.042969
v -0.011719 -0.051623 -0.113281
v -0.003906 -0.051623 -0.109375
v 0.000000 -0.051623 -0.113281
v 0.000000 -0.051623 -0.117188
v -0.105469 -0.051623 -0.042969
v -0.062500 -0.051623 -0.042969
v -0.046875 -0.051623 -0.050781
v -0.089844 -0.051623 -0.050781
v 0.085938 -0.051623 -0.062500
v 0.089844 -0.051623 -0.054688
v 0.105469 -0.051623 -0.042969
v 0.097656 -0.051623 -0.058594
v 0.097656 -0.051623 -0.058594
v 0.011719 -0.051623 -0.113281
v 0.003906 -0.051623 -0.109375
v 0.085938 -0.051623 -0.062500
v 0.089844 -0.051623 -0.054688
v 0.089844 -0.051623 -0.050781
v 0.105469 -0.051623 -0.042969
v 0.105469 -0.051623 -0.042969
v 0.000000 -0.051623 -0.113281
v 0.003906 -0.051623 -0.109375
v 0.011719 -0.051623 -0.113281
v 0.000000 -0.051623 -0.117188
v 0.046875 -0.051623 -0.050781
v 0.062500 -0.051623 -0.042969
v 0.105469 -0.051623 -0.042969
v 0.089844 -0.051623 -0.050781
v 0.003906 -0.121935 0.128906
v 0.000000 -0.121935 0.128906
v 0.000000 -0.129748 0.125000
v 0.003906 -0.129748 0.125000
v 0.113281 -0.121935 0.050781
v 0.105469 -0.121935 0.066406
v 0.101562 -0.129748 0.062500
v 0.109375 -0.129748 0.046875
v 0.105469 -0.121935 0.066406
v 0.003906 -0.121935 0.128906
v 0.003906 -0.129748 0.125000
v 0.101562 -0.129748 0.062500
v 0.113281 -0.121935 0.031250
v 0.113281 -0.121935 0.050781
v 0.109375 -0.129748 0.046875
v 0.109375 -0.129748 0.031250
v 0.113281 -0.059435 0.050781
v 0.105469 -0.051623 0.042969
v 0.097656 -0.051623 0.058594
v 0.105469 -0.059435 0.066406
v 0.011719 -0.051623 0.113281
v 0.003906 -0.059435 0.128906
v 0.105469 -0.059435 0.066406
v 0.097656 -0.051623 0.058594
v 0.113281 -0.059435 0.031250
v 0.105469 -0.051623 0.042969
v 0.105469 -0.051623 0.042969
v 0.113281 -0.059435 0.050781
v 0.003906 -0.059435 0.128906
v 0.011719 -0.051623 0.113281
v 0.000000 -0.051623 0.113281
v 0.000000 -0.059435 0.128906
v 0.062500 -0.059435 0.031250
v 0.062500 -0.051623 0.042969
v 0.105469 -0.051623 0.042969
v 0.113281 -0.059435 0.031250
v 0.000000 -0.129748 0.125000
v 0.000000 -0.121935 0.128906
v -0.003906 -0.121935 0.128906
v -0.003906 -0.129748 0.125000
v -0.101562 -0.129748 0.062500
v -0.105469 -0.121935 0.066406
v -0.113281 -0.121935 0.050781
v -0.109375 -0.129748 0.046875
v -0.003906 -0.129748 0.125000
v -0.003906 -0.121935 0.128906
v -0.105469 -0.121935 0.066406
v -0.101562 -0.129748 0.062500
v -0.109375 -0.129748 0.046875
v -0.113281 -0.121935 0.050781
v -0.113281 -0.121935 0.031250
v -0.109375 -0.129748 0.031250
v -0.097656 -0.051623 0.058594
v -0.105469 -0.051623 0.042969
v -0.113281 -0.059435 0.050781
v -0.105469 -0.059435 0.066406
v -0.105469 -0.059435 0.066406
v -0.003906 -0.059435 0.128906
v -0.011719 -0.051623 0.113281
v -0.097656 -0.051623 0.058594
v -0.105469 -0.051623 0.042969
v -0.105469 -0.051623 0.042969
v -0.113281 -0.059435 0.031250
v -0.113281 -0.059435 0.050781
v 0.000000 -0.051623 0.113281
v -0.011719 -0.051623 0.113281
v -0.003906 -0.059435 0.128906
v 0.000000 -0.059435 0.128906
v -0.105469 -0.051623 0.042969
v -0.062500 -0.051623 0.042969
v -0.062500 -0.059435 0.031250
v -0.113281 -0.059435 0.031250
v 0.003906 -0.121935 0.128906
v 0.003906 -0.059435 0.128906
v 0.000000 -0.059435 0.128906
v 0.000000 -0.121935 0.128906
v 0.113281 -0.121935 0.050781
v 0.113281 -0.059435 0.050781
v 0.105469 -0.059435 0.066406
v 0.105469 -0.121935 0.066406
v 0.003906 -0.059435 0.128906
v 0.003906 -0.121935 0.128906
v 0.105469 -0.121935 0.066406
v 0.105469 -0.059435 0.066406
v 0.113281 -0.121935 0.050781
v 0.113281 -0.121935 0.031250
v 0.113281 -0.059435 0.031250
v 0.113281 -0.059435 0.050781
v 0.000000 -0.059435 0.128906
v -0.003906 -0.059435 0.128906
v -0.003906 -0.121935 0.128906
v 0.000000 -0.121935 0.128906
v -0.105469 -0.059435 0.066406
v -0.113281 -0.059435 0.050781
v -0.113281 -0.121935 0.050781
v -0.105469 -0.121935 0.066406
v -0.105469 -0.121935 0.066406
v -0.003906 -0.121935 0.128906
v -0.003906 -0.059435 0.128906
v -0.105469 -0.059435 0.066406
v -0.113281 -0.059435 0.031250
v -0.113281 -0.121935 0.031250
v -0.113281 -0.121935 0.050781
v -0.113281 -0.059435 0.050781
v 0.000000 -0.129748 0.105469
v 0.000000 -0.141467 0.105469
v 0.003906 -0.141467 0.101562
v 0.003906 -0.129748 0.101562
v 0.085938 -0.129748 0.050781
v 0.085938 -0.141467 0.050781
v 0.089844 -0.141467 0.039062
v 0.089844 -0.129748 0.039062
v 0.003906 -0.129748 0.101562
v 0.003906 -0.141467 0.101562
v 0.085938 -0.141467 0.050781
v 0.085938 -0.129748 0.050781
v 0.089844 -0.129748 0.039062
v 0.089844 -0.141467 0.039062
v 0.093750 -0.141467 0.031250
v 0.093750 -0.129748 0.031250
v -0.003906 -0.141467 0.101562
v 0.000000 -0.141467 0.105469
v 0.000000 -0.129748 0.105469
v -0.003906 -0.129748 0.101562
v -0.089844 -0.141467 0.039062
v -0.085938 -0.141467 0.050781
v -0.085938 -0.129748 0.050781
v -0.089844 -0.129748 0.039062
v -0.085938 -0.141467 0.050781
v -0.003906 -0.141467 0.101562
v -0.003906 -0.129748 0.101562
v -0.085938 -0.129748 0.050781
v -0.093750 -0.141467 0.031250
v -0.089844 -0.141467 0.039062
v -0.089844 -0.129748 0.039062
v -0.093750 -0.129748 0.031250
v 0.003906 -0.051623 0.109375
v 0.003906 -0.075061 0.109375
v 0.000000 -0.075061 0.109375
v 0.000000 -0.051623 0.109375
v 0.089844 -0.051623 0.054688
v 0.089844 -0.075061 0.054688
v 0.085938 -0.075061 0.062500
v 0.085938 -0.051623 0.062500
v 0.003906 -0.075061 0.109375
v 0.003906 -0.051623 0.109375
v 0.085938 -0.051623 0.062500
v 0.085938 -0.075061 0.062500
v 0.046875 -0.051623 0.050781
v 0.046875 -0.075061 0.050781
v 0.089844 -0.075061 0.046875
v 0.089844 -0.051623 0.046875
v 0.089844 -0.051623 0.046875
v 0.089844 -0.075061 0.046875
v 0.089844 -0.075061 0.054688
v 0.089844 -0.051623 0.054688
v 0.000000 -0.075061 0.109375
v -0.003906 -0.075061 0.109375
v -0.003906 -0.051623 0.109375
v 0.000000 -0.051623 0.109375
v -0.085938 -0.075061 0.062500
v -0.089844 -0.075061 0.054688
v -0.089844 -0.051623 0.054688
v -0.085938 -0.051623 0.062500
v -0.085938 -0.051623 0.062500
v -0.003906 -0.051623 0.109375
v -0.003906 -0.075061 0.109375
v -0.085938 -0.075061 0.062500
v -0.089844 -0.075061 0.046875
v -0.046875 -0.075061 0.050781
v -0.046875 -0.051623 0.050781
v -0.089844 -0.051623 0.046875
v -0.089844 -0.075061 0.054688
v -0.089844 -0.075061 0.046875
v -0.089844 -0.051623 0.046875
v -0.089844 -0.051623 0.054688
v 0.027344 -0.075061 0.070312
v -0.027344 -0.075061 0.070312
v -0.003906 -0.075061 0.109375
v 0.003906 -0.075061 0.109375
v 0.062500 -0.059435 0.031250
v 0.113281 -0.059435 0.031250
v 0.113281 -0.121935 0.031250
v 0.062500 -0.121935 0.031250
v -0.113281 -0.121935 0.031250
v -0.113281 -0.059435 0.031250
v -0.062500 -0.059435 0.031250
v -0.062500 -0.121935 0.031250
v 0.093750 -0.129748 0.031250
v 0.062500 -0.121935 0.031250
v 0.113281 -0.121935 0.031250
v 0.109375 -0.129748 0.031250
v -0.113281 -0.121935 0.031250
v -0.062500 -0.121935 0.031250
v -0.093750 -0.129748 0.031250
v -0.109375 -0.129748 0.031250
v 0.003906 -0.129748 0.125000
v 0.000000 -0.129748 0.125000
v 0.000000 -0.129748 0.105469
v 0.003906 -0.129748 0.101562
v 0.109375 -0.129748 0.046875
v 0.101562 -0.129748 0.062500
v 0.085938 -0.129748 0.050781
v 0.089844 -0.129748 0.039062
v 0.109375 -0.129748 0.031250
v 0.109375 -0.129748 0.046875
v 0.089844 -0.129748 0.039062
v 0.093750 -0.129748 0.031250
v -0.003906 -0.129748 0.101562
v -0.003906 -0.129748 0.125000
v -0.101562 -0.129748 0.062500
v -0.085938 -0.129748 0.050781
v -0.093750 -0.129748 0.031250
v -0.089844 -0.129748 0.039062
v -0.109375 -0.129748 0.046875
v -0.109375 -0.129748 0.031250
v 0.101562 -0.129748 0.062500
v 0.003906 -0.129748 0.125000
v 0.003906 -0.129748 0.101562
v 0.085938 -0.129748 0.050781
v 0.000000 -0.129748 0.125000
v -0.003906 -0.129748 0.125000
v -0.003906 -0.129748 0.101562
v 0.000000 -0.129748 0.105469
v -0.085938 -0.129748 0.050781
v -0.101562 -0.129748 0.062500
v -0.109375 -0.129748 0.046875
v -0.089844 -0.129748 0.039062
v 0.085938 -0.141467 0.050781
v 0.003906 -0.141467 0.101562
v 0.003906 -0.153185 0.097656
v 0.082031 -0.153185 0.046875
v 0.003906 -0.141467 0.101562
v 0.000000 -0.141467 0.105469
v 0.000000 -0.153185 0.097656
v 0.003906 -0.153185 0.097656
v 0.089844 -0.141467 0.039062
v 0.085938 -0.141467 0.050781
v 0.082031 -0.153185 0.046875
v 0.085938 -0.153185 0.035156
v 0.093750 -0.141467 0.031250
v 0.089844 -0.141467 0.039062
v 0.085938 -0.153185 0.035156
v 0.085938 -0.153185 0.031250
v 0.000000 -0.153185 0.097656
v 0.000000 -0.141467 0.105469
v -0.003906 -0.141467 0.101562
v -0.003906 -0.153185 0.097656
v -0.082031 -0.153185 0.046875
v -0.085938 -0.141467 0.050781
v -0.089844 -0.141467 0.039062
v -0.085938 -0.153185 0.035156
v -0.085938 -0.153185 0.035156
v -0.089844 -0.141467 0.039062
v -0.093750 -0.141467 0.031250
v -0.085938 -0.153185 0.031250
v -0.003906 -0.141467 0.101562
v -0.085938 -0.141467 0.050781
v -0.082031 -0.153185 0.046875
v -0.003906 -0.153185 0.097656
v 0.062500 -0.141467 0.031250
v 0.062500 -0.153185 0.031250
v 0.027344 -0.153185 0.070312
v 0.027344 -0.141467 0.070312
v 0.027344 -0.141467 0.070312
v 0.027344 -0.153185 0.070312
v -0.027344 -0.153185 0.070312
v -0.027344 -0.141467 0.070312
v -0.027344 -0.153185 0.070312
v -0.062500 -0.153185 0.031250
v -0.062500 -0.141467 0.031250
v -0.027344 -0.141467 0.070312
v 0.085938 -0.153185 0.031250
v 0.085938 -0.153185 0.035156
v 0.027344 -0.153185 0.070312
v 0.062500 -0.153185 0.031250
v 0.003906 -0.153185 0.097656
v -0.003906 -0.153185 0.097656
v -0.027344 -0.153185 0.070312
v 0.027344 -0.153185 0.070312
v -0.027344 -0.153185 0.070312
v -0.085938 -0.153185 0.035156
v -0.085938 -0.153185 0.031250
v -0.062500 -0.153185 0.031250
v 0.105469 -0.051623 0.042969
v 0.089844 -0.051623 0.054688
v 0.085938 -0.051623 0.062500
v 0.097656 -0.051623 0.058594
v 0.003906 -0.051623 0.109375
v 0.011719 -0.051623 0.113281
v 0.097656 -0.051623 0.058594
v 0.085938 -0.051623 0.062500
v 0.105469 -0.051623 0.042969
v 0.089844 -0.051623 0.046875
v 0.089844 -0.051623 0.054688
v 0.105469 -0.051623 0.042969
v 0.011719 -0.051623 0.113281
v 0.003906 -0.051623 0.109375
v 0.000000 -0.051623 0.109375
v 0.000000 -0.051623 0.113281
v 0.105469 -0.051623 0.042969
v 0.062500 -0.051623 0.042969
v 0.046875 -0.051623 0.050781
v 0.089844 -0.051623 0.046875
v -0.085938 -0.051623 0.062500
v -0.089844 -0.051623 0.054688
v -0.105469 -0.051623 0.042969
v -0.097656 -0.051623 0.058594
v -0.097656 -0.051623 0.058594
v -0.011719 -0.051623 0.113281
v -0.003906 -0.051623 0.109375
v -0.085938 -0.051623 0.062500
v -0.089844 -0.051623 0.054688
v -0.089844 -0.051623 0.046875
v -0.105469 -0.051623 0.042969
v -0.105469 -0.051623 0.042969
v 0.000000 -0.051623 0.109375
v -0.003906 -0.051623 0.109375
v -0.011719 -0.051623 0.113281
v 0.000000 -0.051623 0.113281
v -0.046875 -0.051623 0.050781
v -0.062500 -0.051623 0.042969
v -0.105469 -0.051623 0.042969
v -0.089844 -0.051623 0.046875
v 0.082031 -0.176623 -0.027344
v 0.082031 -0.196154 -0.027344
v 0.070312 -0.200061 -0.027344
v 0.070312 -0.176623 -0.027344
v -0.070312 -0.200061 -0.027344
v -0.082031 -0.196154 -0.027344
v -0.082031 -0.176623 -0.027344
v -0.070312 -0.176623 -0.027344
v -0.082031 -0.176623 0.027344
v -0.082031 -0.196154 0.027344
v -0.070312 -0.200061 0.027344
v -0.070312 -0.176623 0.027344
v 0.070312 -0.200061 0.027344
v 0.082031 -0.196154 0.027344
v 0.082031 -0.176623 0.027344
v 0.070312 -0.176623 0.027344
v -0.082031 -0.176623 -0.027344
v -0.082031 -0.176623 0.027344
v -0.070312 -0.176623 0.027344
v -0.070312 -0.176623 -0.027344
v 0.082031 -0.176623 0.027344
v 0.082031 -0.176623 -0.027344
v 0.070312 -0.176623 -0.027344
v 0.070312 -0.176623 0.027344
vn 0.7071 -0.0000 0.7071
vn 0.3333 0.6667 0.6666
vn -0.7071 -0.0000 0.7071
vn -0.3333 0.6667 0.6666
vn -0.0000 1.0000 -0.0000
vn -0.0000 -0.0000 1.0000
vn 0.0277 -0.7206 -0.6928
vn -0.0277 -0.7206 -0.6928
vn -0.0000 -1.0000 -0.0000
vn -0.7809 -0.0000 -0.6247
vn -0.2672 0.8018 -0.5345
vn 0.7809 -0.0000 -0.6247
vn 0.2672 0.8018 -0.5345
vn 0.0349 -0.2094 0.9772
vn -0.0349 -0.2094 0.9772
vn -0.0000 -0.0000 -1.0000
vn -0.0277 -0.7206 0.6928
vn 0.0277 -0.7206 0.6928
vn -1.0000 -0.0000 -0.0000
vn -0.6644 -0.0000 0.7474
vn 0.6644 -0.0000 0.7474
vn 1.0000 -0.0000 -0.0000
vn 0.7071 -0.0000 -0.7071
vn -0.7071 -0.0000 -0.7071
vn -0.8944 -0.0000 0.4472
vn -0.3163 -0.0000 0.9487
vn -0.8944 -0.0000 -0.4472
vn -0.5547 -0.0000 -0.8320
vn -0.1961 0.7844 0.5885
vn -0.1961 0.7844 0.5884
vn -0.1962 0.7845 0.5884
vn -0.5346 0.8017 0.2673
vn -0.5345 -0.8018 0.2672
vn -0.5345 -0.8018 0.2673
vn -0.1961 -0.7845 0.5884
vn -0.1961 -0.7845 0.5883
vn -0.0000 0.7071 0.7071
vn -0.0000 0.7070 -0.7072
vn -0.0000 -0.7071 -0.7071
vn -0.0000 -0.7072 0.7070
vn -0.6883 0.6882 -0.2294
vn -0.6458 0.7243 -0.2415
vn -0.5949 0.7625 -0.2542
vn -0.5346 0.8017 -0.2673
vn -0.1962 0.7844 -0.5884
vn -0.2645 0.7304 -0.6297
vn -0.4236 0.5665 -0.7069
vn -0.4851 0.4850 -0.7276
vn -0.1961 -0.7845 -0.5883
vn -0.4236 -0.5666 -0.7068
vn -0.2645 -0.7305 -0.6297
vn -0.4851 -0.4851 -0.7276
vn -0.6883 -0.6882 -0.2294
vn -0.5948 -0.7626 -0.2542
vn -0.6457 -0.7244 -0.2414
vn -0.5345 -0.8018 -0.2672
vn 0.7070 -0.7072 -0.0000
vn -0.7071 -0.7071 -0.0000
vn -0.7072 0.7070 -0.0000
vn 0.7071 0.7071 -0.0000
vn -0.0000 0.7070 0.7072
vn -0.0000 -0.7071 0.7071
vn 0.8944 -0.0000 -0.4472
vn 0.5547 -0.0000 -0.8320
vn 0.8944 -0.0000 0.4472
vn 0.3163 -0.0000 0.9487
vn 0.3016 0.3015 -0.9045
vn 0.3289 0.5421 -0.7733
vn 0.3317 0.7349 -0.5916
vn 0.3245 0.8110 -0.4867
vn 0.5884 0.7844 -0.1961
vn 0.6104 0.7575 -0.2315
vn 0.6369 0.7194 -0.2771
vn 0.6667 0.6666 -0.3334
vn 0.5883 -0.7845 -0.1961
vn 0.6368 -0.7195 -0.2771
vn 0.6103 -0.7576 -0.2315
vn 0.6667 -0.6667 -0.3333
vn 0.3016 -0.3016 -0.9045
vn 0.3316 -0.7350 -0.5915
vn 0.3289 -0.5422 -0.7732
vn 0.3245 -0.8111 -0.4867
vn 0.5346 0.8017 0.2673
vn 0.1961 0.7844 0.5884
vn 0.1962 0.7844 0.5884
vn 0.1961 -0.7845 0.5883
vn 0.5345 -0.8018 0.2672
vn -0.7070 -0.7072 -0.0000
vn 0.7071 -0.7071 -0.0000
vn 0.7072 0.7070 -0.0000
vn -0.7071 0.7071 -0.0000
vn 0.1924 -0.9623 -0.1924
vn 0.1861 -0.9642 -0.1889
vn 0.1589 -0.9719 -0.1737
vn 0.1499 -0.9742 -0.1686
vn -0.0000 -0.9701 -0.2425
vn -0.1924 -0.9623 -0.1924
vn -0.1589 -0.9719 -0.1737
vn -0.1861 -0.9642 -0.1889
vn -0.1499 -0.9742 -0.1686
vn -0.2425 -0.9701 -0.0000
vn -0.1622 -0.9733 0.1622
vn -0.0000 -0.9701 0.2425
vn 0.1622 -0.9733 0.1622
vn 0.2425 -0.9701 -0.0000
vn -0.3163 -0.9487 -0.0000
vn 0.3163 -0.9487 -0.0000
vn -0.6667 -0.3333 -0.6667
vn -0.8165 -0.4083 -0.4082
vn -0.8165 -0.4082 -0.4083
vn -0.4822 -0.3917 -0.7836
vn -0.4830 -0.3865 -0.7857
vn -0.4976 -0.2581 -0.8281
vn -0.4983 -0.2492 -0.8304
vn -0.8945 -0.4472 -0.0000
vn -0.5345 0.8018 -0.2673
vn -0.5345 0.8018 -0.2672
vn -0.3390 0.7627 -0.5508
vn -0.3170 0.8061 -0.4997
vn -0.3378 0.7652 -0.5480
vn -0.3149 0.8099 -0.4949
vn -0.3358 0.9419 -0.0000
vn -0.7069 0.7073 -0.0000
vn -0.1691 0.8452 -0.5071
vn -0.2080 0.8444 -0.4936
vn -0.3474 0.8295 -0.4372
vn -0.4082 0.8165 -0.4082
vn -0.0000 0.7072 0.7071
vn 0.6667 -0.3333 -0.6667
vn 0.8165 -0.4083 -0.4082
vn 0.8165 -0.4082 -0.4083
vn 0.4822 -0.3917 -0.7836
vn 0.4976 -0.2581 -0.8281
vn 0.4830 -0.3865 -0.7857
vn 0.4983 -0.2492 -0.8304
vn 0.8945 -0.4472 -0.0000
vn 0.5345 0.8018 -0.2673
vn 0.5345 0.8018 -0.2672
vn 0.3390 0.7627 -0.5508
vn 0.3378 0.7652 -0.5480
vn 0.3170 0.8061 -0.4997
vn 0.3149 0.8099 -0.4949
vn 0.7069 0.7073 -0.0000
vn 0.4362 0.4362 0.7871
vn 0.1691 0.8452 -0.5071
vn 0.3474 0.8295 -0.4372
vn 0.2080 0.8444 -0.4936
vn 0.4082 0.8165 -0.4082
vn -0.5241 -0.0000 -0.8517
vn 0.5241 -0.0000 -0.8517
vn -0.9487 -0.0000 -0.3162
vn -0.5263 -0.0000 -0.8503
vn -0.8945 -0.0000 -0.4472
vn 0.9487 -0.0000 -0.3162
vn 0.5263 -0.0000 -0.8503
vn 0.8945 -0.0000 -0.4472
vn 0.4961 -0.0000 0.8682
vn -0.4961 -0.0000 0.8682
vn -0.4579 -0.4932 -0.7397
vn -0.4565 -0.5020 -0.7346
vn -0.4400 -0.5865 -0.6800
vn -0.4379 -0.5952 -0.6737
vn -0.0000 -0.5547 -0.8320
vn -0.0000 -0.5548 -0.8320
vn -0.8392 -0.4663 -0.2797
vn -0.8392 -0.4663 -0.2798
vn -0.7682 -0.5122 -0.3841
vn 0.3271 0.2180 -0.9195
vn 0.0001 1.0000 -0.0000
vn 0.8392 -0.4663 -0.2797
vn 0.8392 -0.4663 -0.2798
vn 0.7682 -0.5122 -0.3841
vn 0.3482 0.9211 -0.1742
vn 0.4226 -0.5961 -0.6827
vn 0.4277 -0.5867 -0.6876
vn 0.4699 -0.5010 -0.7267
vn 0.4757 -0.4880 -0.7318
vn -0.0000 0.3253 -0.9456
vn -0.0000 1.0000 0.0001
vn -0.0000 0.1138 0.9935
vn -0.0000 -0.4472 0.8944
vn -0.0000 -0.4472 0.8945
vn 0.7428 -0.5571 0.3714
vn 0.7428 -0.5570 0.3714
vn 0.4822 -0.3917 0.7836
vn 0.4809 -0.4000 0.7802
vn 0.4459 -0.5600 0.6983
vn 0.4436 -0.5683 0.6930
vn 0.5345 0.8018 0.2673
vn 0.5345 0.8018 0.2672
vn 0.3390 0.7627 0.5508
vn 0.3170 0.8061 0.4997
vn 0.3378 0.7652 0.5480
vn 0.3149 0.8099 0.4949
vn 0.3647 0.9311 -0.0000
vn -0.0000 0.8944 0.4472
vn -0.0000 0.8321 -0.5547
vn -0.7428 -0.5571 0.3714
vn -0.7428 -0.5570 0.3714
vn -0.4822 -0.3917 0.7836
vn -0.4459 -0.5600 0.6983
vn -0.4809 -0.4000 0.7802
vn -0.4436 -0.5683 0.6930
vn -0.5345 0.8018 0.2673
vn -0.5345 0.8018 0.2672
vn -0.3390 0.7627 0.5508
vn -0.3378 0.7652 0.5480
vn -0.3170 0.8061 0.4997
vn -0.3149 0.8099 0.4949
vn -0.4761 0.4761 0.7394
vn 0.5241 -0.0000 0.8517
vn -0.5241 -0.0000 0.8517
vn 0.7072 -0.0000 0.7070
vn 0.9487 -0.0000 0.3162
vn 0.5263 -0.0000 0.8503
vn -0.7072 -0.0000 0.7070
vn -0.9487 -0.0000 0.3162
vn -0.5263 -0.0000 0.8503
vn -0.4961 -0.0000 -0.8682
vn 0.0905 -0.0000 0.9959
vn 0.4961 -0.0000 -0.8682
vn -0.0905 -0.0000 0.9959
vn 0.5064 -0.2727 0.8180
vn 0.5060 -0.2843 0.8144
vn 0.4964 -0.4065 0.7671
vn 0.4949 -0.4188 0.7614
vn 0.6397 -0.4264 0.6395
vn 0.1625 -0.3604 0.9185
vn 0.5553 -0.4236 0.7157
vn -0.0000 -0.3162 0.9487
vn 0.8741 -0.3886 0.2914
vn 0.8741 -0.3885 0.2914
vn 0.8165 -0.4082 0.4082
vn 0.8447 -0.5176 0.1366
vn 0.8323 -0.4445 0.3311
vn 0.8321 -0.5547 -0.0000
vn -0.6397 -0.4264 0.6395
vn -0.5553 -0.4236 0.7157
vn -0.1625 -0.3604 0.9185
vn -0.8741 -0.3886 0.2914
vn -0.8741 -0.3885 0.2914
vn -0.8165 -0.4082 0.4082
vn -0.8323 -0.4445 0.3311
vn -0.8447 -0.5176 0.1366
vn -0.8321 -0.5547 -0.0000
vn -0.4784 -0.4171 0.7728
vn -0.4824 -0.4061 0.7761
vn -0.5210 -0.2836 0.8051
vn -0.5249 -0.2692 0.8075
vn -0.7433 -0.0000 -0.6690
vn 0.7433 -0.0000 -0.6690
vn -0.0000 0.2459 0.9693
vt 0.598633 0.574951
vt 0.597656 0.575928
vt 0.597656 0.575439
vt 0.604492 0.574951
vt 0.605469 0.575928
vt 0.605469 0.575439
vt 0.601318 0.571289
vt 0.601807 0.571289
vt 0.601562 0.571045
vt 0.596191 0.574219
vt 0.595947 0.574707
vt 0.599854 0.573730
vt 0.595947 0.574951
vt 0.606934 0.574219
vt 0.607178 0.574707
vt 0.603271 0.573730
vt 0.607178 0.574951
vt 0.595703 0.575928
vt 0.596191 0.575928
vt 0.607422 0.575928
vt 0.606934 0.575928
vt 0.601807 0.572021
vt 0.601318 0.572021
vt 0.601562 0.572021
vt 0.596436 0.575195
vt 0.606689 0.575195
vt 0.604492 0.581299
vt 0.605469 0.580078
vt 0.605469 0.580811
vt 0.598633 0.581299
vt 0.597656 0.580078
vt 0.597656 0.580811
vt 0.601807 0.584961
vt 0.601318 0.584961
vt 0.601562 0.584961
vt 0.606934 0.582031
vt 0.607178 0.581543
vt 0.603271 0.582520
vt 0.607178 0.581055
vt 0.596191 0.582031
vt 0.595947 0.581543
vt 0.599854 0.582520
vt 0.595947 0.581055
vt 0.607422 0.580078
vt 0.606934 0.580078
vt 0.595703 0.580078
vt 0.596191 0.580078
vt 0.601318 0.584229
vt 0.601807 0.584229
vt 0.601562 0.584229
vt 0.606689 0.581055
vt 0.606934 0.580322
vt 0.596436 0.581055
vt 0.596191 0.580322
vt 0.604980 0.576660
vt 0.604980 0.579346
vt 0.602783 0.574707
vt 0.600342 0.574707
vt 0.598145 0.576660
vt 0.598145 0.579346
vt 0.600342 0.581543
vt 0.602783 0.581543
vt 0.605957 0.576416
vt 0.605957 0.579834
vt 0.597168 0.576416
vt 0.597168 0.579834
vt 0.596436 0.579834
vt 0.596436 0.576416
vt 0.606689 0.576416
vt 0.606689 0.579834
vt 0.591797 0.580811
vt 0.592041 0.581299
vt 0.592773 0.581543
vt 0.592041 0.580566
vt 0.592285 0.581055
vt 0.593018 0.580322
vt 0.593018 0.581299
vt 0.599121 0.581543
vt 0.597900 0.580078
vt 0.593262 0.580078
vt 0.597900 0.580322
vt 0.599121 0.581299
vt 0.591797 0.575439
vt 0.592041 0.574951
vt 0.592773 0.574463
vt 0.592041 0.575684
vt 0.593018 0.575684
vt 0.592285 0.574951
vt 0.593018 0.574707
vt 0.593262 0.575928
vt 0.599365 0.574463
vt 0.597900 0.575928
vt 0.598145 0.575684
vt 0.599121 0.574707
vt 0.611328 0.575439
vt 0.611084 0.574951
vt 0.610352 0.574463
vt 0.611084 0.575684
vt 0.610840 0.574951
vt 0.610107 0.575684
vt 0.610107 0.574707
vt 0.604004 0.574463
vt 0.605225 0.575928
vt 0.609863 0.575928
vt 0.605225 0.575684
vt 0.604004 0.574707
vt 0.611328 0.580811
vt 0.611084 0.581299
vt 0.610352 0.581543
vt 0.611084 0.580566
vt 0.610107 0.580322
vt 0.610840 0.581055
vt 0.610107 0.581299
vt 0.609863 0.580078
vt 0.603760 0.581543
vt 0.605225 0.580078
vt 0.604980 0.580322
vt 0.604004 0.581299
vt 0.601562 0.569824
vt 0.601562 0.570068
vt 0.601318 0.570068
vt 0.601318 0.570312
vt 0.594971 0.573975
vt 0.595215 0.573975
vt 0.594482 0.574951
vt 0.594727 0.574951
vt 0.594482 0.575928
vt 0.594727 0.575928
vt 0.594971 0.575439
vt 0.595459 0.574463
vt 0.600830 0.571045
vt 0.601562 0.570801
vt 0.601807 0.570068
vt 0.601807 0.570312
vt 0.608154 0.573975
vt 0.608643 0.574951
vt 0.607910 0.573975
vt 0.608398 0.574951
vt 0.608643 0.575928
vt 0.608398 0.575928
vt 0.608154 0.575439
vt 0.607666 0.574463
vt 0.602295 0.571045
vt 0.601562 0.571533
vt 0.601318 0.571533
vt 0.596191 0.574707
vt 0.595947 0.575439
vt 0.601807 0.571533
vt 0.606934 0.574707
vt 0.607178 0.575439
vt 0.601562 0.586182
vt 0.601562 0.585938
vt 0.601807 0.586182
vt 0.601807 0.585938
vt 0.608154 0.582275
vt 0.607910 0.582031
vt 0.608643 0.581299
vt 0.608398 0.581055
vt 0.608643 0.580078
vt 0.608398 0.580078
vt 0.608154 0.580811
vt 0.607666 0.581787
vt 0.602295 0.585205
vt 0.601562 0.585205
vt 0.601318 0.586182
vt 0.601318 0.585938
vt 0.594971 0.582275
vt 0.594482 0.581299
vt 0.595215 0.582031
vt 0.594727 0.581055
vt 0.594482 0.580078
vt 0.594727 0.580078
vt 0.594971 0.580811
vt 0.595459 0.581787
vt 0.600830 0.585205
vt 0.601562 0.584717
vt 0.601807 0.584473
vt 0.606934 0.581299
vt 0.607178 0.580566
vt 0.601318 0.584473
vt 0.596191 0.581299
vt 0.595947 0.580566
s 1
usemtl mat_0.001
f 1/1/1 2/1/1 3/2/1
f 4/3/2 5/2/2 6/1/2
f 7/2/1 8/2/1 9/1/1
f 10/4/3 11/5/3 12/4/3
f 13/6/4 14/4/4 15/5/4
f 16/5/3 17/4/3 18/5/3
f 19/7/5 20/8/5 21/9/5
f 22/10/5 23/11/5 24/1/5
f 25/12/5 26/10/5 27/1/5
f 28/11/5 29/13/5 30/1/5
f 31/12/5 32/7/5 33/10/5
f 34/14/5 35/4/5 36/15/5
f 37/16/5 38/4/5 39/14/5
f 40/15/5 41/4/5 42/17/5
f 43/16/5 44/14/5 45/8/5
f 46/18/6 47/2/6 48/18/6
f 49/19/6 50/2/6 51/18/6
f 52/19/6 53/2/6 54/2/6
f 55/20/6 56/20/6 57/5/6
f 58/21/6 59/20/6 60/5/6
f 61/21/6 62/5/6 63/5/6
f 64/2/6 65/2/6 66/19/6
f 67/5/6 68/21/6 69/5/6
f 70/22/7 71/23/8 72/24/5
f 73/25/9 74/12/9 75/19/9
f 76/23/9 77/12/9 78/25/9
f 79/26/9 80/21/9 81/16/9
f 82/22/9 83/26/9 84/16/9
f 85/27/10 86/27/10 87/28/10
f 88/29/11 89/28/11 90/27/11
f 91/28/10 92/28/10 93/27/10
f 94/30/12 95/31/12 96/30/12
f 97/32/13 98/30/13 99/31/13
f 100/31/12 101/30/12 102/31/12
f 103/33/14 104/34/15 105/35/5
f 106/36/5 107/37/5 108/27/5
f 109/38/5 110/36/5 111/27/5
f 112/37/5 113/39/5 114/27/5
f 115/38/5 116/33/5 117/36/5
f 118/40/5 119/30/5 120/41/5
f 121/42/5 122/30/5 123/40/5
f 124/41/5 125/30/5 126/43/5
f 127/42/5 128/40/5 129/34/5
f 130/44/16 131/28/16 132/44/16
f 133/45/16 134/28/16 135/44/16
f 136/45/16 137/28/16 138/28/16
f 139/46/16 140/46/16 141/31/16
f 142/47/16 143/46/16 144/31/16
f 145/47/16 146/31/16 147/31/16
f 148/28/16 149/28/16 150/45/16
f 151/31/16 152/47/16 153/31/16
f 154/48/17 155/49/18 156/50/5
f 157/51/9 158/38/9 159/52/9
f 160/49/9 161/38/9 162/51/9
f 163/53/9 164/54/9 165/42/9
f 166/48/9 167/53/9 168/42/9
f 170/55/19 171/56/19 169/55/19
f 171/56/19 172/56/19 169/55/19
f 174/55/20 175/57/20 173/55/20
f 175/57/20 176/57/20 173/55/20
f 178/58/6 179/58/6 177/57/6
f 179/58/6 180/57/6 177/57/6
f 182/59/21 183/59/21 181/58/21
f 183/59/21 184/58/21 181/58/21
f 186/60/22 187/60/22 185/59/22
f 187/60/22 188/59/22 185/59/22
f 190/60/23 191/61/23 189/60/23
f 191/61/23 192/61/23 189/60/23
f 194/62/16 195/61/16 193/62/16
f 195/61/16 196/61/16 193/62/16
f 198/62/24 199/56/24 197/62/24
f 199/56/24 200/56/24 197/62/24
f 202/63/22 203/64/22 201/63/22
f 203/64/22 204/64/22 201/63/22
f 206/63/23 207/16/23 205/63/23
f 207/16/23 208/16/23 205/63/23
f 210/16/23 211/63/23 209/16/23
f 211/63/23 212/63/23 209/16/23
f 214/12/16 215/16/16 213/12/16
f 215/16/16 216/16/16 213/12/16
f 218/12/16 219/16/16 217/12/16
f 219/16/16 220/16/16 217/12/16
f 222/12/24 223/12/24 221/65/24
f 223/12/24 224/65/24 221/65/24
f 226/65/24 227/12/24 225/65/24
f 227/12/24 228/12/24 225/65/24
f 230/66/19 231/65/19 229/66/19
f 231/65/19 232/65/19 229/66/19
f 234/67/19 235/68/19 233/67/19
f 235/68/19 236/68/19 233/67/19
f 238/42/3 239/66/3 237/42/3
f 239/66/3 240/66/3 237/42/3
f 242/42/3 243/66/3 241/42/3
f 243/66/3 244/66/3 241/42/3
f 246/38/6 247/42/6 245/38/6
f 247/42/6 248/42/6 245/38/6
f 250/38/6 251/42/6 249/38/6
f 251/42/6 252/42/6 249/38/6
f 254/38/1 255/64/1 253/38/1
f 255/64/1 256/64/1 253/38/1
f 258/38/1 259/64/1 257/38/1
f 259/64/1 260/64/1 257/38/1
f 262/69/22 263/70/22 261/69/22
f 263/70/22 264/70/22 261/69/22
f 266/71/25 267/72/25 265/71/25
f 267/72/25 268/72/25 265/71/25
f 270/72/26 271/73/26 269/72/26
f 271/73/26 272/73/26 269/72/26
f 274/74/5 275/75/5 273/76/5
f 275/75/5 276/77/5 273/76/5
f 278/74/9 279/76/9 277/75/9
f 279/76/9 280/77/9 277/75/9
f 282/78/6 283/78/6 281/73/6
f 283/78/6 284/73/6 281/73/6
f 286/79/16 287/80/16 285/79/16
f 287/80/16 288/80/16 285/79/16
f 290/81/5 291/76/5 289/82/5
f 291/76/5 292/77/5 289/82/5
f 294/81/9 295/82/9 293/76/9
f 295/82/9 296/77/9 293/76/9
f 298/83/27 299/83/27 297/84/27
f 299/83/27 300/84/27 297/84/27
f 302/84/28 303/84/28 301/85/28
f 303/84/28 304/85/28 301/85/28
f 306/86/5 307/87/5 305/88/5
f 307/87/5 308/89/5 305/88/5
f 310/86/9 311/88/9 309/87/9
f 311/88/9 312/89/9 309/87/9
f 314/74/9 315/86/9 313/76/9
f 315/86/9 316/87/9 313/76/9
f 318/80/22 319/90/22 317/80/22
f 319/90/22 320/90/22 317/80/22
f 322/71/19 323/83/19 321/71/19
f 323/83/19 324/83/19 321/71/19
f 326/74/5 327/76/5 325/86/5
f 327/76/5 328/87/5 325/86/5
f 330/91/16 331/85/16 329/91/16
f 331/85/16 332/85/16 329/91/16
f 334/92/6 335/92/6 333/90/6
f 335/92/6 336/90/6 333/90/6
f 338/93/5 339/94/5 337/87/5
f 339/94/5 340/89/5 337/87/5
f 342/93/9 343/87/9 341/94/9
f 343/87/9 344/89/9 341/94/9
f 346/75/29 347/72/30 345/77/30
f 347/72/30 348/73/31 345/77/30
f 350/74/32 351/71/32 349/75/32
f 351/71/32 352/72/32 349/75/32
f 354/74/33 355/75/33 353/71/33
f 355/75/33 356/72/34 353/71/33
f 358/75/35 359/77/36 357/72/36
f 359/77/36 360/73/36 357/72/36
f 362/82/37 363/77/37 361/78/37
f 363/77/37 364/73/37 361/78/37
f 366/81/38 367/79/38 365/76/38
f 367/79/38 368/80/38 365/76/38
f 370/81/39 371/76/39 369/79/39
f 371/76/39 372/80/39 369/79/39
f 374/82/40 375/78/40 373/77/40
f 375/78/40 376/73/40 373/77/40
f 378/88/41 379/84/42 377/86/43
f 379/84/42 380/83/44 377/86/43
f 382/89/45 383/85/46 381/88/47
f 383/85/46 384/84/48 381/88/47
f 386/89/49 387/88/50 385/85/51
f 387/88/50 388/84/52 385/85/51
f 390/88/53 391/86/54 389/84/55
f 391/86/54 392/83/56 389/84/55
f 394/76/57 395/87/57 393/80/57
f 395/87/57 396/90/57 393/80/57
f 398/71/58 399/83/58 397/74/58
f 399/83/58 400/86/58 397/74/58
f 402/71/59 403/74/59 401/83/59
f 403/74/59 404/86/59 401/83/59
f 406/76/60 407/80/60 405/87/60
f 407/80/60 408/90/60 405/87/60
f 410/93/61 411/87/61 409/92/61
f 411/87/61 412/90/61 409/92/61
f 414/94/38 415/91/38 413/89/38
f 415/91/38 416/85/38 413/89/38
f 418/94/39 419/89/39 417/91/39
f 419/89/39 420/85/39 417/91/39
f 422/93/62 423/92/62 421/87/62
f 423/92/62 424/90/62 421/87/62
f 426/95/63 427/96/63 425/95/63
f 427/96/63 428/96/63 425/95/63
f 430/96/64 431/97/64 429/96/64
f 431/97/64 432/97/64 429/96/64
f 434/98/5 435/99/5 433/100/5
f 435/99/5 436/101/5 433/100/5
f 438/98/9 439/100/9 437/99/9
f 439/100/9 440/101/9 437/99/9
f 442/102/16 443/102/16 441/97/16
f 443/102/16 444/97/16 441/97/16
f 446/103/6 447/104/6 445/103/6
f 447/104/6 448/104/6 445/103/6
f 450/105/5 451/100/5 449/106/5
f 451/100/5 452/101/5 449/106/5
f 454/105/9 455/106/9 453/100/9
f 455/106/9 456/101/9 453/100/9
f 458/107/65 459/107/65 457/108/65
f 459/107/65 460/108/65 457/108/65
f 462/108/66 463/108/66 461/109/66
f 463/108/66 464/109/66 461/109/66
f 466/110/5 467/111/5 465/112/5
f 467/111/5 468/113/5 465/112/5
f 470/110/9 471/112/9 469/111/9
f 471/112/9 472/113/9 469/111/9
f 474/98/9 475/110/9 473/100/9
f 475/110/9 476/111/9 473/100/9
f 478/104/19 479/114/19 477/104/19
f 479/114/19 480/114/19 477/104/19
f 482/95/22 483/107/22 481/95/22
f 483/107/22 484/107/22 481/95/22
f 486/98/5 487/100/5 485/110/5
f 487/100/5 488/111/5 485/110/5
f 490/115/6 491/109/6 489/115/6
f 491/109/6 492/109/6 489/115/6
f 494/116/16 495/116/16 493/114/16
f 495/116/16 496/114/16 493/114/16
f 498/117/5 499/118/5 497/111/5
f 499/118/5 500/113/5 497/111/5
f 502/117/9 503/111/9 501/118/9
f 503/111/9 504/113/9 501/118/9
f 506/99/67 507/96/68 505/101/69
f 507/96/68 508/97/70 505/101/69
f 510/98/71 511/95/72 509/99/73
f 511/95/72 512/96/74 509/99/73
f 514/98/75 515/99/76 513/95/77
f 515/99/76 516/96/78 513/95/77
f 518/99/79 519/101/80 517/96/81
f 519/101/80 520/97/82 517/96/81
f 522/106/38 523/101/38 521/102/38
f 523/101/38 524/97/38 521/102/38
f 526/105/61 527/103/61 525/100/61
f 527/103/61 528/104/61 525/100/61
f 530/105/62 531/100/62 529/103/62
f 531/100/62 532/104/62 529/103/62
f 534/106/39 535/102/39 533/101/39
f 535/102/39 536/97/39 533/101/39
f 538/112/83 539/108/83 537/110/83
f 539/108/83 540/107/83 537/110/83
f 542/113/84 543/109/84 541/112/85
f 543/109/84 544/108/85 541/112/85
f 546/113/86 547/112/86 545/109/86
f 547/112/86 548/108/86 545/109/86
f 550/112/87 551/110/87 549/108/87
f 551/110/87 552/107/87 549/108/87
f 554/100/88 555/111/88 553/104/88
f 555/111/88 556/114/88 553/104/88
f 558/95/89 559/107/89 557/98/89
f 559/107/89 560/110/89 557/98/89
f 562/95/90 563/98/90 561/107/90
f 563/98/90 564/110/90 561/107/90
f 566/100/91 567/104/91 565/111/91
f 567/104/91 568/114/91 565/111/91
f 570/117/38 571/111/38 569/116/38
f 571/111/38 572/114/38 569/116/38
f 574/118/37 575/115/37 573/113/37
f 575/115/37 576/109/37 573/113/37
f 578/118/40 579/113/40 577/115/40
f 579/113/40 580/109/40 577/115/40
f 582/117/39 583/116/39 581/111/39
f 583/116/39 584/114/39 581/111/39
f 586/63/92 587/55/93 585/16/94
f 587/55/93 588/57/95 585/16/94
f 590/12/96 591/16/96 589/58/96
f 591/16/96 592/57/96 589/58/96
f 594/65/97 595/12/98 593/59/99
f 595/12/98 596/58/100 593/59/99
f 598/66/101 599/65/101 597/60/101
f 599/65/101 600/59/101 597/60/101
f 602/66/102 603/60/102 601/42/102
f 603/60/102 604/61/102 601/42/102
f 606/38/103 607/42/103 605/62/103
f 607/42/103 608/61/103 605/62/103
f 610/64/104 611/38/104 609/56/104
f 611/38/104 612/62/104 609/56/104
f 614/63/105 615/64/105 613/55/105
f 615/64/105 616/56/105 613/55/105
f 618/64/5 619/56/5 617/38/5
f 619/56/5 620/62/5 617/38/5
f 622/38/5 623/62/5 621/42/5
f 623/62/5 624/61/5 621/42/5
f 626/66/5 627/42/5 625/60/5
f 627/42/5 628/61/5 625/60/5
f 630/66/5 631/60/5 629/65/5
f 631/60/5 632/59/5 629/65/5
f 634/65/5 635/59/5 633/12/5
f 635/59/5 636/58/5 633/12/5
f 638/12/5 639/58/5 637/16/5
f 639/58/5 640/57/5 637/16/5
f 642/63/5 643/16/5 641/55/5
f 643/16/5 644/57/5 641/55/5
f 646/63/5 647/55/5 645/64/5
f 647/55/5 648/56/5 645/64/5
f 650/67/106 651/68/106 649/66/106
f 651/68/106 652/65/106 649/66/106
f 654/69/107 655/70/107 653/63/107
f 655/70/107 656/64/107 653/63/107
f 658/119/108 659/120/108 657/121/108
f 659/120/108 660/122/108 657/121/108
f 662/123/109 663/124/109 661/125/110
f 663/124/109 664/126/110 661/125/110
f 666/121/111 667/122/112 665/123/113
f 667/122/112 668/124/114 665/123/113
f 670/125/115 671/126/115 669/127/115
f 671/126/115 672/128/115 669/127/115
f 674/129/116 675/130/116 673/125/116
f 675/130/116 676/123/117 673/125/116
f 678/121/118 679/123/119 677/131/120
f 679/123/119 680/130/121 677/131/120
f 682/129/16 683/129/122 681/127/123
f 683/129/122 684/125/91 681/127/123
f 686/131/124 687/132/125 685/121/126
f 687/132/125 688/119/127 685/121/126
f 690/3/128 691/129/128 689/2/128
f 691/129/128 692/127/128 689/2/128
f 694/119/129 695/133/129 693/120/129
f 695/133/129 696/134/129 693/120/129
f 698/135/130 699/136/131 697/137/130
f 699/136/131 700/138/131 697/137/130
f 702/133/132 703/135/133 701/134/134
f 703/135/133 704/137/135 701/134/134
f 706/136/136 707/139/136 705/138/136
f 707/139/136 708/140/136 705/138/136
f 710/141/137 711/136/137 709/142/137
f 711/136/137 712/135/138 709/142/137
f 714/133/139 715/143/140 713/135/141
f 715/143/140 716/142/142 713/135/141
f 718/141/5 719/139/143 717/141/144
f 719/139/143 720/136/60 717/141/144
f 722/143/145 723/133/146 721/132/147
f 723/133/146 724/119/148 721/132/147
f 726/6/128 727/5/128 725/141/128
f 727/5/128 728/139/128 725/141/128
f 730/121/24 731/119/24 729/121/24
f 731/119/24 732/119/24 729/121/24
f 734/125/27 735/123/27 733/125/27
f 735/123/27 736/123/27 733/125/27
f 738/121/149 739/123/149 737/121/149
f 739/123/149 740/123/149 737/121/149
f 742/127/19 743/127/19 741/125/19
f 743/127/19 744/125/19 741/125/19
f 746/133/23 747/133/23 745/119/23
f 747/133/23 748/119/23 745/119/23
f 750/136/63 751/136/63 749/135/63
f 751/136/63 752/135/63 749/135/63
f 754/133/150 755/133/150 753/135/150
f 755/133/150 756/135/150 753/135/150
f 758/139/22 759/136/22 757/139/22
f 759/136/22 760/136/22 757/139/22
f 762/144/16 763/145/16 761/144/16
f 763/145/16 764/145/16 761/144/16
f 766/146/151 767/147/151 765/146/151
f 767/147/151 768/147/151 765/146/151
f 770/145/152 771/146/152 769/145/152
f 771/146/152 772/146/152 769/145/152
f 774/147/153 775/18/153 773/147/153
f 775/18/153 776/18/153 773/147/153
f 778/144/16 779/144/16 777/148/16
f 779/144/16 780/148/16 777/148/16
f 782/149/154 783/149/154 781/150/154
f 783/149/154 784/150/154 781/150/154
f 786/148/155 787/148/155 785/149/155
f 787/148/155 788/149/155 785/149/155
f 790/150/156 791/150/156 789/20/156
f 791/150/156 792/20/156 789/20/156
f 794/7/1 795/9/1 793/7/1
f 795/9/1 796/9/1 793/7/1
f 798/11/65 799/10/65 797/11/65
f 799/10/65 800/10/65 797/11/65
f 802/7/157 803/10/157 801/7/157
f 803/10/157 804/10/157 801/7/157
f 806/1/16 807/13/16 805/1/16
f 807/13/16 808/13/16 805/1/16
f 810/13/22 811/11/22 809/13/22
f 811/11/22 812/11/22 809/13/22
f 814/8/3 815/8/3 813/9/3
f 815/8/3 816/9/3 813/9/3
f 818/15/25 819/15/25 817/14/25
f 819/15/25 820/14/25 817/14/25
f 822/8/158 823/8/158 821/14/158
f 823/8/158 824/14/158 821/14/158
f 826/4/16 827/4/16 825/17/16
f 827/4/16 828/17/16 825/17/16
f 830/17/19 831/17/19 829/15/19
f 831/17/19 832/15/19 829/15/19
f 834/16/5 835/8/5 833/12/5
f 835/8/5 836/7/5 833/12/5
f 838/127/6 839/127/6 837/2/6
f 839/127/6 840/2/6 837/2/6
f 842/139/6 843/5/6 841/139/6
f 843/5/6 844/5/6 841/139/6
f 846/2/6 847/127/6 845/18/6
f 847/127/6 848/128/6 845/18/6
f 850/5/6 851/20/6 849/139/6
f 851/20/6 852/140/6 849/139/6
f 854/120/9 855/144/9 853/122/9
f 855/144/9 856/145/9 853/122/9
f 858/124/9 859/146/9 857/126/9
f 859/146/9 860/147/9 857/126/9
f 862/126/9 863/147/9 861/128/9
f 863/147/9 864/18/9 861/128/9
f 866/134/9 867/137/9 865/148/9
f 867/137/9 868/149/9 865/148/9
f 870/150/9 871/138/9 869/20/9
f 871/138/9 872/140/9 869/20/9
f 874/122/9 875/145/9 873/124/9
f 875/145/9 876/146/9 873/124/9
f 878/134/9 879/148/9 877/120/9
f 879/148/9 880/144/9 877/120/9
f 882/137/9 883/138/9 881/149/9
f 883/138/9 884/150/9 881/149/9
f 886/145/159 887/23/160 885/146/161
f 887/23/160 888/25/162 885/146/161
f 890/144/163 891/24/164 889/145/163
f 891/24/164 892/23/164 889/145/163
f 894/146/165 895/25/166 893/147/165
f 895/25/166 896/19/166 893/147/165
f 898/147/167 899/19/168 897/18/167
f 899/19/168 900/19/169 897/18/167
f 902/144/163 903/148/163 901/24/164
f 903/148/163 904/22/164 901/24/164
f 906/149/170 907/150/170 905/26/171
f 907/150/170 908/21/171 905/26/171
f 910/150/172 911/20/172 909/21/173
f 911/20/172 912/21/16 909/21/173
f 914/149/174 915/26/175 913/148/176
f 915/26/175 916/22/177 913/148/176
f 918/2/1 919/12/1 917/2/1
f 919/12/1 920/12/1 917/2/1
f 922/12/6 923/16/6 921/12/6
f 923/16/6 924/16/6 921/12/6
f 926/5/3 927/5/3 925/16/3
f 927/5/3 928/16/3 925/16/3
f 930/19/5 931/12/9 929/19/178
f 931/12/9 932/2/9 929/19/178
f 934/22/9 935/16/9 933/23/9
f 935/16/9 936/12/9 933/23/9
f 938/21/16 939/21/179 937/16/9
f 939/21/179 940/5/9 937/16/9
f 942/11/5 943/10/5 941/129/5
f 943/10/5 944/130/5 941/129/5
f 946/131/5 947/130/5 945/7/5
f 947/130/5 948/10/5 945/7/5
f 950/13/5 951/11/5 949/129/5
f 951/11/5 952/129/6 949/129/5
f 954/7/5 955/9/5 953/131/5
f 955/9/5 956/132/5 953/131/5
f 958/3/5 959/1/5 957/129/5
f 959/1/5 960/13/5 957/129/5
f 962/15/5 963/141/5 961/14/5
f 963/141/5 964/142/5 961/14/5
f 966/143/5 967/8/5 965/142/5
f 967/8/5 968/14/5 965/142/5
f 970/17/5 971/141/180 969/15/5
f 971/141/180 972/141/5 969/15/5
f 974/8/5 975/143/5 973/9/5
f 975/143/5 976/132/5 973/9/5
f 978/6/5 979/141/5 977/4/5
f 979/141/5 980/17/5 977/4/5
f 982/151/181 983/152/182 981/153/182
f 983/152/182 984/154/182 981/153/182
f 986/155/183 987/156/183 985/157/183
f 987/156/183 988/158/184 985/157/183
f 990/153/185 991/154/186 989/155/187
f 991/154/186 992/156/188 989/155/187
f 994/157/136 995/158/136 993/159/136
f 995/158/136 996/160/136 993/159/136
f 998/161/189 999/162/189 997/157/189
f 999/162/189 1000/155/190 997/157/189
f 1002/153/191 1003/155/192 1001/163/193
f 1003/155/192 1004/162/194 1001/163/193
f 1006/161/6 1007/161/195 1005/159/60
f 1007/161/195 1008/157/60 1005/159/60
f 1010/163/196 1011/164/196 1009/153/196
f 1011/164/196 1012/151/196 1009/153/196
f 1014/29/197 1015/161/197 1013/28/197
f 1015/161/197 1016/159/197 1013/28/197
f 1018/151/181 1019/165/182 1017/152/182
f 1019/165/182 1020/166/182 1017/152/182
f 1022/167/198 1023/168/198 1021/169/198
f 1023/168/198 1024/170/199 1021/169/198
f 1026/165/200 1027/167/201 1025/166/202
f 1027/167/201 1028/169/203 1025/166/202
f 1030/168/115 1031/171/115 1029/170/115
f 1031/171/115 1032/172/115 1029/170/115
f 1034/173/204 1035/168/204 1033/174/204
f 1035/168/204 1036/167/205 1033/174/204
f 1038/165/206 1039/175/207 1037/167/208
f 1039/175/207 1040/174/209 1037/167/208
f 1042/173/169 1043/171/91 1041/173/210
f 1043/171/91 1044/168/91 1041/173/210
f 1046/175/196 1047/165/196 1045/164/196
f 1047/165/196 1048/151/196 1045/164/196
f 1050/32/197 1051/31/197 1049/173/197
f 1051/31/197 1052/171/197 1049/173/197
f 1054/153/6 1055/151/6 1053/153/6
f 1055/151/6 1056/151/6 1053/153/6
f 1058/157/65 1059/155/65 1057/157/65
f 1059/155/65 1060/155/65 1057/157/65
f 1062/153/211 1063/155/211 1061/153/211
f 1063/155/211 1064/155/211 1061/153/211
f 1066/159/22 1067/159/22 1065/157/22
f 1067/159/22 1068/157/22 1065/157/22
f 1070/165/6 1071/165/6 1069/151/6
f 1071/165/6 1072/151/6 1069/151/6
f 1074/168/25 1075/168/25 1073/167/25
f 1075/168/25 1076/167/25 1073/167/25
f 1078/165/212 1079/165/212 1077/167/212
f 1079/165/212 1080/167/212 1077/167/212
f 1082/171/19 1083/168/19 1081/171/19
f 1083/168/19 1084/168/19 1081/171/19
f 1086/176/213 1087/177/213 1085/176/213
f 1087/177/213 1088/177/213 1085/176/213
f 1090/178/214 1091/179/214 1089/178/214
f 1091/179/214 1092/179/214 1089/178/214
f 1094/177/215 1095/178/215 1093/177/215
f 1095/178/215 1096/178/215 1093/177/215
f 1098/179/65 1099/44/65 1097/179/65
f 1099/44/65 1100/44/65 1097/179/65
f 1102/176/216 1103/176/216 1101/180/216
f 1103/176/216 1104/180/216 1101/180/216
f 1106/181/217 1107/181/217 1105/182/217
f 1107/181/217 1108/182/217 1105/182/217
f 1110/180/218 1111/180/218 1109/181/218
f 1111/180/218 1112/181/218 1109/181/218
f 1114/182/25 1115/182/25 1113/46/25
f 1115/182/25 1116/46/25 1113/46/25
f 1118/33/16 1119/35/16 1117/33/16
f 1119/35/16 1120/35/16 1117/33/16
f 1122/37/27 1123/36/27 1121/37/27
f 1123/36/27 1124/36/27 1121/37/27
f 1126/33/219 1127/36/219 1125/33/219
f 1127/36/219 1128/36/219 1125/33/219
f 1130/27/220 1131/39/220 1129/27/220
f 1131/39/220 1132/39/220 1129/27/220
f 1134/39/19 1135/37/19 1133/39/19
f 1135/37/19 1136/37/19 1133/39/19
f 1138/34/16 1139/34/16 1137/35/16
f 1139/34/16 1140/35/16 1137/35/16
f 1142/41/63 1143/41/63 1141/40/63
f 1143/41/63 1144/40/63 1141/40/63
f 1146/34/221 1147/34/221 1145/40/221
f 1147/34/221 1148/40/221 1145/40/221
f 1150/30/222 1151/30/222 1149/43/222
f 1151/30/222 1152/43/222 1149/43/222
f 1154/43/22 1155/43/22 1153/41/22
f 1155/43/22 1156/41/22 1153/41/22
f 1158/42/5 1159/34/5 1157/38/5
f 1159/34/5 1160/33/5 1157/38/5
f 1162/159/16 1163/159/16 1161/28/16
f 1163/159/16 1164/28/16 1161/28/16
f 1166/171/16 1167/31/16 1165/171/16
f 1167/31/16 1168/31/16 1165/171/16
f 1170/28/16 1171/159/16 1169/44/16
f 1171/159/16 1172/160/16 1169/44/16
f 1174/31/16 1175/46/16 1173/171/16
f 1175/46/16 1176/172/16 1173/171/16
f 1178/152/9 1179/176/9 1177/154/9
f 1179/176/9 1180/177/9 1177/154/9
f 1182/156/9 1183/178/9 1181/158/9
f 1183/178/9 1184/179/9 1181/158/9
f 1186/158/9 1187/179/9 1185/160/9
f 1187/179/9 1188/44/9 1185/160/9
f 1190/166/9 1191/169/9 1189/180/9
f 1191/169/9 1192/181/9 1189/180/9
f 1194/182/9 1195/170/9 1193/46/9
f 1195/170/9 1196/172/9 1193/46/9
f 1198/154/9 1199/177/9 1197/156/9
f 1199/177/9 1200/178/9 1197/156/9
f 1202/166/9 1203/180/9 1201/152/9
f 1203/180/9 1204/176/9 1201/152/9
f 1206/169/9 1207/170/9 1205/181/9
f 1207/170/9 1208/182/9 1205/181/9
f 1210/177/223 1211/49/224 1209/178/225
f 1211/49/224 1212/51/226 1209/178/225
f 1214/176/227 1215/50/228 1213/177/229
f 1215/50/228 1216/49/230 1213/177/229
f 1218/178/231 1219/51/232 1217/179/232
f 1219/51/232 1220/52/232 1217/179/232
f 1222/179/233 1223/52/234 1221/44/235
f 1223/52/234 1224/45/236 1221/44/235
f 1226/176/237 1227/180/238 1225/50/239
f 1227/180/238 1228/48/230 1225/50/239
f 1230/181/240 1231/182/241 1229/53/241
f 1231/182/241 1232/54/241 1229/53/241
f 1234/182/242 1235/46/243 1233/54/244
f 1235/46/243 1236/47/245 1233/54/244
f 1238/181/246 1239/53/247 1237/180/248
f 1239/53/247 1240/48/249 1237/180/248
f 1242/28/250 1243/38/250 1241/28/250
f 1243/38/250 1244/38/250 1241/28/250
f 1246/38/16 1247/42/16 1245/38/16
f 1247/42/16 1248/42/16 1245/38/16
f 1250/31/251 1251/31/251 1249/42/251
f 1251/31/251 1252/42/251 1249/42/251
f 1254/52/9 1255/38/9 1253/45/9
f 1255/38/9 1256/28/9 1253/45/9
f 1258/48/9 1259/42/9 1257/49/9
f 1259/42/9 1260/38/9 1257/49/9
f 1262/54/9 1263/47/9 1261/42/9
f 1263/47/9 1264/31/9 1261/42/9
f 1266/37/5 1267/36/5 1265/161/5
f 1267/36/5 1268/162/5 1265/161/5
f 1270/163/5 1271/162/5 1269/33/5
f 1271/162/5 1272/36/5 1269/33/5
f 1274/39/5 1275/37/5 1273/161/5
f 1275/37/5 1276/161/6 1273/161/5
f 1278/33/5 1279/35/5 1277/163/5
f 1279/35/5 1280/164/5 1277/163/5
f 1282/29/5 1283/27/5 1281/161/5
f 1283/27/5 1284/39/5 1281/161/5
f 1286/41/5 1287/173/5 1285/40/5
f 1287/173/5 1288/174/5 1285/40/5
f 1290/175/5 1291/34/5 1289/174/5
f 1291/34/5 1292/40/5 1289/174/5
f 1294/43/5 1295/173/252 1293/41/5
f 1295/173/252 1296/173/5 1293/41/5
f 1298/34/5 1299/175/5 1297/35/5
f 1299/175/5 1300/164/5 1297/35/5
f 1302/32/5 1303/173/5 1301/30/5
f 1303/173/5 1304/43/5 1301/30/5
f 1306/69/16 1307/63/16 1305/69/16
f 1307/63/16 1308/63/16 1305/69/16
f 1310/68/16 1311/68/16 1309/65/16
f 1311/68/16 1312/65/16 1309/65/16
f 1314/67/6 1315/66/6 1313/67/6
f 1315/66/6 1316/66/6 1313/67/6
f 1318/70/6 1319/70/6 1317/64/6
f 1319/70/6 1320/64/6 1317/64/6
f 1322/67/5 1323/66/5 1321/68/5
f 1323/66/5 1324/65/5 1321/68/5
f 1326/69/5 1327/63/5 1325/70/5
f 1327/63/5 1328/64/5 1325/70/5
