# Blender 3.6.5
# www.blender.org
mtllib rf.mtl
o mesh_519
v 0.031250 -0.011719 0.089844
v 0.031250 -0.003906 0.078125
v 0.031250 0.000000 0.078125
v 0.031250 0.000000 0.089844
v -0.031250 0.000000 0.078125
v -0.031250 -0.003906 0.078125
v -0.031250 -0.011719 0.093750
v -0.031250 0.000000 0.093750
v 0.031250 -0.027344 0.046875
v 0.031250 -0.003906 0.046875
v 0.031250 -0.003906 0.078125
v 0.031250 -0.027344 0.078125
v -0.031250 -0.003906 0.078125
v -0.031250 -0.003906 0.046875
v -0.031250 -0.027344 0.046875
v -0.031250 -0.027344 0.078125
v -0.031250 -0.011719 -0.089844
v -0.031250 -0.003906 -0.078125
v -0.031250 0.000000 -0.078125
v -0.031250 0.000000 -0.089844
v 0.031250 0.000000 -0.078125
v 0.031250 -0.003906 -0.078125
v 0.031250 -0.011719 -0.093750
v 0.031250 0.000000 -0.093750
v -0.031250 -0.027344 -0.046875
v -0.031250 -0.003906 -0.046875
v -0.031250 -0.003906 -0.078125
v -0.031250 -0.027344 -0.078125
v 0.031250 -0.003906 -0.078125
v 0.031250 -0.003906 -0.046875
v 0.031250 -0.027344 -0.046875
v 0.031250 -0.027344 -0.078125
v 0.031250 -0.054688 -0.050781
v 0.031250 0.000000 -0.050781
v 0.050781 0.000000 -0.031250
v 0.050781 -0.054688 -0.031250
v 0.050781 -0.054688 -0.031250
v 0.050781 0.000000 -0.031250
v 0.058594 0.000000 -0.011719
v 0.058594 -0.054688 -0.011719
v 0.058594 0.000000 -0.011719
v 0.058594 0.000000 0.011719
v 0.058594 -0.054688 0.011719
v 0.058594 -0.054688 -0.011719
v 0.058594 0.000000 0.011719
v 0.050781 0.000000 0.031250
v 0.050781 -0.054688 0.031250
v 0.058594 -0.054688 0.011719
v -0.031250 0.000000 0.050781
v -0.050781 0.000000 0.031250
v -0.050781 -0.054688 0.031250
v -0.031250 -0.054688 0.050781
v -0.050781 0.000000 0.031250
v -0.058594 0.000000 0.011719
v -0.058594 -0.054688 0.011719
v -0.050781 -0.054688 0.031250
v -0.058594 -0.054688 0.011719
v -0.058594 0.000000 0.011719
v -0.058594 0.000000 -0.011719
v -0.058594 -0.054688 -0.011719
v -0.058594 -0.054688 -0.011719
v -0.058594 0.000000 -0.011719
v -0.050781 0.000000 -0.031250
v -0.050781 -0.054688 -0.031250
v 0.003906 -0.062500 -0.035156
v -0.003906 -0.062500 -0.035156
v -0.007812 -0.062500 -0.054688
v 0.007812 -0.062500 -0.054688
v 0.019531 -0.062500 -0.031250
v 0.003906 -0.062500 -0.035156
v 0.007812 -0.062500 -0.054688
v 0.027344 -0.062500 -0.042969
v 0.031250 -0.062500 -0.019531
v 0.019531 -0.062500 -0.031250
v 0.027344 -0.062500 -0.042969
v 0.042969 -0.062500 -0.027344
v 0.035156 -0.062500 -0.003906
v 0.031250 -0.062500 -0.019531
v 0.042969 -0.062500 -0.027344
v 0.054688 -0.062500 -0.007812
v 0.054688 -0.062500 0.007812
v 0.035156 -0.062500 0.003906
v 0.035156 -0.062500 -0.003906
v 0.054688 -0.062500 -0.007812
v 0.042969 -0.062500 0.027344
v 0.031250 -0.062500 0.019531
v 0.035156 -0.062500 0.003906
v 0.054688 -0.062500 0.007812
v 0.027344 -0.062500 0.042969
v 0.019531 -0.062500 0.031250
v 0.031250 -0.062500 0.019531
v 0.042969 -0.062500 0.027344
v 0.007812 -0.062500 0.054688
v 0.003906 -0.062500 0.035156
v 0.019531 -0.062500 0.031250
v 0.027344 -0.062500 0.042969
v -0.007812 -0.062500 0.054688
v -0.003906 -0.062500 0.035156
v 0.003906 -0.062500 0.035156
v 0.007812 -0.062500 0.054688
v -0.027344 -0.062500 0.042969
v -0.019531 -0.062500 0.031250
v -0.003906 -0.062500 0.035156
v -0.007812 -0.062500 0.054688
v -0.042969 -0.062500 0.027344
v -0.031250 -0.062500 0.019531
v -0.019531 -0.062500 0.031250
v -0.027344 -0.062500 0.042969
v -0.054688 -0.062500 0.007812
v -0.035156 -0.062500 0.003906
v -0.031250 -0.062500 0.019531
v -0.042969 -0.062500 0.027344
v -0.035156 -0.062500 -0.003906
v -0.035156 -0.062500 0.003906
v -0.054688 -0.062500 0.007812
v -0.054688 -0.062500 -0.007812
v -0.031250 -0.062500 -0.019531
v -0.035156 -0.062500 -0.003906
v -0.054688 -0.062500 -0.007812
v -0.042969 -0.062500 -0.027344
v -0.019531 -0.062500 -0.031250
v -0.031250 -0.062500 -0.019531
v -0.042969 -0.062500 -0.027344
v -0.027344 -0.062500 -0.042969
v -0.003906 -0.062500 -0.035156
v -0.019531 -0.062500 -0.031250
v -0.027344 -0.062500 -0.042969
v -0.007812 -0.062500 -0.054688
v 0.085938 0.015625 0.070312
v 0.085938 0.039062 0.070312
v 0.074219 0.046875 0.074219
v 0.074219 0.000000 0.074219
v 0.097656 0.000000 0.039062
v 0.097656 0.046875 0.039062
v 0.097656 0.039062 0.050781
v 0.097656 0.015625 0.050781
v 0.007812 0.039062 0.113281
v 0.000000 0.046875 0.105469
v 0.000000 0.000000 0.105469
v 0.007812 0.015625 0.113281
v 0.039062 0.000000 0.097656
v 0.039062 0.046875 0.097656
v 0.031250 0.039062 0.109375
v 0.031250 0.015625 0.109375
v -0.070312 0.039062 0.085938
v -0.074219 0.046875 0.074219
v -0.074219 0.000000 0.074219
v -0.070312 0.015625 0.085938
v -0.039062 0.000000 0.097656
v -0.039062 0.046875 0.097656
v -0.050781 0.039062 0.097656
v -0.050781 0.015625 0.097656
v 0.113281 0.015625 -0.007812
v 0.113281 0.039062 -0.007812
v 0.105469 0.046875 0.000000
v 0.105469 0.000000 0.000000
v 0.097656 0.000000 -0.039062
v 0.097656 0.046875 -0.039062
v 0.109375 0.039062 -0.031250
v 0.109375 0.015625 -0.031250
v 0.066406 0.023438 0.027344
v 0.066406 0.046875 0.027344
v 0.074219 0.046875 0.000000
v 0.074219 0.023438 0.000000
v 0.050781 0.023438 0.050781
v 0.050781 0.046875 0.050781
v 0.066406 0.046875 0.027344
v 0.066406 0.023438 0.027344
v 0.027344 0.023438 0.066406
v 0.027344 0.046875 0.066406
v 0.050781 0.046875 0.050781
v 0.050781 0.023438 0.050781
v 0.000000 0.023438 0.074219
v 0.000000 0.046875 0.074219
v 0.027344 0.046875 0.066406
v 0.027344 0.023438 0.066406
v -0.023438 0.023438 0.070312
v -0.023438 0.046875 0.070312
v 0.000000 0.046875 0.074219
v 0.000000 0.023438 0.074219
v -0.058594 0.023438 0.058594
v -0.058594 0.046875 0.058594
v -0.031250 0.046875 0.078125
v -0.031250 0.023438 0.078125
v 0.078125 0.023438 -0.031250
v 0.078125 0.046875 -0.031250
v 0.058594 0.046875 -0.058594
v 0.058594 0.023438 -0.058594
v 0.074219 0.023438 0.000000
v 0.074219 0.046875 0.000000
v 0.070312 0.046875 -0.023438
v 0.070312 0.023438 -0.023438
v -0.031250 0.046875 0.078125
v -0.023438 0.046875 0.070312
v -0.023438 0.023438 0.070312
v -0.031250 0.023438 0.078125
v 0.070312 0.023438 -0.023438
v 0.070312 0.046875 -0.023438
v 0.078125 0.046875 -0.031250
v 0.078125 0.023438 -0.031250
v -0.085938 0.015625 -0.070312
v -0.085938 0.039062 -0.070312
v -0.074219 0.046875 -0.074219
v -0.074219 0.000000 -0.074219
v -0.097656 0.000000 -0.039062
v -0.097656 0.046875 -0.039062
v -0.097656 0.039062 -0.050781
v -0.097656 0.015625 -0.050781
v -0.007812 0.039062 -0.113281
v 0.000000 0.046875 -0.105469
v 0.000000 0.000000 -0.105469
v -0.007812 0.015625 -0.113281
v -0.039062 0.000000 -0.097656
v -0.039062 0.046875 -0.097656
v -0.031250 0.039062 -0.109375
v -0.031250 0.015625 -0.109375
v 0.070312 0.039062 -0.085938
v 0.074219 0.046875 -0.074219
v 0.074219 0.000000 -0.074219
v 0.070312 0.015625 -0.085938
v 0.039062 0.000000 -0.097656
v 0.039062 0.046875 -0.097656
v 0.050781 0.039062 -0.097656
v 0.050781 0.015625 -0.097656
v -0.113281 0.015625 0.007812
v -0.113281 0.039062 0.007812
v -0.105469 0.046875 0.000000
v -0.105469 0.000000 0.000000
v -0.097656 0.000000 0.039062
v -0.097656 0.046875 0.039062
v -0.109375 0.039062 0.031250
v -0.109375 0.015625 0.031250
v -0.066406 0.023438 -0.027344
v -0.066406 0.046875 -0.027344
v -0.074219 0.046875 0.000000
v -0.074219 0.023438 0.000000
v -0.050781 0.023438 -0.050781
v -0.050781 0.046875 -0.050781
v -0.066406 0.046875 -0.027344
v -0.066406 0.023438 -0.027344
v -0.027344 0.023438 -0.066406
v -0.027344 0.046875 -0.066406
v -0.050781 0.046875 -0.050781
v -0.050781 0.023438 -0.050781
v 0.000000 0.023438 -0.074219
v 0.000000 0.046875 -0.074219
v -0.027344 0.046875 -0.066406
v -0.027344 0.023438 -0.066406
v 0.023438 0.023438 -0.070312
v 0.023438 0.046875 -0.070312
v 0.000000 0.046875 -0.074219
v 0.000000 0.023438 -0.074219
v 0.058594 0.023438 -0.058594
v 0.058594 0.046875 -0.058594
v 0.031250 0.046875 -0.078125
v 0.031250 0.023438 -0.078125
v -0.078125 0.023438 0.031250
v -0.078125 0.046875 0.031250
v -0.058594 0.046875 0.058594
v -0.058594 0.023438 0.058594
v -0.074219 0.023438 0.000000
v -0.074219 0.046875 0.000000
v -0.070312 0.046875 0.023438
v -0.070312 0.023438 0.023438
v 0.031250 0.046875 -0.078125
v 0.023438 0.046875 -0.070312
v 0.023438 0.023438 -0.070312
v 0.031250 0.023438 -0.078125
v -0.070312 0.023438 0.023438
v -0.070312 0.046875 0.023438
v -0.078125 0.046875 0.031250
v -0.078125 0.023438 0.031250
v 0.109375 0.015625 -0.031250
v 0.109375 0.039062 -0.031250
v 0.113281 0.039062 -0.007812
v 0.113281 0.015625 -0.007812
v 0.000000 0.023438 0.078125
v 0.000000 0.000000 0.078125
v -0.031250 0.000000 0.078125
v -0.031250 0.023438 0.078125
v -0.031250 0.023438 0.078125
v -0.031250 0.000000 0.078125
v -0.058594 0.000000 0.058594
v -0.058594 0.023438 0.058594
v 0.058594 0.000000 -0.058594
v 0.078125 0.000000 -0.031250
v 0.078125 0.023438 -0.031250
v 0.058594 0.023438 -0.058594
v 0.078125 0.000000 -0.031250
v 0.085938 0.000000 0.000000
v 0.085938 0.023438 0.000000
v 0.078125 0.023438 -0.031250
v 0.066406 0.023438 0.027344
v 0.074219 0.023438 0.000000
v 0.085938 0.023438 0.000000
v 0.078125 0.023438 0.031250
v 0.050781 0.023438 0.050781
v 0.066406 0.023438 0.027344
v 0.078125 0.023438 0.031250
v 0.058594 0.023438 0.058594
v 0.027344 0.023438 0.066406
v 0.050781 0.023438 0.050781
v 0.058594 0.023438 0.058594
v 0.031250 0.023438 0.078125
v 0.000000 0.023438 0.074219
v 0.027344 0.023438 0.066406
v 0.031250 0.023438 0.078125
v 0.000000 0.023438 0.078125
v -0.031250 0.023438 0.078125
v -0.023438 0.023438 0.070312
v 0.000000 0.023438 0.074219
v 0.000000 0.023438 0.078125
v 0.074219 0.023438 0.000000
v 0.070312 0.023438 -0.023438
v 0.078125 0.023438 -0.031250
v 0.085938 0.023438 0.000000
v 0.000000 0.023438 -0.078125
v 0.000000 0.000000 -0.078125
v 0.031250 0.000000 -0.078125
v 0.031250 0.023438 -0.078125
v 0.031250 0.023438 -0.078125
v 0.031250 0.000000 -0.078125
v 0.058594 0.000000 -0.058594
v 0.058594 0.023438 -0.058594
v -0.058594 0.000000 0.058594
v -0.078125 0.000000 0.031250
v -0.078125 0.023438 0.031250
v -0.058594 0.023438 0.058594
v -0.078125 0.000000 0.031250
v -0.085938 0.000000 0.000000
v -0.085938 0.023438 0.000000
v -0.078125 0.023438 0.031250
v -0.066406 0.023438 -0.027344
v -0.074219 0.023438 0.000000
v -0.085938 0.023438 0.000000
v -0.078125 0.023438 -0.031250
v -0.050781 0.023438 -0.050781
v -0.066406 0.023438 -0.027344
v -0.078125 0.023438 -0.031250
v -0.058594 0.023438 -0.058594
v -0.027344 0.023438 -0.066406
v -0.050781 0.023438 -0.050781
v -0.058594 0.023438 -0.058594
v -0.031250 0.023438 -0.078125
v 0.000000 0.023438 -0.074219
v -0.027344 0.023438 -0.066406
v -0.031250 0.023438 -0.078125
v 0.000000 0.023438 -0.078125
v 0.031250 0.023438 -0.078125
v 0.023438 0.023438 -0.070312
v 0.000000 0.023438 -0.074219
v 0.000000 0.023438 -0.078125
v -0.074219 0.023438 0.000000
v -0.070312 0.023438 0.023438
v -0.078125 0.023438 0.031250
v -0.085938 0.023438 0.000000
v 0.109375 0.015625 0.031250
v 0.109375 0.039062 0.031250
v 0.097656 0.046875 0.039062
v 0.097656 0.000000 0.039062
v 0.105469 0.000000 0.000000
v 0.105469 0.046875 0.000000
v 0.113281 0.039062 0.007812
v 0.113281 0.015625 0.007812
v 0.050781 0.039062 0.097656
v 0.039062 0.046875 0.097656
v 0.039062 0.000000 0.097656
v 0.050781 0.015625 0.097656
v 0.074219 0.000000 0.074219
v 0.074219 0.046875 0.074219
v 0.070312 0.039062 0.085938
v 0.070312 0.015625 0.085938
v -0.031250 0.039062 0.109375
v -0.039062 0.046875 0.097656
v -0.039062 0.000000 0.097656
v -0.031250 0.015625 0.109375
v 0.000000 0.000000 0.105469
v 0.000000 0.046875 0.105469
v -0.007812 0.039062 0.113281
v -0.007812 0.015625 0.113281
v 0.097656 0.015625 -0.050781
v 0.097656 0.039062 -0.050781
v 0.097656 0.046875 -0.039062
v 0.097656 0.000000 -0.039062
v 0.074219 0.000000 -0.074219
v 0.074219 0.046875 -0.074219
v 0.085938 0.039062 -0.070312
v 0.085938 0.015625 -0.070312
v -0.109375 0.015625 -0.031250
v -0.109375 0.039062 -0.031250
v -0.097656 0.046875 -0.039062
v -0.097656 0.000000 -0.039062
v -0.105469 0.000000 0.000000
v -0.105469 0.046875 0.000000
v -0.113281 0.039062 -0.007812
v -0.113281 0.015625 -0.007812
v -0.050781 0.039062 -0.097656
v -0.039062 0.046875 -0.097656
v -0.039062 0.000000 -0.097656
v -0.050781 0.015625 -0.097656
v -0.074219 0.000000 -0.074219
v -0.074219 0.046875 -0.074219
v -0.070312 0.039062 -0.085938
v -0.070312 0.015625 -0.085938
v 0.031250 0.039062 -0.109375
v 0.039062 0.046875 -0.097656
v 0.039062 0.000000 -0.097656
v 0.031250 0.015625 -0.109375
v 0.000000 0.000000 -0.105469
v 0.000000 0.046875 -0.105469
v 0.007812 0.039062 -0.113281
v 0.007812 0.015625 -0.113281
v -0.097656 0.015625 0.050781
v -0.097656 0.039062 0.050781
v -0.097656 0.046875 0.039062
v -0.097656 0.000000 0.039062
v -0.074219 0.000000 0.074219
v -0.074219 0.046875 0.074219
v -0.085938 0.039062 0.070312
v -0.085938 0.015625 0.070312
v 0.105469 0.046875 0.000000
v 0.074219 0.046875 0.000000
v 0.066406 0.046875 0.027344
v 0.097656 0.046875 0.039062
v 0.097656 0.046875 0.039062
v 0.066406 0.046875 0.027344
v 0.050781 0.046875 0.050781
v 0.074219 0.046875 0.074219
v 0.074219 0.046875 0.074219
v 0.050781 0.046875 0.050781
v 0.027344 0.046875 0.066406
v 0.039062 0.046875 0.097656
v 0.039062 0.046875 0.097656
v 0.027344 0.046875 0.066406
v 0.000000 0.046875 0.074219
v 0.000000 0.046875 0.105469
v 0.000000 0.046875 0.105469
v 0.000000 0.046875 0.074219
v -0.031250 0.046875 0.078125
v -0.039062 0.046875 0.097656
v -0.039062 0.046875 0.097656
v -0.031250 0.046875 0.078125
v -0.058594 0.046875 0.058594
v -0.074219 0.046875 0.074219
v 0.058594 0.046875 -0.058594
v 0.078125 0.046875 -0.031250
v 0.097656 0.046875 -0.039062
v 0.074219 0.046875 -0.074219
v 0.078125 0.046875 -0.031250
v 0.074219 0.046875 0.000000
v 0.105469 0.046875 0.000000
v 0.097656 0.046875 -0.039062
v -0.105469 0.046875 0.000000
v -0.074219 0.046875 0.000000
v -0.066406 0.046875 -0.027344
v -0.097656 0.046875 -0.039062
v -0.097656 0.046875 -0.039062
v -0.066406 0.046875 -0.027344
v -0.050781 0.046875 -0.050781
v -0.074219 0.046875 -0.074219
v -0.074219 0.046875 -0.074219
v -0.050781 0.046875 -0.050781
v -0.027344 0.046875 -0.066406
v -0.039062 0.046875 -0.097656
v -0.039062 0.046875 -0.097656
v -0.027344 0.046875 -0.066406
v 0.000000 0.046875 -0.074219
v 0.000000 0.046875 -0.105469
v 0.000000 0.046875 -0.105469
v 0.000000 0.046875 -0.074219
v 0.031250 0.046875 -0.078125
v 0.039062 0.046875 -0.097656
v 0.039062 0.046875 -0.097656
v 0.031250 0.046875 -0.078125
v 0.058594 0.046875 -0.058594
v 0.074219 0.046875 -0.074219
v -0.058594 0.046875 0.058594
v -0.078125 0.046875 0.031250
v -0.097656 0.046875 0.039062
v -0.074219 0.046875 0.074219
v -0.078125 0.046875 0.031250
v -0.074219 0.046875 0.000000
v -0.105469 0.046875 0.000000
v -0.097656 0.046875 0.039062
v 0.097656 0.015625 0.050781
v 0.097656 0.039062 0.050781
v 0.085938 0.039062 0.070312
v 0.085938 0.015625 0.070312
v 0.031250 0.015625 0.109375
v 0.031250 0.039062 0.109375
v 0.007812 0.039062 0.113281
v 0.007812 0.015625 0.113281
v -0.050781 0.039062 0.097656
v -0.070312 0.039062 0.085938
v -0.070312 0.015625 0.085938
v -0.050781 0.015625 0.097656
v -0.097656 0.015625 -0.050781
v -0.097656 0.039062 -0.050781
v -0.085938 0.039062 -0.070312
v -0.085938 0.015625 -0.070312
v -0.031250 0.015625 -0.109375
v -0.031250 0.039062 -0.109375
v -0.007812 0.039062 -0.113281
v -0.007812 0.015625 -0.113281
v 0.050781 0.039062 -0.097656
v 0.070312 0.039062 -0.085938
v 0.070312 0.015625 -0.085938
v 0.050781 0.015625 -0.097656
v -0.109375 0.015625 0.031250
v -0.109375 0.039062 0.031250
v -0.113281 0.039062 0.007812
v -0.113281 0.015625 0.007812
v 0.113281 0.015625 0.007812
v 0.113281 0.039062 0.007812
v 0.109375 0.039062 0.031250
v 0.109375 0.015625 0.031250
v 0.070312 0.015625 0.085938
v 0.070312 0.039062 0.085938
v 0.050781 0.039062 0.097656
v 0.050781 0.015625 0.097656
v -0.007812 0.039062 0.113281
v -0.031250 0.039062 0.109375
v -0.031250 0.015625 0.109375
v -0.007812 0.015625 0.113281
v 0.085938 0.015625 -0.070312
v 0.085938 0.039062 -0.070312
v 0.097656 0.039062 -0.050781
v 0.097656 0.015625 -0.050781
v -0.113281 0.015625 -0.007812
v -0.113281 0.039062 -0.007812
v -0.109375 0.039062 -0.031250
v -0.109375 0.015625 -0.031250
v -0.070312 0.015625 -0.085938
v -0.070312 0.039062 -0.085938
v -0.050781 0.039062 -0.097656
v -0.050781 0.015625 -0.097656
v 0.007812 0.039062 -0.113281
v 0.031250 0.039062 -0.109375
v 0.031250 0.015625 -0.109375
v 0.007812 0.015625 -0.113281
v -0.085938 0.015625 0.070312
v -0.085938 0.039062 0.070312
v -0.097656 0.039062 0.050781
v -0.097656 0.015625 0.050781
v 0.078125 0.000000 0.031250
v 0.085938 0.000000 0.000000
v 0.105469 0.000000 0.000000
v 0.097656 0.000000 0.039062
v 0.058594 0.000000 0.058594
v 0.078125 0.000000 0.031250
v 0.097656 0.000000 0.039062
v 0.074219 0.000000 0.074219
v 0.031250 0.000000 0.078125
v 0.058594 0.000000 0.058594
v 0.074219 0.000000 0.074219
v 0.039062 0.000000 0.097656
v 0.000000 0.000000 0.089844
v 0.031250 0.000000 0.089844
v 0.039062 0.000000 0.097656
v 0.000000 0.000000 0.105469
v -0.031250 0.000000 0.093750
v 0.000000 0.000000 0.089844
v 0.000000 0.000000 0.105469
v -0.039062 0.000000 0.097656
v -0.058594 0.000000 0.058594
v -0.031250 0.000000 0.078125
v -0.039062 0.000000 0.097656
v -0.074219 0.000000 0.074219
v 0.097656 0.000000 -0.039062
v 0.078125 0.000000 -0.031250
v 0.058594 0.000000 -0.058594
v 0.074219 0.000000 -0.074219
v 0.105469 0.000000 0.000000
v 0.085938 0.000000 0.000000
v 0.078125 0.000000 -0.031250
v 0.097656 0.000000 -0.039062
v -0.078125 0.000000 -0.031250
v -0.085938 0.000000 0.000000
v -0.105469 0.000000 0.000000
v -0.097656 0.000000 -0.039062
v -0.058594 0.000000 -0.058594
v -0.078125 0.000000 -0.031250
v -0.097656 0.000000 -0.039062
v -0.074219 0.000000 -0.074219
v -0.031250 0.000000 -0.078125
v -0.058594 0.000000 -0.058594
v -0.074219 0.000000 -0.074219
v -0.039062 0.000000 -0.097656
v 0.000000 0.000000 -0.089844
v -0.031250 0.000000 -0.089844
v -0.039062 0.000000 -0.097656
v 0.000000 0.000000 -0.105469
v 0.031250 0.000000 -0.093750
v 0.000000 0.000000 -0.089844
v 0.000000 0.000000 -0.105469
v 0.039062 0.000000 -0.097656
v 0.058594 0.000000 -0.058594
v 0.031250 0.000000 -0.078125
v 0.039062 0.000000 -0.097656
v 0.074219 0.000000 -0.074219
v -0.097656 0.000000 0.039062
v -0.078125 0.000000 0.031250
v -0.058594 0.000000 0.058594
v -0.074219 0.000000 0.074219
v -0.105469 0.000000 0.000000
v -0.085938 0.000000 0.000000
v -0.078125 0.000000 0.031250
v -0.097656 0.000000 0.039062
v 0.000000 0.000000 0.089844
v 0.000000 -0.011719 0.089844
v 0.031250 -0.011719 0.089844
v 0.031250 0.000000 0.089844
v -0.031250 -0.011719 0.093750
v 0.000000 -0.011719 0.089844
v 0.000000 0.000000 0.089844
v -0.031250 0.000000 0.093750
v 0.000000 -0.011719 0.089844
v 0.000000 -0.019531 0.085938
v 0.031250 -0.019531 0.085938
v 0.031250 -0.011719 0.089844
v -0.031250 -0.019531 0.085938
v 0.000000 -0.019531 0.085938
v 0.000000 -0.011719 0.089844
v -0.031250 -0.011719 0.093750
v 0.000000 -0.019531 0.085938
v 0.000000 -0.027344 0.078125
v 0.031250 -0.027344 0.078125
v 0.031250 -0.019531 0.085938
v -0.031250 -0.027344 0.078125
v 0.000000 -0.027344 0.078125
v 0.000000 -0.019531 0.085938
v -0.031250 -0.019531 0.085938
v 0.000000 -0.027344 0.078125
v 0.000000 -0.027344 0.046875
v 0.031250 -0.027344 0.046875
v 0.031250 -0.027344 0.078125
v -0.031250 -0.027344 0.046875
v 0.000000 -0.027344 0.046875
v 0.000000 -0.027344 0.078125
v -0.031250 -0.027344 0.078125
v 0.000000 0.000000 -0.089844
v 0.000000 -0.011719 -0.089844
v -0.031250 -0.011719 -0.089844
v -0.031250 0.000000 -0.089844
v 0.031250 -0.011719 -0.093750
v 0.000000 -0.011719 -0.089844
v 0.000000 0.000000 -0.089844
v 0.031250 0.000000 -0.093750
v 0.000000 -0.011719 -0.089844
v 0.000000 -0.019531 -0.085938
v -0.031250 -0.019531 -0.085938
v -0.031250 -0.011719 -0.089844
v 0.031250 -0.019531 -0.085938
v 0.000000 -0.019531 -0.085938
v 0.000000 -0.011719 -0.089844
v 0.031250 -0.011719 -0.093750
v 0.000000 -0.019531 -0.085938
v 0.000000 -0.027344 -0.078125
v -0.031250 -0.027344 -0.078125
v -0.031250 -0.019531 -0.085938
v 0.031250 -0.027344 -0.078125
v 0.000000 -0.027344 -0.078125
v 0.000000 -0.019531 -0.085938
v 0.031250 -0.019531 -0.085938
v 0.000000 -0.027344 -0.078125
v 0.000000 -0.027344 -0.046875
v -0.031250 -0.027344 -0.046875
v -0.031250 -0.027344 -0.078125
v 0.031250 -0.027344 -0.046875
v 0.000000 -0.027344 -0.046875
v 0.000000 -0.027344 -0.078125
v 0.031250 -0.027344 -0.078125
v 0.031250 -0.003906 0.078125
v 0.031250 -0.003906 0.046875
v 0.000000 -0.003906 0.046875
v 0.000000 -0.003906 0.078125
v 0.000000 -0.003906 0.046875
v -0.031250 -0.003906 0.046875
v -0.031250 -0.003906 0.078125
v 0.000000 -0.003906 0.078125
v -0.031250 -0.003906 -0.078125
v -0.031250 -0.003906 -0.046875
v 0.000000 -0.003906 -0.046875
v 0.000000 -0.003906 -0.078125
v 0.000000 -0.003906 -0.046875
v 0.031250 -0.003906 -0.046875
v 0.031250 -0.003906 -0.078125
v 0.000000 -0.003906 -0.078125
v 0.031250 0.000000 0.078125
v 0.031250 -0.003906 0.078125
v 0.000000 -0.003906 0.078125
v 0.000000 0.000000 0.078125
v 0.000000 -0.003906 0.078125
v -0.031250 -0.003906 0.078125
v -0.031250 0.000000 0.078125
v 0.000000 0.000000 0.078125
v -0.031250 0.000000 -0.078125
v -0.031250 -0.003906 -0.078125
v 0.000000 -0.003906 -0.078125
v 0.000000 0.000000 -0.078125
v 0.000000 -0.003906 -0.078125
v 0.031250 -0.003906 -0.078125
v 0.031250 0.000000 -0.078125
v 0.000000 0.000000 -0.078125
v 0.097656 0.046875 0.039062
v 0.074219 0.046875 0.074219
v 0.085938 0.039062 0.070312
v 0.097656 0.039062 0.050781
v 0.039062 0.046875 0.097656
v 0.000000 0.046875 0.105469
v 0.007812 0.039062 0.113281
v 0.031250 0.039062 0.109375
v -0.039062 0.046875 0.097656
v -0.074219 0.046875 0.074219
v -0.070312 0.039062 0.085938
v -0.050781 0.039062 0.097656
v 0.097656 0.046875 -0.039062
v 0.105469 0.046875 0.000000
v 0.113281 0.039062 -0.007812
v 0.109375 0.039062 -0.031250
v -0.097656 0.046875 -0.039062
v -0.074219 0.046875 -0.074219
v -0.085938 0.039062 -0.070312
v -0.097656 0.039062 -0.050781
v -0.039062 0.046875 -0.097656
v 0.000000 0.046875 -0.105469
v -0.007812 0.039062 -0.113281
v -0.031250 0.039062 -0.109375
v 0.039062 0.046875 -0.097656
v 0.074219 0.046875 -0.074219
v 0.070312 0.039062 -0.085938
v 0.050781 0.039062 -0.097656
v -0.097656 0.046875 0.039062
v -0.105469 0.046875 0.000000
v -0.113281 0.039062 0.007812
v -0.109375 0.039062 0.031250
v 0.105469 0.046875 0.000000
v 0.097656 0.046875 0.039062
v 0.109375 0.039062 0.031250
v 0.113281 0.039062 0.007812
v 0.074219 0.046875 0.074219
v 0.039062 0.046875 0.097656
v 0.050781 0.039062 0.097656
v 0.070312 0.039062 0.085938
v 0.000000 0.046875 0.105469
v -0.039062 0.046875 0.097656
v -0.031250 0.039062 0.109375
v -0.007812 0.039062 0.113281
v 0.074219 0.046875 -0.074219
v 0.097656 0.046875 -0.039062
v 0.097656 0.039062 -0.050781
v 0.085938 0.039062 -0.070312
v -0.105469 0.046875 0.000000
v -0.097656 0.046875 -0.039062
v -0.109375 0.039062 -0.031250
v -0.113281 0.039062 -0.007812
v -0.074219 0.046875 -0.074219
v -0.039062 0.046875 -0.097656
v -0.050781 0.039062 -0.097656
v -0.070312 0.039062 -0.085938
v 0.000000 0.046875 -0.105469
v 0.039062 0.046875 -0.097656
v 0.031250 0.039062 -0.109375
v 0.007812 0.039062 -0.113281
v -0.074219 0.046875 0.074219
v -0.097656 0.046875 0.039062
v -0.097656 0.039062 0.050781
v -0.085938 0.039062 0.070312
v 0.085938 0.015625 0.070312
v 0.074219 0.000000 0.074219
v 0.097656 0.000000 0.039062
v 0.097656 0.015625 0.050781
v 0.007812 0.015625 0.113281
v 0.000000 0.000000 0.105469
v 0.039062 0.000000 0.097656
v 0.031250 0.015625 0.109375
v -0.070312 0.015625 0.085938
v -0.074219 0.000000 0.074219
v -0.039062 0.000000 0.097656
v -0.050781 0.015625 0.097656
v 0.113281 0.015625 -0.007812
v 0.105469 0.000000 0.000000
v 0.097656 0.000000 -0.039062
v 0.109375 0.015625 -0.031250
v -0.085938 0.015625 -0.070312
v -0.074219 0.000000 -0.074219
v -0.097656 0.000000 -0.039062
v -0.097656 0.015625 -0.050781
v -0.007812 0.015625 -0.113281
v 0.000000 0.000000 -0.105469
v -0.039062 0.000000 -0.097656
v -0.031250 0.015625 -0.109375
v 0.070312 0.015625 -0.085938
v 0.074219 0.000000 -0.074219
v 0.039062 0.000000 -0.097656
v 0.050781 0.015625 -0.097656
v -0.113281 0.015625 0.007812
v -0.105469 0.000000 0.000000
v -0.097656 0.000000 0.039062
v -0.109375 0.015625 0.031250
v 0.109375 0.015625 0.031250
v 0.097656 0.000000 0.039062
v 0.105469 0.000000 0.000000
v 0.113281 0.015625 0.007812
v 0.050781 0.015625 0.097656
v 0.039062 0.000000 0.097656
v 0.074219 0.000000 0.074219
v 0.070312 0.015625 0.085938
v -0.031250 0.015625 0.109375
v -0.039062 0.000000 0.097656
v 0.000000 0.000000 0.105469
v -0.007812 0.015625 0.113281
v 0.097656 0.015625 -0.050781
v 0.097656 0.000000 -0.039062
v 0.074219 0.000000 -0.074219
v 0.085938 0.015625 -0.070312
v -0.109375 0.015625 -0.031250
v -0.097656 0.000000 -0.039062
v -0.105469 0.000000 0.000000
v -0.113281 0.015625 -0.007812
v -0.050781 0.015625 -0.097656
v -0.039062 0.000000 -0.097656
v -0.074219 0.000000 -0.074219
v -0.070312 0.015625 -0.085938
v 0.031250 0.015625 -0.109375
v 0.039062 0.000000 -0.097656
v 0.000000 0.000000 -0.105469
v 0.007812 0.015625 -0.113281
v -0.097656 0.015625 0.050781
v -0.097656 0.000000 0.039062
v -0.074219 0.000000 0.074219
v -0.085938 0.015625 0.070312
v -0.031250 -0.054688 0.050781
v -0.011719 -0.054688 0.058594
v -0.011719 0.000000 0.058594
v -0.031250 0.000000 0.050781
v -0.011719 0.000000 0.058594
v -0.011719 -0.054688 0.058594
v 0.011719 -0.054688 0.058594
v 0.011719 0.000000 0.058594
v 0.011719 -0.054688 0.058594
v 0.031250 -0.054688 0.050781
v 0.031250 0.000000 0.050781
v 0.011719 0.000000 0.058594
v 0.050781 -0.054688 0.031250
v 0.050781 0.000000 0.031250
v 0.031250 0.000000 0.050781
v 0.031250 -0.054688 0.050781
v 0.031250 -0.054688 -0.050781
v 0.011719 -0.054688 -0.058594
v 0.011719 0.000000 -0.058594
v 0.031250 0.000000 -0.050781
v 0.011719 -0.054688 -0.058594
v -0.011719 -0.054688 -0.058594
v -0.011719 0.000000 -0.058594
v 0.011719 0.000000 -0.058594
v -0.011719 0.000000 -0.058594
v -0.011719 -0.054688 -0.058594
v -0.031250 -0.054688 -0.050781
v -0.031250 0.000000 -0.050781
v -0.031250 0.000000 -0.050781
v -0.031250 -0.054688 -0.050781
v -0.050781 -0.054688 -0.031250
v -0.050781 0.000000 -0.031250
v -0.078125 0.023438 -0.031250
v -0.078125 0.011719 -0.031250
v -0.058594 0.011719 -0.058594
v -0.058594 0.023438 -0.058594
v -0.058594 0.023438 -0.058594
v -0.058594 0.011719 -0.058594
v -0.031250 0.011719 -0.078125
v -0.031250 0.023438 -0.078125
v -0.050781 0.000000 -0.050781
v -0.027344 0.000000 -0.066406
v -0.027344 0.011719 -0.066406
v -0.050781 0.011719 -0.050781
v -0.050781 0.000000 -0.050781
v -0.050781 0.011719 -0.050781
v -0.066406 0.011719 -0.027344
v -0.066406 0.000000 -0.027344
v -0.078125 0.000000 -0.031250
v -0.078125 0.011719 -0.031250
v -0.085938 0.023438 0.000000
v -0.085938 0.000000 0.000000
v -0.031250 0.000000 -0.078125
v 0.000000 0.000000 -0.078125
v 0.000000 0.023438 -0.078125
v -0.031250 0.011719 -0.078125
v -0.031250 0.000000 -0.078125
v -0.027344 0.000000 -0.066406
v -0.050781 0.000000 -0.050781
v -0.058594 0.000000 -0.058594
v -0.050781 0.011719 -0.050781
v -0.027344 0.011719 -0.066406
v -0.031250 0.011719 -0.078125
v -0.058594 0.011719 -0.058594
v -0.027344 0.011719 -0.066406
v -0.027344 0.000000 -0.066406
v -0.031250 0.000000 -0.078125
v -0.031250 0.011719 -0.078125
v -0.058594 0.000000 -0.058594
v -0.050781 0.000000 -0.050781
v -0.066406 0.000000 -0.027344
v -0.078125 0.000000 -0.031250
v -0.078125 0.000000 -0.031250
v -0.066406 0.000000 -0.027344
v -0.066406 0.011719 -0.027344
v -0.078125 0.011719 -0.031250
v -0.066406 0.011719 -0.027344
v -0.050781 0.011719 -0.050781
v -0.058594 0.011719 -0.058594
v -0.078125 0.011719 -0.031250
v 0.078125 0.023438 0.031250
v 0.078125 0.011719 0.031250
v 0.058594 0.011719 0.058594
v 0.058594 0.023438 0.058594
v 0.058594 0.023438 0.058594
v 0.058594 0.011719 0.058594
v 0.031250 0.011719 0.078125
v 0.031250 0.023438 0.078125
v 0.050781 0.000000 0.050781
v 0.027344 0.000000 0.066406
v 0.027344 0.011719 0.066406
v 0.050781 0.011719 0.050781
v 0.050781 0.000000 0.050781
v 0.050781 0.011719 0.050781
v 0.066406 0.011719 0.027344
v 0.066406 0.000000 0.027344
v 0.078125 0.000000 0.031250
v 0.078125 0.011719 0.031250
v 0.085938 0.023438 0.000000
v 0.085938 0.000000 0.000000
v 0.031250 0.000000 0.078125
v 0.000000 0.000000 0.078125
v 0.000000 0.023438 0.078125
v 0.031250 0.011719 0.078125
v 0.031250 0.000000 0.078125
v 0.027344 0.000000 0.066406
v 0.050781 0.000000 0.050781
v 0.058594 0.000000 0.058594
v 0.050781 0.011719 0.050781
v 0.027344 0.011719 0.066406
v 0.031250 0.011719 0.078125
v 0.058594 0.011719 0.058594
v 0.027344 0.011719 0.066406
v 0.027344 0.000000 0.066406
v 0.031250 0.000000 0.078125
v 0.031250 0.011719 0.078125
v 0.058594 0.000000 0.058594
v 0.050781 0.000000 0.050781
v 0.066406 0.000000 0.027344
v 0.078125 0.000000 0.031250
v 0.078125 0.000000 0.031250
v 0.066406 0.000000 0.027344
v 0.066406 0.011719 0.027344
v 0.078125 0.011719 0.031250
v 0.066406 0.011719 0.027344
v 0.050781 0.011719 0.050781
v 0.058594 0.011719 0.058594
v 0.078125 0.011719 0.031250
v 0.027344 -0.062500 -0.042969
v 0.031250 -0.054688 -0.050781
v 0.050781 -0.054688 -0.031250
v 0.042969 -0.062500 -0.027344
v 0.042969 -0.062500 -0.027344
v 0.050781 -0.054688 -0.031250
v 0.058594 -0.054688 -0.011719
v 0.054688 -0.062500 -0.007812
v 0.058594 -0.054688 0.011719
v 0.050781 -0.054688 0.031250
v 0.042969 -0.062500 0.027344
v 0.054688 -0.062500 0.007812
v -0.031250 -0.054688 0.050781
v -0.050781 -0.054688 0.031250
v -0.042969 -0.062500 0.027344
v -0.027344 -0.062500 0.042969
v -0.050781 -0.054688 0.031250
v -0.058594 -0.054688 0.011719
v -0.054688 -0.062500 0.007812
v -0.042969 -0.062500 0.027344
v -0.054688 -0.062500 -0.007812
v -0.058594 -0.054688 -0.011719
v -0.050781 -0.054688 -0.031250
v -0.042969 -0.062500 -0.027344
v -0.007812 -0.062500 -0.054688
v -0.011719 -0.054688 -0.058594
v 0.011719 -0.054688 -0.058594
v 0.007812 -0.062500 -0.054688
v 0.007812 -0.062500 -0.054688
v 0.011719 -0.054688 -0.058594
v 0.031250 -0.054688 -0.050781
v 0.027344 -0.062500 -0.042969
v 0.050781 -0.054688 0.031250
v 0.031250 -0.054688 0.050781
v 0.027344 -0.062500 0.042969
v 0.042969 -0.062500 0.027344
v 0.031250 -0.054688 0.050781
v 0.011719 -0.054688 0.058594
v 0.007812 -0.062500 0.054688
v 0.027344 -0.062500 0.042969
v 0.011719 -0.054688 0.058594
v -0.011719 -0.054688 0.058594
v -0.007812 -0.062500 0.054688
v 0.007812 -0.062500 0.054688
v -0.011719 -0.054688 0.058594
v -0.031250 -0.054688 0.050781
v -0.027344 -0.062500 0.042969
v -0.007812 -0.062500 0.054688
v -0.042969 -0.062500 -0.027344
v -0.050781 -0.054688 -0.031250
v -0.031250 -0.054688 -0.050781
v -0.027344 -0.062500 -0.042969
v -0.027344 -0.062500 -0.042969
v -0.031250 -0.054688 -0.050781
v -0.011719 -0.054688 -0.058594
v -0.007812 -0.062500 -0.054688
v -0.011719 -0.027344 0.070312
v -0.011719 -0.042969 0.070312
v 0.011719 -0.042969 0.070312
v 0.011719 -0.027344 0.070312
v -0.015625 -0.042969 0.058594
v -0.015625 -0.042969 0.066406
v -0.015625 -0.027344 0.066406
v -0.015625 -0.027344 0.058594
v 0.015625 -0.027344 0.066406
v 0.015625 -0.042969 0.066406
v 0.015625 -0.042969 0.058594
v 0.015625 -0.027344 0.058594
v 0.011719 -0.046875 0.066406
v -0.011719 -0.046875 0.066406
v -0.011719 -0.046875 0.058594
v 0.011719 -0.046875 0.058594
v -0.011719 -0.046875 0.066406
v -0.015625 -0.042969 0.066406
v -0.015625 -0.042969 0.058594
v -0.011719 -0.046875 0.058594
v -0.015625 -0.027344 0.066406
v -0.015625 -0.042969 0.066406
v -0.011719 -0.042969 0.070312
v -0.011719 -0.027344 0.070312
v 0.011719 -0.042969 0.070312
v 0.015625 -0.042969 0.066406
v 0.015625 -0.027344 0.066406
v 0.011719 -0.027344 0.070312
v -0.011719 -0.046875 0.066406
v 0.011719 -0.046875 0.066406
v 0.011719 -0.042969 0.070312
v -0.011719 -0.042969 0.070312
v 0.015625 -0.042969 0.058594
v 0.015625 -0.042969 0.066406
v 0.011719 -0.046875 0.066406
v 0.011719 -0.046875 0.058594
v 0.011719 -0.042969 -0.070312
v -0.011719 -0.042969 -0.070312
v -0.011719 -0.027344 -0.070312
v 0.011719 -0.027344 -0.070312
v -0.015625 -0.027344 -0.066406
v -0.015625 -0.042969 -0.066406
v -0.015625 -0.042969 -0.058594
v -0.015625 -0.027344 -0.058594
v 0.015625 -0.042969 -0.058594
v 0.015625 -0.042969 -0.066406
v 0.015625 -0.027344 -0.066406
v 0.015625 -0.027344 -0.058594
v -0.011719 -0.046875 -0.058594
v -0.011719 -0.046875 -0.066406
v 0.011719 -0.046875 -0.066406
v 0.011719 -0.046875 -0.058594
v -0.015625 -0.042969 -0.058594
v -0.015625 -0.042969 -0.066406
v -0.011719 -0.046875 -0.066406
v -0.011719 -0.046875 -0.058594
v -0.011719 -0.042969 -0.070312
v -0.015625 -0.042969 -0.066406
v -0.015625 -0.027344 -0.066406
v -0.011719 -0.027344 -0.070312
v 0.015625 -0.027344 -0.066406
v 0.015625 -0.042969 -0.066406
v 0.011719 -0.042969 -0.070312
v 0.011719 -0.027344 -0.070312
v 0.011719 -0.042969 -0.070312
v 0.011719 -0.046875 -0.066406
v -0.011719 -0.046875 -0.066406
v -0.011719 -0.042969 -0.070312
v 0.011719 -0.046875 -0.066406
v 0.015625 -0.042969 -0.066406
v 0.015625 -0.042969 -0.058594
v 0.011719 -0.046875 -0.058594
v 0.058594 -0.054688 0.011719
v 0.054688 -0.062500 0.007812
v 0.054688 -0.062500 -0.007812
v 0.058594 -0.054688 -0.011719
v -0.054688 -0.062500 0.007812
v -0.058594 -0.054688 0.011719
v -0.058594 -0.054688 -0.011719
v -0.054688 -0.062500 -0.007812
v -0.011719 0.000000 -0.058594
v -0.007812 0.000000 -0.050781
v 0.007812 0.000000 -0.050781
v 0.011719 0.000000 -0.058594
v 0.007812 0.000000 -0.050781
v 0.027344 0.000000 -0.042969
v 0.031250 0.000000 -0.050781
v 0.011719 0.000000 -0.058594
v 0.027344 0.000000 -0.042969
v 0.042969 0.000000 -0.027344
v 0.050781 0.000000 -0.031250
v 0.031250 0.000000 -0.050781
v 0.042969 0.000000 -0.027344
v 0.050781 0.000000 -0.007812
v 0.058594 0.000000 -0.011719
v 0.050781 0.000000 -0.031250
v 0.050781 0.000000 -0.007812
v 0.050781 0.000000 0.007812
v 0.058594 0.000000 0.011719
v 0.058594 0.000000 -0.011719
v 0.050781 0.000000 0.007812
v 0.042969 0.000000 0.027344
v 0.050781 0.000000 0.031250
v 0.058594 0.000000 0.011719
v 0.042969 0.000000 0.027344
v 0.027344 0.000000 0.042969
v 0.031250 0.000000 0.050781
v 0.050781 0.000000 0.031250
v 0.027344 0.000000 0.042969
v 0.007812 0.000000 0.050781
v 0.011719 0.000000 0.058594
v 0.031250 0.000000 0.050781
v 0.007812 0.000000 0.050781
v -0.007812 0.000000 0.050781
v -0.011719 0.000000 0.058594
v 0.011719 0.000000 0.058594
v -0.011719 0.000000 0.058594
v -0.007812 0.000000 0.050781
v -0.027344 0.000000 0.042969
v -0.031250 0.000000 0.050781
v -0.031250 0.000000 0.050781
v -0.027344 0.000000 0.042969
v -0.042969 0.000000 0.027344
v -0.050781 0.000000 0.031250
v -0.050781 0.000000 0.031250
v -0.042969 0.000000 0.027344
v -0.050781 0.000000 0.007812
v -0.058594 0.000000 0.011719
v -0.058594 0.000000 0.011719
v -0.050781 0.000000 0.007812
v -0.050781 0.000000 -0.007812
v -0.058594 0.000000 -0.011719
v -0.058594 0.000000 -0.011719
v -0.050781 0.000000 -0.007812
v -0.042969 0.000000 -0.027344
v -0.050781 0.000000 -0.031250
v -0.050781 0.000000 -0.031250
v -0.042969 0.000000 -0.027344
v -0.027344 0.000000 -0.042969
v -0.031250 0.000000 -0.050781
v -0.031250 0.000000 -0.050781
v -0.027344 0.000000 -0.042969
v -0.007812 0.000000 -0.050781
v -0.011719 0.000000 -0.058594
v -0.007812 0.000000 -0.050781
v -0.007812 -0.054688 -0.050781
v 0.007812 -0.054688 -0.050781
v 0.007812 0.000000 -0.050781
v 0.007812 -0.054688 -0.050781
v 0.027344 -0.054688 -0.042969
v 0.027344 0.000000 -0.042969
v 0.007812 0.000000 -0.050781
v 0.027344 -0.054688 -0.042969
v 0.042969 -0.054688 -0.027344
v 0.042969 0.000000 -0.027344
v 0.027344 0.000000 -0.042969
v 0.042969 -0.054688 -0.027344
v 0.050781 -0.054688 -0.007812
v 0.050781 0.000000 -0.007812
v 0.042969 0.000000 -0.027344
v 0.050781 -0.054688 -0.007812
v 0.050781 -0.054688 0.007812
v 0.050781 0.000000 0.007812
v 0.050781 0.000000 -0.007812
v 0.050781 -0.054688 0.007812
v 0.042969 -0.054688 0.027344
v 0.042969 0.000000 0.027344
v 0.050781 0.000000 0.007812
v 0.042969 -0.054688 0.027344
v 0.027344 -0.054688 0.042969
v 0.027344 0.000000 0.042969
v 0.042969 0.000000 0.027344
v 0.027344 -0.054688 0.042969
v 0.007812 -0.054688 0.050781
v 0.007812 0.000000 0.050781
v 0.027344 0.000000 0.042969
v 0.007812 -0.054688 0.050781
v -0.007812 -0.054688 0.050781
v -0.007812 0.000000 0.050781
v 0.007812 0.000000 0.050781
v -0.007812 0.000000 0.050781
v -0.007812 -0.054688 0.050781
v -0.027344 -0.054688 0.042969
v -0.027344 0.000000 0.042969
v -0.027344 0.000000 0.042969
v -0.027344 -0.054688 0.042969
v -0.042969 -0.054688 0.027344
v -0.042969 0.000000 0.027344
v -0.042969 0.000000 0.027344
v -0.042969 -0.054688 0.027344
v -0.050781 -0.054688 0.007812
v -0.050781 0.000000 0.007812
v -0.050781 0.000000 0.007812
v -0.050781 -0.054688 0.007812
v -0.050781 -0.054688 -0.007812
v -0.050781 0.000000 -0.007812
v -0.050781 0.000000 -0.007812
v -0.050781 -0.054688 -0.007812
v -0.042969 -0.054688 -0.027344
v -0.042969 0.000000 -0.027344
v -0.042969 0.000000 -0.027344
v -0.042969 -0.054688 -0.027344
v -0.027344 -0.054688 -0.042969
v -0.027344 0.000000 -0.042969
v -0.027344 0.000000 -0.042969
v -0.027344 -0.054688 -0.042969
v -0.007812 -0.054688 -0.050781
v -0.007812 0.000000 -0.050781
vn 1.0000 -0.0000 -0.0000
vn -1.0000 -0.0000 -0.0000
vn 0.7071 -0.0000 -0.7071
vn 0.9285 -0.0000 -0.3714
vn 0.9285 -0.0000 0.3714
vn -0.7071 -0.0000 0.7071
vn -0.9285 -0.0000 0.3714
vn -0.9285 -0.0000 -0.3714
vn -0.0000 -1.0000 -0.0000
vn 0.3162 -0.0000 0.9487
vn 0.8321 -0.0000 0.5547
vn -0.9487 -0.0000 0.3162
vn -0.0000 -0.0000 1.0000
vn 0.7071 -0.0000 0.7071
vn 0.5547 -0.0000 -0.8321
vn -0.9615 -0.0000 -0.2747
vn -0.8321 -0.0000 -0.5547
vn -0.5547 -0.0000 -0.8321
vn -0.2747 -0.0000 -0.9615
vn 0.1644 -0.0000 -0.9864
vn 0.5812 -0.0000 -0.8137
vn -0.8137 -0.0000 0.5812
vn -0.9864 -0.0000 0.1644
vn -0.7071 -0.0000 -0.7071
vn -0.3162 -0.0000 -0.9487
vn 0.9487 -0.0000 -0.3162
vn -0.0000 -0.0000 -1.0000
vn -0.5547 -0.0000 0.8321
vn 0.9615 -0.0000 0.2747
vn 0.5547 -0.0000 0.8321
vn 0.2747 -0.0000 0.9615
vn -0.1644 -0.0000 0.9864
vn -0.5812 -0.0000 0.8137
vn 0.8137 -0.0000 -0.5812
vn 0.9864 -0.0000 -0.1644
vn -0.9701 -0.0000 0.2425
vn 0.9701 -0.0000 -0.2425
vn 0.9487 -0.0000 0.3162
vn -0.8321 -0.0000 0.5547
vn 0.3162 -0.0000 -0.9487
vn -0.9487 -0.0000 -0.3162
vn 0.8321 -0.0000 -0.5547
vn -0.3162 -0.0000 0.9487
vn -0.0000 1.0000 -0.0000
vn 0.8575 -0.0000 0.5145
vn 0.1644 -0.0000 0.9864
vn -0.5145 -0.0000 0.8575
vn -0.8575 -0.0000 -0.5145
vn -0.1644 -0.0000 -0.9864
vn 0.5145 -0.0000 -0.8575
vn 0.9864 -0.0000 0.1644
vn 0.5145 -0.0000 0.8575
vn 0.8575 -0.0000 -0.5145
vn -0.9864 -0.0000 -0.1644
vn -0.5145 -0.0000 -0.8575
vn -0.8575 -0.0000 0.5145
vn 0.1240 -0.0000 0.9923
vn -0.0000 -0.4472 0.8944
vn 0.0187 -0.5060 0.8623
vn 0.0735 -0.6654 0.7429
vn 0.0880 -0.7044 0.7044
vn -0.0000 -0.7071 0.7071
vn -0.1240 -0.0000 -0.9923
vn -0.0000 -0.4472 -0.8944
vn -0.0187 -0.5060 -0.8623
vn -0.0735 -0.6654 -0.7429
vn -0.0880 -0.7044 -0.7044
vn -0.0000 -0.7071 -0.7071
vn 0.5970 0.6965 0.3980
vn 0.6080 0.6861 0.3995
vn 0.6472 0.6463 0.4043
vn 0.6788 0.6110 0.4073
vn 0.1270 0.7620 0.6350
vn 0.1221 0.7683 0.6284
vn 0.1100 0.7834 0.6117
vn 0.0995 0.7960 0.5970
vn -0.3980 0.6965 0.5970
vn -0.3995 0.6861 0.6080
vn -0.4043 0.6463 0.6472
vn -0.4073 0.6110 0.6788
vn 0.6350 0.7620 -0.1270
vn 0.6284 0.7683 -0.1221
vn 0.6117 0.7834 -0.1100
vn 0.5970 0.7960 -0.0995
vn -0.5970 0.6965 -0.3980
vn -0.6080 0.6861 -0.3995
vn -0.6472 0.6463 -0.4043
vn -0.6788 0.6110 -0.4073
vn -0.1270 0.7620 -0.6350
vn -0.1221 0.7683 -0.6284
vn -0.1100 0.7834 -0.6117
vn -0.0995 0.7960 -0.5970
vn 0.3980 0.6965 -0.5970
vn 0.3995 0.6861 -0.6080
vn 0.4043 0.6463 -0.6472
vn 0.4073 0.6110 -0.6788
vn -0.6350 0.7620 0.1270
vn -0.6284 0.7683 0.1221
vn -0.6117 0.7834 0.1100
vn -0.5970 0.7960 0.0995
vn 0.6052 0.7868 0.1210
vn 0.6125 0.7815 0.1188
vn 0.6320 0.7667 0.1127
vn 0.6470 0.7548 0.1078
vn 0.4264 0.6396 0.6396
vn 0.4171 0.6511 0.6341
vn 0.3835 0.6902 0.6136
vn 0.3586 0.7171 0.5976
vn -0.1210 0.7868 0.6052
vn -0.1188 0.7815 0.6125
vn -0.1127 0.7667 0.6320
vn -0.1078 0.7548 0.6470
vn 0.6396 0.6396 -0.4264
vn 0.6341 0.6511 -0.4171
vn 0.6136 0.6902 -0.3835
vn 0.5976 0.7171 -0.3586
vn -0.6052 0.7868 -0.1210
vn -0.6125 0.7815 -0.1188
vn -0.6320 0.7667 -0.1127
vn -0.6470 0.7548 -0.1078
vn -0.4264 0.6396 -0.6396
vn -0.4171 0.6511 -0.6341
vn -0.3835 0.6902 -0.6136
vn -0.3586 0.7171 -0.5976
vn 0.1210 0.7868 -0.6052
vn 0.1188 0.7815 -0.6125
vn 0.1127 0.7667 -0.6320
vn 0.1078 0.7548 -0.6470
vn -0.6396 0.6396 0.4264
vn -0.6341 0.6511 0.4171
vn -0.6136 0.6902 0.3835
vn -0.5976 0.7171 0.3586
vn 0.7485 -0.4366 0.4990
vn 0.7768 -0.3963 0.4894
vn 0.7609 -0.4195 0.4951
vn 0.8000 -0.3600 0.4800
vn 0.1690 -0.5071 0.8452
vn 0.1519 -0.5303 0.8341
vn 0.1606 -0.5186 0.8398
vn 0.1374 -0.5494 0.8242
vn -0.4990 -0.4366 0.7485
vn -0.4894 -0.3963 0.7768
vn -0.4951 -0.4195 0.7609
vn -0.4800 -0.3600 0.8000
vn 0.8452 -0.5071 -0.1690
vn 0.8341 -0.5303 -0.1519
vn 0.8398 -0.5186 -0.1606
vn 0.8242 -0.5494 -0.1374
vn -0.7485 -0.4366 -0.4990
vn -0.7768 -0.3963 -0.4894
vn -0.7609 -0.4195 -0.4951
vn -0.8000 -0.3600 -0.4800
vn -0.1690 -0.5071 -0.8452
vn -0.1519 -0.5303 -0.8341
vn -0.1606 -0.5186 -0.8398
vn -0.1374 -0.5494 -0.8242
vn 0.4990 -0.4366 -0.7485
vn 0.4894 -0.3963 -0.7768
vn 0.4951 -0.4195 -0.7609
vn 0.4800 -0.3600 -0.8000
vn -0.8452 -0.5071 0.1690
vn -0.8341 -0.5303 0.1519
vn -0.8398 -0.5186 0.1606
vn -0.8242 -0.5494 0.1374
vn 0.8269 -0.5375 0.1654
vn 0.8427 -0.5162 0.1527
vn 0.8345 -0.5274 0.1594
vn 0.8550 -0.4987 0.1425
vn 0.5121 -0.3841 0.7682
vn 0.4827 -0.4247 0.7659
vn 0.4996 -0.4018 0.7674
vn 0.4575 -0.4575 0.7625
vn -0.1654 -0.5375 0.8269
vn -0.1527 -0.5162 0.8427
vn -0.1594 -0.5274 0.8345
vn -0.1425 -0.4987 0.8550
vn 0.7682 -0.3841 -0.5121
vn 0.7659 -0.4247 -0.4827
vn 0.7674 -0.4018 -0.4996
vn 0.7625 -0.4575 -0.4575
vn -0.8269 -0.5375 -0.1654
vn -0.8427 -0.5162 -0.1527
vn -0.8345 -0.5274 -0.1594
vn -0.8550 -0.4987 -0.1425
vn -0.5121 -0.3841 -0.7682
vn -0.4827 -0.4247 -0.7659
vn -0.4996 -0.4018 -0.7674
vn -0.4575 -0.4575 -0.7625
vn 0.1654 -0.5375 -0.8269
vn 0.1527 -0.5162 -0.8427
vn 0.1594 -0.5274 -0.8345
vn 0.1425 -0.4987 -0.8550
vn -0.7682 -0.3841 0.5121
vn -0.7659 -0.4247 0.4827
vn -0.7674 -0.4018 0.4996
vn -0.7625 -0.4575 0.4575
vn -0.3714 -0.0000 0.9285
vn 0.3714 -0.0000 0.9285
vn 0.3714 -0.0000 -0.9285
vn -0.3714 -0.0000 -0.9285
vn 0.8137 -0.0000 0.5812
vn 0.5812 -0.0000 0.8137
vn 0.9701 -0.0000 0.2425
vn -0.8137 -0.0000 -0.5812
vn -0.5812 -0.0000 -0.8137
vn -0.9701 -0.0000 -0.2425
vn 0.4851 -0.7276 -0.4851
vn 0.6202 -0.7442 -0.2481
vn 0.6871 -0.6215 -0.3763
vn 0.6484 -0.7004 -0.2982
vn 0.7071 -0.5657 -0.4243
vn 0.6202 -0.7442 0.2481
vn 0.6484 -0.7004 0.2982
vn 0.6871 -0.6215 0.3763
vn 0.7071 -0.5657 0.4243
vn -0.4851 -0.7276 0.4851
vn -0.7785 -0.5449 0.3114
vn -0.7159 -0.6178 0.3253
vn -0.6291 -0.6999 0.3382
vn -0.5726 -0.7444 0.3436
vn -0.7785 -0.5449 -0.3114
vn -0.6291 -0.6999 -0.3382
vn -0.7159 -0.6178 -0.3253
vn -0.5726 -0.7444 -0.3436
vn 0.3114 -0.5449 -0.7785
vn 0.3382 -0.6999 -0.6291
vn 0.3253 -0.6178 -0.7159
vn 0.3436 -0.7444 -0.5726
vn 0.4851 -0.7276 0.4851
vn 0.3114 -0.5449 0.7785
vn 0.3253 -0.6178 0.7159
vn 0.3382 -0.6999 0.6291
vn 0.3436 -0.7444 0.5726
vn -0.2481 -0.7442 0.6202
vn -0.2982 -0.7004 0.6484
vn -0.3763 -0.6215 0.6871
vn -0.4243 -0.5657 0.7071
vn -0.4851 -0.7276 -0.4851
vn -0.2481 -0.7442 -0.6202
vn -0.3763 -0.6215 -0.6871
vn -0.2982 -0.7004 -0.6484
vn -0.4243 -0.5657 -0.7071
vn -0.7071 -0.7071 -0.0000
vn 0.7071 -0.7071 -0.0000
vn 0.8944 -0.4472 -0.0000
vn -0.8944 -0.4472 -0.0000
vt 0.572813 0.619462
vt 0.572813 0.620194
vt 0.568907 0.619462
vt 0.568907 0.620439
vt 0.572813 0.617509
vt 0.568907 0.617509
vt 0.568907 0.609696
vt 0.568907 0.608964
vt 0.572813 0.609696
vt 0.572813 0.608720
vt 0.568907 0.611650
vt 0.572813 0.611650
vt 0.572813 0.611405
vt 0.574034 0.612626
vt 0.574522 0.613847
vt 0.574522 0.615312
vt 0.574034 0.616532
vt 0.567686 0.616532
vt 0.568907 0.617753
vt 0.567198 0.615312
vt 0.567198 0.613847
vt 0.567686 0.612626
vt 0.570616 0.612382
vt 0.570372 0.611161
vt 0.571104 0.612382
vt 0.571348 0.611161
vt 0.572081 0.612626
vt 0.572569 0.611894
vt 0.572813 0.613359
vt 0.573546 0.612870
vt 0.573057 0.614335
vt 0.574278 0.614091
vt 0.573057 0.614823
vt 0.574278 0.615068
vt 0.572813 0.615800
vt 0.573546 0.616288
vt 0.572081 0.616532
vt 0.572569 0.617265
vt 0.571104 0.616777
vt 0.571348 0.617997
vt 0.570616 0.616777
vt 0.570372 0.617997
vt 0.569639 0.616532
vt 0.569151 0.617265
vt 0.568907 0.615800
vt 0.568174 0.616288
vt 0.568663 0.614823
vt 0.567442 0.615068
vt 0.568663 0.614335
vt 0.567442 0.614091
vt 0.568907 0.613359
vt 0.568174 0.612870
vt 0.569639 0.612626
vt 0.569151 0.611894
vt 0.576231 0.618974
vt 0.575499 0.619218
vt 0.576964 0.617021
vt 0.576964 0.617753
vt 0.570860 0.621171
vt 0.571348 0.621659
vt 0.573301 0.620683
vt 0.572813 0.621415
vt 0.566221 0.619218
vt 0.566465 0.619950
vt 0.568419 0.620683
vt 0.567686 0.620683
vt 0.577940 0.614091
vt 0.577452 0.614579
vt 0.576964 0.612138
vt 0.577696 0.612626
vt 0.575010 0.616288
vt 0.575499 0.614579
vt 0.574034 0.617753
vt 0.572569 0.618730
vt 0.570860 0.619218
vt 0.569395 0.618974
vt 0.567198 0.618241
vt 0.575743 0.612626
vt 0.574522 0.610917
vt 0.575255 0.613114
vt 0.565489 0.610185
vt 0.566221 0.609941
vt 0.564757 0.612138
vt 0.564757 0.611405
vt 0.570860 0.607987
vt 0.570372 0.607499
vt 0.568419 0.608476
vt 0.568907 0.607743
vt 0.575499 0.609941
vt 0.575255 0.609208
vt 0.573301 0.608476
vt 0.574034 0.608476
vt 0.563780 0.615068
vt 0.564268 0.614579
vt 0.564757 0.617021
vt 0.564024 0.616532
vt 0.566710 0.612870
vt 0.566221 0.614579
vt 0.567686 0.611405
vt 0.569151 0.610429
vt 0.570860 0.609941
vt 0.572325 0.610185
vt 0.565977 0.616532
vt 0.566465 0.616044
vt 0.570860 0.619462
vt 0.576231 0.614579
vt 0.575743 0.616532
vt 0.574522 0.618241
vt 0.570860 0.609696
vt 0.565489 0.614579
vt 0.565977 0.612626
vt 0.567198 0.610917
vt 0.577696 0.616532
vt 0.577940 0.615068
vt 0.574034 0.620683
vt 0.575255 0.619950
vt 0.568907 0.621415
vt 0.570372 0.621659
vt 0.576964 0.611405
vt 0.576231 0.610185
vt 0.564024 0.612626
vt 0.563780 0.614091
vt 0.567686 0.608476
vt 0.566465 0.609208
vt 0.572813 0.607743
vt 0.571348 0.607499
vt 0.564757 0.617753
vt 0.565489 0.618974
vt 0.570860 0.620194
vt 0.570860 0.608964
vt 0.570860 0.619950
vt 0.572813 0.619950
vt 0.568907 0.619950
vt 0.570860 0.617509
vt 0.570860 0.609208
vt 0.568907 0.609208
vt 0.572813 0.609208
vt 0.570860 0.611650
vt 0.570128 0.618241
vt 0.571592 0.618241
vt 0.572813 0.617753
vt 0.571592 0.610917
vt 0.570128 0.610917
vt 0.568907 0.611405
vt 0.570128 0.618974
vt 0.571592 0.618974
vt 0.569883 0.618730
vt 0.569883 0.618241
vt 0.571837 0.618730
vt 0.571837 0.618241
vt 0.570128 0.618730
vt 0.571592 0.618730
vt 0.570128 0.610185
vt 0.571592 0.610185
vt 0.569883 0.610429
vt 0.569883 0.610917
vt 0.571837 0.610429
vt 0.571837 0.610917
vt 0.570128 0.610429
vt 0.571592 0.610429
vt 0.570372 0.611405
vt 0.571348 0.611405
vt 0.574034 0.614091
vt 0.574034 0.615068
vt 0.571348 0.617753
vt 0.570372 0.617753
vt 0.567686 0.615068
vt 0.567686 0.614091
s 1
usemtl blue
f 2/1/1 3/1/1 1/2/1
f 3/1/1 4/2/1 1/2/1
f 6/3/2 7/4/2 5/3/2
f 7/4/2 8/4/2 5/3/2
f 10/5/1 11/1/1 9/5/1
f 11/1/1 12/1/1 9/5/1
f 14/6/2 15/6/2 13/3/2
f 15/6/2 16/3/2 13/3/2
f 18/7/2 19/7/2 17/8/2
f 19/7/2 20/8/2 17/8/2
f 22/9/1 23/10/1 21/9/1
f 23/10/1 24/10/1 21/9/1
f 26/11/2 27/7/2 25/11/2
f 27/7/2 28/7/2 25/11/2
f 30/12/1 31/12/1 29/9/1
f 31/12/1 32/9/1 29/9/1
f 34/13/3 35/14/3 33/13/3
f 35/14/3 36/14/3 33/13/3
f 38/14/4 39/15/4 37/14/4
f 39/15/4 40/15/4 37/14/4
f 42/16/1 43/16/1 41/15/1
f 43/16/1 44/15/1 41/15/1
f 46/17/5 47/17/5 45/16/5
f 47/17/5 48/16/5 45/16/5
f 50/18/6 51/18/6 49/19/6
f 51/18/6 52/19/6 49/19/6
f 54/20/7 55/20/7 53/18/7
f 55/20/7 56/18/7 53/18/7
f 58/20/2 59/21/2 57/20/2
f 59/21/2 60/21/2 57/20/2
f 62/21/8 63/22/8 61/21/8
f 63/22/8 64/22/8 61/21/8
f 66/23/9 67/24/9 65/25/9
f 67/24/9 68/26/9 65/25/9
f 70/25/9 71/26/9 69/27/9
f 71/26/9 72/28/9 69/27/9
f 74/27/9 75/28/9 73/29/9
f 75/28/9 76/30/9 73/29/9
f 78/29/9 79/30/9 77/31/9
f 79/30/9 80/32/9 77/31/9
f 82/33/9 83/31/9 81/34/9
f 83/31/9 84/32/9 81/34/9
f 86/35/9 87/33/9 85/36/9
f 87/33/9 88/34/9 85/36/9
f 90/37/9 91/35/9 89/38/9
f 91/35/9 92/36/9 89/38/9
f 94/39/9 95/37/9 93/40/9
f 95/37/9 96/38/9 93/40/9
f 98/41/9 99/39/9 97/42/9
f 99/39/9 100/40/9 97/42/9
f 102/43/9 103/41/9 101/44/9
f 103/41/9 104/42/9 101/44/9
f 106/45/9 107/43/9 105/46/9
f 107/43/9 108/44/9 105/46/9
f 110/47/9 111/45/9 109/48/9
f 111/45/9 112/46/9 109/48/9
f 114/47/9 115/48/9 113/49/9
f 115/48/9 116/50/9 113/49/9
f 118/49/9 119/50/9 117/51/9
f 119/50/9 120/52/9 117/51/9
f 122/51/9 123/52/9 121/53/9
f 123/52/9 124/54/9 121/53/9
f 126/53/9 127/54/9 125/23/9
f 127/54/9 128/24/9 125/23/9
f 130/55/10 131/56/10 129/55/10
f 131/56/10 132/56/10 129/55/10
f 134/57/1 135/58/1 133/57/1
f 135/58/1 136/58/1 133/57/1
f 138/59/6 139/59/6 137/60/6
f 139/59/6 140/60/6 137/60/6
f 142/61/11 143/62/11 141/61/11
f 143/62/11 144/62/11 141/61/11
f 146/63/12 147/63/12 145/64/12
f 147/63/12 148/64/12 145/64/12
f 150/65/13 151/66/13 149/65/13
f 151/66/13 152/66/13 149/65/13
f 154/67/14 155/68/14 153/67/14
f 155/68/14 156/68/14 153/67/14
f 158/69/15 159/70/15 157/69/15
f 159/70/15 160/70/15 157/69/15
f 162/71/16 163/72/16 161/71/16
f 163/72/16 164/72/16 161/71/16
f 166/73/17 167/71/17 165/73/17
f 167/71/17 168/71/17 165/73/17
f 170/74/18 171/73/18 169/74/18
f 171/73/18 172/73/18 169/74/18
f 174/75/19 175/74/19 173/75/19
f 175/74/19 176/74/19 173/75/19
f 178/76/20 179/75/20 177/76/20
f 179/75/20 180/75/20 177/76/20
f 182/77/21 183/3/21 181/77/21
f 183/3/21 184/3/21 181/77/21
f 186/78/22 187/79/22 185/78/22
f 187/79/22 188/79/22 185/78/22
f 190/72/23 191/80/23 189/72/23
f 191/80/23 192/80/23 189/72/23
f 194/76/24 195/76/24 193/3/24
f 195/76/24 196/3/24 193/3/24
f 198/80/24 199/78/24 197/80/24
f 199/78/24 200/78/24 197/80/24
f 202/81/25 203/82/25 201/81/25
f 203/82/25 204/82/25 201/81/25
f 206/83/2 207/84/2 205/83/2
f 207/84/2 208/84/2 205/83/2
f 210/85/3 211/85/3 209/86/3
f 211/85/3 212/86/3 209/86/3
f 214/87/17 215/88/17 213/87/17
f 215/88/17 216/88/17 213/87/17
f 218/89/26 219/89/26 217/90/26
f 219/89/26 220/90/26 217/90/26
f 222/91/27 223/92/27 221/91/27
f 223/92/27 224/92/27 221/91/27
f 226/93/24 227/94/24 225/93/24
f 227/94/24 228/94/24 225/93/24
f 230/95/28 231/96/28 229/95/28
f 231/96/28 232/96/28 229/95/28
f 234/97/29 235/98/29 233/97/29
f 235/98/29 236/98/29 233/97/29
f 238/99/11 239/97/11 237/99/11
f 239/97/11 240/97/11 237/99/11
f 242/100/30 243/99/30 241/100/30
f 243/99/30 244/99/30 241/100/30
f 246/101/31 247/100/31 245/101/31
f 247/100/31 248/100/31 245/101/31
f 250/102/32 251/101/32 249/102/32
f 251/101/32 252/101/32 249/102/32
f 254/79/33 255/9/33 253/79/33
f 255/9/33 256/9/33 253/79/33
f 258/103/34 259/77/34 257/103/34
f 259/77/34 260/77/34 257/103/34
f 262/98/35 263/104/35 261/98/35
f 263/104/35 264/104/35 261/98/35
f 266/102/14 267/102/14 265/9/14
f 267/102/14 268/9/14 265/9/14
f 270/104/14 271/103/14 269/104/14
f 271/103/14 272/103/14 269/104/14
f 274/70/35 275/67/35 273/70/35
f 275/67/35 276/67/35 273/70/35
f 278/105/27 279/3/27 277/105/27
f 279/3/27 280/3/27 277/105/27
f 282/3/21 283/77/21 281/3/21
f 283/77/21 284/77/21 281/3/21
f 286/78/22 287/78/22 285/79/22
f 287/78/22 288/79/22 285/79/22
f 290/106/36 291/106/36 289/78/36
f 291/106/36 292/78/36 289/78/36
f 294/72/9 295/106/9 293/71/9
f 295/106/9 296/107/9 293/71/9
f 298/71/9 299/107/9 297/73/9
f 299/107/9 300/108/9 297/73/9
f 302/73/9 303/108/9 301/74/9
f 303/108/9 304/1/9 301/74/9
f 306/74/9 307/1/9 305/75/9
f 307/1/9 308/105/9 305/75/9
f 310/76/9 311/75/9 309/3/9
f 311/75/9 312/105/9 309/3/9
f 314/80/9 315/78/9 313/72/9
f 315/78/9 316/106/9 313/72/9
f 318/109/13 319/9/13 317/109/13
f 319/9/13 320/9/13 317/109/13
f 322/9/33 323/79/33 321/9/33
f 323/79/33 324/79/33 321/9/33
f 326/103/34 327/103/34 325/77/34
f 327/103/34 328/77/34 325/77/34
f 330/110/37 331/110/37 329/103/37
f 331/110/37 332/103/37 329/103/37
f 334/98/9 335/110/9 333/97/9
f 335/110/9 336/111/9 333/97/9
f 338/97/9 339/111/9 337/99/9
f 339/111/9 340/112/9 337/99/9
f 342/99/9 343/112/9 341/100/9
f 343/112/9 344/7/9 341/100/9
f 346/100/9 347/7/9 345/101/9
f 347/7/9 348/109/9 345/101/9
f 350/102/9 351/101/9 349/9/9
f 351/101/9 352/109/9 349/9/9
f 354/104/9 355/103/9 353/98/9
f 355/103/9 356/110/9 353/98/9
f 358/113/30 359/57/30 357/113/30
f 359/57/30 360/57/30 357/113/30
f 362/68/3 363/114/3 361/68/3
f 363/114/3 364/114/3 361/68/3
f 366/61/13 367/61/13 365/115/13
f 367/61/13 368/115/13 365/115/13
f 370/56/38 371/116/38 369/56/38
f 371/116/38 372/116/38 369/56/38
f 374/65/39 375/65/39 373/117/39
f 375/65/39 376/117/39 373/117/39
f 378/59/14 379/118/14 377/59/14
f 379/118/14 380/118/14 377/59/14
f 382/119/1 383/69/1 381/119/1
f 383/69/1 384/69/1 381/119/1
f 386/89/40 387/120/40 385/89/40
f 387/120/40 388/120/40 385/89/40
f 390/121/18 391/83/18 389/121/18
f 391/83/18 392/83/18 389/121/18
f 394/94/6 395/122/6 393/94/6
f 395/122/6 396/122/6 393/94/6
f 398/87/27 399/87/27 397/123/27
f 399/87/27 400/123/27 397/123/27
f 402/82/41 403/124/41 401/82/41
f 403/124/41 404/124/41 401/82/41
f 406/91/42 407/91/42 405/125/42
f 407/91/42 408/125/42 405/125/42
f 410/85/24 411/126/24 409/85/24
f 411/126/24 412/126/24 409/85/24
f 414/127/2 415/95/2 413/127/2
f 415/95/2 416/95/2 413/127/2
f 418/63/43 419/128/43 417/63/43
f 419/128/43 420/128/43 417/63/43
f 422/72/44 423/71/44 421/68/44
f 423/71/44 424/57/44 421/68/44
f 426/71/44 427/73/44 425/57/44
f 427/73/44 428/56/44 425/57/44
f 430/73/44 431/74/44 429/56/44
f 431/74/44 432/61/44 429/56/44
f 434/74/44 435/75/44 433/61/44
f 435/75/44 436/59/44 433/61/44
f 438/75/44 439/3/44 437/59/44
f 439/3/44 440/65/44 437/59/44
f 442/3/44 443/77/44 441/65/44
f 443/77/44 444/63/44 441/65/44
f 446/78/44 447/69/44 445/79/44
f 447/69/44 448/89/44 445/79/44
f 450/72/44 451/68/44 449/78/44
f 451/68/44 452/69/44 449/78/44
f 454/98/44 455/97/44 453/94/44
f 455/97/44 456/83/44 453/94/44
f 458/97/44 459/99/44 457/83/44
f 459/99/44 460/82/44 457/83/44
f 462/99/44 463/100/44 461/82/44
f 463/100/44 464/87/44 461/82/44
f 466/100/44 467/101/44 465/87/44
f 467/101/44 468/85/44 465/87/44
f 470/101/44 471/9/44 469/85/44
f 471/9/44 472/91/44 469/85/44
f 474/9/44 475/79/44 473/91/44
f 475/79/44 476/89/44 473/91/44
f 478/103/44 479/95/44 477/77/44
f 479/95/44 480/63/44 477/77/44
f 482/98/44 483/94/44 481/103/44
f 483/94/44 484/95/44 481/103/44
f 486/58/45 487/55/45 485/58/45
f 487/55/45 488/55/45 485/58/45
f 490/62/46 491/60/46 489/62/46
f 491/60/46 492/60/46 489/62/46
f 494/64/47 495/64/47 493/66/47
f 495/64/47 496/66/47 493/66/47
f 498/84/48 499/81/48 497/84/48
f 499/81/48 500/81/48 497/84/48
f 502/88/49 503/86/49 501/88/49
f 503/86/49 504/86/49 501/88/49
f 506/90/50 507/90/50 505/92/50
f 507/90/50 508/92/50 505/92/50
f 510/96/23 511/93/23 509/96/23
f 511/93/23 512/93/23 509/96/23
f 514/114/51 515/113/51 513/114/51
f 515/113/51 516/113/51 513/114/51
f 518/116/52 519/115/52 517/116/52
f 519/115/52 520/115/52 517/116/52
f 522/117/32 523/117/32 521/118/32
f 523/117/32 524/118/32 521/118/32
f 526/120/53 527/119/53 525/120/53
f 527/119/53 528/119/53 525/120/53
f 530/122/54 531/121/54 529/122/54
f 531/121/54 532/121/54 529/122/54
f 534/124/55 535/123/55 533/124/55
f 535/123/55 536/123/55 533/124/55
f 538/125/20 539/125/20 537/126/20
f 539/125/20 540/126/20 537/126/20
f 542/128/56 543/127/56 541/128/56
f 543/127/56 544/127/56 541/128/56
f 546/106/9 547/68/9 545/107/9
f 547/68/9 548/57/9 545/107/9
f 550/107/9 551/57/9 549/108/9
f 551/57/9 552/56/9 549/108/9
f 554/108/9 555/56/9 553/1/9
f 555/56/9 556/61/9 553/1/9
f 558/2/9 559/61/9 557/129/9
f 559/61/9 560/59/9 557/129/9
f 562/129/9 563/59/9 561/4/9
f 563/59/9 564/65/9 561/4/9
f 566/3/9 567/65/9 565/77/9
f 567/65/9 568/63/9 565/77/9
f 570/78/9 571/79/9 569/69/9
f 571/79/9 572/89/9 569/69/9
f 574/106/9 575/78/9 573/68/9
f 575/78/9 576/69/9 573/68/9
f 578/110/9 579/94/9 577/111/9
f 579/94/9 580/83/9 577/111/9
f 582/111/9 583/83/9 581/112/9
f 583/83/9 584/82/9 581/112/9
f 586/112/9 587/82/9 585/7/9
f 587/82/9 588/87/9 585/7/9
f 590/8/9 591/87/9 589/130/9
f 591/87/9 592/85/9 589/130/9
f 594/130/9 595/85/9 593/10/9
f 595/85/9 596/91/9 593/10/9
f 598/9/9 599/91/9 597/79/9
f 599/91/9 600/89/9 597/79/9
f 602/103/9 603/77/9 601/95/9
f 603/77/9 604/63/9 601/95/9
f 606/110/9 607/103/9 605/94/9
f 607/103/9 608/95/9 605/94/9
f 610/129/13 611/2/13 609/129/13
f 611/2/13 612/2/13 609/129/13
f 614/129/57 615/129/57 613/4/57
f 615/129/57 616/4/57 613/4/57
f 618/131/58 619/132/58 617/129/58
f 619/132/58 620/2/58 617/129/58
f 622/131/58 623/129/59 621/133/60
f 623/129/59 624/4/61 621/133/60
f 626/105/62 627/1/62 625/131/62
f 627/1/62 628/132/62 625/131/62
f 630/105/62 631/131/62 629/3/62
f 631/131/62 632/133/62 629/3/62
f 634/134/9 635/5/9 633/105/9
f 635/5/9 636/1/9 633/105/9
f 638/134/9 639/105/9 637/6/9
f 639/105/9 640/3/9 637/6/9
f 642/130/27 643/8/27 641/130/27
f 643/8/27 644/8/27 641/130/27
f 646/130/63 647/130/63 645/10/63
f 647/130/63 648/10/63 645/10/63
f 650/135/64 651/136/64 649/130/64
f 651/136/64 652/8/64 649/130/64
f 654/135/64 655/130/65 653/137/66
f 655/130/65 656/10/67 653/137/66
f 658/109/68 659/7/68 657/135/68
f 659/7/68 660/136/68 657/135/68
f 662/109/68 663/135/68 661/9/68
f 663/135/68 664/137/68 661/9/68
f 666/138/9 667/11/9 665/109/9
f 667/11/9 668/7/9 665/109/9
f 670/138/9 671/109/9 669/12/9
f 671/109/9 672/9/9 669/12/9
f 674/5/44 675/134/44 673/1/44
f 675/134/44 676/105/44 673/1/44
f 678/6/44 679/3/44 677/134/44
f 679/3/44 680/105/44 677/134/44
f 682/11/44 683/138/44 681/7/44
f 683/138/44 684/109/44 681/7/44
f 686/12/44 687/9/44 685/138/44
f 687/9/44 688/109/44 685/138/44
f 690/1/27 691/105/27 689/1/27
f 691/105/27 692/105/27 689/1/27
f 694/3/27 695/3/27 693/105/27
f 695/3/27 696/105/27 693/105/27
f 698/7/13 699/109/13 697/7/13
f 699/109/13 700/109/13 697/7/13
f 702/9/13 703/9/13 701/109/13
f 703/9/13 704/109/13 701/109/13
f 706/56/69 707/55/70 705/57/71
f 707/55/70 708/58/72 705/57/71
f 710/59/73 711/60/74 709/61/75
f 711/60/74 712/62/76 709/61/75
f 714/63/77 715/64/78 713/65/79
f 715/64/78 716/66/80 713/65/79
f 718/68/81 719/67/82 717/69/83
f 719/67/82 720/70/84 717/69/83
f 722/82/85 723/81/86 721/83/87
f 723/81/86 724/84/88 721/83/87
f 726/85/89 727/86/90 725/87/91
f 727/86/90 728/88/92 725/87/91
f 730/89/93 731/90/94 729/91/95
f 731/90/94 732/92/96 729/91/95
f 734/94/97 735/93/98 733/95/99
f 735/93/98 736/96/100 733/95/99
f 738/57/101 739/113/102 737/68/103
f 739/113/102 740/114/104 737/68/103
f 742/61/105 743/115/106 741/56/107
f 743/115/106 744/116/108 741/56/107
f 746/65/109 747/117/110 745/59/111
f 747/117/110 748/118/112 745/59/111
f 750/69/113 751/119/114 749/89/115
f 751/119/114 752/120/116 749/89/115
f 754/83/117 755/121/118 753/94/119
f 755/121/118 756/122/120 753/94/119
f 758/87/121 759/123/122 757/82/123
f 759/123/122 760/124/124 757/82/123
f 762/91/125 763/125/126 761/85/127
f 763/125/126 764/126/128 761/85/127
f 766/95/129 767/127/130 765/63/131
f 767/127/130 768/128/132 765/63/131
f 770/56/133 771/57/134 769/55/135
f 771/57/134 772/58/136 769/55/135
f 774/59/137 775/61/138 773/60/139
f 775/61/138 776/62/140 773/60/139
f 778/63/141 779/65/142 777/64/143
f 779/65/142 780/66/144 777/64/143
f 782/68/145 783/69/146 781/67/147
f 783/69/146 784/70/148 781/67/147
f 786/82/149 787/83/150 785/81/151
f 787/83/150 788/84/152 785/81/151
f 790/85/153 791/87/154 789/86/155
f 791/87/154 792/88/156 789/86/155
f 794/89/157 795/91/158 793/90/159
f 795/91/158 796/92/160 793/90/159
f 798/94/161 799/95/162 797/93/163
f 799/95/162 800/96/164 797/93/163
f 802/57/165 803/68/166 801/113/167
f 803/68/166 804/114/168 801/113/167
f 806/61/169 807/56/170 805/115/171
f 807/56/170 808/116/172 805/115/171
f 810/65/173 811/59/174 809/117/175
f 811/59/174 812/118/176 809/117/175
f 814/69/177 815/89/178 813/119/179
f 815/89/178 816/120/180 813/119/179
f 818/83/181 819/94/182 817/121/183
f 819/94/182 820/122/184 817/121/183
f 822/87/185 823/82/186 821/123/187
f 823/82/186 824/124/188 821/123/187
f 826/91/189 827/85/190 825/125/191
f 827/85/190 828/126/192 825/125/191
f 830/95/193 831/63/194 829/127/195
f 831/63/194 832/128/196 829/127/195
f 834/139/197 835/139/197 833/19/197
f 835/139/197 836/19/197 833/19/197
f 838/139/13 839/140/13 837/139/13
f 839/140/13 840/140/13 837/139/13
f 842/141/198 843/141/198 841/140/198
f 843/141/198 844/140/198 841/140/198
f 846/17/14 847/141/14 845/17/14
f 847/141/14 848/141/14 845/17/14
f 850/142/199 851/142/199 849/13/199
f 851/142/199 852/13/199 849/13/199
f 854/143/27 855/143/27 853/142/27
f 855/143/27 856/142/27 853/142/27
f 858/143/200 859/144/200 857/143/200
f 859/144/200 860/144/200 857/143/200
f 862/144/24 863/22/24 861/144/24
f 863/22/24 864/22/24 861/144/24
f 866/111/201 867/112/201 865/111/201
f 867/112/201 868/112/201 865/111/201
f 870/112/202 871/7/202 869/112/202
f 871/7/202 872/7/202 869/112/202
f 874/100/30 875/100/30 873/99/30
f 875/100/30 876/99/30 873/99/30
f 878/99/11 879/97/11 877/99/11
f 879/97/11 880/97/11 877/99/11
f 882/111/203 883/110/203 881/111/203
f 883/110/203 884/110/203 881/111/203
f 886/109/13 887/109/13 885/7/13
f 887/109/13 888/7/13 885/7/13
f 890/100/9 891/99/9 889/7/9
f 891/99/9 892/112/9 889/7/9
f 894/100/44 895/7/44 893/99/44
f 895/7/44 896/112/44 893/99/44
f 898/100/26 899/7/26 897/100/26
f 899/7/26 900/7/26 897/100/26
f 902/99/9 903/97/9 901/112/9
f 903/97/9 904/111/9 901/112/9
f 906/97/43 907/97/43 905/111/43
f 907/97/43 908/111/43 905/111/43
f 910/99/44 911/112/44 909/97/44
f 911/112/44 912/111/44 909/97/44
f 914/107/204 915/108/204 913/107/204
f 915/108/204 916/108/204 913/107/204
f 918/108/205 919/1/205 917/108/205
f 919/1/205 920/1/205 917/108/205
f 922/74/18 923/74/18 921/73/18
f 923/74/18 924/73/18 921/73/18
f 926/73/17 927/71/17 925/73/17
f 927/71/17 928/71/17 925/73/17
f 930/107/206 931/106/206 929/107/206
f 931/106/206 932/106/206 929/107/206
f 934/105/27 935/105/27 933/1/27
f 935/105/27 936/1/27 933/1/27
f 938/74/9 939/73/9 937/1/9
f 939/73/9 940/108/9 937/1/9
f 942/74/44 943/1/44 941/73/44
f 943/1/44 944/108/44 941/73/44
f 946/74/12 947/1/12 945/74/12
f 947/1/12 948/1/12 945/74/12
f 950/73/9 951/71/9 949/108/9
f 951/71/9 952/107/9 949/108/9
f 954/71/40 955/71/40 953/107/40
f 955/71/40 956/107/40 953/107/40
f 958/73/44 959/108/44 957/71/44
f 959/108/44 960/107/44 957/71/44
f 962/13/207 963/14/207 961/28/207
f 963/14/207 964/30/207 961/28/207
f 966/14/208 967/15/209 965/30/210
f 967/15/209 968/32/211 965/30/210
f 970/17/212 971/36/213 969/16/214
f 971/36/213 972/34/215 969/16/214
f 974/18/216 975/46/216 973/19/216
f 975/46/216 976/44/216 973/19/216
f 978/20/217 979/48/218 977/18/219
f 979/48/218 980/46/220 977/18/219
f 982/21/221 983/22/222 981/50/223
f 983/22/222 984/52/224 981/50/223
f 986/143/64 987/142/64 985/24/64
f 987/142/64 988/26/64 985/24/64
f 990/142/225 991/13/226 989/26/227
f 991/13/226 992/28/228 989/26/227
f 994/141/229 995/38/229 993/17/229
f 995/38/229 996/36/229 993/17/229
f 998/140/230 999/40/231 997/141/232
f 999/40/231 1000/38/233 997/141/232
f 1002/139/58 1003/42/58 1001/140/58
f 1003/42/58 1004/40/58 1001/140/58
f 1006/19/234 1007/44/235 1005/139/236
f 1007/44/235 1008/42/237 1005/139/236
f 1010/22/238 1011/144/238 1009/52/238
f 1011/144/238 1012/54/238 1009/52/238
f 1014/144/239 1015/143/240 1013/54/241
f 1015/143/240 1016/24/242 1013/54/241
f 1018/145/13 1019/146/13 1017/145/13
f 1019/146/13 1020/146/13 1017/145/13
f 1022/147/2 1023/147/2 1021/148/2
f 1023/147/2 1024/148/2 1021/148/2
f 1026/149/1 1027/150/1 1025/149/1
f 1027/150/1 1028/150/1 1025/149/1
f 1030/151/9 1031/139/9 1029/152/9
f 1031/139/9 1032/140/9 1029/152/9
f 1034/147/243 1035/148/243 1033/151/243
f 1035/148/243 1036/139/243 1033/151/243
f 1038/147/6 1039/145/6 1037/147/6
f 1039/145/6 1040/145/6 1037/147/6
f 1042/149/14 1043/149/14 1041/146/14
f 1043/149/14 1044/146/14 1041/146/14
f 1046/152/62 1047/146/62 1045/151/62
f 1047/146/62 1048/145/62 1045/151/62
f 1050/149/244 1051/152/244 1049/150/244
f 1051/152/244 1052/140/244 1049/150/244
f 1054/153/27 1055/153/27 1053/154/27
f 1055/153/27 1056/154/27 1053/154/27
f 1058/155/2 1059/156/2 1057/155/2
f 1059/156/2 1060/156/2 1057/155/2
f 1062/157/1 1063/157/1 1061/158/1
f 1063/157/1 1064/158/1 1061/158/1
f 1066/159/9 1067/160/9 1065/143/9
f 1067/160/9 1068/142/9 1065/143/9
f 1070/155/243 1071/159/243 1069/156/243
f 1071/159/243 1072/143/243 1069/156/243
f 1074/155/24 1075/155/24 1073/153/24
f 1075/155/24 1076/153/24 1073/153/24
f 1078/157/3 1079/154/3 1077/157/3
f 1079/154/3 1080/154/3 1077/157/3
f 1082/160/68 1083/159/68 1081/154/68
f 1083/159/68 1084/153/68 1081/154/68
f 1086/157/244 1087/158/244 1085/160/244
f 1087/158/244 1088/142/244 1085/160/244
f 1090/34/245 1091/32/245 1089/16/245
f 1091/32/245 1092/15/245 1089/16/245
f 1094/20/246 1095/21/246 1093/48/246
f 1095/21/246 1096/50/246 1093/48/246
f 1098/161/44 1099/162/44 1097/143/44
f 1099/162/44 1100/142/44 1097/143/44
f 1102/28/44 1103/13/44 1101/162/44
f 1103/13/44 1104/142/44 1101/162/44
f 1106/30/44 1107/14/44 1105/28/44
f 1107/14/44 1108/13/44 1105/28/44
f 1110/163/44 1111/15/44 1109/30/44
f 1111/15/44 1112/14/44 1109/30/44
f 1114/164/44 1115/16/44 1113/163/44
f 1115/16/44 1116/15/44 1113/163/44
f 1118/36/44 1119/17/44 1117/164/44
f 1119/17/44 1120/16/44 1117/164/44
f 1122/38/44 1123/141/44 1121/36/44
f 1123/141/44 1124/17/44 1121/36/44
f 1126/165/44 1127/140/44 1125/38/44
f 1127/140/44 1128/141/44 1125/38/44
f 1130/166/44 1131/139/44 1129/165/44
f 1131/139/44 1132/140/44 1129/165/44
f 1134/166/44 1135/44/44 1133/139/44
f 1135/44/44 1136/19/44 1133/139/44
f 1138/44/44 1139/46/44 1137/19/44
f 1139/46/44 1140/18/44 1137/19/44
f 1142/46/44 1143/167/44 1141/18/44
f 1143/167/44 1144/20/44 1141/18/44
f 1146/167/44 1147/168/44 1145/20/44
f 1147/168/44 1148/21/44 1145/20/44
f 1150/168/44 1151/52/44 1149/21/44
f 1151/52/44 1152/22/44 1149/21/44
f 1154/52/44 1155/54/44 1153/22/44
f 1155/54/44 1156/144/44 1153/22/44
f 1158/54/44 1159/161/44 1157/144/44
f 1159/161/44 1160/143/44 1157/144/44
f 1162/161/13 1163/162/13 1161/161/13
f 1163/162/13 1164/162/13 1161/161/13
f 1166/28/197 1167/28/197 1165/162/197
f 1167/28/197 1168/162/197 1165/162/197
f 1170/30/6 1171/30/6 1169/28/6
f 1171/30/6 1172/28/6 1169/28/6
f 1174/163/7 1175/163/7 1173/30/7
f 1175/163/7 1176/30/7 1173/30/7
f 1178/164/2 1179/164/2 1177/163/2
f 1179/164/2 1180/163/2 1177/163/2
f 1182/36/8 1183/36/8 1181/164/8
f 1183/36/8 1184/164/8 1181/164/8
f 1186/38/24 1187/38/24 1185/36/24
f 1187/38/24 1188/36/24 1185/36/24
f 1190/165/200 1191/165/200 1189/38/200
f 1191/165/200 1192/38/200 1189/38/200
f 1194/166/27 1195/166/27 1193/165/27
f 1195/166/27 1196/165/27 1193/165/27
f 1198/166/199 1199/44/199 1197/166/199
f 1199/44/199 1200/44/199 1197/166/199
f 1202/44/3 1203/46/3 1201/44/3
f 1203/46/3 1204/46/3 1201/44/3
f 1206/46/4 1207/167/4 1205/46/4
f 1207/167/4 1208/167/4 1205/46/4
f 1210/167/1 1211/168/1 1209/167/1
f 1211/168/1 1212/168/1 1209/167/1
f 1214/168/5 1215/52/5 1213/168/5
f 1215/52/5 1216/52/5 1213/168/5
f 1218/52/14 1219/54/14 1217/52/14
f 1219/54/14 1220/54/14 1217/52/14
f 1222/54/198 1223/161/198 1221/54/198
f 1223/161/198 1224/161/198 1221/54/198
o mesh_521
v -0.019531 -0.062500 0.031250
v -0.019531 -0.097656 0.031250
v -0.003906 -0.097656 0.035156
v -0.003906 -0.062500 0.035156
v -0.003906 -0.062500 0.035156
v -0.003906 -0.097656 0.035156
v 0.003906 -0.097656 0.035156
v 0.003906 -0.062500 0.035156
v 0.003906 -0.062500 0.035156
v 0.003906 -0.097656 0.035156
v 0.019531 -0.097656 0.031250
v 0.019531 -0.062500 0.031250
v 0.019531 -0.062500 0.031250
v 0.019531 -0.097656 0.031250
v 0.031250 -0.097656 0.019531
v 0.031250 -0.062500 0.019531
v 0.031250 -0.062500 0.019531
v 0.031250 -0.097656 0.019531
v 0.035156 -0.097656 0.003906
v 0.035156 -0.062500 0.003906
v 0.035156 -0.062500 0.003906
v 0.035156 -0.097656 0.003906
v 0.035156 -0.097656 -0.003906
v 0.035156 -0.062500 -0.003906
v 0.035156 -0.097656 -0.003906
v 0.031250 -0.097656 -0.019531
v 0.031250 -0.062500 -0.019531
v 0.035156 -0.062500 -0.003906
v 0.031250 -0.097656 -0.019531
v 0.019531 -0.097656 -0.031250
v 0.019531 -0.062500 -0.031250
v 0.031250 -0.062500 -0.019531
v 0.019531 -0.097656 -0.031250
v 0.003906 -0.097656 -0.035156
v 0.003906 -0.062500 -0.035156
v 0.019531 -0.062500 -0.031250
v 0.003906 -0.097656 -0.035156
v -0.003906 -0.097656 -0.035156
v -0.003906 -0.062500 -0.035156
v 0.003906 -0.062500 -0.035156
v -0.003906 -0.097656 -0.035156
v -0.019531 -0.097656 -0.031250
v -0.019531 -0.062500 -0.031250
v -0.003906 -0.062500 -0.035156
v -0.019531 -0.097656 -0.031250
v -0.031250 -0.097656 -0.019531
v -0.031250 -0.062500 -0.019531
v -0.019531 -0.062500 -0.031250
v -0.031250 -0.097656 -0.019531
v -0.035156 -0.097656 -0.003906
v -0.035156 -0.062500 -0.003906
v -0.031250 -0.062500 -0.019531
v -0.035156 -0.097656 -0.003906
v -0.035156 -0.097656 0.003906
v -0.035156 -0.062500 0.003906
v -0.035156 -0.062500 -0.003906
v -0.035156 -0.062500 0.003906
v -0.035156 -0.097656 0.003906
v -0.031250 -0.097656 0.019531
v -0.031250 -0.062500 0.019531
v -0.031250 -0.062500 0.019531
v -0.031250 -0.097656 0.019531
v -0.019531 -0.097656 0.031250
v -0.019531 -0.062500 0.031250
v -0.019531 -0.097656 0.031250
v -0.019531 -0.101562 0.027344
v -0.003906 -0.101562 0.031250
v -0.003906 -0.097656 0.035156
v -0.003906 -0.097656 0.035156
v -0.003906 -0.101562 0.031250
v 0.003906 -0.101562 0.031250
v 0.003906 -0.097656 0.035156
v 0.003906 -0.097656 0.035156
v 0.003906 -0.101562 0.031250
v 0.019531 -0.101562 0.027344
v 0.019531 -0.097656 0.031250
v 0.019531 -0.097656 0.031250
v 0.019531 -0.101562 0.027344
v 0.027344 -0.101562 0.019531
v 0.031250 -0.097656 0.019531
v 0.031250 -0.097656 0.019531
v 0.027344 -0.101562 0.019531
v 0.031250 -0.101562 0.003906
v 0.035156 -0.097656 0.003906
v 0.035156 -0.097656 0.003906
v 0.031250 -0.101562 0.003906
v 0.031250 -0.101562 -0.003906
v 0.035156 -0.097656 -0.003906
v 0.031250 -0.101562 -0.003906
v 0.027344 -0.101562 -0.019531
v 0.031250 -0.097656 -0.019531
v 0.035156 -0.097656 -0.003906
v 0.027344 -0.101562 -0.019531
v 0.019531 -0.101562 -0.027344
v 0.019531 -0.097656 -0.031250
v 0.031250 -0.097656 -0.019531
v 0.019531 -0.101562 -0.027344
v 0.003906 -0.101562 -0.031250
v 0.003906 -0.097656 -0.035156
v 0.019531 -0.097656 -0.031250
v 0.003906 -0.101562 -0.031250
v -0.003906 -0.101562 -0.031250
v -0.003906 -0.097656 -0.035156
v 0.003906 -0.097656 -0.035156
v -0.003906 -0.101562 -0.031250
v -0.019531 -0.101562 -0.027344
v -0.019531 -0.097656 -0.031250
v -0.003906 -0.097656 -0.035156
v -0.019531 -0.101562 -0.027344
v -0.027344 -0.101562 -0.019531
v -0.031250 -0.097656 -0.019531
v -0.019531 -0.097656 -0.031250
v -0.027344 -0.101562 -0.019531
v -0.031250 -0.101562 -0.003906
v -0.035156 -0.097656 -0.003906
v -0.031250 -0.097656 -0.019531
v -0.031250 -0.101562 -0.003906
v -0.031250 -0.101562 0.003906
v -0.035156 -0.097656 0.003906
v -0.035156 -0.097656 -0.003906
v -0.035156 -0.097656 0.003906
v -0.031250 -0.101562 0.003906
v -0.027344 -0.101562 0.019531
v -0.031250 -0.097656 0.019531
v -0.031250 -0.097656 0.019531
v -0.027344 -0.101562 0.019531
v -0.019531 -0.101562 0.027344
v -0.019531 -0.097656 0.031250
v -0.007812 -0.101562 0.011719
v 0.000000 -0.101562 0.015625
v -0.003906 -0.101562 0.031250
v -0.019531 -0.101562 0.027344
v -0.003906 -0.101562 0.031250
v 0.000000 -0.101562 0.015625
v 0.000000 -0.101562 0.015625
v 0.003906 -0.101562 0.031250
v 0.003906 -0.101562 0.031250
v 0.000000 -0.101562 0.015625
v 0.007812 -0.101562 0.011719
v 0.019531 -0.101562 0.027344
v 0.019531 -0.101562 0.027344
v 0.007812 -0.101562 0.011719
v 0.011719 -0.101562 0.007812
v 0.027344 -0.101562 0.019531
v 0.027344 -0.101562 0.019531
v 0.011719 -0.101562 0.007812
v 0.015625 -0.101562 0.000000
v 0.031250 -0.101562 0.003906
v 0.031250 -0.101562 0.003906
v 0.015625 -0.101562 0.000000
v 0.015625 -0.101562 0.000000
v 0.031250 -0.101562 -0.003906
v 0.031250 -0.101562 -0.003906
v 0.015625 -0.101562 0.000000
v 0.011719 -0.101562 -0.007812
v 0.027344 -0.101562 -0.019531
v 0.027344 -0.101562 -0.019531
v 0.011719 -0.101562 -0.007812
v 0.007812 -0.101562 -0.011719
v 0.019531 -0.101562 -0.027344
v 0.019531 -0.101562 -0.027344
v 0.007812 -0.101562 -0.011719
v 0.000000 -0.101562 -0.015625
v 0.003906 -0.101562 -0.031250
v 0.000000 -0.101562 -0.015625
v 0.000000 -0.101562 -0.015625
v -0.003906 -0.101562 -0.031250
v 0.003906 -0.101562 -0.031250
v 0.000000 -0.101562 -0.015625
v -0.007812 -0.101562 -0.011719
v -0.019531 -0.101562 -0.027344
v -0.003906 -0.101562 -0.031250
v -0.007812 -0.101562 -0.011719
v -0.011719 -0.101562 -0.007812
v -0.027344 -0.101562 -0.019531
v -0.019531 -0.101562 -0.027344
v -0.011719 -0.101562 -0.007812
v -0.015625 -0.101562 0.000000
v -0.031250 -0.101562 -0.003906
v -0.027344 -0.101562 -0.019531
v -0.015625 -0.101562 0.000000
v -0.015625 -0.101562 0.000000
v -0.031250 -0.101562 0.003906
v -0.031250 -0.101562 -0.003906
v -0.015625 -0.101562 0.000000
v -0.011719 -0.101562 0.007812
v -0.027344 -0.101562 0.019531
v -0.031250 -0.101562 0.003906
v -0.011719 -0.101562 0.007812
v -0.007812 -0.101562 0.011719
v -0.019531 -0.101562 0.027344
v -0.027344 -0.101562 0.019531
v -0.007812 0.000000 0.046875
v -0.027344 0.000000 0.039062
v -0.027344 -0.054688 0.039062
v -0.007812 -0.054688 0.046875
v 0.007812 0.000000 0.046875
v -0.007812 0.000000 0.046875
v -0.007812 -0.054688 0.046875
v 0.007812 -0.054688 0.046875
v 0.027344 0.000000 0.039062
v 0.007812 0.000000 0.046875
v 0.007812 -0.054688 0.046875
v 0.027344 -0.054688 0.039062
v 0.039062 0.000000 0.027344
v 0.027344 0.000000 0.039062
v 0.027344 -0.054688 0.039062
v 0.039062 -0.054688 0.027344
v 0.046875 0.000000 0.007812
v 0.039062 0.000000 0.027344
v 0.039062 -0.054688 0.027344
v 0.046875 -0.054688 0.007812
v 0.046875 0.000000 -0.007812
v 0.046875 0.000000 0.007812
v 0.046875 -0.054688 0.007812
v 0.046875 -0.054688 -0.007812
v 0.039062 -0.054688 -0.027344
v 0.039062 0.000000 -0.027344
v 0.046875 0.000000 -0.007812
v 0.046875 -0.054688 -0.007812
v 0.027344 -0.054688 -0.039062
v 0.027344 0.000000 -0.039062
v 0.039062 0.000000 -0.027344
v 0.039062 -0.054688 -0.027344
v 0.007812 -0.054688 -0.046875
v 0.007812 0.000000 -0.046875
v 0.027344 0.000000 -0.039062
v 0.027344 -0.054688 -0.039062
v -0.007812 -0.054688 -0.046875
v -0.007812 0.000000 -0.046875
v 0.007812 0.000000 -0.046875
v 0.007812 -0.054688 -0.046875
v -0.027344 -0.054688 -0.039062
v -0.027344 0.000000 -0.039062
v -0.007812 0.000000 -0.046875
v -0.007812 -0.054688 -0.046875
v -0.039062 -0.054688 -0.027344
v -0.039062 0.000000 -0.027344
v -0.027344 0.000000 -0.039062
v -0.027344 -0.054688 -0.039062
v -0.046875 -0.054688 -0.007812
v -0.046875 0.000000 -0.007812
v -0.039062 0.000000 -0.027344
v -0.039062 -0.054688 -0.027344
v -0.046875 -0.054688 0.007812
v -0.046875 0.000000 0.007812
v -0.046875 0.000000 -0.007812
v -0.046875 -0.054688 -0.007812
v -0.039062 0.000000 0.027344
v -0.046875 0.000000 0.007812
v -0.046875 -0.054688 0.007812
v -0.039062 -0.054688 0.027344
v -0.027344 0.000000 0.039062
v -0.039062 0.000000 0.027344
v -0.039062 -0.054688 0.027344
v -0.027344 -0.054688 0.039062
v 0.007812 0.000000 0.046875
v 0.027344 0.000000 0.039062
v 0.011719 0.000000 0.019531
v 0.003906 0.000000 0.023438
v -0.046875 0.000000 0.007812
v -0.039062 0.000000 0.027344
v -0.019531 0.000000 0.011719
v -0.023438 0.000000 0.003906
v -0.003906 0.000000 0.023438
v -0.011719 0.000000 0.019531
v -0.027344 0.000000 0.039062
v -0.007812 0.000000 0.046875
v 0.007812 0.000000 0.046875
v 0.003906 0.000000 0.023438
v -0.003906 0.000000 0.023438
v -0.007812 0.000000 0.046875
v 0.039062 0.000000 0.027344
v 0.019531 0.000000 0.011719
v 0.011719 0.000000 0.019531
v 0.027344 0.000000 0.039062
v 0.023438 0.000000 0.003906
v 0.019531 0.000000 0.011719
v 0.039062 0.000000 0.027344
v 0.046875 0.000000 0.007812
v 0.046875 0.000000 -0.007812
v 0.023438 0.000000 -0.003906
v 0.023438 0.000000 0.003906
v 0.046875 0.000000 0.007812
v 0.019531 0.000000 -0.011719
v 0.023438 0.000000 -0.003906
v 0.046875 0.000000 -0.007812
v 0.039062 0.000000 -0.027344
v 0.027344 0.000000 -0.039062
v 0.011719 0.000000 -0.019531
v 0.019531 0.000000 -0.011719
v 0.039062 0.000000 -0.027344
v 0.003906 0.000000 -0.023438
v 0.011719 0.000000 -0.019531
v 0.027344 0.000000 -0.039062
v 0.007812 0.000000 -0.046875
v -0.007812 0.000000 -0.046875
v -0.003906 0.000000 -0.023438
v 0.003906 0.000000 -0.023438
v 0.007812 0.000000 -0.046875
v -0.011719 0.000000 -0.019531
v -0.003906 0.000000 -0.023438
v -0.007812 0.000000 -0.046875
v -0.027344 0.000000 -0.039062
v -0.039062 0.000000 -0.027344
v -0.019531 0.000000 -0.011719
v -0.011719 0.000000 -0.019531
v -0.027344 0.000000 -0.039062
v -0.023438 0.000000 -0.003906
v -0.019531 0.000000 -0.011719
v -0.039062 0.000000 -0.027344
v -0.046875 0.000000 -0.007812
v -0.046875 0.000000 0.007812
v -0.023438 0.000000 0.003906
v -0.023438 0.000000 -0.003906
v -0.046875 0.000000 -0.007812
v -0.027344 0.000000 0.039062
v -0.011719 0.000000 0.019531
v -0.019531 0.000000 0.011719
v -0.039062 0.000000 0.027344
vn -0.2425 -0.0000 0.9701
vn -0.0000 -0.0000 1.0000
vn 0.2425 -0.0000 0.9701
vn 0.7071 -0.0000 0.7071
vn 0.9701 -0.0000 0.2425
vn 1.0000 -0.0000 -0.0000
vn 0.9701 -0.0000 -0.2425
vn 0.7071 -0.0000 -0.7071
vn 0.2425 -0.0000 -0.9701
vn -0.0000 -0.0000 -1.0000
vn -0.2425 -0.0000 -0.9701
vn -0.7071 -0.0000 -0.7071
vn -0.9701 -0.0000 -0.2425
vn -1.0000 -0.0000 -0.0000
vn -0.9701 -0.0000 0.2425
vn -0.7071 -0.0000 0.7071
vn -0.1741 -0.6963 0.6963
vn -0.0000 -0.7071 0.7071
vn 0.1741 -0.6963 0.6963
vn 0.5774 -0.5774 0.5774
vn 0.6963 -0.6963 0.1741
vn 0.7071 -0.7071 -0.0000
vn 0.6963 -0.6963 -0.1741
vn 0.5774 -0.5774 -0.5774
vn 0.1741 -0.6963 -0.6963
vn -0.0000 -0.7071 -0.7071
vn -0.1741 -0.6963 -0.6963
vn -0.5774 -0.5774 -0.5774
vn -0.6963 -0.6963 -0.1741
vn -0.7071 -0.7071 -0.0000
vn -0.6963 -0.6963 0.1741
vn -0.5774 -0.5774 0.5774
vn -0.0000 -1.0000 -0.0000
vn -0.0000 1.0000 -0.0000
vn -0.3714 -0.0000 0.9285
vn 0.3714 -0.0000 0.9285
vn 0.9285 -0.0000 0.3714
vn 0.9285 -0.0000 -0.3714
vn 0.3714 -0.0000 -0.9285
vn -0.3714 -0.0000 -0.9285
vn -0.9285 -0.0000 -0.3714
vn -0.9285 -0.0000 0.3714
vt 0.465388 0.574099
vt 0.466365 0.574343
vt 0.466853 0.574343
vt 0.467830 0.574099
vt 0.468562 0.573367
vt 0.468806 0.572390
vt 0.468806 0.571902
vt 0.468562 0.570925
vt 0.467830 0.570193
vt 0.466853 0.569949
vt 0.466365 0.569949
vt 0.465388 0.570193
vt 0.464656 0.570925
vt 0.464412 0.571902
vt 0.464412 0.572390
vt 0.464656 0.573367
vt 0.465388 0.573855
vt 0.466365 0.574099
vt 0.466853 0.574099
vt 0.467830 0.573855
vt 0.468318 0.573367
vt 0.468562 0.572390
vt 0.468562 0.571902
vt 0.468318 0.570925
vt 0.467830 0.570437
vt 0.466853 0.570193
vt 0.466365 0.570193
vt 0.465388 0.570437
vt 0.464900 0.570925
vt 0.464656 0.571902
vt 0.464656 0.572390
vt 0.464900 0.573367
vt 0.466609 0.573123
vt 0.466121 0.572878
vt 0.467097 0.572878
vt 0.467341 0.572634
vt 0.467586 0.572146
vt 0.467341 0.571658
vt 0.467097 0.571414
vt 0.466609 0.571169
vt 0.466121 0.571414
vt 0.465877 0.571658
vt 0.465632 0.572146
vt 0.465877 0.572634
vt 0.464900 0.574587
vt 0.466121 0.575076
vt 0.467097 0.575076
vt 0.468318 0.574587
vt 0.469050 0.573855
vt 0.469539 0.572634
vt 0.469539 0.571658
vt 0.469050 0.570437
vt 0.468318 0.569705
vt 0.467097 0.569216
vt 0.466121 0.569216
vt 0.464900 0.569705
vt 0.464168 0.570437
vt 0.463679 0.571658
vt 0.463679 0.572634
vt 0.464168 0.573855
vt 0.467341 0.573367
vt 0.466853 0.573611
vt 0.465388 0.572878
vt 0.465144 0.572390
vt 0.465877 0.573367
vt 0.466365 0.573611
vt 0.467830 0.572878
vt 0.468074 0.572390
vt 0.468074 0.571902
vt 0.467830 0.571414
vt 0.467341 0.570925
vt 0.466853 0.570681
vt 0.466365 0.570681
vt 0.465877 0.570925
vt 0.465388 0.571414
vt 0.465144 0.571902
s 1
usemtl red
f 1226/169/247 1227/170/247 1225/169/247
f 1227/170/247 1228/170/247 1225/169/247
f 1230/170/248 1231/171/248 1229/170/248
f 1231/171/248 1232/171/248 1229/170/248
f 1234/171/249 1235/172/249 1233/171/249
f 1235/172/249 1236/172/249 1233/171/249
f 1238/172/250 1239/173/250 1237/172/250
f 1239/173/250 1240/173/250 1237/172/250
f 1242/173/251 1243/174/251 1241/173/251
f 1243/174/251 1244/174/251 1241/173/251
f 1246/174/252 1247/175/252 1245/174/252
f 1247/175/252 1248/175/252 1245/174/252
f 1250/176/253 1251/176/253 1249/175/253
f 1251/176/253 1252/175/253 1249/175/253
f 1254/177/254 1255/177/254 1253/176/254
f 1255/177/254 1256/176/254 1253/176/254
f 1258/178/255 1259/178/255 1257/177/255
f 1259/178/255 1260/177/255 1257/177/255
f 1262/179/256 1263/179/256 1261/178/256
f 1263/179/256 1264/178/256 1261/178/256
f 1266/180/257 1267/180/257 1265/179/257
f 1267/180/257 1268/179/257 1265/179/257
f 1270/181/258 1271/181/258 1269/180/258
f 1271/181/258 1272/180/258 1269/180/258
f 1274/182/259 1275/182/259 1273/181/259
f 1275/182/259 1276/181/259 1273/181/259
f 1278/183/260 1279/183/260 1277/182/260
f 1279/183/260 1280/182/260 1277/182/260
f 1282/183/261 1283/184/261 1281/183/261
f 1283/184/261 1284/184/261 1281/183/261
f 1286/184/262 1287/169/262 1285/184/262
f 1287/169/262 1288/169/262 1285/184/262
f 1290/185/263 1291/186/263 1289/169/263
f 1291/186/263 1292/170/263 1289/169/263
f 1294/186/264 1295/187/264 1293/170/264
f 1295/187/264 1296/171/264 1293/170/264
f 1298/187/265 1299/188/265 1297/171/265
f 1299/188/265 1300/172/265 1297/171/265
f 1302/188/266 1303/189/266 1301/172/266
f 1303/189/266 1304/173/266 1301/172/266
f 1306/189/267 1307/190/267 1305/173/267
f 1307/190/267 1308/174/267 1305/173/267
f 1310/190/268 1311/191/268 1309/174/268
f 1311/191/268 1312/175/268 1309/174/268
f 1314/192/269 1315/176/269 1313/191/269
f 1315/176/269 1316/175/269 1313/191/269
f 1318/193/270 1319/177/270 1317/192/270
f 1319/177/270 1320/176/270 1317/192/270
f 1322/194/271 1323/178/271 1321/193/271
f 1323/178/271 1324/177/271 1321/193/271
f 1326/195/272 1327/179/272 1325/194/272
f 1327/179/272 1328/178/272 1325/194/272
f 1330/196/273 1331/180/273 1329/195/273
f 1331/180/273 1332/179/273 1329/195/273
f 1334/197/274 1335/181/274 1333/196/274
f 1335/181/274 1336/180/274 1333/196/274
f 1338/198/275 1339/182/275 1337/197/275
f 1339/182/275 1340/181/275 1337/197/275
f 1342/199/276 1343/183/276 1341/198/276
f 1343/183/276 1344/182/276 1341/198/276
f 1346/199/277 1347/200/277 1345/183/277
f 1347/200/277 1348/184/277 1345/183/277
f 1350/200/278 1351/185/278 1349/184/278
f 1351/185/278 1352/169/278 1349/184/278
f 1354/201/279 1355/186/279 1353/202/279
f 1355/186/279 1356/185/279 1353/202/279
f 1358/201/280 1359/201/280 1357/186/279
f 1359/201/280 1360/187/279 1357/186/279
f 1362/201/279 1363/203/279 1361/187/279
f 1363/203/279 1364/188/279 1361/187/279
f 1366/203/279 1367/204/279 1365/188/279
f 1367/204/279 1368/189/279 1365/188/279
f 1370/204/279 1371/205/279 1369/189/279
f 1371/205/279 1372/190/279 1369/189/279
f 1374/205/280 1375/205/280 1373/190/279
f 1375/205/280 1376/191/279 1373/190/279
f 1378/205/279 1379/206/279 1377/191/279
f 1379/206/279 1380/192/279 1377/191/279
f 1382/206/279 1383/207/279 1381/192/279
f 1383/207/279 1384/193/279 1381/192/279
f 1386/207/279 1387/208/279 1385/193/279
f 1387/208/279 1388/194/279 1385/193/279
f 1390/208/280 1391/195/279 1389/208/280
f 1391/195/279 1392/194/279 1389/208/280
f 1394/209/279 1395/196/279 1393/208/279
f 1395/196/279 1396/195/279 1393/208/279
f 1398/210/279 1399/197/279 1397/209/279
f 1399/197/279 1400/196/279 1397/209/279
f 1402/211/279 1403/198/279 1401/210/279
f 1403/198/279 1404/197/279 1401/210/279
f 1406/211/280 1407/199/279 1405/211/280
f 1407/199/279 1408/198/279 1405/211/280
f 1410/212/279 1411/200/279 1409/211/279
f 1411/200/279 1412/199/279 1409/211/279
f 1414/202/279 1415/185/279 1413/212/279
f 1415/185/279 1416/200/279 1413/212/279
f 1418/213/281 1419/213/281 1417/214/281
f 1419/213/281 1420/214/281 1417/214/281
f 1422/214/248 1423/214/248 1421/215/248
f 1423/214/248 1424/215/248 1421/215/248
f 1426/215/282 1427/215/282 1425/216/282
f 1427/215/282 1428/216/282 1425/216/282
f 1430/216/250 1431/216/250 1429/217/250
f 1431/216/250 1432/217/250 1429/217/250
f 1434/217/283 1435/217/283 1433/218/283
f 1435/217/283 1436/218/283 1433/218/283
f 1438/218/252 1439/218/252 1437/219/252
f 1439/218/252 1440/219/252 1437/219/252
f 1442/220/284 1443/219/284 1441/220/284
f 1443/219/284 1444/219/284 1441/220/284
f 1446/221/254 1447/220/254 1445/221/254
f 1447/220/254 1448/220/254 1445/221/254
f 1450/222/285 1451/221/285 1449/222/285
f 1451/221/285 1452/221/285 1449/222/285
f 1454/223/256 1455/222/256 1453/223/256
f 1455/222/256 1456/222/256 1453/223/256
f 1458/224/286 1459/223/286 1457/224/286
f 1459/223/286 1460/223/286 1457/224/286
f 1462/225/258 1463/224/258 1461/225/258
f 1463/224/258 1464/224/258 1461/225/258
f 1466/226/287 1467/225/287 1465/226/287
f 1467/225/287 1468/225/287 1465/226/287
f 1470/227/260 1471/226/260 1469/227/260
f 1471/226/260 1472/226/260 1469/227/260
f 1474/227/288 1475/227/288 1473/228/288
f 1475/227/288 1476/228/288 1473/228/288
f 1478/228/262 1479/228/262 1477/213/262
f 1479/228/262 1480/213/262 1477/213/262
f 1482/216/280 1483/229/280 1481/215/280
f 1483/229/280 1484/230/280 1481/215/280
f 1486/228/280 1487/231/280 1485/227/280
f 1487/231/280 1488/232/280 1485/227/280
f 1490/233/280 1491/213/280 1489/234/280
f 1491/213/280 1492/214/280 1489/234/280
f 1494/230/280 1495/234/280 1493/215/280
f 1495/234/280 1496/214/280 1493/215/280
f 1498/235/280 1499/229/280 1497/217/280
f 1499/229/280 1500/216/280 1497/217/280
f 1502/235/280 1503/217/280 1501/236/280
f 1503/217/280 1504/218/280 1501/236/280
f 1506/237/280 1507/236/280 1505/219/280
f 1507/236/280 1508/218/280 1505/219/280
f 1510/237/280 1511/219/280 1509/238/280
f 1511/219/280 1512/220/280 1509/238/280
f 1514/239/280 1515/238/280 1513/221/280
f 1515/238/280 1516/220/280 1513/221/280
f 1518/239/280 1519/221/280 1517/240/280
f 1519/221/280 1520/222/280 1517/240/280
f 1522/241/280 1523/240/280 1521/223/280
f 1523/240/280 1524/222/280 1521/223/280
f 1526/241/280 1527/223/280 1525/242/280
f 1527/223/280 1528/224/280 1525/242/280
f 1530/243/280 1531/242/280 1529/225/280
f 1531/242/280 1532/224/280 1529/225/280
f 1534/243/280 1535/225/280 1533/244/280
f 1535/225/280 1536/226/280 1533/244/280
f 1538/232/280 1539/244/280 1537/227/280
f 1539/244/280 1540/226/280 1537/227/280
f 1542/233/280 1543/231/280 1541/213/280
f 1543/231/280 1544/228/280 1541/213/280
o mesh_520
v 0.031250 -0.019531 0.085938
v 0.031250 -0.003906 0.078125
v 0.031250 -0.011719 0.089844
v -0.031250 -0.003906 0.078125
v -0.031250 -0.019531 0.085938
v -0.031250 -0.011719 0.093750
v 0.031250 -0.027344 0.078125
v 0.031250 -0.003906 0.078125
v 0.031250 -0.019531 0.085938
v -0.031250 -0.003906 0.078125
v -0.031250 -0.027344 0.078125
v -0.031250 -0.019531 0.085938
v -0.031250 -0.019531 -0.085938
v -0.031250 -0.003906 -0.078125
v -0.031250 -0.011719 -0.089844
v 0.031250 -0.003906 -0.078125
v 0.031250 -0.019531 -0.085938
v 0.031250 -0.011719 -0.093750
v -0.031250 -0.027344 -0.078125
v -0.031250 -0.003906 -0.078125
v -0.031250 -0.019531 -0.085938
v 0.031250 -0.003906 -0.078125
v 0.031250 -0.027344 -0.078125
v 0.031250 -0.019531 -0.085938
v -0.023438 0.046875 0.070312
v -0.031250 0.046875 0.078125
v 0.000000 0.046875 0.074219
v 0.070312 0.046875 -0.023438
v 0.074219 0.046875 0.000000
v 0.078125 0.046875 -0.031250
v 0.023438 0.046875 -0.070312
v 0.031250 0.046875 -0.078125
v 0.000000 0.046875 -0.074219
v -0.070312 0.046875 0.023438
v -0.074219 0.046875 0.000000
v -0.078125 0.046875 0.031250
v 0.031250 0.000000 0.089844
v 0.031250 0.000000 0.078125
v 0.039062 0.000000 0.097656
v -0.031250 0.000000 0.093750
v -0.039062 0.000000 0.097656
v -0.031250 0.000000 0.078125
v -0.031250 0.000000 -0.089844
v -0.031250 0.000000 -0.078125
v -0.039062 0.000000 -0.097656
v 0.031250 0.000000 -0.093750
v 0.039062 0.000000 -0.097656
v 0.031250 0.000000 -0.078125
v -0.085938 0.023438 0.000000
v -0.078125 0.011719 -0.031250
v -0.078125 0.023438 -0.031250
v -0.031250 0.011719 -0.078125
v 0.000000 0.023438 -0.078125
v -0.031250 0.023438 -0.078125
v 0.085938 0.023438 0.000000
v 0.078125 0.011719 0.031250
v 0.078125 0.023438 0.031250
v 0.031250 0.011719 0.078125
v 0.000000 0.023438 0.078125
v 0.031250 0.023438 0.078125
v 0.015625 -0.042969 0.066406
v 0.011719 -0.042969 0.070312
v 0.011719 -0.046875 0.066406
v -0.015625 -0.042969 0.066406
v -0.011719 -0.046875 0.066406
v -0.011719 -0.042969 0.070312
v 0.015625 -0.042969 -0.066406
v 0.011719 -0.046875 -0.066406
v 0.011719 -0.042969 -0.070312
v -0.015625 -0.042969 -0.066406
v -0.011719 -0.042969 -0.070312
v -0.011719 -0.046875 -0.066406
v -0.007812 -0.054688 -0.050781
v 0.000000 -0.054688 0.000000
v 0.007812 -0.054688 -0.050781
v 0.007812 -0.054688 -0.050781
v 0.000000 -0.054688 0.000000
v 0.027344 -0.054688 -0.042969
v 0.027344 -0.054688 -0.042969
v 0.000000 -0.054688 0.000000
v 0.042969 -0.054688 -0.027344
v 0.042969 -0.054688 -0.027344
v 0.000000 -0.054688 0.000000
v 0.050781 -0.054688 -0.007812
v 0.000000 -0.054688 0.000000
v 0.050781 -0.054688 0.007812
v 0.050781 -0.054688 -0.007812
v 0.000000 -0.054688 0.000000
v 0.042969 -0.054688 0.027344
v 0.050781 -0.054688 0.007812
v 0.000000 -0.054688 0.000000
v 0.027344 -0.054688 0.042969
v 0.042969 -0.054688 0.027344
v 0.000000 -0.054688 0.000000
v 0.007812 -0.054688 0.050781
v 0.027344 -0.054688 0.042969
v 0.000000 -0.054688 0.000000
v -0.007812 -0.054688 0.050781
v 0.007812 -0.054688 0.050781
v 0.000000 -0.054688 0.000000
v -0.027344 -0.054688 0.042969
v -0.007812 -0.054688 0.050781
v 0.000000 -0.054688 0.000000
v -0.042969 -0.054688 0.027344
v -0.027344 -0.054688 0.042969
v 0.000000 -0.054688 0.000000
v -0.050781 -0.054688 0.007812
v -0.042969 -0.054688 0.027344
v -0.050781 -0.054688 0.007812
v 0.000000 -0.054688 0.000000
v -0.050781 -0.054688 -0.007812
v -0.050781 -0.054688 -0.007812
v 0.000000 -0.054688 0.000000
v -0.042969 -0.054688 -0.027344
v -0.042969 -0.054688 -0.027344
v 0.000000 -0.054688 0.000000
v -0.027344 -0.054688 -0.042969
v -0.027344 -0.054688 -0.042969
v 0.000000 -0.054688 0.000000
v -0.007812 -0.054688 -0.050781
vn 1.0000 -0.0000 -0.0000
vn -1.0000 -0.0000 -0.0000
vn -0.0000 1.0000 -0.0000
vn -0.0000 -1.0000 -0.0000
vn 0.9701 -0.0000 0.2425
vn -0.0000 -0.0000 1.0000
vn -0.9701 -0.0000 -0.2425
vn -0.0000 -0.0000 -1.0000
vn 0.5774 -0.5774 0.5774
vn -0.5774 -0.5774 0.5774
vn 0.5774 -0.5774 -0.5774
vn -0.5774 -0.5774 -0.5774
vt 0.547622 0.704633
vt 0.547622 0.704145
vt 0.547622 0.704877
vt 0.543716 0.704145
vt 0.543716 0.704633
vt 0.543716 0.705121
vt 0.543716 0.693891
vt 0.543716 0.694379
vt 0.543716 0.693647
vt 0.547622 0.694379
vt 0.547622 0.693891
vt 0.547622 0.693403
vt 0.544204 0.703656
vt 0.545669 0.703901
vt 0.550063 0.697797
vt 0.550308 0.699262
vt 0.550552 0.697309
vt 0.547134 0.694867
vt 0.545669 0.694623
vt 0.541274 0.700727
vt 0.541030 0.699262
vt 0.540786 0.701215
vt 0.548110 0.705365
vt 0.543228 0.705365
vt 0.543228 0.693158
vt 0.548110 0.693158
vt 0.540298 0.699262
vt 0.540786 0.697309
vt 0.545669 0.694379
vt 0.551040 0.699262
vt 0.550552 0.701215
vt 0.545669 0.704145
vt 0.546646 0.703412
vt 0.546401 0.703656
vt 0.546401 0.703412
vt 0.544692 0.703412
vt 0.544937 0.703412
vt 0.544937 0.703656
vt 0.546646 0.695112
vt 0.546401 0.695112
vt 0.546401 0.694867
vt 0.544692 0.695112
vt 0.544937 0.694867
vt 0.544937 0.695112
vt 0.545181 0.696088
vt 0.545669 0.699262
vt 0.546157 0.696088
vt 0.547378 0.696576
vt 0.548355 0.697553
vt 0.548843 0.698774
vt 0.548843 0.699750
vt 0.548355 0.700971
vt 0.547378 0.701948
vt 0.546157 0.702436
vt 0.545181 0.702436
vt 0.543960 0.701948
vt 0.542983 0.700971
vt 0.542495 0.699750
vt 0.542495 0.698774
vt 0.542983 0.697553
vt 0.543960 0.696576
s 1
usemtl blue
f 1545/245/289 1546/246/289 1547/247/289
f 1548/248/290 1549/249/290 1550/250/290
f 1551/246/289 1552/246/289 1553/245/289
f 1554/248/290 1555/248/290 1556/249/290
f 1557/251/290 1558/252/290 1559/253/290
f 1560/254/289 1561/255/289 1562/256/289
f 1563/252/290 1564/252/290 1565/251/290
f 1566/254/289 1567/254/289 1568/255/289
f 1569/257/291 1570/248/291 1571/258/291
f 1572/259/291 1573/260/291 1574/261/291
f 1575/262/291 1576/254/291 1577/263/291
f 1578/264/291 1579/265/291 1580/266/291
f 1581/247/292 1582/246/292 1583/267/292
f 1584/250/292 1585/268/292 1586/248/292
f 1587/253/292 1588/252/292 1589/269/292
f 1590/256/292 1591/270/292 1592/254/292
f 1593/271/293 1594/272/293 1595/272/293
f 1596/252/294 1597/273/294 1598/252/294
f 1599/274/295 1600/275/295 1601/275/295
f 1602/246/296 1603/276/296 1604/246/296
f 1605/277/297 1606/278/297 1607/279/297
f 1608/280/298 1609/281/298 1610/282/298
f 1611/283/299 1612/284/299 1613/285/299
f 1614/286/300 1615/287/300 1616/288/300
f 1617/289/291 1618/290/291 1619/291/291
f 1620/291/291 1621/290/291 1622/292/291
f 1623/292/291 1624/290/291 1625/293/291
f 1626/293/291 1627/290/291 1628/294/291
f 1629/290/291 1630/295/291 1631/294/291
f 1632/290/291 1633/296/291 1634/295/291
f 1635/290/291 1636/297/291 1637/296/291
f 1638/290/291 1639/298/291 1640/297/291
f 1641/290/291 1642/299/291 1643/298/291
f 1644/290/291 1645/300/291 1646/299/291
f 1647/290/291 1648/301/291 1649/300/291
f 1650/290/291 1651/302/291 1652/301/291
f 1653/302/291 1654/290/291 1655/303/291
f 1656/303/291 1657/290/291 1658/304/291
f 1659/304/291 1660/290/291 1661/305/291
f 1662/305/291 1663/290/291 1664/289/291
o mesh_522
v -0.007812 -0.101562 0.011719
v 0.000000 -0.097656 0.000000
v 0.000000 -0.101562 0.015625
v 0.000000 -0.101562 0.015625
v 0.000000 -0.097656 0.000000
v 0.000000 -0.101562 0.015625
v 0.000000 -0.101562 0.015625
v 0.000000 -0.097656 0.000000
v 0.007812 -0.101562 0.011719
v 0.007812 -0.101562 0.011719
v 0.000000 -0.097656 0.000000
v 0.011719 -0.101562 0.007812
v 0.011719 -0.101562 0.007812
v 0.000000 -0.097656 0.000000
v 0.015625 -0.101562 0.000000
v 0.015625 -0.101562 0.000000
v 0.000000 -0.097656 0.000000
v 0.015625 -0.101562 0.000000
v 0.000000 -0.097656 0.000000
v 0.011719 -0.101562 -0.007812
v 0.015625 -0.101562 0.000000
v 0.000000 -0.097656 0.000000
v 0.007812 -0.101562 -0.011719
v 0.011719 -0.101562 -0.007812
v 0.000000 -0.097656 0.000000
v 0.000000 -0.101562 -0.015625
v 0.007812 -0.101562 -0.011719
v 0.000000 -0.097656 0.000000
v 0.000000 -0.101562 -0.015625
v 0.000000 -0.101562 -0.015625
v 0.000000 -0.097656 0.000000
v -0.007812 -0.101562 -0.011719
v 0.000000 -0.101562 -0.015625
v 0.000000 -0.097656 0.000000
v -0.011719 -0.101562 -0.007812
v -0.007812 -0.101562 -0.011719
v 0.000000 -0.097656 0.000000
v -0.015625 -0.101562 0.000000
v -0.011719 -0.101562 -0.007812
v 0.000000 -0.097656 0.000000
v -0.015625 -0.101562 0.000000
v -0.015625 -0.101562 0.000000
v -0.015625 -0.101562 0.000000
v 0.000000 -0.097656 0.000000
v -0.011719 -0.101562 0.007812
v -0.011719 -0.101562 0.007812
v 0.000000 -0.097656 0.000000
v -0.007812 -0.101562 0.011719
v -0.011719 0.000000 0.019531
v -0.003906 0.000000 0.023438
v 0.000000 0.000000 0.000000
v -0.003906 0.000000 0.023438
v 0.003906 0.000000 0.023438
v 0.000000 0.000000 0.000000
v 0.003906 0.000000 0.023438
v 0.011719 0.000000 0.019531
v 0.000000 0.000000 0.000000
v 0.011719 0.000000 0.019531
v 0.019531 0.000000 0.011719
v 0.000000 0.000000 0.000000
v 0.019531 0.000000 0.011719
v 0.023438 0.000000 0.003906
v 0.000000 0.000000 0.000000
v 0.023438 0.000000 0.003906
v 0.023438 0.000000 -0.003906
v 0.000000 0.000000 0.000000
v 0.000000 0.000000 0.000000
v 0.023438 0.000000 -0.003906
v 0.019531 0.000000 -0.011719
v 0.000000 0.000000 0.000000
v 0.019531 0.000000 -0.011719
v 0.011719 0.000000 -0.019531
v 0.000000 0.000000 0.000000
v 0.011719 0.000000 -0.019531
v 0.003906 0.000000 -0.023438
v 0.000000 0.000000 0.000000
v 0.003906 0.000000 -0.023438
v -0.003906 0.000000 -0.023438
v 0.000000 0.000000 0.000000
v -0.003906 0.000000 -0.023438
v -0.011719 0.000000 -0.019531
v 0.000000 0.000000 0.000000
v -0.011719 0.000000 -0.019531
v -0.019531 0.000000 -0.011719
v 0.000000 0.000000 0.000000
v -0.019531 0.000000 -0.011719
v -0.023438 0.000000 -0.003906
v 0.000000 0.000000 0.000000
v -0.023438 0.000000 -0.003906
v -0.023438 0.000000 0.003906
v -0.023438 0.000000 0.003906
v -0.019531 0.000000 0.011719
v 0.000000 0.000000 0.000000
v -0.019531 0.000000 0.011719
v -0.011719 0.000000 0.019531
v 0.000000 0.000000 0.000000
vn 0.1204 -0.9631 -0.2408
vn -0.0000 1.0000 -0.0000
vn -0.0000 -1.0000 -0.0000
vn -0.1204 -0.9631 -0.2408
vn -0.1925 -0.9623 -0.1925
vn -0.2408 -0.9631 -0.1204
vn -0.2408 -0.9631 0.1204
vn -0.1925 -0.9623 0.1925
vn -0.1204 -0.9631 0.2408
vn 0.1204 -0.9631 0.2408
vn 0.1925 -0.9623 0.1925
vn 0.2408 -0.9631 0.1204
vn 0.2408 -0.9631 -0.1204
vn 0.1925 -0.9623 -0.1925
vt 0.475422 0.614734
vt 0.475910 0.614001
vt 0.475910 0.614978
vt 0.476398 0.614734
vt 0.476643 0.614489
vt 0.476887 0.614001
vt 0.476643 0.613513
vt 0.476398 0.613269
vt 0.475910 0.613025
vt 0.475422 0.613269
vt 0.475178 0.613513
vt 0.474934 0.614001
vt 0.475178 0.614489
vt 0.475178 0.615222
vt 0.475666 0.615466
vt 0.476154 0.615466
vt 0.476643 0.615222
vt 0.477131 0.614734
vt 0.477375 0.614245
vt 0.477375 0.613757
vt 0.477131 0.613269
vt 0.476643 0.612780
vt 0.476154 0.612536
vt 0.475666 0.612536
vt 0.475178 0.612780
vt 0.474690 0.613269
vt 0.474445 0.613757
vt 0.474445 0.614245
vt 0.474690 0.614734
s 1
usemtl red
f 1665/306/301 1666/307/301 1667/308/301
f 1668/308/302 1669/307/303 1670/308/302
f 1671/308/304 1672/307/304 1673/309/304
f 1674/309/305 1675/307/305 1676/310/305
f 1677/310/306 1678/307/306 1679/311/306
f 1680/311/302 1681/307/303 1682/311/302
f 1683/307/307 1684/312/307 1685/311/307
f 1686/307/308 1687/313/308 1688/312/308
f 1689/307/309 1690/314/309 1691/313/309
f 1692/307/303 1693/314/302 1694/314/302
f 1695/307/310 1696/315/310 1697/314/310
f 1698/307/311 1699/316/311 1700/315/311
f 1701/307/312 1702/317/312 1703/316/312
f 1704/307/303 1705/317/302 1706/317/302
f 1707/317/313 1708/307/313 1709/318/313
f 1710/318/314 1711/307/314 1712/306/314
f 1713/319/302 1714/320/302 1715/307/302
f 1716/320/302 1717/321/302 1718/307/302
f 1719/321/302 1720/322/302 1721/307/302
f 1722/322/302 1723/323/302 1724/307/302
f 1725/323/302 1726/324/302 1727/307/302
f 1728/324/302 1729/325/302 1730/307/302
f 1731/307/302 1732/325/302 1733/326/302
f 1734/307/302 1735/326/302 1736/327/302
f 1737/307/302 1738/327/302 1739/328/302
f 1740/307/302 1741/328/302 1742/329/302
f 1743/307/302 1744/329/302 1745/330/302
f 1746/307/302 1747/330/302 1748/331/302
f 1749/307/302 1750/331/302 1751/332/302
f 1752/307/302 1753/332/302 1754/333/302
f 1755/333/302 1756/334/302 1757/307/302
f 1758/334/302 1759/319/302 1760/307/302
