# Blender v2.82 (sub 7) OBJ File: 'untitled.blend'
# www.blender.org
mtllib grab_part.mtl
o Cube.002_Cube.004
v -0.023225 0.253501 0.306788
v 0.040863 0.266526 0.384588
v 0.027465 0.253501 0.306788
v -0.031253 0.210153 0.306788
v -0.048896 0.257466 0.384588
v -0.031253 0.247574 0.306788
v -0.036623 0.266526 0.384588
v 0.040863 0.266526 0.464437
v 0.035493 0.247574 0.306788
v 0.053136 0.200262 0.384588
v 0.035493 0.210153 0.306788
v 0.027465 0.204226 0.306788
v -0.036623 0.191202 0.384588
v -0.023225 0.204226 0.306788
v 0.040863 0.191202 0.384588
v -0.048896 0.200262 0.384588
v 0.053136 0.257466 0.464437
v 0.182955 0.257466 0.489885
v 0.182955 0.257466 0.442530
v -0.048896 0.200262 0.464437
v 0.040863 0.191202 0.464437
v 0.053136 0.257466 0.384588
v -0.048896 0.257466 0.464437
v 0.053136 0.200262 0.464437
v -0.036623 0.191202 0.464437
v -0.036623 0.266526 0.464437
v 0.053136 0.200262 0.511793
v 0.040863 0.266526 0.511793
v -0.048896 0.257466 0.511793
v -0.178715 0.257466 0.442530
v -0.048896 0.200262 0.511793
v 0.053136 0.257466 0.511793
v -0.036623 0.191202 0.511793
v -0.036623 0.266526 0.511793
v 0.040863 0.191202 0.511793
v -0.178715 0.200262 0.442530
v -0.178715 0.257466 0.489885
v 0.182955 0.200262 0.489885
v 0.182955 0.200262 0.442530
v -0.178715 0.200262 0.489885
vt 0.391486 0.743131
vt 0.608514 0.907950
vt 0.391486 0.907950
vt 0.391486 0.526104
vt 0.608514 0.690923
vt 0.391486 0.690923
vt 0.608514 0.743131
vt 0.608514 0.907950
vt 0.391486 0.092050
vt 0.608514 0.256869
vt 0.391486 0.256869
vt 0.391486 0.309077
vt 0.608514 0.473896
vt 0.391486 0.473896
vt 0.391486 0.934054
vt 0.608514 0.309077
vt 0.608514 0.526104
vt 0.365382 0.717027
vt 0.174459 0.690923
vt 0.608514 0.934054
vt 0.608514 0.934054
vt 0.608514 0.934054
vt 0.608514 0.526104
vt 0.608514 0.309077
vt 0.608514 0.934054
vt 0.608514 0.690923
vt 0.608514 0.092050
vt 0.608514 0.256869
vt 0.608514 0.473896
vt 0.608514 0.743131
vt 0.825541 0.526104
vt 0.799437 0.717027
vt 0.608514 0.690923
vt 0.608514 0.690923
vt 0.608514 0.526104
vt 0.608514 0.934054
vt 0.608514 0.473896
vt 0.608514 0.907950
vt 0.608514 0.743131
vt 0.608514 0.309077
vt 0.608514 0.526104
vt 0.608514 0.690923
vt 0.608514 0.092050
vt 0.608514 0.256869
vt 0.608514 0.256869
vt 0.608514 0.092050
vt 0.608514 0.526104
vt 0.825541 0.690923
vt 0.825541 0.690923
vt 0.608514 0.256869
vt 0.174459 0.526104
vt 0.200563 0.500000
vt 0.365382 0.500000
vt 0.200563 0.717027
vt 0.634618 0.500000
vt 0.799437 0.500000
vt 0.634618 0.717027
vt 0.608514 0.092050
vt 0.825541 0.526104
vn 0.0000 0.9863 -0.1651
vn -0.9752 0.0000 -0.2211
vn -0.9752 0.0000 -0.2212
vn 0.0000 1.0000 0.0000
vn 0.9752 0.0000 -0.2212
vn 0.9752 0.0000 -0.2211
vn 0.0000 -0.9863 -0.1651
vn 0.5779 0.7828 -0.2306
vn 0.5779 -0.7828 -0.2306
vn -0.5779 -0.7828 -0.2306
vn -0.5779 0.7828 -0.2306
vn -0.0000 0.0000 -1.0000
vn -0.5939 -0.8045 0.0000
vn 0.5939 -0.8045 0.0000
vn 0.5939 0.8045 0.0000
vn -1.0000 0.0000 0.0000
vn 1.0000 0.0000 -0.0000
vn 0.0000 -1.0000 -0.0000
vn -0.5939 0.8045 0.0000
vn -0.0000 0.0000 1.0000
vn 0.1664 0.0000 -0.9861
vn -0.1664 0.0000 -0.9861
vn -0.1664 0.0000 0.9861
vn 0.1664 0.0000 0.9861
usemtl primary_color.001
s 1
f 1/1/1 2/2/1 3/3/1
f 4/4/2 5/5/2 6/6/3
f 7/7/4 8/8/4 2/2/4
f 9/9/5 10/10/6 11/11/5
f 12/12/7 13/13/7 14/14/7
f 2/2/8 9/15/8 3/3/8
f 12/12/9 10/10/9 15/16/9
f 4/4/10 13/13/10 16/17/10
f 1/1/11 5/5/11 7/7/11
f 4/4/12 1/18/12 9/19/12
f 17/20/4 18/21/4 19/22/4
f 13/13/13 20/23/13 16/17/13
f 10/10/14 21/24/14 15/16/14
f 2/2/15 17/20/15 22/25/15
f 16/17/16 23/26/16 5/5/16
f 22/27/17 24/28/17 10/10/17
f 15/16/18 25/29/18 13/13/18
f 5/5/19 26/30/19 7/7/19
f 27/31/20 28/32/20 29/33/20
f 20/23/21 30/34/21 23/26/21
f 25/29/13 31/35/13 20/23/13
f 8/8/15 32/36/15 17/20/15
f 21/24/18 33/37/18 25/29/18
f 26/30/4 28/38/4 8/8/4
f 23/26/19 34/39/19 26/30/19
f 24/28/14 35/40/14 21/24/14
f 36/41/16 37/42/16 30/34/16
f 19/43/17 38/44/17 39/45/17
f 17/46/22 39/45/22 24/28/22
f 20/23/18 40/47/18 36/41/18
f 29/33/23 40/47/23 31/35/23
f 27/31/24 18/48/24 32/49/24
f 24/28/18 38/44/18 27/50/18
f 23/26/4 37/42/4 29/33/4
f 1/1/1 7/7/1 2/2/1
f 4/4/2 16/17/2 5/5/2
f 7/7/4 26/30/4 8/8/4
f 9/9/5 22/27/6 10/10/6
f 12/12/7 15/16/7 13/13/7
f 2/2/8 22/25/8 9/15/8
f 12/12/9 11/11/9 10/10/9
f 4/4/10 14/14/10 13/13/10
f 1/1/11 6/6/11 5/5/11
f 9/19/12 11/51/12 12/52/12
f 12/52/12 14/53/12 4/4/12
f 4/4/12 6/6/12 1/18/12
f 1/18/12 3/54/12 9/19/12
f 9/19/12 12/52/12 4/4/12
f 17/20/4 32/36/4 18/21/4
f 13/13/13 25/29/13 20/23/13
f 10/10/14 24/28/14 21/24/14
f 2/2/15 8/8/15 17/20/15
f 16/17/16 20/23/16 23/26/16
f 22/27/17 17/46/17 24/28/17
f 15/16/18 21/24/18 25/29/18
f 5/5/19 23/26/19 26/30/19
f 29/33/20 31/35/20 33/55/20
f 33/55/20 35/56/20 27/31/20
f 27/31/20 32/49/20 28/32/20
f 28/32/20 34/57/20 29/33/20
f 29/33/20 33/55/20 27/31/20
f 20/23/21 36/41/21 30/34/21
f 25/29/13 33/37/13 31/35/13
f 8/8/15 28/38/15 32/36/15
f 21/24/18 35/40/18 33/37/18
f 26/30/4 34/39/4 28/38/4
f 23/26/19 29/33/19 34/39/19
f 24/28/14 27/50/14 35/40/14
f 36/41/16 40/47/16 37/42/16
f 19/43/17 18/58/17 38/44/17
f 17/46/22 19/43/22 39/45/22
f 20/23/18 31/35/18 40/47/18
f 29/33/23 37/42/23 40/47/23
f 27/31/24 38/59/24 18/48/24
f 24/28/18 39/45/18 38/44/18
f 23/26/4 30/34/4 37/42/4
