# Blender v2.82 (sub 7) OBJ File: ''
# www.blender.org
mtllib grab_part.mtl
o Cylinder.009
v 0.013415 0.190883 0.455740
v 0.005994 0.190370 0.455740
v 0.005994 0.188905 0.373414
v 0.013822 0.189446 0.373414
v -0.008564 0.192404 0.455740
v -0.015141 0.194873 0.455740
v -0.016300 0.193655 0.373414
v -0.009362 0.191050 0.373414
v -0.020906 0.198196 0.455740
v -0.022381 0.197160 0.373414
v -0.025637 0.202246 0.455740
v -0.027372 0.201431 0.373414
v -0.029152 0.206865 0.455740
v -0.031080 0.206305 0.373414
v -0.031317 0.211878 0.455740
v -0.033363 0.211592 0.373414
v -0.032048 0.217091 0.455740
v -0.034134 0.217091 0.373414
v -0.031317 0.222304 0.455740
v -0.033363 0.222590 0.373414
v -0.029152 0.227317 0.455740
v -0.031080 0.227878 0.373414
v -0.025637 0.231937 0.455740
v -0.027372 0.232751 0.373414
v -0.020906 0.235986 0.455740
v -0.022381 0.237023 0.373414
v -0.015141 0.239310 0.455740
v -0.016300 0.240528 0.373414
v -0.008564 0.241779 0.455740
v -0.009362 0.243133 0.373414
v -0.001428 0.243299 0.455740
v -0.001835 0.244737 0.373414
v 0.005994 0.243813 0.455740
v 0.005994 0.245278 0.373414
v 0.013415 0.243299 0.455740
v 0.013823 0.244737 0.373414
v 0.020552 0.241779 0.455740
v 0.021350 0.243133 0.373414
v 0.027129 0.239310 0.455740
v 0.028288 0.240528 0.373414
v 0.032894 0.235986 0.455740
v 0.034369 0.237023 0.373414
v 0.037625 0.231937 0.455740
v 0.039359 0.232751 0.373414
v 0.041140 0.227317 0.455740
v 0.043068 0.227878 0.373414
v 0.043305 0.222304 0.455740
v 0.045351 0.222590 0.373414
v 0.044036 0.217091 0.455740
v 0.046122 0.217091 0.373414
v 0.043305 0.211878 0.455740
v 0.045351 0.211592 0.373414
v 0.041140 0.206865 0.455740
v 0.043068 0.206305 0.373414
v 0.037625 0.202246 0.455740
v 0.039359 0.201431 0.373414
v 0.032894 0.198196 0.455740
v 0.034369 0.197160 0.373414
v 0.027129 0.194873 0.455740
v 0.028288 0.193655 0.373414
v 0.020552 0.192404 0.455740
v 0.021350 0.191050 0.373414
v -0.001835 0.189446 0.373414
v -0.001428 0.190883 0.455740
v 0.005994 0.195804 0.533384
v 0.000082 0.196213 0.533384
v -0.005604 0.197424 0.533384
v -0.010843 0.199391 0.533384
v -0.015436 0.202039 0.533384
v -0.019204 0.205265 0.533384
v -0.022005 0.208945 0.533384
v -0.023730 0.212939 0.533384
v -0.024312 0.217091 0.533384
v -0.023730 0.221244 0.533384
v -0.022005 0.225238 0.533384
v -0.019204 0.228918 0.533384
v -0.015436 0.232144 0.533384
v -0.010843 0.234791 0.533384
v -0.005604 0.236758 0.533384
v 0.000082 0.237970 0.533384
v 0.005994 0.238379 0.533384
v 0.011907 0.237970 0.533384
v 0.017591 0.236758 0.533384
v 0.022831 0.234791 0.533384
v 0.027424 0.232144 0.533384
v 0.031193 0.228918 0.533384
v 0.033993 0.225238 0.533384
v 0.035718 0.221244 0.533384
v 0.036300 0.217091 0.533384
v 0.035717 0.212939 0.533384
v 0.033993 0.208945 0.533384
v 0.031193 0.205265 0.533384
v 0.027424 0.202039 0.533384
v 0.022831 0.199391 0.533384
v 0.017591 0.197424 0.533384
v 0.011907 0.196213 0.533384
vt 0.031250 0.557135
vt 0.000000 0.557135
vt 0.000000 1.000000
vt 0.031250 1.000000
vt 0.937500 0.557135
vt 0.906250 0.557135
vt 0.906250 1.000000
vt 0.937500 1.000000
vt 0.875000 0.557135
vt 0.875000 1.000000
vt 0.843750 0.557135
vt 0.843750 1.000000
vt 0.812500 0.557135
vt 0.812500 1.000000
vt 0.781250 0.557135
vt 0.781250 1.000000
vt 0.750000 0.557135
vt 0.750000 1.000000
vt 0.718750 0.557135
vt 0.718750 1.000000
vt 0.687500 0.557135
vt 0.687500 1.000000
vt 0.656250 0.557135
vt 0.656250 1.000000
vt 0.625000 0.557135
vt 0.625000 1.000000
vt 0.593750 0.557135
vt 0.593750 1.000000
vt 0.562500 0.557135
vt 0.562500 1.000000
vt 0.531250 0.557135
vt 0.531250 1.000000
vt 0.500000 0.557135
vt 0.500000 1.000000
vt 0.468750 0.557135
vt 0.468750 1.000000
vt 0.437500 0.557135
vt 0.437500 1.000000
vt 0.406250 0.557135
vt 0.406250 1.000000
vt 0.375000 0.557135
vt 0.375000 1.000000
vt 0.343750 0.557135
vt 0.343750 1.000000
vt 0.312500 0.557135
vt 0.312500 1.000000
vt 0.281250 0.557135
vt 0.281250 1.000000
vt 0.250000 0.557135
vt 0.250000 1.000000
vt 0.218750 0.557135
vt 0.218750 1.000000
vt 0.187500 0.557135
vt 0.187500 1.000000
vt 0.156250 0.557135
vt 0.156250 1.000000
vt 0.125000 0.557135
vt 0.125000 1.000000
vt 0.093750 0.557135
vt 0.093750 1.000000
vt 0.062500 0.557135
vt 0.062500 1.000000
vt 0.296822 0.485388
vt 0.341844 0.471731
vt 0.383337 0.449553
vt 0.419706 0.419706
vt 0.449553 0.383337
vt 0.471731 0.341844
vt 0.485388 0.296822
vt 0.490000 0.250000
vt 0.485388 0.203178
vt 0.471731 0.158156
vt 0.449553 0.116663
vt 0.419706 0.080294
vt 0.383337 0.050447
vt 0.341844 0.028269
vt 0.296822 0.014612
vt 0.250000 0.010000
vt 0.203178 0.014612
vt 0.158156 0.028269
vt 0.116663 0.050447
vt 0.080294 0.080294
vt 0.050447 0.116663
vt 0.028269 0.158156
vt 0.014611 0.203179
vt 0.010000 0.250000
vt 0.014612 0.296822
vt 0.028269 0.341844
vt 0.050447 0.383337
vt 0.080295 0.419706
vt 0.116663 0.449553
vt 0.158156 0.471731
vt 0.203179 0.485389
vt 0.250000 0.490000
vt 0.968750 0.557135
vt 0.968750 1.000000
vt 1.000000 0.557135
vt 1.000000 1.000000
vt 0.996705 0.500000
vt 0.972045 0.500000
vt 0.965455 0.500000
vt 0.940795 0.500000
vt 0.934205 0.500000
vt 0.909545 0.500000
vt 0.902955 0.500000
vt 0.878295 0.500000
vt 0.871705 0.500000
vt 0.847045 0.500000
vt 0.840455 0.500000
vt 0.815795 0.500000
vt 0.809205 0.500000
vt 0.784545 0.500000
vt 0.777955 0.500000
vt 0.753295 0.500000
vt 0.746705 0.500000
vt 0.722045 0.500000
vt 0.715455 0.500000
vt 0.690795 0.500000
vt 0.684205 0.500000
vt 0.659545 0.500000
vt 0.652955 0.500000
vt 0.628295 0.500000
vt 0.621705 0.500000
vt 0.597045 0.500000
vt 0.590455 0.500000
vt 0.565795 0.500000
vt 0.559205 0.500000
vt 0.534545 0.500000
vt 0.527955 0.500000
vt 0.503295 0.500000
vt 0.496705 0.500000
vt 0.472045 0.500000
vt 0.465455 0.500000
vt 0.440795 0.500000
vt 0.434205 0.500000
vt 0.409545 0.500000
vt 0.402955 0.500000
vt 0.378295 0.500000
vt 0.371705 0.500000
vt 0.347045 0.500000
vt 0.340455 0.500000
vt 0.315795 0.500000
vt 0.309205 0.500000
vt 0.284545 0.500000
vt 0.277955 0.500000
vt 0.253295 0.500000
vt 0.246705 0.500000
vt 0.222045 0.500000
vt 0.215455 0.500000
vt 0.190795 0.500000
vt 0.184205 0.500000
vt 0.159545 0.500000
vt 0.152955 0.500000
vt 0.128295 0.500000
vt 0.121705 0.500000
vt 0.097045 0.500000
vt 0.090455 0.500000
vt 0.065795 0.500000
vt 0.059205 0.500000
vt 0.034545 0.500000
vt 0.027955 0.500000
vt 0.003295 0.500000
vt 0.750000 0.439390
vt 0.713052 0.435751
vt 0.677524 0.424973
vt 0.644781 0.407472
vt 0.616082 0.383919
vt 0.592529 0.355219
vt 0.575027 0.322476
vt 0.564250 0.286948
vt 0.560610 0.250000
vt 0.564249 0.213052
vt 0.575027 0.177524
vt 0.592528 0.144781
vt 0.616081 0.116081
vt 0.644781 0.092528
vt 0.677524 0.075027
vt 0.713052 0.064250
vt 0.750000 0.060610
vt 0.786948 0.064250
vt 0.822476 0.075027
vt 0.855219 0.092528
vt 0.883919 0.116081
vt 0.907472 0.144781
vt 0.924973 0.177524
vt 0.935750 0.213052
vt 0.939389 0.250000
vt 0.935750 0.286948
vt 0.924973 0.322476
vt 0.907472 0.355219
vt 0.883919 0.383919
vt 0.855219 0.407472
vt 0.822476 0.424973
vt 0.786948 0.435750
vn 0.0689 -0.9975 0.0178
vn -0.3514 -0.9360 0.0188
vn -0.4993 -0.8662 0.0198
vn -0.6501 -0.7596 0.0212
vn -0.7956 -0.6054 0.0228
vn -0.9178 -0.3963 0.0242
vn -0.9900 -0.1388 0.0251
vn -0.9900 0.1388 0.0251
vn -0.9178 0.3963 0.0242
vn -0.7956 0.6054 0.0228
vn -0.6501 0.7596 0.0212
vn -0.4993 0.8662 0.0199
vn -0.3514 0.9360 0.0188
vn -0.2083 0.9779 0.0181
vn -0.0690 0.9975 0.0178
vn 0.0690 0.9975 0.0178
vn 0.2083 0.9779 0.0181
vn 0.3514 0.9360 0.0188
vn 0.4993 0.8662 0.0199
vn 0.6501 0.7595 0.0212
vn 0.7956 0.6054 0.0228
vn 0.9178 0.3963 0.0242
vn 0.9900 0.1388 0.0251
vn 0.9900 -0.1388 0.0251
vn 0.9178 -0.3963 0.0242
vn 0.7956 -0.6054 0.0228
vn 0.6501 -0.7595 0.0212
vn 0.4993 -0.8662 0.0198
vn 0.3514 -0.9360 0.0188
vn 0.2084 -0.9779 0.0181
vn 0.0000 0.0000 -1.0000
vn -0.2084 -0.9779 0.0181
vn -0.0689 -0.9975 0.0178
vn -0.0688 -0.9952 0.0697
vn -0.2079 -0.9756 0.0710
vn -0.3505 -0.9337 0.0737
vn -0.4979 -0.8637 0.0778
vn -0.6481 -0.7570 0.0831
vn -0.7926 -0.6032 0.0891
vn -0.9139 -0.3947 0.0947
vn -0.9855 -0.1382 0.0982
vn -0.9855 0.1382 0.0982
vn -0.9139 0.3947 0.0947
vn -0.7926 0.6032 0.0891
vn -0.6480 0.7571 0.0831
vn -0.4979 0.8637 0.0778
vn -0.3505 0.9337 0.0737
vn -0.2079 0.9756 0.0710
vn -0.0689 0.9952 0.0696
vn 0.0689 0.9952 0.0696
vn 0.2079 0.9756 0.0710
vn 0.3505 0.9337 0.0737
vn 0.4979 0.8637 0.0778
vn 0.6480 0.7571 0.0831
vn 0.7927 0.6031 0.0891
vn 0.9139 0.3947 0.0947
vn 0.9855 0.1382 0.0982
vn 0.9855 -0.1383 0.0982
vn 0.9140 -0.3946 0.0947
vn 0.7926 -0.6031 0.0891
vn 0.6480 -0.7571 0.0831
vn 0.4979 -0.8637 0.0778
vn 0.3505 -0.9337 0.0737
vn 0.2079 -0.9756 0.0710
vn 0.0688 -0.9952 0.0697
vn -0.0000 0.0000 1.0000
usemtl bb.001
s 1
f 1/1/1 2/2/1 3/3/1 4/4/1
f 5/5/2 6/6/2 7/7/2 8/8/2
f 6/6/3 9/9/3 10/10/3 7/7/3
f 9/9/4 11/11/4 12/12/4 10/10/4
f 11/11/5 13/13/5 14/14/5 12/12/5
f 13/13/6 15/15/6 16/16/6 14/14/6
f 15/15/7 17/17/7 18/18/7 16/16/7
f 17/17/8 19/19/8 20/20/8 18/18/8
f 19/19/9 21/21/9 22/22/9 20/20/9
f 21/21/10 23/23/10 24/24/10 22/22/10
f 23/23/11 25/25/11 26/26/11 24/24/11
f 25/25/12 27/27/12 28/28/12 26/26/12
f 27/27/13 29/29/13 30/30/13 28/28/13
f 29/29/14 31/31/14 32/32/14 30/30/14
f 31/31/15 33/33/15 34/34/15 32/32/15
f 33/33/16 35/35/16 36/36/16 34/34/16
f 35/35/17 37/37/17 38/38/17 36/36/17
f 37/37/18 39/39/18 40/40/18 38/38/18
f 39/39/19 41/41/19 42/42/19 40/40/19
f 41/41/20 43/43/20 44/44/20 42/42/20
f 43/43/21 45/45/21 46/46/21 44/44/21
f 45/45/22 47/47/22 48/48/22 46/46/22
f 47/47/23 49/49/23 50/50/23 48/48/23
f 49/49/24 51/51/24 52/52/24 50/50/24
f 51/51/25 53/53/25 54/54/25 52/52/25
f 53/53/26 55/55/26 56/56/26 54/54/26
f 55/55/27 57/57/27 58/58/27 56/56/27
f 57/57/28 59/59/28 60/60/28 58/58/28
f 59/59/29 61/61/29 62/62/29 60/60/29
f 61/61/30 1/1/30 4/4/30 62/62/30
f 63/63/31 8/64/31 7/65/31 10/66/31 12/67/31 14/68/31 16/69/31 18/70/31 20/71/31 22/72/31 24/73/31 26/74/31 28/75/31 30/76/31 32/77/31 34/78/31 36/79/31 38/80/31 40/81/31 42/82/31 44/83/31 46/84/31 48/85/31 50/86/31 52/87/31 54/88/31 56/89/31 58/90/31 60/91/31 62/92/31 4/93/31 3/94/31
f 64/95/32 5/5/32 8/8/32 63/96/32
f 2/97/33 64/95/33 63/96/33 3/98/33
f 2/97/34 65/99/34 66/100/34 64/95/34
f 64/95/35 66/101/35 67/102/35 5/5/35
f 5/5/36 67/103/36 68/104/36 6/6/36
f 6/6/37 68/105/37 69/106/37 9/9/37
f 9/9/38 69/107/38 70/108/38 11/11/38
f 11/11/39 70/109/39 71/110/39 13/13/39
f 13/13/40 71/111/40 72/112/40 15/15/40
f 15/15/41 72/113/41 73/114/41 17/17/41
f 17/17/42 73/115/42 74/116/42 19/19/42
f 19/19/43 74/117/43 75/118/43 21/21/43
f 21/21/44 75/119/44 76/120/44 23/23/44
f 23/23/45 76/121/45 77/122/45 25/25/45
f 25/25/46 77/123/46 78/124/46 27/27/46
f 27/27/47 78/125/47 79/126/47 29/29/47
f 29/29/48 79/127/48 80/128/48 31/31/48
f 31/31/49 80/129/49 81/130/49 33/33/49
f 33/33/50 81/131/50 82/132/50 35/35/50
f 35/35/51 82/133/51 83/134/51 37/37/51
f 37/37/52 83/135/52 84/136/52 39/39/52
f 39/39/53 84/137/53 85/138/53 41/41/53
f 41/41/54 85/139/54 86/140/54 43/43/54
f 43/43/55 86/141/55 87/142/55 45/45/55
f 45/45/56 87/143/56 88/144/56 47/47/56
f 47/47/57 88/145/57 89/146/57 49/49/57
f 49/49/58 89/147/58 90/148/58 51/51/58
f 51/51/59 90/149/59 91/150/59 53/53/59
f 53/53/60 91/151/60 92/152/60 55/55/60
f 55/55/61 92/153/61 93/154/61 57/57/61
f 57/57/62 93/155/62 94/156/62 59/59/62
f 59/59/63 94/157/63 95/158/63 61/61/63
f 61/61/64 95/159/64 96/160/64 1/1/64
f 1/1/65 96/161/65 65/162/65 2/2/65
f 65/163/66 96/164/66 95/165/66 94/166/66 93/167/66 92/168/66 91/169/66 90/170/66 89/171/66 88/172/66 87/173/66 86/174/66 85/175/66 84/176/66 83/177/66 82/178/66 81/179/66 80/180/66 79/181/66 78/182/66 77/183/66 76/184/66 75/185/66 74/186/66 73/187/66 72/188/66 71/189/66 70/190/66 69/191/66 68/192/66 67/193/66 66/194/66
o Plane.011
v -0.067282 0.207553 0.444412
v -0.011714 0.207553 0.444412
v -0.011714 0.206197 0.499963
v -0.067282 0.206197 0.499963
v -0.110669 0.206495 0.487764
v -0.110669 0.207851 0.432213
v -0.143209 0.205767 0.517584
v -0.143209 0.207123 0.462033
v -0.107054 0.205546 0.526621
v -0.121064 0.204498 0.569543
v -0.129199 0.204476 0.570446
v -0.125131 0.194408 0.521827
v -0.125131 0.197582 0.569826
v -0.067282 0.188918 0.471749
v -0.110669 0.185495 0.470342
v -0.076773 0.206274 0.496801
v -0.011714 0.188918 0.471749
v -0.067282 0.207553 0.444412
v -0.011714 0.207553 0.444412
v -0.011714 0.206197 0.499963
v -0.067282 0.206197 0.499963
v -0.110669 0.206495 0.487764
v -0.110669 0.207851 0.432213
v -0.143209 0.205767 0.517584
v -0.143209 0.207123 0.462033
v -0.107054 0.205546 0.526621
v -0.121064 0.204498 0.569543
v -0.129199 0.204476 0.570446
v -0.125131 0.216904 0.522377
v -0.125131 0.211392 0.570163
v -0.067282 0.224831 0.472626
v -0.110669 0.228319 0.471387
v -0.076773 0.206274 0.496801
v -0.011714 0.224831 0.472626
v 0.084814 0.207553 0.444412
v 0.029246 0.207553 0.444412
v 0.029246 0.206197 0.499963
v 0.084814 0.206197 0.499963
v 0.128201 0.206495 0.487764
v 0.128201 0.207851 0.432213
v 0.160741 0.205767 0.517584
v 0.160741 0.207123 0.462033
v 0.124585 0.205546 0.526621
v 0.138596 0.204498 0.569543
v 0.146731 0.204476 0.570446
v 0.142663 0.216904 0.522377
v 0.142663 0.211392 0.570163
v 0.084814 0.224831 0.472626
v 0.128201 0.228319 0.471387
v 0.094305 0.206274 0.496801
v 0.029246 0.224831 0.472626
v 0.084814 0.207553 0.444412
v 0.029246 0.207553 0.444412
v 0.029246 0.206197 0.499963
v 0.084814 0.206197 0.499963
v 0.128201 0.206495 0.487764
v 0.128201 0.207851 0.432213
v 0.160741 0.205767 0.517584
v 0.160741 0.207123 0.462033
v 0.124585 0.205546 0.526621
v 0.138596 0.204498 0.569543
v 0.146731 0.204476 0.570446
v 0.142663 0.194408 0.521827
v 0.142663 0.197582 0.569826
v 0.084814 0.188918 0.471749
v 0.128201 0.185495 0.470342
v 0.094305 0.206274 0.496801
v 0.029246 0.188918 0.471749
vt 0.000000 0.000000
vt 0.000000 1.000000
vt 1.000000 1.000000
vt 1.000000 0.000000
vt 0.000000 0.000000
vt 0.000000 1.000000
vt 0.000000 0.000000
vt 0.000000 1.000000
vt 0.000000 0.000000
vt 0.000000 0.000000
vt 0.000000 0.000000
vt 0.000000 0.000000
vt 0.000000 0.000000
vt 0.000000 0.000000
vt 0.000000 1.000000
vt 0.000000 1.000000
vt 0.000000 0.000000
vt 0.000000 0.000000
vt 0.000000 0.000000
vt 0.000000 1.000000
vt 1.000000 0.000000
vt 1.000000 1.000000
vt 0.000000 0.000000
vt 1.000000 0.000000
vt 1.000000 1.000000
vt 0.000000 1.000000
vt 0.000000 1.000000
vt 0.000000 0.000000
vt 0.000000 1.000000
vt 0.000000 0.000000
vt 0.000000 0.000000
vt 0.000000 0.000000
vt 0.000000 0.000000
vt 0.000000 0.000000
vt 0.000000 0.000000
vt 0.000000 0.000000
vt 0.000000 1.000000
vt 0.000000 1.000000
vt 0.000000 0.000000
vt 0.000000 0.000000
vt 0.000000 0.000000
vt 0.000000 1.000000
vt 1.000000 0.000000
vt 1.000000 1.000000
vt 0.000000 0.000000
vt 0.000000 1.000000
vt 1.000000 1.000000
vt 1.000000 0.000000
vt 0.000000 0.000000
vt 0.000000 1.000000
vt 0.000000 0.000000
vt 0.000000 1.000000
vt 0.000000 0.000000
vt 0.000000 0.000000
vt 0.000000 0.000000
vt 0.000000 0.000000
vt 0.000000 0.000000
vt 0.000000 0.000000
vt 0.000000 1.000000
vt 0.000000 1.000000
vt 0.000000 0.000000
vt 0.000000 0.000000
vt 0.000000 0.000000
vt 0.000000 1.000000
vt 1.000000 0.000000
vt 1.000000 1.000000
vt 0.000000 0.000000
vt 1.000000 0.000000
vt 1.000000 1.000000
vt 0.000000 1.000000
vt 0.000000 1.000000
vt 0.000000 0.000000
vt 0.000000 1.000000
vt 0.000000 0.000000
vt 0.000000 0.000000
vt 0.000000 0.000000
vt 0.000000 0.000000
vt 0.000000 0.000000
vt 0.000000 0.000000
vt 0.000000 0.000000
vt 0.000000 1.000000
vt 0.000000 1.000000
vt 0.000000 0.000000
vt 0.000000 0.000000
vt 0.000000 0.000000
vt 0.000000 1.000000
vt 1.000000 0.000000
vt 1.000000 1.000000
vn 0.0000 0.9997 0.0244
vn 0.6139 -0.7812 0.1129
vn 0.0730 0.7641 -0.6409
vn -0.3674 0.8833 -0.2911
vn 0.1130 -0.8421 -0.5273
vn 0.2652 0.5636 -0.7823
vn -0.5435 -0.8393 -0.0142
vn 0.0503 -0.8517 0.5216
vn 0.0000 -0.8263 -0.5633
vn -0.2156 -0.6235 0.7515
vn -0.4060 -0.7884 -0.4622
vn 1.0000 0.0000 0.0000
vn 0.2990 -0.9048 0.3032
vn -0.6426 -0.7592 0.1034
vn 0.0000 -0.8528 0.5223
vn 0.1104 -0.0242 0.9936
vn -0.0000 -0.9997 -0.0244
vn 0.6139 0.7748 0.1509
vn 0.0730 -0.7320 -0.6774
vn 0.3674 0.8681 0.3339
vn 0.1130 0.8669 -0.4856
vn -0.2652 0.5247 0.8089
vn -0.5434 0.8390 0.0268
vn 0.0503 0.8253 0.5625
vn 0.0000 0.8528 -0.5222
vn -0.2156 0.5861 0.7810
vn -0.4060 0.8100 -0.4232
vn 0.2990 0.8890 0.3470
vn -0.6426 0.7532 0.1404
vn 0.0000 0.8263 0.5632
vn 0.1104 -0.0243 0.9936
vn -0.6139 0.7748 0.1509
vn -0.0730 -0.7320 -0.6774
vn -0.3674 0.8681 0.3339
vn -0.1130 0.8669 -0.4856
vn 0.2652 0.5247 0.8089
vn 0.5434 0.8390 0.0268
vn 0.0503 -0.8253 -0.5625
vn 0.2156 0.5861 0.7810
vn 0.4060 0.8100 -0.4232
vn -1.0000 0.0000 0.0000
vn -0.2990 0.8890 0.3469
vn 0.6426 0.7532 0.1404
vn -0.1104 -0.0243 0.9936
vn -0.6139 -0.7812 0.1129
vn -0.0730 0.7641 -0.6409
vn 0.3674 0.8833 -0.2911
vn -0.1130 -0.8421 -0.5273
vn -0.2652 0.5636 -0.7823
vn 0.5435 -0.8393 -0.0142
vn 0.0503 0.8517 -0.5216
vn 0.2156 -0.6235 0.7515
vn 0.4060 -0.7884 -0.4622
vn -0.2990 -0.9048 0.3032
vn 0.6426 -0.7592 0.1034
vn -0.1104 -0.0242 0.9936
usemtl bb.001
s 1
f 97/195/67 100/196/67 99/197/67 98/198/67
f 97/195/67 102/199/67 101/200/67 100/196/67
f 102/199/67 104/201/67 103/202/67 101/200/67
f 101/200/67 103/202/67 107/203/67 106/204/67 105/205/67 100/206/67
f 105/205/68 106/204/68 109/207/68 108/208/68
f 100/196/69 110/209/69 111/210/69 101/200/69
f 105/205/70 112/211/70 111/212/70 108/208/70
f 102/199/71 97/195/71 110/213/71 111/212/71
f 112/211/72 100/206/72 111/212/72
f 103/202/73 104/201/73 111/212/73 108/214/73
f 100/206/74 111/212/74 110/213/74
f 97/195/75 98/198/75 113/215/75 110/213/75
f 101/200/76 111/210/76 100/206/76
f 104/201/77 102/199/77 111/212/77
f 98/198/78 99/197/78 113/215/78
f 100/206/79 105/205/79 108/208/79 111/212/79
f 107/203/80 103/202/80 108/214/80 109/207/80
f 99/197/81 100/196/81 110/209/81 113/216/81
f 106/204/82 107/203/82 109/207/82
f 114/217/83 115/218/83 116/219/83 117/220/83
f 114/217/83 117/220/83 118/221/83 119/222/83
f 119/222/83 118/221/83 120/223/83 121/224/83
f 118/221/83 117/225/83 122/226/83 123/227/83 124/228/83 120/223/83
f 122/226/84 125/229/84 126/230/84 123/227/84
f 117/220/85 118/221/85 128/231/85 127/232/85
f 122/226/86 129/233/86 128/234/86 125/229/86
f 119/222/87 128/234/87 127/235/87 114/217/87
f 129/233/88 117/225/88 128/234/88
f 120/223/89 125/236/89 128/234/89 121/224/89
f 117/225/90 127/235/90 128/234/90
f 114/217/91 127/235/91 130/237/91 115/218/91
f 118/221/92 117/225/92 128/231/92
f 121/224/93 128/234/93 119/222/93
f 115/218/78 130/237/78 116/219/78
f 117/225/94 128/234/94 125/229/94 122/226/94
f 124/228/95 126/230/95 125/236/95 120/223/95
f 116/219/96 130/238/96 127/232/96 117/220/96
f 123/227/97 126/230/97 124/228/97
f 131/239/83 134/240/83 133/241/83 132/242/83
f 131/239/83 136/243/83 135/244/83 134/240/83
f 136/243/83 138/245/83 137/246/83 135/244/83
f 135/244/83 137/246/83 141/247/83 140/248/83 139/249/83 134/250/83
f 139/249/98 140/248/98 143/251/98 142/252/98
f 134/240/99 144/253/99 145/254/99 135/244/99
f 139/249/100 142/252/100 145/255/100 146/256/100
f 136/243/101 131/239/101 144/257/101 145/255/101
f 146/256/102 145/255/102 134/250/102
f 137/246/103 138/245/103 145/255/103 142/258/103
f 134/250/104 144/257/104 145/255/104
f 131/239/91 132/242/91 147/259/91 144/257/91
f 135/244/105 145/254/105 134/250/105
f 138/245/106 136/243/106 145/255/106
f 132/242/107 133/241/107 147/259/107
f 134/250/108 139/249/108 142/252/108 145/255/108
f 141/247/109 137/246/109 142/258/109 143/251/109
f 133/241/96 134/240/96 144/253/96 147/260/96
f 140/248/110 141/247/110 143/251/110
f 148/261/67 149/262/67 150/263/67 151/264/67
f 148/261/67 151/264/67 152/265/67 153/266/67
f 153/266/67 152/265/67 154/267/67 155/268/67
f 152/265/67 151/269/67 156/270/67 157/271/67 158/272/67 154/267/67
f 156/270/111 159/273/111 160/274/111 157/271/111
f 151/264/112 152/265/112 162/275/112 161/276/112
f 156/270/113 159/273/113 162/277/113 163/278/113
f 153/266/114 162/277/114 161/279/114 148/261/114
f 163/278/115 162/277/115 151/269/115
f 154/267/116 159/280/116 162/277/116 155/268/116
f 151/269/117 162/277/117 161/279/117
f 148/261/75 161/279/75 164/281/75 149/262/75
f 152/265/118 151/269/118 162/275/118
f 155/268/119 162/277/119 153/266/119
f 149/262/107 164/281/107 150/263/107
f 151/269/120 162/277/120 159/273/120 156/270/120
f 158/272/121 160/274/121 159/280/121 154/267/121
f 150/263/81 164/282/81 161/276/81 151/264/81
f 157/271/122 160/274/122 158/272/122
