# Blender v2.82 (sub 7) OBJ File: ''
# www.blender.org
mtllib grab_part.mtl
o Plane.011
v -0.067282 0.206197 0.499963
v -0.011714 0.207553 0.444412
v -0.067282 0.207553 0.444412
v -0.110669 0.206495 0.487764
v -0.143209 0.207123 0.462033
v -0.110669 0.207851 0.432213
v -0.129199 0.204476 0.570446
v -0.121064 0.204498 0.569543
v -0.107054 0.205546 0.526621
v -0.125131 0.194408 0.521827
v -0.067282 0.188918 0.471749
v -0.110669 0.185495 0.470342
v -0.076773 0.206274 0.496801
v -0.143209 0.205767 0.517584
v -0.011714 0.206197 0.499963
v -0.011714 0.188918 0.471749
v -0.125131 0.197582 0.569826
v -0.011714 0.207553 0.444412
v -0.067282 0.206197 0.499963
v -0.067282 0.207553 0.444412
v -0.110669 0.206495 0.487764
v -0.110669 0.207851 0.432213
v -0.143209 0.207123 0.462033
v -0.107054 0.205546 0.526621
v -0.129199 0.204476 0.570446
v -0.143209 0.205767 0.517584
v -0.125131 0.216904 0.522377
v -0.121064 0.204498 0.569543
v -0.067282 0.224831 0.472626
v -0.110669 0.228319 0.471387
v -0.076773 0.206274 0.496801
v -0.011714 0.224831 0.472626
v -0.011714 0.206197 0.499963
v -0.125131 0.211392 0.570163
v 0.084814 0.206197 0.499963
v 0.029246 0.207553 0.444412
v 0.084814 0.207553 0.444412
v 0.128201 0.206495 0.487764
v 0.160741 0.207123 0.462033
v 0.128201 0.207851 0.432213
v 0.146731 0.204476 0.570446
v 0.138596 0.204498 0.569543
v 0.124585 0.205546 0.526621
v 0.142663 0.216904 0.522377
v 0.084814 0.224831 0.472626
v 0.128201 0.228319 0.471387
v 0.094305 0.206274 0.496801
v 0.160741 0.205767 0.517584
v 0.029246 0.206197 0.499963
v 0.029246 0.224831 0.472626
v 0.142663 0.211392 0.570163
v 0.029246 0.207553 0.444412
v 0.084814 0.206197 0.499963
v 0.084814 0.207553 0.444412
v 0.128201 0.206495 0.487764
v 0.128201 0.207851 0.432213
v 0.160741 0.207123 0.462033
v 0.124585 0.205546 0.526621
v 0.146731 0.204476 0.570446
v 0.160741 0.205767 0.517584
v 0.142663 0.194408 0.521827
v 0.138596 0.204498 0.569543
v 0.084814 0.188918 0.471749
v 0.128201 0.185495 0.470342
v 0.094305 0.206274 0.496801
v 0.029246 0.188918 0.471749
v 0.029246 0.206197 0.499963
v 0.142663 0.197582 0.569826
vt 0.038799 0.961201
vt 0.961201 0.038799
vt 0.038799 0.038799
vt 0.038799 0.961201
vt 0.038799 0.038799
vt 0.038799 0.038799
vt 0.038799 0.038799
vt 0.038799 0.038799
vt 0.038799 0.038799
vt 0.038799 0.038799
vt 0.038799 0.961201
vt 0.038799 0.038799
vt 0.038799 0.038799
vt 0.038799 0.038799
vt 0.038799 0.961201
vt 0.038799 0.961201
vt 0.038799 0.038799
vt 0.038799 0.961201
vt 0.961201 0.961201
vt 0.961201 0.038799
vt 0.038799 0.038799
vt 0.961201 0.961201
vt 0.961201 0.038799
vt 0.038799 0.961201
vt 0.038799 0.038799
vt 0.038799 0.961201
vt 0.038799 0.038799
vt 0.038799 0.038799
vt 0.038799 0.038799
vt 0.038799 0.038799
vt 0.038799 0.961201
vt 0.038799 0.038799
vt 0.038799 0.038799
vt 0.038799 0.961201
vt 0.038799 0.038799
vt 0.038799 0.038799
vt 0.038799 0.038799
vt 0.038799 0.038799
vt 0.038799 0.961201
vt 0.961201 0.038799
vt 0.961201 0.961201
vt 0.038799 0.961201
vt 0.961201 0.961201
vt 0.038799 0.038799
vt 0.038799 0.961201
vt 0.961201 0.038799
vt 0.038799 0.038799
vt 0.038799 0.961201
vt 0.038799 0.038799
vt 0.038799 0.038799
vt 0.038799 0.038799
vt 0.038799 0.038799
vt 0.038799 0.038799
vt 0.038799 0.038799
vt 0.038799 0.961201
vt 0.038799 0.038799
vt 0.038799 0.038799
vt 0.038799 0.038799
vt 0.038799 0.961201
vt 0.038799 0.961201
vt 0.038799 0.038799
vt 0.038799 0.961201
vt 0.961201 0.961201
vt 0.961201 0.038799
vt 0.038799 0.038799
vt 0.961201 0.961201
vt 0.961201 0.038799
vt 0.038799 0.961201
vt 0.038799 0.038799
vt 0.038799 0.961201
vt 0.038799 0.038799
vt 0.038799 0.038799
vt 0.038799 0.038799
vt 0.038799 0.038799
vt 0.038799 0.961201
vt 0.038799 0.038799
vt 0.038799 0.038799
vt 0.038799 0.961201
vt 0.038799 0.038799
vt 0.038799 0.038799
vt 0.038799 0.038799
vt 0.038799 0.038799
vt 0.038799 0.961201
vt 0.961201 0.038799
vt 0.961201 0.961201
vt 0.038799 0.961201
vt 0.961201 0.961201
vt 0.038799 0.038799
vn 0.0000 0.9997 0.0244
vn 0.7903 -0.6096 0.0615
vn 0.5460 -0.8278 0.1285
vn 0.4923 -0.8591 0.1397
vn 0.0910 0.7841 -0.6139
vn 0.0456 0.7320 -0.6798
vn 0.1510 0.8430 -0.5163
vn -0.4509 0.8496 -0.2737
vn 0.1090 -0.8397 -0.5320
vn 0.1138 -0.8426 -0.5264
vn 0.1350 -0.8548 -0.5012
vn 0.2652 0.5636 -0.7823
vn -0.5387 -0.8424 -0.0096
vn -0.5453 -0.8381 -0.0160
vn -0.5316 -0.8470 -0.0027
vn 0.0503 -0.8517 0.5216
vn 0.0000 -0.8263 -0.5633
vn -0.2156 -0.6235 0.7515
vn -0.4060 -0.7884 -0.4622
vn 1.0000 0.0000 0.0000
vn 0.2256 -0.9222 0.3141
vn -0.7992 -0.5984 0.0570
vn -0.5822 -0.8044 0.1179
vn -0.8594 -0.5102 0.0337
vn 0.0000 -0.8528 0.5223
vn 0.1104 -0.0242 0.9936
vn 0.0000 -0.9997 -0.0244
vn 0.5460 0.8206 0.1688
vn 0.7903 0.6058 0.0912
vn 0.4923 0.8513 0.1815
vn 0.0456 -0.6980 -0.7146
vn 0.0910 -0.7532 -0.6515
vn 0.1509 -0.8168 -0.5568
vn 0.4509 0.8352 0.3149
vn -0.3780 0.9212 0.0920
vn -0.0556 0.9776 0.2031
vn 0.1138 0.8673 -0.4847
vn 0.1090 0.8647 -0.4904
vn 0.1350 0.8782 -0.4588
vn -0.2652 0.5247 0.8089
vn -0.5387 0.8419 0.0315
vn -0.5498 0.8350 0.0204
vn 0.0503 0.8253 0.5625
vn 0.0000 0.8528 -0.5222
vn -0.2156 0.5861 0.7810
vn -0.4060 0.8100 -0.4232
vn 0.2256 0.9058 0.3587
vn -0.7992 0.5949 0.0862
vn -0.5822 0.7977 0.1570
vn -0.5487 0.8195 0.1654
vn 0.0000 0.8263 0.5632
vn 0.1104 -0.0243 0.9936
vn -0.7903 0.6058 0.0912
vn -0.5460 0.8206 0.1688
vn -0.4923 0.8513 0.1815
vn -0.0910 -0.7532 -0.6515
vn -0.0456 -0.6980 -0.7146
vn -0.1509 -0.8168 -0.5568
vn -0.3172 0.8839 0.3437
vn -0.1090 0.8647 -0.4904
vn -0.1138 0.8673 -0.4847
vn -0.1350 0.8782 -0.4588
vn 0.2652 0.5247 0.8089
vn 0.5387 0.8419 0.0315
vn 0.3780 0.9212 0.0920
vn 0.0556 0.9776 0.2031
vn 0.0503 -0.8253 -0.5625
vn 0.2156 0.5861 0.7810
vn 0.4060 0.8100 -0.4232
vn -1.0000 0.0000 0.0000
vn -0.2256 0.9058 0.3587
vn 0.7992 0.5949 0.0862
vn 0.5822 0.7977 0.1570
vn 0.8594 0.5079 0.0586
vn -0.1104 -0.0243 0.9936
vn -0.5460 -0.8279 0.1285
vn -0.7903 -0.6096 0.0615
vn -0.4923 -0.8592 0.1397
vn -0.0456 0.7320 -0.6798
vn -0.0910 0.7841 -0.6139
vn -0.1510 0.8430 -0.5163
vn 0.3172 0.8996 -0.3001
vn -0.1138 -0.8426 -0.5264
vn -0.1090 -0.8397 -0.5320
vn -0.1350 -0.8548 -0.5012
vn -0.2652 0.5636 -0.7823
vn 0.5387 -0.8424 -0.0096
vn 0.5453 -0.8381 -0.0160
vn 0.5498 -0.8350 -0.0204
vn 0.0503 0.8517 -0.5216
vn 0.2156 -0.6235 0.7515
vn 0.4060 -0.7884 -0.4622
vn -0.2256 -0.9222 0.3141
vn 0.7992 -0.5984 0.0570
vn 0.5822 -0.8044 0.1179
vn 0.5487 -0.8266 0.1252
vn -0.1104 -0.0242 0.9936
vn 0.8621 -0.5056 0.0334
vn -0.0254 0.6383 -0.7694
vn -0.3172 0.8996 -0.3001
vn 0.0832 -0.8234 -0.5613
vn -0.5498 -0.8350 -0.0204
vn -0.5487 -0.8266 0.1252
vn 0.8621 0.5034 0.0581
vn -0.0254 -0.6000 -0.7996
vn 0.3172 0.8839 0.3437
vn 0.0832 0.8498 -0.5204
vn -0.8594 0.5079 0.0586
vn -0.8621 0.5034 0.0581
vn 0.0254 -0.6000 -0.7996
vn -0.4508 0.8352 0.3149
vn -0.0832 0.8498 -0.5204
vn 0.5498 0.8350 0.0204
vn 0.5487 0.8195 0.1654
vn -0.8621 -0.5056 0.0334
vn 0.0254 0.6383 -0.7694
vn 0.4509 0.8496 -0.2737
vn -0.0832 -0.8234 -0.5613
vn 0.5316 -0.8470 -0.0027
vn 0.8594 -0.5102 0.0337
usemtl bb.002
s 1
f 1/1/1 2/2/1 3/3/1
f 3/3/1 4/4/1 1/1/1
f 5/5/1 4/4/1 6/6/1
f 7/7/1 8/8/1 9/9/1
f 8/8/2 10/10/3 9/9/4
f 11/11/5 4/4/6 1/1/7
f 9/9/8 12/12/8 10/10/8
f 3/3/9 12/12/10 6/6/11
f 13/13/12 1/14/12 12/12/12
f 14/15/13 12/12/14 10/16/15
f 1/14/16 12/12/16 11/17/16
f 2/2/17 11/17/17 3/3/17
f 4/4/18 12/18/18 1/14/18
f 5/5/19 6/6/19 12/12/19
f 2/2/20 15/19/20 16/20/20
f 9/9/21 12/12/21 1/14/21
f 7/7/22 10/16/23 17/21/24
f 1/1/25 16/22/25 15/19/25
f 8/8/26 7/7/26 17/21/26
f 18/23/27 19/24/27 20/25/27
f 20/25/27 21/26/27 22/27/27
f 21/26/27 23/28/27 22/27/27
f 24/29/27 25/30/27 26/31/27
f 27/32/28 28/33/29 24/29/30
f 21/26/31 29/34/32 19/24/33
f 24/29/34 30/35/35 27/32/36
f 30/35/37 20/25/38 22/27/39
f 31/36/40 19/37/40 30/35/40
f 26/31/41 30/35/35 23/28/42
f 19/37/43 29/38/43 30/35/43
f 29/38/44 18/23/44 20/25/44
f 21/26/45 19/37/45 30/39/45
f 23/28/46 30/35/46 22/27/46
f 18/23/20 32/40/20 33/41/20
f 30/35/47 24/29/47 19/37/47
f 25/30/48 27/42/49 26/31/50
f 32/43/51 19/24/51 33/41/51
f 28/33/52 34/44/52 25/30/52
f 35/45/27 36/46/27 37/47/27
f 37/47/27 38/48/27 35/45/27
f 39/49/27 38/48/27 40/50/27
f 41/51/27 42/52/27 43/53/27
f 42/52/53 44/54/54 43/53/55
f 45/55/56 38/48/57 35/45/58
f 43/53/59 46/56/59 47/57/59
f 37/47/60 46/56/61 40/50/62
f 47/57/63 46/56/63 35/58/63
f 48/59/64 46/56/65 44/60/66
f 35/58/67 45/61/67 46/56/67
f 36/46/44 45/61/44 37/47/44
f 38/48/68 46/62/68 35/58/68
f 39/49/69 40/50/69 46/56/69
f 36/46/70 49/63/70 50/64/70
f 43/53/71 46/56/71 35/58/71
f 41/51/72 44/60/73 51/65/74
f 35/45/51 50/66/51 49/63/51
f 42/52/75 41/51/75 51/65/75
f 52/67/1 53/68/1 54/69/1
f 54/69/1 55/70/1 56/71/1
f 55/70/1 57/72/1 56/71/1
f 58/73/1 59/74/1 60/75/1
f 61/76/76 62/77/77 58/73/78
f 55/70/79 63/78/80 53/68/81
f 58/73/82 64/79/82 65/80/82
f 64/79/83 54/69/84 56/71/85
f 65/80/86 64/79/86 53/81/86
f 60/75/87 64/79/88 57/72/89
f 53/81/90 64/79/90 63/82/90
f 63/82/17 52/67/17 54/69/17
f 55/70/91 53/81/91 64/83/91
f 57/72/92 64/79/92 56/71/92
f 52/67/70 66/84/70 67/85/70
f 64/79/93 58/73/93 53/81/93
f 59/74/94 61/86/95 60/75/96
f 66/87/25 53/68/25 67/85/25
f 62/77/97 68/88/97 59/74/97
f 1/1/1 15/19/1 2/2/1
f 3/3/1 6/6/1 4/4/1
f 5/5/1 14/15/1 4/4/1
f 1/14/1 4/4/1 9/9/1
f 4/4/1 14/15/1 9/9/1
f 14/15/1 7/7/1 9/9/1
f 8/8/2 17/21/98 10/10/3
f 11/11/5 12/18/99 4/4/6
f 9/9/100 13/13/100 12/12/100
f 3/3/9 11/17/101 12/12/10
f 14/15/13 5/5/102 12/12/14
f 2/2/17 16/20/17 11/17/17
f 7/7/22 14/15/103 10/16/23
f 1/1/25 11/11/25 16/22/25
f 18/23/27 33/41/27 19/24/27
f 20/25/27 19/24/27 21/26/27
f 21/26/27 26/31/27 23/28/27
f 26/31/27 21/26/27 24/29/27
f 21/26/27 19/37/27 24/29/27
f 24/29/27 28/33/27 25/30/27
f 27/32/28 34/44/104 28/33/29
f 21/26/31 30/39/105 29/34/32
f 24/29/106 31/36/106 30/35/106
f 30/35/37 29/38/107 20/25/38
f 26/31/41 27/42/36 30/35/35
f 29/38/44 32/40/44 18/23/44
f 25/30/48 34/44/108 27/42/49
f 32/43/51 29/34/51 19/24/51
f 35/45/27 49/63/27 36/46/27
f 37/47/27 40/50/27 38/48/27
f 39/49/27 48/59/27 38/48/27
f 35/58/27 38/48/27 43/53/27
f 38/48/27 48/59/27 43/53/27
f 48/59/27 41/51/27 43/53/27
f 42/52/53 51/65/109 44/54/54
f 45/55/56 46/62/110 38/48/57
f 43/53/111 44/54/66 46/56/65
f 37/47/60 45/61/112 46/56/61
f 48/59/64 39/49/113 46/56/65
f 36/46/44 50/64/44 45/61/44
f 41/51/72 48/59/114 44/60/73
f 35/45/51 45/55/51 50/66/51
f 52/67/1 67/85/1 53/68/1
f 54/69/1 53/68/1 55/70/1
f 55/70/1 60/75/1 57/72/1
f 60/75/1 55/70/1 58/73/1
f 55/70/1 53/81/1 58/73/1
f 58/73/1 62/77/1 59/74/1
f 61/76/76 68/88/115 62/77/77
f 55/70/79 64/83/116 63/78/80
f 58/73/117 61/76/117 64/79/117
f 64/79/83 63/82/118 54/69/84
f 60/75/87 61/86/119 64/79/88
f 63/82/17 66/84/17 52/67/17
f 59/74/94 68/88/120 61/86/95
f 66/87/25 63/78/25 53/68/25
o Cylinder.009
v 0.015077 0.179953 0.452704
v 0.007730 0.179444 0.452704
v 0.007730 0.177994 0.371205
v 0.015479 0.178530 0.371205
v -0.006682 0.181458 0.452704
v -0.013193 0.183903 0.452704
v -0.014341 0.182696 0.371205
v -0.007473 0.180118 0.371205
v -0.018900 0.187193 0.452704
v -0.020361 0.186167 0.371205
v -0.023584 0.191201 0.452704
v -0.025301 0.190395 0.371205
v -0.027064 0.195775 0.452704
v -0.028972 0.195220 0.371205
v -0.029207 0.200737 0.452704
v -0.031233 0.200454 0.371205
v -0.029931 0.205898 0.452704
v -0.031996 0.205898 0.371205
v -0.029207 0.211059 0.452704
v -0.031233 0.211342 0.371205
v -0.027064 0.216021 0.452704
v -0.028972 0.216576 0.371205
v -0.023584 0.220594 0.452704
v -0.025301 0.221401 0.371205
v -0.018900 0.224603 0.452704
v -0.020361 0.225629 0.371205
v -0.013193 0.227893 0.452704
v -0.014341 0.229100 0.371205
v -0.006682 0.230338 0.452704
v -0.007473 0.231678 0.371205
v 0.000382 0.231843 0.452704
v -0.000020 0.233266 0.371205
v 0.007730 0.232351 0.452704
v 0.007730 0.233802 0.371205
v 0.015077 0.231843 0.452704
v 0.015480 0.233266 0.371205
v 0.022142 0.230338 0.452704
v 0.022932 0.231678 0.371205
v 0.028652 0.227893 0.452704
v 0.029800 0.229100 0.371205
v 0.034359 0.224603 0.452704
v 0.035820 0.225629 0.371205
v 0.039043 0.220594 0.452704
v 0.040760 0.221401 0.371205
v 0.042523 0.216021 0.452704
v 0.044431 0.216576 0.371205
v 0.044666 0.211059 0.452704
v 0.046692 0.211342 0.371205
v 0.045389 0.205898 0.452704
v 0.047455 0.205898 0.371205
v 0.044666 0.200737 0.452704
v 0.046692 0.200454 0.371205
v 0.042523 0.195775 0.452704
v 0.044431 0.195220 0.371205
v 0.039043 0.191201 0.452704
v 0.040760 0.190395 0.371205
v 0.034359 0.187193 0.452704
v 0.035819 0.186167 0.371205
v 0.028652 0.183903 0.452704
v 0.029800 0.182696 0.371205
v 0.022142 0.181458 0.452704
v 0.022932 0.180118 0.371205
v -0.000020 0.178530 0.371205
v 0.000382 0.179953 0.452704
v 0.007730 0.184824 0.529569
v 0.001877 0.185229 0.529569
v -0.003752 0.186428 0.529569
v -0.008939 0.188376 0.529569
v -0.013485 0.190996 0.529569
v -0.017216 0.194190 0.529569
v -0.019988 0.197834 0.529569
v -0.021696 0.201787 0.529569
v -0.022272 0.205898 0.529569
v -0.021696 0.210009 0.529569
v -0.019988 0.213963 0.529569
v -0.017216 0.217606 0.529569
v -0.013485 0.220800 0.529569
v -0.008939 0.223420 0.529569
v -0.003752 0.225368 0.529569
v 0.001877 0.226567 0.529569
v 0.007730 0.226972 0.529569
v 0.013583 0.226567 0.529569
v 0.019211 0.225368 0.529569
v 0.024398 0.223420 0.529569
v 0.028944 0.220800 0.529569
v 0.032675 0.217606 0.529569
v 0.035448 0.213963 0.529569
v 0.037155 0.210009 0.529569
v 0.037731 0.205898 0.529569
v 0.037155 0.201787 0.529569
v 0.035448 0.197833 0.529569
v 0.032675 0.194190 0.529569
v 0.028944 0.190996 0.529569
v 0.024398 0.188376 0.529569
v 0.019211 0.186428 0.529569
v 0.013583 0.185229 0.529569
vt 0.031250 0.557135
vt 0.000000 0.557135
vt 0.000000 1.000000
vt 0.031250 1.000000
vt 0.937500 0.557135
vt 0.906250 0.557135
vt 0.906250 1.000000
vt 0.937500 1.000000
vt 0.875000 0.557135
vt 0.875000 1.000000
vt 0.843750 0.557135
vt 0.843750 1.000000
vt 0.812500 0.557135
vt 0.812500 1.000000
vt 0.781250 0.557135
vt 0.781250 1.000000
vt 0.750000 0.557135
vt 0.750000 1.000000
vt 0.718750 0.557135
vt 0.718750 1.000000
vt 0.687500 0.557135
vt 0.687500 1.000000
vt 0.656250 0.557135
vt 0.656250 1.000000
vt 0.625000 0.557135
vt 0.625000 1.000000
vt 0.593750 0.557135
vt 0.593750 1.000000
vt 0.562500 0.557135
vt 0.562500 1.000000
vt 0.531250 0.557135
vt 0.531250 1.000000
vt 0.500000 0.557135
vt 0.500000 1.000000
vt 0.468750 0.557135
vt 0.468750 1.000000
vt 0.437500 0.557135
vt 0.437500 1.000000
vt 0.406250 0.557135
vt 0.406250 1.000000
vt 0.375000 0.557135
vt 0.375000 1.000000
vt 0.343750 0.557135
vt 0.343750 1.000000
vt 0.312500 0.557135
vt 0.312500 1.000000
vt 0.281250 0.557135
vt 0.281250 1.000000
vt 0.250000 0.557135
vt 0.250000 1.000000
vt 0.218750 0.557135
vt 0.218750 1.000000
vt 0.187500 0.557135
vt 0.187500 1.000000
vt 0.156250 0.557135
vt 0.156250 1.000000
vt 0.125000 0.557135
vt 0.125000 1.000000
vt 0.093750 0.557135
vt 0.093750 1.000000
vt 0.062500 0.557135
vt 0.062500 1.000000
vt 0.296822 0.485388
vt 0.341844 0.471731
vt 0.383337 0.449553
vt 0.419706 0.419706
vt 0.449553 0.383337
vt 0.471731 0.341844
vt 0.485388 0.296822
vt 0.490000 0.250000
vt 0.485388 0.203178
vt 0.471731 0.158156
vt 0.449553 0.116663
vt 0.419706 0.080294
vt 0.383337 0.050447
vt 0.341844 0.028269
vt 0.296822 0.014612
vt 0.250000 0.010000
vt 0.203178 0.014612
vt 0.158156 0.028269
vt 0.116663 0.050447
vt 0.080294 0.080294
vt 0.050447 0.116663
vt 0.028269 0.158156
vt 0.014611 0.203179
vt 0.010000 0.250000
vt 0.014612 0.296822
vt 0.028269 0.341844
vt 0.050447 0.383337
vt 0.080295 0.419706
vt 0.116663 0.449553
vt 0.158156 0.471731
vt 0.203179 0.485389
vt 0.250000 0.490000
vt 0.968750 0.557135
vt 0.968750 1.000000
vt 1.000000 0.557135
vt 1.000000 1.000000
vt 0.996705 0.500000
vt 0.972045 0.500000
vt 0.965455 0.500000
vt 0.940795 0.500000
vt 0.934205 0.500000
vt 0.909545 0.500000
vt 0.902955 0.500000
vt 0.878295 0.500000
vt 0.871705 0.500000
vt 0.847045 0.500000
vt 0.840455 0.500000
vt 0.815795 0.500000
vt 0.809205 0.500000
vt 0.784545 0.500000
vt 0.777955 0.500000
vt 0.753295 0.500000
vt 0.746705 0.500000
vt 0.722045 0.500000
vt 0.715455 0.500000
vt 0.690795 0.500000
vt 0.684205 0.500000
vt 0.659545 0.500000
vt 0.652955 0.500000
vt 0.628295 0.500000
vt 0.621705 0.500000
vt 0.597045 0.500000
vt 0.590455 0.500000
vt 0.565795 0.500000
vt 0.559205 0.500000
vt 0.534545 0.500000
vt 0.527955 0.500000
vt 0.503295 0.500000
vt 0.496705 0.500000
vt 0.472045 0.500000
vt 0.465455 0.500000
vt 0.440795 0.500000
vt 0.434205 0.500000
vt 0.409545 0.500000
vt 0.402955 0.500000
vt 0.378295 0.500000
vt 0.371705 0.500000
vt 0.347045 0.500000
vt 0.340455 0.500000
vt 0.315795 0.500000
vt 0.309205 0.500000
vt 0.284545 0.500000
vt 0.277955 0.500000
vt 0.253295 0.500000
vt 0.246705 0.500000
vt 0.222045 0.500000
vt 0.215455 0.500000
vt 0.190795 0.500000
vt 0.184205 0.500000
vt 0.159545 0.500000
vt 0.152955 0.500000
vt 0.128295 0.500000
vt 0.121705 0.500000
vt 0.097045 0.500000
vt 0.090455 0.500000
vt 0.065795 0.500000
vt 0.059205 0.500000
vt 0.034545 0.500000
vt 0.027955 0.500000
vt 0.003295 0.500000
vt 0.855219 0.407472
vt 0.822476 0.424973
vt 0.855219 0.092528
vt 0.786948 0.435750
vt 0.750000 0.439390
vt 0.750000 0.060610
vt 0.713052 0.435751
vt 0.713052 0.064250
vt 0.677524 0.424973
vt 0.644781 0.407472
vt 0.677524 0.075027
vt 0.616082 0.383919
vt 0.616081 0.116081
vt 0.592529 0.355219
vt 0.592528 0.144781
vt 0.575027 0.322476
vt 0.564250 0.286948
vt 0.575027 0.177524
vt 0.560610 0.250000
vt 0.564249 0.213052
vt 0.644781 0.092528
vt 0.786948 0.064250
vt 0.822476 0.075027
vt 0.883919 0.116081
vt 0.883919 0.383919
vt 0.907472 0.144781
vt 0.907472 0.355219
vt 0.924973 0.177524
vt 0.935750 0.213052
vt 0.924973 0.322476
vt 0.939389 0.250000
vt 0.935750 0.286948
vn 0.0690 -0.9975 0.0178
vn -0.3514 -0.9360 0.0188
vn -0.4993 -0.8662 0.0199
vn -0.6501 -0.7596 0.0212
vn -0.7956 -0.6054 0.0228
vn -0.9178 -0.3963 0.0242
vn -0.9900 -0.1388 0.0251
vn -0.9900 0.1388 0.0251
vn -0.9178 0.3963 0.0242
vn -0.7956 0.6054 0.0228
vn -0.6501 0.7596 0.0212
vn -0.4993 0.8662 0.0199
vn -0.3514 0.9360 0.0188
vn -0.2084 0.9779 0.0181
vn -0.0690 0.9975 0.0178
vn 0.0690 0.9975 0.0178
vn 0.2084 0.9779 0.0181
vn 0.3514 0.9360 0.0188
vn 0.4993 0.8662 0.0199
vn 0.6501 0.7595 0.0212
vn 0.7956 0.6054 0.0228
vn 0.9178 0.3964 0.0242
vn 0.9900 0.1388 0.0251
vn 0.9900 -0.1388 0.0251
vn 0.9178 -0.3964 0.0242
vn 0.7956 -0.6054 0.0228
vn 0.6501 -0.7595 0.0212
vn 0.4993 -0.8662 0.0199
vn 0.3514 -0.9360 0.0188
vn 0.2084 -0.9779 0.0181
vn -0.0000 0.0000 -1.0000
vn -0.2084 -0.9779 0.0181
vn -0.0690 -0.9975 0.0178
vn -0.0689 -0.9952 0.0696
vn -0.2079 -0.9756 0.0710
vn -0.3505 -0.9337 0.0737
vn -0.4979 -0.8637 0.0778
vn -0.6480 -0.7571 0.0831
vn -0.7926 -0.6032 0.0891
vn -0.9139 -0.3947 0.0947
vn -0.9855 -0.1382 0.0982
vn -0.9855 0.1382 0.0982
vn -0.9139 0.3947 0.0947
vn -0.7926 0.6032 0.0891
vn -0.6480 0.7571 0.0831
vn -0.4979 0.8637 0.0778
vn -0.3505 0.9337 0.0737
vn -0.2079 0.9756 0.0710
vn -0.0689 0.9952 0.0696
vn 0.0689 0.9952 0.0696
vn 0.2079 0.9756 0.0710
vn 0.3505 0.9336 0.0737
vn 0.4979 0.8637 0.0778
vn 0.6480 0.7571 0.0831
vn 0.7926 0.6032 0.0891
vn 0.9139 0.3947 0.0947
vn 0.9855 0.1382 0.0982
vn 0.9855 -0.1382 0.0982
vn 0.9140 -0.3946 0.0947
vn 0.7926 -0.6032 0.0891
vn 0.6480 -0.7571 0.0831
vn 0.4979 -0.8637 0.0778
vn 0.3505 -0.9336 0.0737
vn 0.2079 -0.9756 0.0710
vn 0.0689 -0.9952 0.0696
vn 0.0000 0.0000 1.0000
vn -0.0001 0.0000 1.0000
vn 0.0001 0.0000 1.0000
usemtl bb.002
s 1
f 69/89/121 70/90/121 71/91/121 72/92/121
f 73/93/122 74/94/122 75/95/122 76/96/122
f 74/94/123 77/97/123 78/98/123 75/95/123
f 77/97/124 79/99/124 80/100/124 78/98/124
f 79/99/125 81/101/125 82/102/125 80/100/125
f 81/101/126 83/103/126 84/104/126 82/102/126
f 83/103/127 85/105/127 86/106/127 84/104/127
f 85/105/128 87/107/128 88/108/128 86/106/128
f 87/107/129 89/109/129 90/110/129 88/108/129
f 89/109/130 91/111/130 92/112/130 90/110/130
f 91/111/131 93/113/131 94/114/131 92/112/131
f 93/113/132 95/115/132 96/116/132 94/114/132
f 95/115/133 97/117/133 98/118/133 96/116/133
f 97/117/134 99/119/134 100/120/134 98/118/134
f 99/119/135 101/121/135 102/122/135 100/120/135
f 101/121/136 103/123/136 104/124/136 102/122/136
f 103/123/137 105/125/137 106/126/137 104/124/137
f 105/125/138 107/127/138 108/128/138 106/126/138
f 107/127/139 109/129/139 110/130/139 108/128/139
f 109/129/140 111/131/140 112/132/140 110/130/140
f 111/131/141 113/133/141 114/134/141 112/132/141
f 113/133/142 115/135/142 116/136/142 114/134/142
f 115/135/143 117/137/143 118/138/143 116/136/143
f 117/137/144 119/139/144 120/140/144 118/138/144
f 119/139/145 121/141/145 122/142/145 120/140/145
f 121/141/146 123/143/146 124/144/146 122/142/146
f 123/143/147 125/145/147 126/146/147 124/144/147
f 125/145/148 127/147/148 128/148/148 126/146/148
f 127/147/149 129/149/149 130/150/149 128/148/149
f 129/149/150 69/89/150 72/92/150 130/150/150
f 131/151/151 76/152/151 75/153/151 78/154/151 80/155/151 82/156/151 84/157/151 86/158/151 88/159/151 90/160/151 92/161/151 94/162/151 96/163/151 98/164/151 100/165/151 102/166/151 104/167/151 106/168/151 108/169/151 110/170/151 112/171/151 114/172/151 116/173/151 118/174/151 120/175/151 122/176/151 124/177/151 126/178/151 128/179/151 130/180/151 72/181/151 71/182/151
f 132/183/152 73/93/152 76/96/152 131/184/152
f 70/185/153 132/183/153 131/184/153 71/186/153
f 70/185/154 133/187/154 134/188/154 132/183/154
f 132/183/155 134/189/155 135/190/155 73/93/155
f 73/93/156 135/191/156 136/192/156 74/94/156
f 74/94/157 136/193/157 137/194/157 77/97/157
f 77/97/158 137/195/158 138/196/158 79/99/158
f 79/99/159 138/197/159 139/198/159 81/101/159
f 81/101/160 139/199/160 140/200/160 83/103/160
f 83/103/161 140/201/161 141/202/161 85/105/161
f 85/105/162 141/203/162 142/204/162 87/107/162
f 87/107/163 142/205/163 143/206/163 89/109/163
f 89/109/164 143/207/164 144/208/164 91/111/164
f 91/111/165 144/209/165 145/210/165 93/113/165
f 93/113/166 145/211/166 146/212/166 95/115/166
f 95/115/167 146/213/167 147/214/167 97/117/167
f 97/117/168 147/215/168 148/216/168 99/119/168
f 99/119/169 148/217/169 149/218/169 101/121/169
f 101/121/170 149/219/170 150/220/170 103/123/170
f 103/123/171 150/221/171 151/222/171 105/125/171
f 105/125/172 151/223/172 152/224/172 107/127/172
f 107/127/173 152/225/173 153/226/173 109/129/173
f 109/129/174 153/227/174 154/228/174 111/131/174
f 111/131/175 154/229/175 155/230/175 113/133/175
f 113/133/176 155/231/176 156/232/176 115/135/176
f 115/135/177 156/233/177 157/234/177 117/137/177
f 117/137/178 157/235/178 158/236/178 119/139/178
f 119/139/179 158/237/179 159/238/179 121/141/179
f 121/141/180 159/239/180 160/240/180 123/143/180
f 123/143/181 160/241/181 161/242/181 125/145/181
f 125/145/182 161/243/182 162/244/182 127/147/182
f 127/147/183 162/245/183 163/246/183 129/149/183
f 129/149/184 163/247/184 164/248/184 69/89/184
f 69/89/185 164/249/185 133/250/185 70/90/185
f 136/251/186 135/252/186 146/253/186
f 134/254/186 133/255/186 149/256/186
f 133/255/186 164/257/186 150/258/186
f 164/257/186 163/259/186 150/258/186
f 163/259/186 162/260/186 151/261/186
f 150/258/186 163/259/186 151/261/186
f 162/260/186 161/262/186 153/263/186
f 161/262/186 160/264/186 154/265/186
f 160/264/186 159/266/186 154/265/186
f 159/266/186 158/267/186 155/268/186
f 154/265/186 159/266/186 155/268/186
f 158/267/186 157/269/187 156/270/186
f 156/270/186 155/268/186 158/267/186
f 154/265/186 153/263/186 161/262/186
f 153/263/186 152/271/186 162/260/186
f 152/271/186 151/261/186 162/260/186
f 150/258/186 149/256/186 133/255/186
f 149/256/186 148/272/186 134/254/186
f 148/272/186 147/273/186 134/254/186
f 147/273/186 146/253/186 135/252/186
f 134/254/186 147/273/186 135/252/186
f 146/253/186 145/274/186 137/275/186
f 145/274/186 144/276/186 138/277/186
f 144/276/186 143/278/186 138/277/186
f 143/278/186 142/279/186 139/280/186
f 138/277/186 143/278/186 139/280/186
f 142/279/186 141/281/188 140/282/187
f 140/282/187 139/280/186 142/279/186
f 138/277/186 137/275/186 145/274/186
f 137/275/186 136/251/186 146/253/186
