# Blender v2.82 (sub 7) OBJ File: ''
# www.blender.org
mtllib launcher_lever.mtl
o Plane.007
v 0.243932 0.290893 -0.314477
v 0.243932 0.290893 -0.372401
v 0.267137 0.290893 -0.353509
v 0.267137 0.290893 -0.315187
v 0.329392 0.290893 -0.296736
v 0.329392 0.290893 -0.258414
v 0.329719 0.290893 -0.248968
v 0.322488 0.290893 -0.249066
v 0.322488 0.290893 -0.215390
v 0.267137 0.290893 -0.215800
v 0.322488 0.290893 -0.162411
v 0.267137 0.290893 -0.162822
v 0.322488 0.290893 -0.131610
v 0.267137 0.290893 -0.132020
v 0.327673 0.290893 -0.044274
v 0.320657 0.290893 -0.033555
v 0.267137 0.290893 -0.034482
v 0.328711 0.290893 -0.215390
v 0.328711 0.290893 -0.162411
v 0.267137 0.290893 0.122487
v 0.316981 0.290893 0.122005
v 0.310030 0.290893 0.137718
v 0.305617 0.290893 0.154925
v 0.303966 0.290893 0.172880
v 0.305139 0.290893 0.190895
v 0.309094 0.290893 0.208276
v 0.315737 0.290893 0.224497
v 0.267137 0.290893 0.225278
v 0.320209 0.290893 0.231756
v 0.320209 0.290893 0.356732
v 0.267256 0.290893 0.357998
v 0.205056 0.292200 0.252679
v 0.208802 0.292200 0.119959
v 0.327947 0.290893 -0.131610
v 0.267137 0.290893 -0.034482
v 0.312214 0.290822 -0.014096
v 0.308761 0.290893 0.000178
v 0.307110 0.290893 0.018134
v 0.308284 0.290893 0.036148
v 0.312238 0.290893 0.053529
v 0.318821 0.290893 0.069609
v 0.327625 0.290893 0.083536
v 0.326469 0.290893 0.108035
v 0.216531 0.290893 -0.372401
v 0.215806 0.290893 -0.314477
v 0.207482 0.292149 0.124457
v 0.322488 0.290893 -0.131610
v 0.322488 0.290893 -0.162411
v 0.322577 0.129709 -0.162390
v 0.322577 0.129709 -0.131588
v 0.243932 0.290893 -0.372401
v 0.216531 0.290893 -0.372401
v 0.216620 0.129709 -0.372379
v 0.244021 0.129709 -0.372379
v 0.326469 0.290893 0.108035
v 0.327625 0.290893 0.083536
v 0.327714 0.129709 0.083557
v 0.326559 0.129709 0.108056
v 0.312214 0.290822 -0.014096
v 0.320657 0.290893 -0.033555
v 0.320746 0.129709 -0.033533
v 0.312303 0.129637 -0.014075
v 0.267137 0.290893 -0.353509
v 0.267225 0.129709 -0.353487
v 0.305139 0.290893 0.190895
v 0.303966 0.290893 0.172880
v 0.304054 0.129709 0.172902
v 0.305228 0.129709 0.190916
v 0.320209 0.290893 0.356732
v 0.320209 0.290893 0.231756
v 0.320299 0.129709 0.231778
v 0.320299 0.129709 0.356754
v 0.309094 0.290893 0.208276
v 0.309182 0.129709 0.208298
v 0.312238 0.290893 0.053529
v 0.308284 0.290893 0.036148
v 0.308372 0.129709 0.036169
v 0.312327 0.129709 0.053550
v 0.267256 0.290893 0.357998
v 0.267345 0.129709 0.358020
v 0.318821 0.290893 0.069609
v 0.318909 0.129709 0.069630
v 0.327673 0.290893 -0.044274
v 0.327762 0.129709 -0.044252
v 0.305617 0.290893 0.154925
v 0.305706 0.129709 0.154946
v 0.322488 0.290893 -0.215390
v 0.322488 0.290893 -0.249066
v 0.322577 0.129709 -0.249044
v 0.322577 0.129709 -0.215368
v 0.308761 0.290893 0.000178
v 0.308850 0.129709 0.000199
v 0.267137 0.290893 -0.034482
v 0.267137 0.290893 -0.034482
v 0.267225 0.129709 -0.034461
v 0.267225 0.129709 -0.034461
v 0.316981 0.290893 0.122005
v 0.317070 0.129709 0.122027
v 0.267137 0.290893 -0.132020
v 0.215806 0.290893 -0.314477
v 0.327947 0.290893 -0.131610
v 0.307110 0.290893 0.018134
v 0.329719 0.290893 -0.248968
v 0.315737 0.290893 0.224497
v 0.205056 0.292200 0.252679
v 0.207482 0.292149 0.124457
v 0.328711 0.290893 -0.215390
v 0.328711 0.290893 -0.162411
v 0.329392 0.290893 -0.258414
v 0.310030 0.290893 0.137718
v 0.329392 0.290893 -0.296736
v 0.244021 0.129709 -0.314456
v 0.267225 0.129709 -0.315165
v 0.329481 0.129709 -0.258392
v 0.329481 0.129709 -0.296714
v 0.329809 0.129709 -0.248946
v 0.267225 0.129709 -0.215779
v 0.267225 0.129709 -0.162800
v 0.267225 0.129709 -0.131999
v 0.328800 0.129709 -0.162390
v 0.328800 0.129709 -0.215368
v 0.267225 0.129709 0.122508
v 0.267225 0.129709 0.225300
v 0.315825 0.129709 0.224519
v 0.310119 0.129709 0.137740
v 0.208891 0.131016 0.119981
v 0.205145 0.131016 0.252701
v 0.328035 0.129709 -0.131588
v 0.307199 0.129709 0.018155
v 0.215895 0.129709 -0.314456
v 0.207571 0.130965 0.124478
vt 1.000000 0.000000
vt 1.000000 0.000000
vt 1.000000 0.000000
vt 1.000000 0.000000
vt 1.000000 0.000000
vt 1.000000 0.000000
vt 1.000000 0.000000
vt 1.000000 0.000000
vt 1.000000 0.000000
vt 1.000000 0.000000
vt 1.000000 0.000000
vt 1.000000 0.000000
vt 1.000000 0.000000
vt 1.000000 0.000000
vt 1.000000 0.000000
vt 1.000000 0.000000
vt 1.000000 0.000000
vt 1.000000 0.000000
vt 1.000000 0.000000
vt 1.000000 0.000000
vt 1.000000 0.000000
vt 1.000000 0.000000
vt 1.000000 0.000000
vt 1.000000 0.000000
vt 1.000000 0.000000
vt 1.000000 0.000000
vt 1.000000 0.000000
vt 1.000000 0.000000
vt 1.000000 0.000000
vt 1.000000 0.000000
vt 1.000000 0.000000
vt 1.000000 0.000000
vt 1.000000 0.000000
vt 1.000000 0.000000
vt 1.000000 0.000000
vt 1.000000 0.000000
vt 1.000000 0.000000
vt 1.000000 0.000000
vt 1.000000 0.000000
vt 1.000000 0.000000
vt 1.000000 0.000000
vt 1.000000 0.000000
vt 0.000000 0.000000
vt 0.000000 0.000000
vt 1.000000 0.000000
vt 1.000000 0.000000
vt 1.000000 0.038932
vt 1.000000 0.000000
vt 1.000000 0.000000
vt 1.000000 0.000000
vt 1.000000 0.000000
vt 1.000000 0.000000
vt 1.000000 0.000000
vt 1.000000 0.000000
vt 1.000000 0.000000
vt 1.000000 0.000000
vt 1.000000 0.000000
vt 1.000000 0.000000
vt 1.000000 0.000000
vt 0.000000 0.000000
vt 0.000000 0.000000
vt 0.000000 0.000000
vt 0.000000 0.000000
vt 1.000000 0.000000
vt 1.000000 0.000000
vt 1.000000 0.000000
vt 1.000000 0.000000
vt 1.000000 0.000000
vt 1.000000 0.000000
vt 1.000000 0.000000
vt 1.000000 0.000000
vt 1.000000 0.000000
vt 1.000000 0.000000
vt 1.000000 0.000000
vt 1.000000 0.000000
vt 1.000000 0.000000
vt 1.000000 0.000000
vt 1.000000 0.000000
vt 1.000000 0.000000
vt 1.000000 0.000000
vt 1.000000 0.000000
vt 1.000000 0.000000
vt 1.000000 0.000000
vt 1.000000 0.000000
vt 1.000000 0.000000
vt 1.000000 0.000000
vt 1.000000 0.000000
vt 1.000000 0.000000
vt 1.000000 0.000000
vt 1.000000 0.000000
vt 1.000000 0.000000
vt 1.000000 0.000000
vt 1.000000 0.000000
vt 1.000000 0.000000
vt 1.000000 0.000000
vt 1.000000 0.000000
vt 1.000000 0.000000
vt 1.000000 0.000000
vt 1.000000 0.000000
vt 1.000000 0.000000
vt 1.000000 0.000000
vt 1.000000 0.000000
vt 1.000000 0.000000
vt 1.000000 0.000000
vt 1.000000 0.000000
vt 1.000000 0.000000
vt 1.000000 0.000000
vt 1.000000 0.038932
vt 1.000000 0.000000
vt 1.000000 0.000000
vt 1.000000 0.000000
vt 1.000000 0.000000
vt 1.000000 0.000000
vt 1.000000 0.000000
vt 1.000000 0.000000
vt 1.000000 0.000000
vt 1.000000 0.000000
vt 1.000000 0.000000
vt 1.000000 0.000000
vt 1.000000 0.000000
vt 1.000000 0.000000
vt 1.000000 0.000000
vt 1.000000 0.000000
vt 1.000000 0.000000
vt 1.000000 0.000000
vt 1.000000 0.000000
vt 1.000000 0.000000
vt 1.000000 0.000000
vt 1.000000 0.000000
vt 1.000000 0.000000
vt 1.000000 0.000000
vt 1.000000 0.000000
vt 1.000000 0.000000
vt 1.000000 0.038932
vn 0.0067 1.0000 -0.0069
vn 0.0027 1.0000 0.0048
vn -0.0000 0.7007 0.7134
vn 0.0000 0.6163 0.7875
vn 0.0000 0.7110 0.7032
vn -0.0000 0.5924 0.8056
vn 0.0000 0.8328 0.5536
vn 0.0000 0.4361 0.8999
vn 0.0069 1.0000 -0.0069
vn 0.0000 0.8321 0.5547
vn 0.0061 0.8968 0.4423
vn 0.0000 0.3194 0.9476
vn 0.0000 0.7255 0.6882
vn 0.0000 0.6325 0.7746
vn 0.0000 0.4472 0.8944
vn 0.0057 1.0000 0.0055
vn 0.0010 1.0000 0.0016
vn -0.0000 0.7248 0.6890
vn 0.0000 0.6878 0.7259
vn 0.0000 0.6886 0.7252
vn 0.0000 0.6888 0.7250
vn 0.0000 0.6885 0.7253
vn 0.0000 0.6877 0.7260
vn 0.0001 0.7265 0.6871
vn -0.0000 0.4420 0.8970
vn -0.0000 0.4526 0.8917
vn -0.0000 0.6360 0.7717
vn 0.0205 0.9998 0.0000
vn 0.0212 0.9998 0.0003
vn 0.0000 0.4465 0.8948
vn 0.0059 0.7060 0.7081
vn 0.0001 0.6364 0.7713
vn 0.0001 0.6273 0.7788
vn 0.0001 0.6865 0.7271
vn 0.0001 0.6878 0.7259
vn 0.0001 0.6885 0.7252
vn 0.0001 0.6888 0.7250
vn 0.0001 0.6901 0.7237
vn 0.0001 0.6869 0.7268
vn 0.0000 0.4501 0.8930
vn 0.0045 0.7080 0.7062
vn -0.0427 0.9991 -0.0012
vn -0.0029 0.0916 0.9958
vn 1.0000 0.0006 0.0000
vn 0.0000 -0.0001 -1.0000
vn 0.9989 0.0006 0.0471
vn 0.9174 0.0006 0.3980
vn 0.6314 0.0002 -0.7755
vn 0.9979 0.0005 -0.0650
vn 0.9751 0.0005 -0.2218
vn 0.0239 0.0001 0.9997
vn 0.8453 0.0004 -0.5344
vn 0.8367 0.0005 0.5477
vn 0.9958 0.0006 0.0916
vn 0.9720 0.0006 0.2351
vn 0.0000 0.0000 0.0000
vn -0.3572 0.1478 -0.9222
vn 0.3572 0.1480 -0.9222
vn 0.8272 0.0005 0.5618
vn 0.0000 0.0000 1.0000
vn -0.0067 -1.0000 0.0069
vn 0.0000 -1.0000 -0.0000
vn -0.0027 -1.0000 -0.0048
vn -0.0069 -1.0000 0.0069
vn 0.0000 -1.0000 0.0013
vn -0.0001 -1.0000 0.0013
vn -0.0001 -1.0000 -0.0000
vn -0.0251 -0.9997 0.0009
vn -0.0212 -0.9998 -0.0003
vn -0.0204 -0.9998 -0.0000
vn -0.0092 -0.9999 0.0073
vn -0.0002 -1.0000 -0.0001
vn -0.0063 -1.0000 0.0006
vn 0.0432 -0.9991 0.0013
vn 0.0423 -0.9991 0.0011
vn 0.0422 -0.9991 0.0012
vn -0.0125 -0.9999 0.0013
vn 0.9145 0.0006 0.4046
vn -0.8611 -0.0004 0.5085
vn 0.6738 0.0003 -0.7389
vn -1.0000 -0.0005 0.0000
vn 0.9686 0.0006 0.2484
vn 1.0000 0.0005 0.0000
vn -0.9999 -0.0006 -0.0125
vn -0.9999 -0.0006 -0.0157
vn -0.0135 0.0001 0.9999
vn 0.8513 0.0004 -0.5246
vn -0.9998 -0.0006 -0.0189
vn 0.9255 0.0005 -0.3788
vn 0.9994 0.0006 -0.0347
vn 0.9254 0.0005 -0.3790
vn 1.0000 0.0005 0.0031
vn 0.0000 0.0001 1.0000
usemtl bb.005
s 1
f 1/1/1 4/2/2 3/3/3 2/4/4
f 4/2/2 6/5/5 5/6/6 3/3/3
f 4/2/2 8/7/7 7/8/8 6/5/5
f 4/2/2 10/9/9 9/10/10 8/7/7
f 10/9/9 12/11/9 11/12/10 9/10/10
f 12/11/9 14/13/11 13/14/10 11/12/10
f 14/13/11 17/15/12 16/16/13 15/17/14 13/14/10
f 11/12/10 19/18/15 18/19/15 9/10/10
f 20/20/16 28/21/17 27/22/18 26/23/19 25/24/20 24/25/21 23/26/22 22/27/23 21/28/24
f 28/21/17 31/29/25 30/30/26 29/31/27 27/22/18
f 28/21/17 33/32/28 32/33/29 31/29/29
f 15/17/14 34/34/30 13/14/10
f 17/15/12 35/35/31 16/16/13
f 20/20/16 21/28/24 43/36/32 42/37/33 41/38/34 40/39/35 39/40/36 38/41/37 37/42/38 36/43/39 16/44/13 35/35/31
f 44/45/40 45/46/41 1/1/1 2/4/4
f 46/47/42 32/33/42 33/32/42
f 45/46/41 46/47/43 33/32/28 28/21/17 20/20/16 35/35/31 14/13/11 12/11/9 10/9/9 4/2/2 1/1/1
f 47/48/44 50/49/44 49/50/44 48/51/44
f 51/52/45 54/53/45 53/54/45 52/55/45
f 55/56/46 58/57/46 57/58/46 56/59/46
f 59/60/47 62/61/47 61/62/47 60/63/47
f 63/64/48 64/65/48 54/53/48 51/52/48
f 65/66/49 68/67/49 67/68/49 66/69/49
f 69/70/44 72/71/44 71/72/44 70/73/44
f 73/74/50 74/75/50 68/67/50 65/66/50
f 75/76/50 78/77/50 77/78/50 76/79/50
f 79/80/51 80/81/51 72/71/51 69/70/51
f 56/59/52 57/58/52 82/82/52 81/83/52
f 60/84/53 61/85/53 84/86/53 83/87/53
f 66/69/54 67/68/54 86/88/54 85/89/54
f 87/90/44 90/91/44 89/92/44 88/93/44
f 91/94/55 92/95/55 62/61/55 59/60/55
f 93/96/56 96/97/57 95/98/58 94/99/56
f 97/100/59 98/101/59 58/57/59 55/56/59
f 35/35/31 94/99/56 99/102/56 14/13/11
f 44/45/40 52/55/56 100/103/56 45/46/41
f 34/34/30 101/104/56 47/48/56 13/14/10
f 39/40/36 76/79/60 102/105/60 38/41/37
f 8/7/7 88/93/56 103/106/60 7/8/8
f 29/31/27 70/73/56 104/107/60 27/22/18
f 46/47/43 106/108/60 105/109/60 32/33/60
f 19/18/15 108/110/56 107/111/56 18/19/15
f 41/38/34 81/83/60 75/76/60 40/39/35
f 7/8/8 103/106/60 109/112/56 6/5/5
f 27/22/18 104/107/60 73/74/60 26/23/19
f 45/46/41 100/103/56 106/108/60 46/47/43
f 18/19/15 107/111/56 87/90/56 9/10/10
f 15/17/14 83/87/56 101/104/56 34/34/30
f 11/12/10 48/51/56 108/110/56 19/18/15
f 21/28/24 97/100/60 55/56/60 43/36/32
f 17/15/12 93/96/56 94/99/56 35/35/31
f 37/42/38 91/94/60 59/60/60 36/43/39
f 9/10/10 87/90/56 88/93/56 8/7/7
f 24/25/21 66/69/60 85/89/60 23/26/22
f 16/16/13 60/84/60 83/87/56 15/17/14
f 42/37/33 56/59/60 81/83/60 41/38/34
f 31/29/25 79/80/60 69/70/56 30/30/26
f 40/39/35 75/76/60 76/79/60 39/40/36
f 26/23/19 73/74/60 65/66/60 25/24/20
f 30/30/26 69/70/56 70/73/56 29/31/27
f 25/24/20 65/66/60 66/69/60 24/25/21
f 3/3/3 63/64/60 51/52/60 2/4/4
f 36/43/39 59/60/60 60/63/60 16/44/13
f 43/36/32 55/56/60 56/59/60 42/37/33
f 2/4/4 51/52/60 52/55/56 44/45/40
f 13/14/10 47/48/56 48/51/56 11/12/10
f 22/27/23 110/113/60 97/100/60 21/28/24
f 6/5/5 109/112/56 111/114/56 5/6/6
f 32/33/60 105/109/60 79/80/60 31/29/25
f 38/41/37 102/105/60 91/94/60 37/42/38
f 5/6/6 111/114/56 63/64/60 3/3/3
f 14/13/11 99/102/56 93/96/56 17/15/12
f 23/26/22 85/89/60 110/113/60 22/27/23
f 112/115/61 54/53/62 64/65/62 113/116/63
f 113/116/63 64/65/62 115/117/62 114/118/62
f 113/116/63 114/118/62 116/119/62 89/92/62
f 113/116/63 89/92/62 90/91/62 117/120/64
f 117/120/64 90/91/62 49/50/62 118/121/64
f 118/121/64 49/50/62 50/49/62 119/122/65
f 119/122/65 50/49/62 84/86/62 61/85/62 96/97/62
f 49/50/62 90/91/62 121/123/62 120/124/62
f 122/125/66 98/101/67 125/126/62 86/88/62 67/68/62 68/67/62 74/75/62 124/127/62 123/128/62
f 123/128/62 124/127/62 71/72/62 72/71/62 80/81/62
f 123/128/68 80/81/69 127/129/69 126/130/70
f 84/86/62 50/49/62 128/131/62
f 96/97/57 61/85/60 95/98/58
f 122/125/66 95/98/71 61/62/72 62/61/72 92/95/72 129/132/72 77/78/72 78/77/72 82/82/72 57/58/72 58/57/72 98/101/67
f 53/54/62 54/53/62 112/115/61 130/133/73
f 131/134/74 126/130/75 127/129/76
f 130/133/73 112/115/61 113/116/63 117/120/64 118/121/64 119/122/65 95/98/71 122/125/66 123/128/68 126/130/70 131/134/77
f 110/113/78 125/126/78 98/101/78 97/100/78
f 109/112/44 114/118/44 115/117/44 111/114/44
f 105/109/79 127/129/79 80/81/79 79/80/79
f 102/105/54 129/132/54 92/95/54 91/94/54
f 111/114/80 115/117/80 64/65/80 63/64/80
f 99/102/81 119/122/81 96/97/81 93/96/81
f 85/89/82 86/88/82 125/126/82 110/113/82
f 94/99/83 95/98/83 119/122/83 99/102/83
f 52/55/84 53/54/84 130/133/85 100/103/85
f 101/104/45 128/131/45 50/49/45 47/48/45
f 76/79/49 77/78/49 129/132/49 102/105/49
f 88/93/86 89/92/86 116/119/86 103/106/86
f 70/73/87 71/72/87 124/127/87 104/107/87
f 106/108/88 131/134/88 127/129/88 105/109/88
f 108/110/44 120/124/44 121/123/44 107/111/44
f 81/83/89 82/82/89 78/77/89 75/76/89
f 103/106/90 116/119/90 114/118/90 109/112/90
f 104/107/91 124/127/91 74/75/91 73/74/91
f 100/103/85 130/133/85 131/134/88 106/108/88
f 107/111/45 121/123/45 90/91/45 87/90/45
f 83/87/92 84/86/92 128/131/92 101/104/92
f 48/51/93 49/50/93 120/124/93 108/110/93
