# Blender v2.82 (sub 7) OBJ File: 'dual_launcher.blend'
# www.blender.org
mtllib launcher_lever.mtl
o Plane.007
v 0.243932 0.290893 -0.314477
v 0.243932 0.290893 -0.372401
v 0.267137 0.290893 -0.353509
v 0.267137 0.290893 -0.315187
v 0.329392 0.290893 -0.296736
v 0.329392 0.290893 -0.258414
v 0.329719 0.290893 -0.248968
v 0.322488 0.290893 -0.249066
v 0.322488 0.290893 -0.215390
v 0.267137 0.290893 -0.215800
v 0.322488 0.290893 -0.162411
v 0.267137 0.290893 -0.162822
v 0.322488 0.290893 -0.131610
v 0.267137 0.290893 -0.132020
v 0.327673 0.290893 -0.044274
v 0.320657 0.290893 -0.033555
v 0.267137 0.290893 -0.034482
v 0.328711 0.290893 -0.215390
v 0.328711 0.290893 -0.162411
v 0.267137 0.290893 0.122487
v 0.316981 0.290893 0.122005
v 0.310030 0.290893 0.137718
v 0.305617 0.290893 0.154925
v 0.303966 0.290893 0.172880
v 0.305139 0.290893 0.190895
v 0.309094 0.290893 0.208276
v 0.315737 0.290893 0.224497
v 0.267137 0.290893 0.225278
v 0.320209 0.290893 0.231756
v 0.320209 0.290893 0.356732
v 0.267256 0.290893 0.357998
v 0.205056 0.292200 0.252679
v 0.208802 0.292200 0.119959
v 0.327947 0.290893 -0.131610
v 0.267137 0.290893 -0.034482
v 0.312214 0.290822 -0.014096
v 0.308761 0.290893 0.000178
v 0.307110 0.290893 0.018134
v 0.308284 0.290893 0.036148
v 0.312238 0.290893 0.053529
v 0.318821 0.290893 0.069609
v 0.327625 0.290893 0.083536
v 0.326469 0.290893 0.108035
v 0.216531 0.290893 -0.372401
v 0.215806 0.290893 -0.314477
v 0.207482 0.292149 0.124457
v 0.322488 0.290893 -0.131610
v 0.322488 0.290893 -0.162411
v 0.322577 0.129709 -0.162390
v 0.322577 0.129709 -0.131588
v 0.243932 0.290893 -0.372401
v 0.216531 0.290893 -0.372401
v 0.216620 0.129709 -0.372379
v 0.244021 0.129709 -0.372379
v 0.326469 0.290893 0.108035
v 0.327625 0.290893 0.083536
v 0.327714 0.129709 0.083557
v 0.326559 0.129709 0.108056
v 0.312214 0.290822 -0.014096
v 0.320657 0.290893 -0.033555
v 0.320746 0.129709 -0.033533
v 0.312303 0.129637 -0.014075
v 0.267137 0.290893 -0.353509
v 0.267225 0.129709 -0.353487
v 0.305139 0.290893 0.190895
v 0.303966 0.290893 0.172880
v 0.304054 0.129709 0.172902
v 0.305228 0.129709 0.190916
v 0.320209 0.290893 0.356732
v 0.320209 0.290893 0.231756
v 0.320299 0.129709 0.231778
v 0.320299 0.129709 0.356754
v 0.309094 0.290893 0.208276
v 0.309182 0.129709 0.208298
v 0.312238 0.290893 0.053529
v 0.308284 0.290893 0.036148
v 0.308372 0.129709 0.036169
v 0.312327 0.129709 0.053550
v 0.267256 0.290893 0.357998
v 0.267345 0.129709 0.358020
v 0.318821 0.290893 0.069609
v 0.318909 0.129709 0.069630
v 0.327673 0.290893 -0.044274
v 0.327762 0.129709 -0.044252
v 0.305617 0.290893 0.154925
v 0.305706 0.129709 0.154946
v 0.322488 0.290893 -0.215390
v 0.322488 0.290893 -0.249066
v 0.322577 0.129709 -0.249044
v 0.322577 0.129709 -0.215368
v 0.308761 0.290893 0.000178
v 0.308850 0.129709 0.000199
v 0.267137 0.290893 -0.034482
v 0.267137 0.290893 -0.034482
v 0.267225 0.129709 -0.034461
v 0.267225 0.129709 -0.034461
v 0.316981 0.290893 0.122005
v 0.317070 0.129709 0.122027
v 0.267137 0.290893 -0.132020
v 0.215806 0.290893 -0.314477
v 0.327947 0.290893 -0.131610
v 0.307110 0.290893 0.018134
v 0.329719 0.290893 -0.248968
v 0.315737 0.290893 0.224497
v 0.205056 0.292200 0.252679
v 0.207482 0.292149 0.124457
v 0.328711 0.290893 -0.215390
v 0.328711 0.290893 -0.162411
v 0.329392 0.290893 -0.258414
v 0.310030 0.290893 0.137718
v 0.329392 0.290893 -0.296736
v 0.244021 0.129709 -0.314456
v 0.267225 0.129709 -0.315165
v 0.329481 0.129709 -0.258392
v 0.329481 0.129709 -0.296714
v 0.329809 0.129709 -0.248946
v 0.267225 0.129709 -0.215779
v 0.267225 0.129709 -0.162800
v 0.267225 0.129709 -0.131999
v 0.328800 0.129709 -0.162390
v 0.328800 0.129709 -0.215368
v 0.267225 0.129709 0.122508
v 0.267225 0.129709 0.225300
v 0.315825 0.129709 0.224519
v 0.310119 0.129709 0.137740
v 0.208891 0.131016 0.119981
v 0.205145 0.131016 0.252701
v 0.328035 0.129709 -0.131588
v 0.307199 0.129709 0.018155
v 0.215895 0.129709 -0.314456
v 0.207571 0.130965 0.124478
vt 0.961201 0.038799
vt 0.961201 0.038799
vt 0.961201 0.038799
vt 0.961201 0.038799
vt 0.961201 0.038799
vt 0.961201 0.038799
vt 0.961201 0.038799
vt 0.961201 0.038799
vt 0.961201 0.038799
vt 0.961201 0.038799
vt 0.961201 0.038799
vt 0.961201 0.038799
vt 0.961201 0.038799
vt 0.961201 0.038799
vt 0.961201 0.038799
vt 0.961201 0.038799
vt 0.961201 0.038799
vt 0.961201 0.038799
vt 0.961201 0.038799
vt 0.961201 0.038799
vt 0.961201 0.038799
vt 0.961201 0.038799
vt 0.961201 0.038799
vt 0.961201 0.038799
vt 0.961201 0.038799
vt 0.961201 0.038799
vt 0.961201 0.038799
vt 0.961201 0.038799
vt 0.961201 0.038799
vt 0.961201 0.074710
vt 0.961201 0.038799
vt 0.961201 0.038799
vt 0.961201 0.038799
vt 0.961201 0.038799
vt 0.961201 0.038799
vt 0.961201 0.038799
vt 0.961201 0.038799
vt 0.961201 0.038799
vt 0.961201 0.038799
vt 0.961201 0.038799
vt 0.961201 0.038799
vt 0.038799 0.038799
vt 0.038799 0.038799
vt 0.038799 0.038799
vt 0.961201 0.038799
vt 0.961201 0.038799
vt 0.961201 0.038799
vt 0.961201 0.038799
vt 0.961201 0.038799
vt 0.961201 0.038799
vt 0.961201 0.038799
vt 0.961201 0.038799
vt 0.961201 0.038799
vt 0.961201 0.038799
vt 0.961201 0.038799
vt 0.961201 0.038799
vt 0.961201 0.038799
vt 0.961201 0.038799
vt 0.961201 0.038799
vt 0.961201 0.038799
vt 0.961201 0.038799
vt 0.961201 0.038799
vt 0.961201 0.038799
vt 0.961201 0.038799
vt 0.961201 0.038799
vt 0.961201 0.038799
vt 0.961201 0.038799
vt 0.961201 0.038799
vt 0.961201 0.038799
vt 0.961201 0.038799
vt 0.961201 0.038799
vt 0.961201 0.038799
vt 0.961201 0.038799
vt 0.961201 0.038799
vt 0.961201 0.038799
vt 0.961201 0.038799
vt 0.961201 0.038799
vt 0.961201 0.038799
vt 0.961201 0.038799
vt 0.961201 0.038799
vt 0.961201 0.038799
vt 0.961201 0.038799
vt 0.961201 0.038799
vt 0.961201 0.038799
vt 0.961201 0.038799
vt 0.961201 0.038799
vt 0.961201 0.038799
vt 0.961201 0.038799
vt 0.961201 0.038799
vt 0.961201 0.038799
vt 0.961201 0.038799
vt 0.961201 0.074710
vt 0.961201 0.038799
vt 0.961201 0.038799
vt 0.961201 0.038799
vt 0.961201 0.038799
vt 0.961201 0.038799
vt 0.038799 0.038799
vt 0.961201 0.038799
vt 0.961201 0.038799
vt 0.038799 0.038799
vt 0.961201 0.038799
vt 0.961201 0.038799
vt 0.961201 0.038799
vt 0.961201 0.038799
vt 0.961201 0.038799
vt 0.961201 0.038799
vt 0.961201 0.038799
vt 0.961201 0.038799
vt 0.961201 0.038799
vt 0.961201 0.038799
vt 0.961201 0.038799
vt 0.961201 0.038799
vt 0.961201 0.038799
vt 0.961201 0.038799
vt 0.961201 0.038799
vt 0.961201 0.038799
vt 0.961201 0.038799
vt 0.961201 0.038799
vt 0.961201 0.038799
vt 0.961201 0.038799
vt 0.961201 0.038799
vt 0.961201 0.038799
vt 0.961201 0.038799
vt 0.961201 0.074710
vt 0.961201 0.038799
vt 0.961201 0.038799
vt 0.961201 0.038799
vt 0.961201 0.038799
vt 0.961201 0.038799
vt 0.961201 0.038799
vt 0.961201 0.038799
vt 0.038799 0.038799
vt 0.961201 0.038799
vn -0.0050 1.0000 -0.0037
vn 0.0000 0.7007 0.7134
vn 0.0000 0.6163 0.7875
vn -0.0048 1.0000 -0.0018
vn -0.0000 0.5924 0.8056
vn 0.0000 0.8328 0.5536
vn 0.0000 0.7110 0.7032
vn -0.0027 1.0000 -0.0057
vn -0.0038 1.0000 -0.0050
vn 0.0000 0.8321 0.5547
vn 0.0028 0.8969 0.4422
vn 0.0000 0.2450 0.9695
vn -0.0000 0.7250 0.6888
vn 0.0000 0.6324 0.7746
vn 0.0000 0.4472 0.8944
vn 0.0018 1.0000 0.0018
vn 0.0000 0.7243 0.6895
vn 0.0000 0.7241 0.6897
vn -0.0000 0.4419 0.8971
vn 0.0000 0.4526 0.8917
vn -0.0000 0.6360 0.7717
vn 0.0212 0.9998 0.0003
vn 0.0210 0.9998 -0.0000
vn 0.0000 0.4464 0.8948
vn 0.0107 0.7057 0.7085
vn 0.0000 0.4500 0.8930
vn -0.0427 0.9991 -0.0012
vn -0.0089 1.0000 -0.0012
vn 0.0118 0.9999 -0.0061
vn 1.0000 0.0006 0.0000
vn 0.0000 -0.0001 -1.0000
vn 0.9989 0.0006 0.0471
vn 0.9174 0.0006 0.3980
vn 0.9174 0.0006 0.3981
vn 0.6314 0.0002 -0.7755
vn 0.9979 0.0005 -0.0650
vn 0.9751 0.0005 -0.2219
vn 0.9751 0.0005 -0.2218
vn 0.0239 0.0001 0.9997
vn 0.8453 0.0004 -0.5343
vn 0.8452 0.0004 -0.5344
vn 0.8367 0.0005 0.5477
vn 0.9958 0.0006 0.0916
vn 0.9720 0.0006 0.2351
vn 0.0000 0.0000 0.0000
vn 0.3562 0.1476 -0.9227
vn 0.8272 0.0005 0.5619
vn 0.8272 0.0005 0.5618
vn 0.0006 0.7079 0.7063
vn 0.0000 0.0000 1.0000
vn 0.0000 0.4361 0.8999
vn 0.0000 0.7248 0.6890
vn -0.0077 0.0901 0.9959
vn -0.0000 0.7260 0.6877
vn 0.0000 0.7249 0.6889
vn 0.0000 0.7265 0.6871
vn 0.0000 0.6364 0.7713
vn 0.0008 0.7234 0.6904
vn 0.0013 0.7259 0.6878
vn -0.0000 0.6273 0.7788
vn 0.0000 0.7250 0.6887
vn -0.0036 -1.0000 0.0052
vn 0.0000 -1.0000 -0.0000
vn 0.0004 -1.0000 -0.0051
vn -0.0007 -1.0000 0.0062
vn 0.0012 -1.0000 0.0018
vn -0.0267 -0.9996 0.0007
vn -0.0212 -0.9998 -0.0003
vn 0.0091 -1.0000 0.0012
vn -0.3572 0.1478 -0.9222
vn -0.0160 -0.9999 0.0064
vn -0.0009 -1.0000 0.0003
vn 0.0432 -0.9991 0.0013
vn 0.0423 -0.9991 0.0011
vn 0.0422 -0.9991 0.0012
vn -0.0050 -1.0000 0.0007
vn 0.9145 0.0006 0.4046
vn -0.8611 -0.0004 0.5085
vn 0.6738 0.0003 -0.7389
vn -1.0000 -0.0005 0.0000
vn 0.9686 0.0006 0.2484
vn 0.9687 0.0006 0.2484
vn 1.0000 0.0005 0.0000
vn -0.9999 -0.0006 -0.0125
vn -0.9999 -0.0006 -0.0157
vn -0.0135 0.0001 0.9999
vn -0.0136 0.0001 0.9999
vn 0.8514 0.0004 -0.5245
vn 0.8513 0.0004 -0.5247
vn -0.9998 -0.0006 -0.0189
vn 0.9255 0.0005 -0.3789
vn 0.9255 0.0005 -0.3788
vn 0.9254 0.0005 -0.3789
vn 0.9994 0.0005 -0.0346
vn 0.9994 0.0006 -0.0347
vn 0.9254 0.0005 -0.3790
vn 1.0000 0.0005 0.0031
vn 1.0000 0.0006 0.0031
vn 0.0000 0.0001 1.0000
vn -0.0210 -0.9998 0.0000
vn 0.0001 -1.0000 -0.0037
vn -0.0018 -1.0000 0.0005
vn -0.0012 -1.0000 0.0014
vn 0.0517 -0.9987 0.0038
usemtl bb.005
s 1
f 1/1/1 3/2/2 2/3/3
f 4/4/4 5/5/5 3/2/2
f 8/6/6 6/7/7 4/4/4
f 10/8/8 8/6/6 4/4/4
f 12/9/9 9/10/10 10/8/8
f 14/11/11 11/12/10 12/9/9
f 17/13/12 16/14/13 15/15/14
f 19/16/15 9/10/10 11/12/10
f 28/17/16 25/18/17 24/19/18
f 31/20/19 30/21/20 29/22/21
f 28/17/16 32/23/22 31/20/23
f 15/15/14 34/24/24 13/25/10
f 17/13/12 35/26/25 16/14/13
f 39/27/17 38/28/18 35/26/25
f 44/29/26 1/1/1 2/3/3
f 46/30/27 32/23/27 33/31/27
f 33/31/28 20/32/29 35/26/25
f 47/33/30 49/34/30 48/35/30
f 51/36/31 53/37/31 52/38/31
f 55/39/32 57/40/32 56/41/32
f 59/42/33 61/43/34 60/44/33
f 63/45/35 54/46/35 51/36/35
f 65/47/36 67/48/36 66/49/36
f 69/50/30 71/51/30 70/52/30
f 73/53/37 68/54/38 65/47/37
f 75/55/38 77/56/37 76/57/38
f 80/58/39 69/50/39 79/59/39
f 56/41/40 82/60/41 81/61/40
f 61/62/42 83/63/42 60/64/42
f 66/49/43 86/65/43 85/66/43
f 87/67/30 89/68/30 88/69/30
f 92/70/44 59/42/44 91/71/44
f 93/72/45 95/73/46 94/74/45
f 98/75/47 55/39/48 97/76/48
f 35/26/25 99/77/45 14/11/11
f 44/29/26 100/78/45 45/79/49
f 34/24/24 47/33/45 13/25/10
f 39/27/17 102/80/50 38/28/18
f 8/6/6 103/81/50 7/82/51
f 29/22/21 104/83/50 27/84/52
f 46/30/53 105/85/50 32/23/50
f 19/16/15 107/86/45 18/87/15
f 41/88/54 75/55/50 40/89/13
f 7/82/51 109/90/45 6/7/7
f 27/84/52 73/53/50 26/91/55
f 45/79/49 106/92/50 46/30/53
f 18/87/15 87/67/45 9/10/10
f 15/15/14 101/93/45 34/24/24
f 11/12/10 108/94/45 19/16/15
f 21/95/56 55/39/50 43/96/57
f 17/13/12 94/74/45 35/26/25
f 37/97/58 59/42/50 36/98/59
f 9/10/10 88/69/45 8/6/6
f 24/19/18 85/66/50 23/99/17
f 16/14/13 83/63/45 15/15/14
f 42/100/60 81/61/50 41/88/54
f 31/20/19 69/50/45 30/21/20
f 40/89/13 76/57/50 39/27/17
f 26/91/55 65/47/50 25/18/17
f 30/21/20 70/52/45 29/22/21
f 25/18/17 66/49/50 24/19/18
f 3/2/2 51/36/50 2/3/3
f 36/98/59 60/44/50 16/101/13
f 43/96/57 56/41/50 42/100/60
f 2/3/3 52/38/45 44/29/26
f 13/25/10 48/35/45 11/12/10
f 22/102/61 97/76/50 21/95/56
f 6/7/7 111/103/45 5/5/5
f 32/23/50 79/59/50 31/20/19
f 38/28/18 91/71/50 37/97/58
f 5/5/5 63/45/50 3/2/2
f 14/11/11 93/72/45 17/13/12
f 23/99/17 110/104/50 22/102/61
f 112/105/62 64/106/63 113/107/64
f 113/107/64 115/108/63 114/109/63
f 114/109/63 89/68/63 113/107/64
f 89/68/63 117/110/65 113/107/64
f 90/111/63 118/112/65 117/110/65
f 49/34/63 119/113/66 118/112/65
f 84/114/63 61/62/63 96/115/63
f 90/111/63 120/116/63 49/34/63
f 67/48/63 68/54/63 123/117/63
f 71/51/63 72/118/63 80/58/63
f 123/117/67 127/119/68 126/120/69
f 84/114/63 50/121/63 128/122/63
f 96/115/70 61/62/50 95/73/46
f 95/73/71 129/123/63 77/56/63
f 53/37/63 112/105/62 130/124/72
f 131/125/73 126/120/74 127/119/75
f 95/73/71 122/126/76 126/120/69
f 125/127/77 97/76/77 110/104/77
f 109/90/30 115/108/30 111/103/30
f 127/119/78 79/59/78 105/85/78
f 102/80/43 92/70/43 91/71/43
f 111/103/79 64/106/79 63/45/79
f 119/113/80 93/72/80 99/77/80
f 86/65/81 110/104/82 85/66/82
f 94/74/83 119/113/83 99/77/83
f 53/37/84 100/78/85 52/38/84
f 101/93/31 50/121/31 47/33/31
f 76/57/36 129/123/36 102/80/36
f 89/68/86 103/81/87 88/69/87
f 70/52/88 124/128/89 104/83/88
f 106/92/90 127/119/90 105/85/90
f 108/94/30 121/129/30 107/86/30
f 81/61/91 78/130/92 75/55/93
f 103/81/94 114/109/95 109/90/94
f 104/83/96 74/131/96 73/53/96
f 100/78/85 131/125/90 106/92/90
f 107/86/31 90/111/31 87/67/31
f 83/63/97 128/122/98 101/93/97
f 49/34/99 108/94/99 48/35/99
f 1/1/1 4/4/4 3/2/2
f 4/4/4 6/7/7 5/5/5
f 8/6/6 7/82/51 6/7/7
f 10/8/8 9/10/10 8/6/6
f 12/9/9 11/12/10 9/10/10
f 14/11/11 13/25/10 11/12/10
f 13/25/10 14/11/11 15/15/14
f 14/11/11 17/13/12 15/15/14
f 19/16/15 18/87/15 9/10/10
f 21/95/56 20/32/29 22/102/61
f 20/32/29 28/17/16 24/19/18
f 22/102/61 20/32/29 23/99/17
f 28/17/16 27/84/52 26/91/55
f 28/17/16 26/91/55 25/18/17
f 23/99/17 20/32/29 24/19/18
f 27/84/52 28/17/16 29/22/21
f 28/17/16 31/20/19 29/22/21
f 28/17/16 33/31/28 32/23/22
f 35/26/25 20/32/29 39/27/17
f 20/32/29 21/95/56 41/88/54
f 21/95/56 43/96/57 41/88/54
f 43/96/57 42/100/60 41/88/54
f 36/98/59 16/101/13 35/26/25
f 37/97/58 36/98/59 35/26/25
f 20/32/29 41/88/54 40/89/13
f 20/32/29 40/89/13 39/27/17
f 38/28/18 37/97/58 35/26/25
f 44/29/26 45/79/49 1/1/1
f 1/1/1 45/79/49 10/8/8
f 45/79/49 46/30/53 33/31/28
f 33/31/28 28/17/16 20/32/29
f 45/79/49 33/31/28 14/11/11
f 10/8/8 4/4/4 1/1/1
f 35/26/25 14/11/11 33/31/28
f 14/11/11 12/9/9 45/79/49
f 45/79/49 12/9/9 10/8/8
f 47/33/30 50/121/30 49/34/30
f 51/36/31 54/46/31 53/37/31
f 55/39/32 58/132/32 57/40/32
f 59/42/33 62/133/34 61/43/34
f 63/45/35 64/106/35 54/46/35
f 65/47/36 68/54/36 67/48/36
f 69/50/30 72/118/30 71/51/30
f 73/53/37 74/131/38 68/54/38
f 75/55/38 78/130/37 77/56/37
f 80/58/39 72/118/39 69/50/39
f 56/41/40 57/40/41 82/60/41
f 61/62/42 84/114/42 83/63/42
f 66/49/43 67/48/43 86/65/43
f 87/67/30 90/111/30 89/68/30
f 92/70/44 62/133/44 59/42/44
f 93/72/45 96/115/70 95/73/46
f 98/75/47 58/132/47 55/39/48
f 35/26/25 94/74/45 99/77/45
f 44/29/26 52/38/45 100/78/45
f 34/24/24 101/93/45 47/33/45
f 39/27/17 76/57/50 102/80/50
f 8/6/6 88/69/45 103/81/50
f 29/22/21 70/52/45 104/83/50
f 46/30/53 106/92/50 105/85/50
f 19/16/15 108/94/45 107/86/45
f 41/88/54 81/61/50 75/55/50
f 7/82/51 103/81/50 109/90/45
f 27/84/52 104/83/50 73/53/50
f 45/79/49 100/78/45 106/92/50
f 18/87/15 107/86/45 87/67/45
f 15/15/14 83/63/45 101/93/45
f 11/12/10 48/35/45 108/94/45
f 21/95/56 97/76/50 55/39/50
f 17/13/12 93/72/45 94/74/45
f 37/97/58 91/71/50 59/42/50
f 9/10/10 87/67/45 88/69/45
f 24/19/18 66/49/50 85/66/50
f 16/14/13 60/64/50 83/63/45
f 42/100/60 56/41/50 81/61/50
f 31/20/19 79/59/50 69/50/45
f 40/89/13 75/55/50 76/57/50
f 26/91/55 73/53/50 65/47/50
f 30/21/20 69/50/45 70/52/45
f 25/18/17 65/47/50 66/49/50
f 3/2/2 63/45/50 51/36/50
f 36/98/59 59/42/50 60/44/50
f 43/96/57 55/39/50 56/41/50
f 2/3/3 51/36/50 52/38/45
f 13/25/10 47/33/45 48/35/45
f 22/102/61 110/104/50 97/76/50
f 6/7/7 109/90/45 111/103/45
f 32/23/50 105/85/50 79/59/50
f 38/28/18 102/80/50 91/71/50
f 5/5/5 111/103/45 63/45/50
f 14/11/11 99/77/45 93/72/45
f 23/99/17 85/66/50 110/104/50
f 112/105/62 54/46/63 64/106/63
f 113/107/64 64/106/63 115/108/63
f 114/109/63 116/134/63 89/68/63
f 89/68/63 90/111/63 117/110/65
f 90/111/63 49/34/63 118/112/65
f 49/34/63 50/121/63 119/113/66
f 96/115/63 119/113/66 84/114/63
f 119/113/66 50/121/63 84/114/63
f 90/111/63 121/129/63 120/116/63
f 123/117/63 122/126/76 67/48/63
f 122/126/76 98/75/63 125/127/63
f 122/126/76 125/127/63 86/65/63
f 74/131/63 124/128/63 123/117/63
f 68/54/63 74/131/63 123/117/63
f 122/126/76 86/65/63 67/48/63
f 80/58/63 123/117/63 71/51/63
f 123/117/63 124/128/63 71/51/63
f 123/117/67 80/58/100 127/119/68
f 98/75/63 122/126/76 82/60/63
f 122/126/76 95/73/71 77/56/63
f 98/75/63 82/60/63 58/132/63
f 95/73/71 61/43/101 62/133/102
f 95/73/71 62/133/102 92/70/103
f 78/130/63 122/126/76 77/56/63
f 82/60/63 57/40/63 58/132/63
f 78/130/63 82/60/63 122/126/76
f 95/73/71 92/70/103 129/123/63
f 53/37/63 54/46/63 112/105/62
f 131/125/104 130/124/72 126/120/69
f 130/124/72 112/105/62 117/110/65
f 126/120/69 130/124/72 119/113/66
f 112/105/62 113/107/64 117/110/65
f 118/112/65 119/113/66 130/124/72
f 119/113/66 95/73/71 126/120/69
f 118/112/65 130/124/72 117/110/65
f 122/126/76 123/117/67 126/120/69
f 125/127/77 98/75/77 97/76/77
f 109/90/30 114/109/30 115/108/30
f 127/119/78 80/58/78 79/59/78
f 102/80/43 129/123/43 92/70/43
f 111/103/79 115/108/79 64/106/79
f 119/113/80 96/115/80 93/72/80
f 86/65/81 125/127/81 110/104/82
f 94/74/83 95/73/83 119/113/83
f 53/37/84 130/124/85 100/78/85
f 101/93/31 128/122/31 50/121/31
f 76/57/36 77/56/36 129/123/36
f 89/68/86 116/134/86 103/81/87
f 70/52/88 71/51/89 124/128/89
f 106/92/90 131/125/90 127/119/90
f 108/94/30 120/116/30 121/129/30
f 81/61/91 82/60/92 78/130/92
f 103/81/94 116/134/95 114/109/95
f 104/83/96 124/128/96 74/131/96
f 100/78/85 130/124/85 131/125/90
f 107/86/31 121/129/31 90/111/31
f 83/63/97 84/114/98 128/122/98
f 49/34/99 120/116/99 108/94/99
