# Blender 3.6.5
# www.blender.org
mtllib pegasus_ii.mtl
o Mesh0
v -0.062792 0.031829 -0.051197
v -0.002323 0.031829 -0.017345
v -0.062792 0.017829 -0.051197
v -0.002323 0.017829 -0.017345
v -0.062792 0.017829 -0.051197
v -0.002323 0.017829 -0.017345
v -0.035280 0.017829 -0.100342
v 0.044733 0.017829 -0.101401
v -0.002323 0.031829 -0.017345
v -0.062792 0.031829 -0.051197
v 0.044733 0.031829 -0.101401
v -0.035280 0.031829 -0.100342
v -0.002323 0.031829 -0.017345
v 0.044733 0.031829 -0.101401
v -0.002323 0.017829 -0.017345
v 0.044733 0.017829 -0.101401
v -0.035280 0.031829 -0.100342
v -0.062792 0.031829 -0.051197
v -0.035280 0.017829 -0.100342
v -0.062792 0.017829 -0.051197
v 0.076470 0.031829 0.026765
v 0.076470 0.017829 0.026765
v 0.016001 0.031829 -0.007087
v 0.016001 0.017829 -0.007087
v 0.076470 0.017829 0.026765
v 0.103982 0.017829 -0.022379
v 0.016001 0.017829 -0.007087
v 0.063057 0.017829 -0.091143
v 0.016001 0.031829 -0.007087
v 0.063057 0.031829 -0.091143
v 0.076470 0.031829 0.026765
v 0.103982 0.031829 -0.022379
v 0.016001 0.031829 -0.007087
v 0.016001 0.017829 -0.007087
v 0.063057 0.031829 -0.091143
v 0.063057 0.017829 -0.091143
v 0.103982 0.031829 -0.022379
v 0.103982 0.017829 -0.022379
v 0.076470 0.031829 0.026765
v 0.076470 0.017829 0.026765
v -0.076470 0.031829 -0.026765
v -0.076470 0.017829 -0.026765
v -0.016001 0.031829 0.007087
v -0.016001 0.017829 0.007087
v -0.076470 0.017829 -0.026765
v -0.103982 0.017829 0.022379
v -0.016001 0.017829 0.007087
v -0.063057 0.017829 0.091143
v -0.016001 0.031829 0.007087
v -0.063057 0.031829 0.091143
v -0.076470 0.031829 -0.026765
v -0.103982 0.031829 0.022379
v -0.016001 0.031829 0.007087
v -0.016001 0.017829 0.007087
v -0.063057 0.031829 0.091143
v -0.063057 0.017829 0.091143
v -0.103982 0.031829 0.022379
v -0.103982 0.017829 0.022379
v -0.076470 0.031829 -0.026765
v -0.076470 0.017829 -0.026765
v 0.062792 0.031829 0.051197
v 0.002323 0.031829 0.017345
v 0.062792 0.017829 0.051197
v 0.002323 0.017829 0.017345
v 0.062792 0.017829 0.051197
v 0.002323 0.017829 0.017345
v 0.035280 0.017829 0.100342
v -0.044733 0.017829 0.101401
v 0.002323 0.031829 0.017345
v 0.062792 0.031829 0.051197
v -0.044733 0.031829 0.101401
v 0.035280 0.031829 0.100342
v 0.002323 0.031829 0.017345
v -0.044733 0.031829 0.101401
v 0.002323 0.017829 0.017345
v -0.044733 0.017829 0.101401
v 0.035280 0.031829 0.100342
v 0.062792 0.031829 0.051197
v 0.035280 0.017829 0.100342
v 0.062792 0.017829 0.051197
v -0.057367 0.052829 -0.089548
v -0.063475 0.045829 -0.092967
v -0.106327 0.052829 -0.002092
v -0.112435 0.045829 -0.005511
v 0.057367 0.052829 0.089548
v 0.063475 0.045829 0.092967
v 0.106327 0.052829 0.002092
v 0.112435 0.045829 0.005511
v 0.058419 0.045829 0.098159
v 0.054839 0.052829 0.092144
v 0.051445 0.045829 0.100127
v 0.051352 0.052829 0.093128
v -0.048775 0.045829 0.101455
v -0.048867 0.052829 0.094456
v -0.055799 0.045829 0.099672
v -0.052379 0.052829 0.093564
v -0.060991 0.045829 0.094616
v -0.054975 0.052829 0.091036
v -0.112250 0.045829 0.008487
v -0.106234 0.052829 0.004907
v -0.114218 0.045829 0.001513
v -0.107219 0.052829 0.001420
v 0.063475 0.003828 0.092967
v 0.063475 0.045829 0.092967
v 0.058419 0.003828 0.098159
v 0.058419 0.045829 0.098159
v 0.051445 0.003828 0.100127
v 0.051445 0.045829 0.100127
v 0.112435 0.045829 0.005511
v 0.112435 0.003828 0.005511
v -0.112250 0.003828 0.008487
v -0.112250 0.045829 0.008487
v -0.114218 0.003828 0.001513
v -0.114218 0.045829 0.001513
v -0.112435 0.003828 -0.005511
v -0.112435 0.045829 -0.005511
v 0.035280 0.017829 0.100342
v -0.044733 0.017829 0.101401
v -0.048775 0.003828 0.101455
v -0.048775 0.045829 0.101455
v 0.035280 0.031829 0.100342
v -0.044733 0.031829 0.101401
v -0.060991 0.045829 0.094616
v -0.063057 0.031829 0.091143
v -0.103982 0.031829 0.022379
v -0.103982 0.017829 0.022379
v -0.063057 0.017829 0.091143
v -0.060991 0.003828 0.094616
v -0.055799 0.045829 0.099672
v -0.055799 0.003828 0.099672
v -0.063475 0.003828 -0.092967
v -0.063475 0.045829 -0.092967
v 0.063475 0.003828 0.092967
v 0.057367 -0.003172 0.089548
v 0.112435 0.003828 0.005511
v 0.106327 -0.003172 0.002092
v 0.058419 0.003828 0.098159
v 0.054839 -0.003172 0.092144
v 0.051352 -0.003172 0.093128
v 0.051445 0.003828 0.100127
v -0.048867 -0.003172 0.094456
v -0.048775 0.003828 0.101455
v -0.055799 0.003828 0.099672
v -0.052379 -0.003172 0.093564
v -0.054975 -0.003172 0.091036
v -0.060991 0.003828 0.094616
v -0.106234 -0.003172 0.004907
v -0.112250 0.003828 0.008487
v -0.114218 0.003828 0.001513
v -0.107219 -0.003172 0.001420
v -0.057367 -0.003172 -0.089548
v -0.106327 -0.003172 -0.002092
v -0.063475 0.003828 -0.092967
v -0.112435 0.003828 -0.005511
v 0.114218 0.045829 -0.001513
v 0.107219 0.052829 -0.001420
v 0.112250 0.045829 -0.008487
v 0.106234 0.052829 -0.004907
v 0.060991 0.045829 -0.094616
v 0.054975 0.052829 -0.091036
v 0.055799 0.045829 -0.099672
v 0.052379 0.052829 -0.093564
v 0.048775 0.045829 -0.101455
v 0.048867 0.052829 -0.094456
v -0.051445 0.045829 -0.100127
v -0.051352 0.052829 -0.093128
v -0.058419 0.045829 -0.098159
v -0.054839 0.052829 -0.092144
v 0.114218 0.003828 -0.001513
v 0.114218 0.045829 -0.001513
v 0.112250 0.003828 -0.008487
v 0.112250 0.045829 -0.008487
v -0.051445 0.003828 -0.100127
v -0.058419 0.003828 -0.098159
v -0.051445 0.045829 -0.100127
v -0.058419 0.045829 -0.098159
v 0.103982 0.017829 -0.022379
v 0.063057 0.017829 -0.091143
v 0.060991 0.003828 -0.094616
v 0.103982 0.031829 -0.022379
v 0.060991 0.045829 -0.094616
v 0.063057 0.031829 -0.091143
v 0.048775 0.045829 -0.101455
v 0.044733 0.031829 -0.101401
v -0.035280 0.031829 -0.100342
v -0.035280 0.017829 -0.100342
v 0.044733 0.017829 -0.101401
v 0.048775 0.003828 -0.101455
v 0.055799 0.045829 -0.099672
v 0.055799 0.003828 -0.099672
v 0.114218 0.003828 -0.001513
v 0.107219 -0.003172 -0.001420
v 0.106234 -0.003172 -0.004907
v 0.054975 -0.003172 -0.091036
v 0.112250 0.003828 -0.008487
v 0.060991 0.003828 -0.094616
v 0.055799 0.003828 -0.099672
v 0.052379 -0.003172 -0.093564
v 0.048867 -0.003172 -0.094456
v -0.051352 -0.003172 -0.093128
v 0.048775 0.003828 -0.101455
v -0.051445 0.003828 -0.100127
v -0.058419 0.003828 -0.098159
v -0.054839 -0.003172 -0.092144
v -0.054975 -0.003172 0.091036
v 0.048867 -0.003172 -0.094456
v -0.052379 -0.003172 0.093564
v 0.052379 -0.003172 -0.093564
v -0.048867 -0.003172 0.094456
v 0.054975 -0.003172 -0.091036
v -0.106234 -0.003172 0.004907
v -0.051352 -0.003172 -0.093128
v 0.051352 -0.003172 0.093128
v 0.106234 -0.003172 -0.004907
v 0.106327 -0.003172 0.002092
v 0.057367 -0.003172 0.089548
v 0.107219 -0.003172 -0.001420
v 0.054839 -0.003172 0.092144
v -0.106327 -0.003172 -0.002092
v -0.057367 -0.003172 -0.089548
v -0.107219 -0.003172 0.001420
v -0.054839 -0.003172 -0.092144
v 0.020887 -0.003172 -0.004351
v 0.039903 -0.003172 -0.038320
v 0.020887 -0.038172 -0.004351
v 0.039903 -0.038172 -0.038320
v 0.020887 -0.003172 -0.004351
v 0.020887 -0.038172 -0.004351
v -0.007210 -0.003172 -0.020081
v -0.007210 -0.038172 -0.020081
v 0.020887 -0.038172 -0.004351
v 0.027355 -0.038172 -0.048864
v -0.007210 -0.038172 -0.020081
v -0.007210 -0.038172 -0.020081
v 0.011807 -0.038172 -0.054049
v -0.007210 -0.003172 -0.020081
v 0.011807 -0.003172 -0.054049
v 0.011807 -0.038172 -0.054049
v -0.011796 -0.003172 0.054058
v 0.007210 -0.003172 0.020081
v -0.011796 -0.038172 0.054058
v 0.007210 -0.038172 0.020081
v -0.020887 -0.038172 0.004351
v -0.039893 -0.038172 0.038329
v -0.027355 -0.038172 0.048864
v -0.039893 -0.038172 0.038329
v -0.020887 -0.038172 0.004351
v -0.039893 -0.003172 0.038329
v -0.020887 -0.003172 0.004351
v -0.020887 -0.003172 0.004351
v -0.020887 -0.038172 0.004351
v 0.007210 -0.003172 0.020081
v 0.007210 -0.038172 0.020081
v 0.007210 -0.038172 0.020081
v -0.011796 -0.038172 0.054058
v 0.039903 -0.038172 -0.038320
v 0.035364 -0.003172 0.043421
v 0.015209 -0.003172 0.053895
v 0.035364 -0.052172 0.043421
v 0.015209 -0.052172 0.053895
v 0.048864 -0.003172 0.027355
v 0.048864 -0.052172 0.027355
v -0.011796 -0.038172 0.054058
v -0.007448 -0.052172 0.055502
v -0.011796 -0.003172 0.054058
v -0.007448 -0.003172 0.055502
v 0.043421 -0.003172 -0.035364
v 0.053895 -0.003172 -0.015209
v 0.043421 -0.052172 -0.035364
v 0.053895 -0.052172 -0.015209
v 0.027355 -0.038172 -0.048864
v 0.039903 -0.038172 -0.038320
v 0.027355 -0.052172 -0.048864
v 0.055502 -0.003172 0.007448
v 0.055502 -0.052172 0.007448
v -0.035364 -0.003172 -0.043421
v -0.015209 -0.003172 -0.053895
v -0.035364 -0.052172 -0.043421
v -0.015209 -0.052172 -0.053895
v -0.048864 -0.003172 -0.027355
v -0.048864 -0.052172 -0.027355
v 0.011807 -0.038172 -0.054049
v 0.007448 -0.052172 -0.055502
v 0.011807 -0.003172 -0.054049
v 0.007448 -0.003172 -0.055502
v -0.043421 -0.003172 0.035364
v -0.053895 -0.003172 0.015209
v -0.043421 -0.052172 0.035364
v -0.053895 -0.052172 0.015209
v -0.027355 -0.038172 0.048864
v -0.039893 -0.038172 0.038329
v -0.027355 -0.052172 0.048864
v -0.055502 -0.003172 -0.007448
v -0.055502 -0.052172 -0.007448
v 0.039903 -0.003172 -0.038320
v -0.039893 -0.003172 0.038329
v -0.027355 -0.052172 0.048864
v -0.043421 -0.052172 0.035364
v 0.027355 -0.052172 -0.048864
v 0.007448 -0.052172 -0.055502
v 0.043421 -0.052172 -0.035364
v -0.007448 -0.052172 0.055502
v 0.015209 -0.052172 0.053895
v 0.053895 -0.052172 -0.015209
v 0.055502 -0.052172 0.007448
v 0.035364 -0.052172 0.043421
v 0.048864 -0.052172 0.027355
v -0.015209 -0.052172 -0.053895
v -0.053895 -0.052172 0.015209
v -0.055502 -0.052172 -0.007448
v -0.035364 -0.052172 -0.043421
v -0.048864 -0.052172 -0.027355
v 0.043708 -0.122172 0.005865
v 0.038480 -0.122172 0.021542
v 0.036770 -0.129172 0.004934
v 0.032372 -0.129172 0.018123
v 0.042442 -0.122172 -0.011977
v 0.035705 -0.129172 -0.010076
v 0.034192 -0.122172 -0.027852
v 0.028767 -0.129172 -0.023429
v 0.021542 -0.122172 -0.038480
v 0.018123 -0.129172 -0.032372
v -0.005866 -0.122172 0.043709
v -0.021542 -0.122172 0.038480
v -0.004934 -0.129172 0.036770
v -0.018123 -0.129172 0.032372
v 0.011977 -0.122172 0.042442
v 0.010076 -0.129172 0.035705
v 0.027849 -0.122172 0.034194
v 0.023429 -0.129172 0.028767
v -0.043708 -0.122172 -0.005865
v -0.038480 -0.122172 -0.021542
v -0.036770 -0.129172 -0.004934
v -0.032372 -0.129172 -0.018123
v -0.042442 -0.122172 0.011977
v -0.035705 -0.129172 0.010076
v -0.034192 -0.122172 0.027852
v -0.028767 -0.129172 0.023429
v 0.005869 -0.122172 -0.043708
v 0.004934 -0.129172 -0.036770
v -0.011977 -0.122172 -0.042442
v -0.010076 -0.129172 -0.035705
v -0.027849 -0.122172 -0.034194
v -0.023429 -0.129172 -0.028767
v -0.018123 -0.129172 0.032372
v -0.028767 -0.129172 0.023429
v 0.018123 -0.129172 -0.032372
v 0.004934 -0.129172 -0.036770
v -0.010076 -0.129172 -0.035705
v -0.035705 -0.129172 0.010076
v -0.036770 -0.129172 -0.004934
v -0.023429 -0.129172 -0.028767
v -0.032372 -0.129172 -0.018123
v -0.004934 -0.129172 0.036770
v 0.028767 -0.129172 -0.023429
v 0.035705 -0.129172 -0.010076
v 0.010076 -0.129172 0.035705
v 0.023429 -0.129172 0.028767
v 0.036770 -0.129172 0.004934
v 0.032372 -0.129172 0.018123
v 0.021542 -0.052172 -0.038480
v 0.034189 -0.053843 -0.027854
v 0.006839 -0.052172 -0.012216
v 0.020887 -0.053843 -0.004351
v -0.007210 -0.064529 -0.020081
v -0.007210 -0.052172 -0.020081
v 0.006839 -0.052172 -0.012216
v 0.020887 -0.067843 -0.004351
v 0.020887 -0.053843 -0.004351
v 0.005873 -0.052172 -0.043707
v -0.007210 -0.052172 -0.020081
v 0.005873 -0.064529 -0.043707
v -0.007210 -0.064529 -0.020081
v 0.034189 -0.067843 -0.027854
v 0.020887 -0.067843 -0.004351
v 0.034189 -0.053843 -0.027854
v 0.020887 -0.053843 -0.004351
v 0.021542 -0.066184 -0.038481
v 0.020887 -0.067843 -0.004351
v 0.034189 -0.067843 -0.027854
v -0.007210 -0.064529 -0.020081
v 0.005873 -0.064529 -0.043707
v -0.007210 -0.078536 -0.020081
v -0.007210 -0.092529 -0.020081
v 0.005873 -0.078536 -0.043707
v 0.005873 -0.092529 -0.043707
v 0.020887 -0.095843 -0.004351
v 0.020887 -0.081843 -0.004351
v 0.034189 -0.095843 -0.027854
v 0.034189 -0.081843 -0.027854
v 0.020887 -0.081843 -0.004351
v 0.020887 -0.095843 -0.004351
v -0.007210 -0.078536 -0.020081
v -0.007210 -0.092529 -0.020081
v -0.007210 -0.078536 -0.020081
v 0.005873 -0.078536 -0.043707
v 0.021542 -0.080190 -0.038481
v 0.021542 -0.094184 -0.038481
v -0.007210 -0.092529 -0.020081
v 0.020887 -0.095843 -0.004351
v 0.020887 -0.081843 -0.004351
v 0.034189 -0.081843 -0.027854
v 0.034189 -0.095843 -0.027854
v 0.005873 -0.092529 -0.043707
v -0.020887 -0.108172 0.004351
v -0.034189 -0.108172 0.027854
v -0.021542 -0.108172 0.038480
v 0.007210 -0.108172 0.020081
v -0.005873 -0.108172 0.043707
v -0.005873 -0.092539 0.043707
v 0.007210 -0.092539 0.020081
v -0.005873 -0.108172 0.043707
v 0.007210 -0.108172 0.020081
v -0.034189 -0.108172 0.027854
v -0.020887 -0.108172 0.004351
v -0.034189 -0.095846 0.027854
v -0.020887 -0.095846 0.004351
v 0.007210 -0.108172 0.020081
v 0.007210 -0.092539 0.020081
v -0.020887 -0.108172 0.004351
v -0.020887 -0.095846 0.004351
v 0.007210 -0.092539 0.020081
v -0.005873 -0.092539 0.043707
v -0.021542 -0.094192 0.038481
v -0.020887 -0.095846 0.004351
v -0.034189 -0.095846 0.027854
v -0.005873 -0.064539 0.043707
v 0.007210 -0.064539 0.020081
v -0.005873 -0.078532 0.043707
v 0.007210 -0.078532 0.020081
v -0.034189 -0.081846 0.027854
v -0.020887 -0.081846 0.004351
v -0.034189 -0.067846 0.027854
v -0.020887 -0.067846 0.004351
v 0.007210 -0.078532 0.020081
v 0.007210 -0.064539 0.020081
v -0.020887 -0.081846 0.004351
v -0.020887 -0.067846 0.004351
v -0.020887 -0.067846 0.004351
v -0.021542 -0.066192 0.038481
v -0.034189 -0.067846 0.027854
v -0.020887 -0.081846 0.004351
v -0.034189 -0.081846 0.027854
v -0.021542 -0.080187 0.038481
v 0.007210 -0.064539 0.020081
v -0.005873 -0.064539 0.043707
v 0.007210 -0.078532 0.020081
v -0.005873 -0.078532 0.043707
v -0.038480 -0.052172 -0.021542
v -0.038480 -0.122172 -0.021542
v -0.043708 -0.052172 -0.005865
v -0.043708 -0.122172 -0.005865
v -0.042442 -0.052172 0.011977
v -0.042442 -0.122172 0.011977
v -0.034189 -0.052172 0.027854
v -0.034189 -0.067846 0.027854
v -0.021542 -0.052172 0.038481
v -0.021542 -0.066192 0.038481
v -0.034189 -0.081846 0.027854
v -0.034189 -0.095846 0.027854
v -0.021542 -0.080187 0.038481
v -0.021542 -0.094192 0.038481
v -0.034189 -0.108172 0.027854
v -0.034192 -0.122172 0.027852
v -0.021542 -0.108172 0.038480
v -0.021542 -0.122172 0.038480
v -0.005873 -0.064539 0.043707
v -0.005873 -0.052172 0.043707
v 0.038480 -0.122172 0.021542
v 0.038480 -0.052172 0.021542
v 0.027849 -0.122172 0.034194
v 0.027849 -0.052172 0.034194
v 0.011977 -0.122172 0.042442
v 0.011977 -0.052172 0.042442
v -0.005873 -0.092539 0.043707
v -0.005873 -0.078532 0.043707
v -0.005866 -0.122172 0.043709
v -0.005873 -0.108172 0.043707
v 0.043708 -0.052172 0.005865
v 0.043708 -0.122172 0.005865
v 0.042442 -0.122172 -0.011977
v 0.042442 -0.052172 -0.011977
v 0.034189 -0.067843 -0.027854
v 0.034189 -0.081843 -0.027854
v 0.021542 -0.066184 -0.038481
v 0.021542 -0.080190 -0.038481
v 0.034189 -0.052172 -0.027854
v 0.034189 -0.053843 -0.027854
v 0.021542 -0.052172 -0.038480
v 0.034189 -0.095843 -0.027854
v 0.034192 -0.122172 -0.027852
v 0.021542 -0.094184 -0.038481
v 0.021542 -0.122172 -0.038480
v 0.005873 -0.052172 -0.043707
v 0.005873 -0.064529 -0.043707
v -0.011977 -0.052172 -0.042442
v -0.027849 -0.122172 -0.034194
v -0.027849 -0.052172 -0.034194
v -0.011977 -0.122172 -0.042442
v 0.005873 -0.078536 -0.043707
v 0.005869 -0.122172 -0.043708
v 0.005873 -0.092529 -0.043707
v 0.034615 -0.109912 -0.027288
v 0.021543 -0.108173 -0.038482
v 0.043954 -0.107813 -0.034653
v 0.027356 -0.106072 -0.048865
v 0.042430 -0.111671 -0.011969
v 0.053880 -0.109572 -0.015199
v 0.047360 -0.112758 0.005679
v 0.038480 -0.115172 0.021542
v 0.043797 -0.113432 0.005176
v 0.055331 -0.110118 -0.008557
v 0.034624 -0.053923 -0.027295
v 0.021565 -0.052178 -0.038524
v 0.042462 -0.052171 -0.033429
v 0.042430 -0.055683 -0.011975
v 0.053841 -0.052867 -0.015193
v 0.046274 -0.052172 -0.030193
v 0.047365 -0.056758 0.005671
v 0.039000 -0.059077 0.020615
v 0.043786 -0.057444 0.005166
v 0.055321 -0.054109 -0.008540
v 0.027294 -0.060922 0.034623
v 0.037969 -0.059287 0.022456
v 0.029595 -0.060235 0.037414
v 0.011975 -0.062682 0.042428
v 0.021641 -0.060015 0.051622
v -0.005873 -0.064539 0.043707
v -0.006564 -0.062322 0.055592
v 0.015202 -0.060563 0.053872
v -0.021542 -0.066192 0.038481
v -0.027360 -0.064063 0.048870
v 0.034189 -0.081843 -0.027854
v 0.021542 -0.080190 -0.038481
v 0.043957 -0.079808 -0.034653
v 0.027358 -0.078067 -0.048869
v 0.042424 -0.083678 -0.011973
v 0.053868 -0.081567 -0.015201
v 0.047368 -0.084756 0.005672
v 0.038849 -0.087102 0.020884
v 0.043779 -0.085438 0.005166
v 0.055317 -0.082115 -0.008533
v 0.027290 -0.088916 0.034618
v 0.038120 -0.087251 0.022186
v 0.029595 -0.088232 0.037414
v 0.011972 -0.090677 0.042422
v 0.021644 -0.088020 0.051616
v -0.005873 -0.092539 0.043707
v -0.006563 -0.090328 0.055587
v 0.015201 -0.088569 0.053867
v -0.021542 -0.094192 0.038481
v -0.027357 -0.092069 0.048867
v -0.034189 -0.095846 0.027854
v -0.043955 -0.093811 0.034652
v -0.042421 -0.097675 0.011972
v -0.053866 -0.095570 0.015201
v -0.047367 -0.098755 -0.005672
v -0.038484 -0.101174 -0.021535
v -0.043776 -0.099436 -0.005166
v -0.055316 -0.096118 0.008530
v -0.034189 -0.067846 0.027854
v -0.043959 -0.065805 0.034655
v -0.042427 -0.069680 0.011974
v -0.053871 -0.067564 0.015202
v -0.047366 -0.070756 -0.005671
v -0.038931 -0.073088 -0.020738
v -0.043783 -0.071441 -0.005166
v -0.055319 -0.068112 0.008536
v -0.027292 -0.074919 -0.034621
v -0.038038 -0.073270 -0.022332
v -0.029595 -0.074233 -0.037414
v -0.011974 -0.076679 -0.042425
v -0.021643 -0.074018 -0.051619
v 0.005873 -0.078536 -0.043707
v 0.006564 -0.076325 -0.055589
v -0.015201 -0.074566 -0.053869
v -0.027288 -0.102913 -0.034616
v -0.038484 -0.101174 -0.021535
v -0.029595 -0.102230 -0.037414
v -0.011971 -0.104674 -0.042419
v -0.021646 -0.102023 -0.051613
v 0.005166 -0.106434 -0.043774
v 0.006563 -0.104331 -0.055585
v -0.015201 -0.102571 -0.053865
v 0.043765 -0.071438 0.005163
v 0.038479 -0.073178 0.021542
v 0.047367 -0.072118 0.005670
v 0.027353 -0.068263 -0.048859
v 0.021542 -0.066184 -0.038481
v 0.043949 -0.070004 -0.034647
v 0.034189 -0.067843 -0.027854
v 0.053859 -0.071764 -0.015198
v 0.042410 -0.069678 -0.011968
v 0.055309 -0.072317 -0.008519
v -0.038477 -0.059181 -0.021541
v -0.027281 -0.060919 -0.034607
v -0.029594 -0.061596 -0.037413
v -0.021653 -0.064217 -0.051602
v -0.011968 -0.062679 -0.042409
v -0.015197 -0.064762 -0.053858
v 0.006562 -0.066522 -0.055577
v 0.005873 -0.064529 -0.043707
v -0.043762 -0.057441 -0.005163
v -0.038477 -0.059181 -0.021541
v -0.047367 -0.058119 -0.005670
v -0.027352 -0.054260 0.048857
v -0.021508 -0.052178 0.038487
v -0.043948 -0.056002 0.034646
v -0.034606 -0.053920 0.027280
v -0.053857 -0.057761 0.015197
v -0.042407 -0.055681 0.011967
v -0.055307 -0.058314 0.008515
v -0.001824 -0.052172 0.055203
v -0.006309 -0.052172 0.053738
v -0.006562 -0.052519 0.055574
v -0.043768 -0.085436 -0.005164
v -0.038480 -0.087175 -0.021542
v -0.047367 -0.086116 -0.005670
v -0.027354 -0.082266 0.048861
v -0.021542 -0.080187 0.038481
v -0.043951 -0.084007 0.034649
v -0.034189 -0.081846 0.027854
v -0.053861 -0.085766 0.015199
v -0.042413 -0.083675 0.011969
v -0.055311 -0.086318 0.008522
v 0.038479 -0.073178 0.021542
v 0.027282 -0.074916 0.034610
v 0.029594 -0.075595 0.037413
v 0.021651 -0.078219 0.051605
v 0.011968 -0.076677 0.042412
v 0.015198 -0.078765 0.053860
v -0.006562 -0.080525 0.055579
v -0.005873 -0.078532 0.043707
v 0.043796 -0.099432 0.005175
v 0.038480 -0.101172 0.021542
v 0.047362 -0.100106 0.005678
v 0.042429 -0.097672 -0.011968
v 0.055330 -0.100314 -0.008555
v 0.034189 -0.095843 -0.027854
v 0.043953 -0.098009 -0.034652
v 0.053879 -0.099769 -0.015198
v 0.021542 -0.094184 -0.038481
v 0.027355 -0.096269 -0.048863
v -0.038480 -0.087175 -0.021542
v -0.027284 -0.088913 -0.034613
v -0.029594 -0.089593 -0.037413
v -0.021693 -0.092202 -0.051530
v -0.011969 -0.090674 -0.042415
v -0.015199 -0.092768 -0.053862
v 0.006562 -0.094527 -0.055581
v 0.005873 -0.092529 -0.043707
v 0.055330 -0.100314 -0.008555
v 0.055331 -0.110118 -0.008557
v 0.053879 -0.099769 -0.015198
v 0.053880 -0.109572 -0.015199
v 0.043953 -0.098009 -0.034652
v 0.043954 -0.107813 -0.034653
v 0.027355 -0.096269 -0.048863
v 0.027356 -0.106072 -0.048865
v -0.021646 -0.102023 -0.051613
v -0.021693 -0.092202 -0.051530
v -0.015201 -0.102571 -0.053865
v -0.015199 -0.092768 -0.053862
v 0.006563 -0.104331 -0.055585
v 0.006562 -0.094527 -0.055581
v 0.043957 -0.079808 -0.034653
v 0.027358 -0.078067 -0.048869
v 0.043949 -0.070004 -0.034647
v 0.027353 -0.068263 -0.048859
v 0.053868 -0.081567 -0.015201
v 0.053859 -0.071764 -0.015198
v -0.021643 -0.074018 -0.051619
v -0.021653 -0.064217 -0.051602
v -0.015201 -0.074566 -0.053869
v -0.015197 -0.064762 -0.053858
v 0.006564 -0.076325 -0.055589
v 0.006562 -0.066522 -0.055577
v 0.015202 -0.060563 0.053872
v 0.021641 -0.060015 0.051622
v 0.015179 -0.052172 0.053794
v 0.021736 -0.052172 0.051453
v -0.006564 -0.062322 0.055592
v -0.006562 -0.052519 0.055574
v -0.001824 -0.052172 0.055203
v -0.027360 -0.064063 0.048870
v -0.027352 -0.054260 0.048857
v -0.043959 -0.065805 0.034655
v -0.043948 -0.056002 0.034646
v -0.053871 -0.067564 0.015202
v -0.053857 -0.057761 0.015197
v -0.055307 -0.058314 0.008515
v -0.055319 -0.068112 0.008536
v -0.043955 -0.093811 0.034652
v -0.027357 -0.092069 0.048867
v -0.043951 -0.084007 0.034649
v -0.027354 -0.082266 0.048861
v -0.053866 -0.095570 0.015201
v -0.053861 -0.085766 0.015199
v -0.055311 -0.086318 0.008522
v -0.055316 -0.096118 0.008530
v 0.021644 -0.088020 0.051616
v 0.021651 -0.078219 0.051605
v 0.015201 -0.088569 0.053867
v 0.015198 -0.078765 0.053860
v -0.006563 -0.090328 0.055587
v -0.006562 -0.080525 0.055579
v 0.053841 -0.052867 -0.015193
v 0.055236 -0.052172 -0.008387
v 0.055321 -0.054109 -0.008540
v 0.055309 -0.072317 -0.008519
v 0.055317 -0.082115 -0.008533
v -0.038477 -0.059181 -0.021541
v -0.038038 -0.073270 -0.022332
v -0.038931 -0.073088 -0.020738
v -0.029594 -0.061596 -0.037413
v -0.021653 -0.064217 -0.051602
v -0.029595 -0.074233 -0.037414
v -0.021643 -0.074018 -0.051619
v -0.047366 -0.070756 -0.005671
v -0.047367 -0.058119 -0.005670
v -0.055307 -0.058314 0.008515
v -0.055319 -0.068112 0.008536
v 0.021736 -0.052172 0.051453
v 0.021641 -0.060015 0.051622
v 0.029595 -0.060235 0.037414
v 0.029595 -0.088232 0.037414
v 0.038120 -0.087251 0.022186
v 0.029594 -0.075595 0.037413
v 0.038479 -0.073178 0.021542
v 0.038480 -0.115172 0.021542
v 0.047360 -0.112758 0.005679
v 0.038480 -0.101172 0.021542
v 0.047362 -0.100106 0.005678
v 0.055331 -0.110118 -0.008557
v 0.055330 -0.100314 -0.008555
v 0.037969 -0.059287 0.022456
v 0.055236 -0.052172 -0.008387
v 0.047365 -0.056758 0.005671
v 0.039000 -0.059077 0.020615
v 0.055321 -0.054109 -0.008540
v 0.021644 -0.088020 0.051616
v 0.021651 -0.078219 0.051605
v 0.047367 -0.072118 0.005670
v 0.047368 -0.084756 0.005672
v 0.038849 -0.087102 0.020884
v 0.055317 -0.082115 -0.008533
v 0.055309 -0.072317 -0.008519
v -0.047367 -0.098755 -0.005672
v -0.055316 -0.096118 0.008530
v -0.047367 -0.086116 -0.005670
v -0.055311 -0.086318 0.008522
v -0.021646 -0.102023 -0.051613
v -0.029595 -0.102230 -0.037414
v -0.021693 -0.092202 -0.051530
v -0.029594 -0.089593 -0.037413
v -0.038484 -0.101174 -0.021535
v -0.038480 -0.087175 -0.021542
vn -0.9005 -0.0000 0.4348
vn -0.9999 -0.0000 0.0132
vn -0.8593 -0.0000 0.5114
vn -0.8116 -0.0000 0.5842
vn -0.9289 -0.0000 -0.3704
vn -0.8013 -0.0000 -0.5982
vn -0.4885 -0.0000 0.8726
vn -0.5114 -0.0000 -0.8593
vn -0.0737 -0.0000 0.9973
vn -0.1001 -0.0000 -0.9950
vn 0.0133 -0.0000 0.9999
vn 0.0132 -0.0000 0.9999
vn 0.1001 -0.0000 0.9950
vn -0.0132 -0.0000 -0.9999
vn 0.0737 -0.0000 -0.9973
vn 0.5114 -0.0000 0.8593
vn 0.0738 -0.0000 -0.9973
vn 0.8013 -0.0000 0.5982
vn 0.4885 -0.0000 -0.8726
vn 0.9289 -0.0000 0.3704
vn 0.8116 -0.0000 -0.5842
vn 0.9999 -0.0000 -0.0132
vn 0.8593 -0.0000 -0.5114
vn 0.9005 -0.0000 -0.4348
vn 0.9216 -0.0000 -0.3883
vn 0.9921 -0.0000 0.1252
vn 0.9414 -0.0000 -0.3373
vn 0.8199 -0.0000 -0.5724
vn 0.8200 -0.0000 -0.5724
vn 0.7803 -0.0000 -0.6254
vn 0.8726 -0.0000 0.4885
vn 0.8199 -0.0000 -0.5725
vn 0.6433 -0.0000 -0.7656
vn 0.6254 -0.0000 0.7803
vn 0.1710 -0.0000 0.9853
vn 0.0593 -0.0000 -0.9982
vn 0.1252 -0.0000 -0.9921
vn 0.0594 -0.0000 -0.9982
vn -0.0594 -0.0000 0.9982
vn -0.1248 -0.0000 0.9922
vn -0.2046 -0.0000 -0.9788
vn -0.1709 -0.0000 -0.9853
vn -0.0707 -0.0000 -0.9975
vn -0.1247 -0.0000 0.9922
vn -0.6254 -0.0000 -0.7803
vn -0.8199 -0.0000 0.5724
vn -0.7803 -0.0000 0.6254
vn -0.8726 -0.0000 -0.4885
vn -0.8199 -0.0000 0.5725
vn -0.9293 -0.0000 0.3694
vn -0.9921 -0.0000 -0.1252
vn -0.1902 -0.0001 0.9817
vn -0.3158 -0.0001 0.9488
vn -0.3158 -0.0002 0.9488
vn -0.1246 -0.0000 0.9922
vn -0.4885 -0.0001 0.8725
vn 0.2716 -0.0000 0.9624
vn -0.6433 -0.0000 0.7656
vn -0.7372 -0.0000 0.6756
vn -0.9624 -0.0000 0.2716
vn 0.9624 -0.0000 -0.2716
vn 0.7372 -0.0000 -0.6756
vn 0.1906 -0.0000 -0.9817
vn -0.2716 -0.0000 -0.9624
vn 0.3163 -0.0000 -0.9486
vn 0.3164 -0.0000 -0.9486
vn 0.0339 0.9823 -0.1841
vn 0.0129 0.9824 -0.1862
vn -0.0282 0.9820 -0.1866
vn 0.0472 0.9822 -0.1819
vn 0.1064 0.9814 -0.1597
vn -0.0633 0.9808 -0.1847
vn 0.1589 0.9813 -0.1090
vn 0.1884 0.9813 -0.0396
vn 0.1930 0.9810 0.0196
vn 0.1876 0.9813 0.0418
vn 0.1833 0.9810 0.0631
vn 0.1694 0.9781 0.1210
vn 0.1621 0.9744 0.1558
vn -0.0338 0.9823 0.1844
vn -0.0473 0.9821 0.1823
vn -0.0128 0.9824 0.1866
vn -0.1065 0.9814 0.1598
vn 0.0284 0.9820 0.1869
vn -0.1542 0.9826 0.1039
vn 0.0636 0.9807 0.1849
vn -0.1882 0.9814 0.0383
vn -0.1928 0.9810 -0.0197
vn -0.1873 0.9814 -0.0419
vn -0.1829 0.9811 -0.0630
vn -0.1689 0.9782 -0.1209
vn -0.1615 0.9745 -0.1557
vn 0.0338 0.9823 -0.1841
vn 0.0472 0.9822 -0.1820
vn 0.0128 0.9824 -0.1862
vn 0.1065 0.9814 -0.1596
vn 0.1877 0.9813 0.0417
vn 0.1834 0.9810 0.0631
vn 0.1620 0.9744 0.1558
vn -0.6600 0.7040 -0.2623
vn -0.5686 0.7040 -0.4255
vn -0.5687 0.7040 -0.4254
vn -0.7070 0.7071 0.0094
vn -0.3616 0.7071 -0.6076
vn -0.6528 0.7040 0.2797
vn -0.1028 0.7040 -0.7027
vn -0.5572 0.7040 0.4404
vn 0.0842 0.7040 -0.7052
vn -0.3454 0.7071 0.6170
vn 0.0841 0.7040 -0.7052
vn 0.3454 0.7071 -0.6170
vn -0.0841 0.7040 0.7052
vn 0.5572 0.7040 -0.4404
vn 0.5571 0.7040 -0.4404
vn -0.0842 0.7040 0.7052
vn 0.1028 0.7040 0.7027
vn 0.6528 0.7040 -0.2797
vn 0.3616 0.7071 0.6076
vn 0.7070 0.7071 -0.0094
vn 0.5686 0.7040 0.4255
vn 0.6600 0.7040 0.2623
vn 0.5686 -0.7040 0.4255
vn 0.6600 -0.7040 0.2624
vn 0.6600 -0.7040 0.2623
vn 0.3616 -0.7071 0.6076
vn 0.7070 -0.7071 -0.0094
vn 0.1028 -0.7040 0.7027
vn 0.6528 -0.7040 -0.2797
vn -0.0842 -0.7040 0.7052
vn 0.5572 -0.7040 -0.4404
vn -0.3454 -0.7071 0.6170
vn 0.3454 -0.7071 -0.6170
vn -0.5571 -0.7040 0.4404
vn -0.5572 -0.7040 0.4404
vn 0.0842 -0.7040 -0.7052
vn -0.6528 -0.7040 0.2797
vn -0.1028 -0.7040 -0.7027
vn -0.7070 -0.7071 0.0094
vn -0.3616 -0.7071 -0.6076
vn -0.6600 -0.7040 -0.2623
vn -0.5686 -0.7040 -0.4255
vn 0.1411 -0.9820 -0.1256
vn 0.0827 -0.9811 -0.1749
vn 0.1327 -0.9818 -0.1361
vn 0.1530 -0.9822 -0.1088
vn 0.1748 -0.9819 -0.0733
vn 0.0098 -0.9811 -0.1930
vn 0.1915 -0.9806 -0.0420
vn -0.0644 -0.9807 -0.1846
vn -0.1343 -0.9809 -0.1405
vn -0.1180 -0.9805 -0.1570
vn -0.1501 -0.9807 -0.1254
vn -0.1922 -0.9778 -0.0835
vn -0.2176 -0.9742 -0.0596
vn 0.1612 -0.9740 -0.1590
vn 0.1001 -0.9780 -0.1832
vn 0.1617 -0.9691 -0.1862
vn 0.1612 -0.9740 -0.1591
vn 0.0520 -0.9759 -0.2121
vn 0.1916 -0.9806 -0.0420
vn 0.1479 -0.9770 -0.1538
vn 0.1344 -0.9809 0.1410
vn 0.1924 -0.9777 0.0840
vn 0.1503 -0.9806 0.1258
vn 0.1181 -0.9804 0.1575
vn 0.0643 -0.9806 0.1850
vn 0.0643 -0.9806 0.1851
vn 0.2178 -0.9741 0.0602
vn -0.0119 -0.9806 0.1958
vn -0.0829 -0.9809 0.1758
vn -0.0829 -0.9809 0.1759
vn -0.1325 -0.9818 0.1362
vn -0.1411 -0.9820 0.1256
vn -0.1535 -0.9821 0.1087
vn -0.1753 -0.9818 0.0733
vn -0.1752 -0.9818 0.0733
vn -0.1920 -0.9805 0.0421
vn 0.1747 -0.9819 -0.0733
vn 0.2178 -0.9741 0.0601
vn -0.1535 -0.9821 0.1088
vn -0.1920 -0.9805 0.0420
vn 0.9770 0.0001 -0.2134
vn -0.3337 0.0033 -0.9427
vn -0.3337 0.0034 -0.9427
vn 0.9769 0.0001 -0.2135
vn 0.1252 -0.0002 -0.9921
vn 0.2080 0.0086 0.9781
vn 0.2080 0.0087 0.9781
vn 0.3325 0.0128 0.9430
vn 0.3326 0.0129 0.9430
vn 0.0800 0.0043 0.9968
vn -0.9419 0.0015 0.3358
vn -0.9772 0.0015 0.2122
vn -0.9773 0.0016 0.2121
vn -0.9772 0.0016 0.2122
vn -0.4885 -0.0001 0.8726
vn 0.3298 0.0008 0.9440
vn 0.3298 0.0009 0.9441
vn -0.8726 0.0003 -0.4885
vn -0.8726 0.0003 -0.4884
vn -0.8725 -0.0000 -0.4887
vn -0.8726 0.0001 -0.4885
vn -0.8726 0.0001 -0.4884
vn 0.8726 0.0001 0.4885
vn 0.8726 -0.0002 0.4885
vn 0.8726 -0.0001 0.4884
vn 0.8725 0.0002 0.4886
vn 0.8726 0.0001 0.4884
vn 0.8726 0.0002 0.4884
vn 0.8726 -0.0001 0.4885
vn -0.0000 -1.0000 -0.0000
vn -0.0000 1.0000 -0.0000
vn 0.7016 -0.7071 0.0885
vn 0.6170 -0.7071 0.3454
vn 0.6805 -0.7071 -0.1920
vn 0.4422 -0.7071 0.5518
vn 0.5571 -0.7040 -0.4404
vn 0.1921 -0.7071 0.6805
vn -0.0841 -0.7040 0.7052
vn -0.1920 -0.7071 -0.6805
vn -0.4422 -0.7071 -0.5518
vn -0.6805 -0.7071 0.1920
vn -0.6170 -0.7071 -0.3454
vn -0.7015 -0.7071 -0.0886
vn -0.7016 -0.7071 -0.0885
vn 0.0887 0.9948 0.0498
vn 0.0890 0.9948 0.0496
vn 0.0888 0.9948 0.0497
vn 0.0890 0.9948 0.0499
vn 0.0888 0.9948 0.0496
vn -0.0896 -0.9947 -0.0504
vn -0.0897 -0.9947 -0.0505
vn 0.0891 0.9948 0.0498
vn 0.0889 0.9948 0.0498
vn 0.0888 0.9948 0.0498
vn 0.0886 -0.9948 0.0496
vn 0.0890 -0.9948 0.0496
vn 0.0888 -0.9948 0.0495
vn 0.0888 -0.9948 0.0499
vn 0.0889 -0.9948 0.0495
vn 0.0888 -0.9948 0.0493
vn -0.0888 0.9948 -0.0501
vn -0.0890 0.9948 -0.0501
vn -0.0889 0.9948 -0.0501
vn -0.1615 0.9745 -0.1556
vn -0.0932 0.9835 0.1548
vn -0.0581 0.9824 0.1777
vn -0.8725 0.0001 -0.4885
vn -0.8725 0.0001 -0.4886
vn -0.0896 -0.9947 -0.0503
vn -0.0897 -0.9947 -0.0506
vn -0.0896 -0.9947 -0.0505
vn 0.9767 0.0592 -0.2062
vt 0.876640 0.060439
vt 0.931986 0.057339
vt 0.937250 0.060369
s 1
usemtl FO_Pegasus_baku1A_Mat.001
f 112/1/1 113/1/2 111/1/1
f 112/1/1 114/1/2 113/1/2
f 112/1/1 111/1/1 126/1/3
f 112/1/1 126/1/3 125/1/3
f 112/1/1 125/1/3 124/1/3
f 112/1/1 124/1/3 123/1/4
f 114/1/2 115/1/5 113/1/2
f 114/1/2 116/1/5 115/1/5
f 111/1/1 127/1/3 126/1/3
f 111/1/1 128/1/4 127/1/3
f 124/1/3 128/1/4 123/1/4
f 124/1/3 127/1/3 128/1/4
f 116/1/5 131/1/6 115/1/5
f 116/1/5 132/1/6 131/1/6
f 123/1/4 128/1/4 130/1/7
f 123/1/4 130/1/7 129/1/7
f 132/1/6 176/1/8 131/1/6
f 130/1/7 120/1/9 129/1/7
f 130/1/7 119/1/9 120/1/9
f 176/1/8 174/1/8 131/1/6
f 176/1/8 175/1/10 174/1/8
f 119/1/9 122/1/11 120/1/9
f 119/1/9 118/1/12 122/1/11
f 119/1/9 107/1/13 118/1/12
f 175/1/10 173/1/10 174/1/8
f 175/1/10 186/1/14 173/1/10
f 175/1/10 185/1/14 186/1/14
f 175/1/10 184/1/14 185/1/14
f 175/1/10 183/1/15 184/1/14
f 120/1/9 122/1/11 121/1/12
f 120/1/9 121/1/12 108/1/13
f 107/1/13 117/1/12 118/1/12
f 107/1/13 106/1/16 108/1/13
f 107/1/13 108/1/13 117/1/12
f 107/1/13 105/1/16 106/1/16
f 117/1/12 108/1/13 121/1/12
f 173/1/10 186/1/14 187/1/14
f 173/1/10 187/1/14 188/1/17
f 184/1/14 183/1/15 188/1/17
f 184/1/14 188/1/17 187/1/14
f 105/1/16 104/1/18 106/1/16
f 105/1/16 103/1/18 104/1/18
f 183/1/15 190/1/19 188/1/17
f 183/1/15 189/1/19 190/1/19
f 103/1/18 109/1/20 104/1/18
f 103/1/18 110/1/20 109/1/20
f 189/1/19 181/1/21 190/1/19
f 110/1/20 169/1/22 109/1/20
f 181/1/21 179/1/21 190/1/19
f 181/1/21 182/1/23 179/1/21
f 181/1/21 180/1/23 182/1/23
f 181/1/21 172/1/24 180/1/23
f 169/1/22 170/1/22 109/1/20
f 169/1/22 171/1/24 170/1/22
f 170/1/22 171/1/24 172/1/24
f 179/1/21 182/1/23 178/1/23
f 179/1/21 178/1/23 171/1/24
f 180/1/23 172/1/24 177/1/23
f 177/1/23 171/1/24 178/1/23
f 177/1/23 172/1/24 171/1/24
f 482/2/25 480/2/26 481/2/27
f 482/2/25 479/2/26 480/2/26
f 482/2/25 481/2/27 484/2/28
f 482/2/25 484/2/28 483/2/29
f 482/2/25 483/2/29 488/2/28
f 482/2/25 488/2/28 487/2/30
f 479/2/26 469/2/31 480/2/26
f 479/2/26 470/2/31 469/2/31
f 481/2/27 490/2/32 484/2/28
f 481/2/27 491/2/30 490/2/32
f 483/2/29 484/2/28 485/2/19
f 488/2/28 489/2/33 487/2/30
f 470/2/31 471/2/34 469/2/31
f 470/2/31 472/2/34 471/2/34
f 491/2/30 492/2/19 490/2/32
f 491/2/30 493/2/19 492/2/19
f 484/2/28 486/2/19 485/2/19
f 472/2/34 474/2/35 471/2/34
f 493/2/19 502/2/36 492/2/19
f 493/2/19 501/2/37 502/2/36
f 486/2/19 495/2/38 485/2/19
f 486/2/19 500/2/38 495/2/38
f 474/2/35 473/2/35 471/2/34
f 474/2/35 476/2/39 473/2/35
f 474/2/35 467/2/39 476/2/39
f 474/2/35 468/2/40 467/2/39
f 501/2/37 499/2/41 502/2/36
f 502/2/36 499/2/41 500/2/38
f 495/2/38 500/2/38 496/2/42
f 495/2/38 496/2/42 494/2/43
f 500/2/38 499/2/41 496/2/42
f 473/2/35 476/2/39 475/2/39
f 473/2/35 475/2/39 478/2/39
f 473/2/35 478/2/39 477/2/44
f 468/2/40 458/2/7 467/2/39
f 468/2/40 457/2/7 458/2/7
f 499/2/41 497/2/45 496/2/42
f 476/2/39 462/2/7 475/2/39
f 476/2/39 461/2/7 462/2/7
f 478/2/39 466/2/7 477/2/44
f 478/2/39 465/2/7 466/2/7
f 457/2/7 456/2/46 458/2/7
f 457/2/7 455/2/47 456/2/46
f 497/2/45 498/2/45 496/2/42
f 497/2/45 449/2/48 498/2/45
f 497/2/45 450/2/48 449/2/48
f 461/2/7 460/2/46 462/2/7
f 461/2/7 459/2/49 460/2/46
f 465/2/7 464/2/47 466/2/7
f 465/2/7 463/2/49 464/2/47
f 455/2/47 453/2/50 456/2/46
f 459/2/49 453/2/50 460/2/46
f 459/2/49 456/2/46 453/2/50
f 450/2/48 451/2/51 449/2/48
f 450/2/48 452/2/51 451/2/51
f 463/2/49 454/2/50 464/2/47
f 463/2/49 460/2/46 454/2/50
f 454/2/50 453/2/50 451/2/51
f 454/2/50 451/2/51 452/2/51
f 454/2/50 460/2/46 453/2/50
f 264/2/52 265/2/53 263/2/54
f 264/2/52 266/2/55 265/2/53
f 264/2/52 263/2/54 290/2/56
f 264/2/52 260/2/57 266/2/55
f 264/2/52 290/2/56 292/2/7
f 260/2/57 258/2/57 266/2/55
f 260/2/57 259/2/34 258/2/57
f 290/2/56 291/2/58 292/2/7
f 259/2/34 257/2/34 258/2/57
f 259/2/34 262/2/31 257/2/34
f 291/2/58 288/2/59 292/2/7
f 291/2/58 286/2/47 288/2/59
f 291/2/58 296/2/58 286/2/47
f 262/2/31 261/2/31 257/2/34
f 262/2/31 275/2/26 261/2/31
f 288/2/59 286/2/47 287/2/60
f 288/2/59 287/2/60 289/2/60
f 275/2/26 274/2/26 261/2/31
f 275/2/26 270/2/61 274/2/26
f 287/2/60 293/2/51 289/2/60
f 270/2/61 268/2/61 274/2/26
f 270/2/61 269/2/62 268/2/61
f 293/2/51 294/2/51 289/2/60
f 293/2/51 280/2/48 294/2/51
f 269/2/62 267/2/30 268/2/61
f 269/2/62 272/2/33 267/2/30
f 269/2/62 273/2/19 272/2/33
f 280/2/48 281/2/48 294/2/51
f 280/2/48 276/2/45 281/2/48
f 267/2/30 272/2/33 295/2/33
f 273/2/19 271/2/19 272/2/33
f 273/2/19 283/2/63 271/2/19
f 276/2/45 278/2/45 281/2/48
f 276/2/45 277/2/64 278/2/45
f 283/2/63 282/2/65 271/2/19
f 283/2/63 284/2/66 282/2/65
f 283/2/63 285/2/37 284/2/66
f 283/2/63 279/2/64 285/2/37
f 279/2/64 278/2/45 277/2/64
f 279/2/64 277/2/64 285/2/37
f 599/3/67 598/3/68 597/3/69
f 599/3/67 600/3/70 598/3/68
f 599/3/67 597/3/69 596/3/69
f 599/3/67 601/3/71 600/3/70
f 599/3/67 602/3/71 601/3/71
f 597/3/69 595/3/72 596/3/69
f 602/3/71 588/3/73 601/3/71
f 602/3/71 589/3/73 588/3/73
f 589/3/73 590/3/74 588/3/73
f 589/3/73 591/3/74 590/3/74
f 591/3/74 592/3/75 590/3/74
f 591/3/74 593/3/76 592/3/75
f 593/3/76 594/3/77 592/3/75
f 593/3/76 585/3/78 594/3/77
f 585/3/78 587/3/78 594/3/77
f 585/3/78 586/3/79 587/3/78
f 630/3/80 631/3/81 629/3/82
f 630/3/80 632/3/83 631/3/81
f 630/3/80 629/3/82 628/3/84
f 630/3/80 633/3/83 632/3/83
f 630/3/80 628/3/84 627/3/84
f 633/3/83 619/3/85 632/3/83
f 633/3/83 620/3/85 619/3/85
f 628/3/84 626/3/86 627/3/84
f 620/3/85 621/3/87 619/3/85
f 620/3/85 622/3/87 621/3/87
f 622/3/87 623/3/88 621/3/87
f 622/3/87 624/3/89 623/3/88
f 624/3/89 625/3/90 623/3/88
f 624/3/89 616/3/91 625/3/90
f 616/3/91 618/3/91 625/3/90
f 616/3/91 617/3/92 618/3/91
f 648/3/93 649/3/94 647/3/95
f 648/3/93 650/3/71 649/3/94
f 648/3/93 647/3/95 646/3/69
f 648/3/93 651/3/96 650/3/71
f 648/3/93 646/3/69 645/3/69
f 651/3/96 643/3/73 650/3/71
f 651/3/96 642/3/73 643/3/73
f 646/3/69 644/3/72 645/3/69
f 642/3/73 639/3/74 643/3/73
f 639/3/74 640/3/74 643/3/73
f 639/3/74 637/3/97 640/3/74
f 637/3/97 641/3/75 640/3/74
f 637/3/97 638/3/98 641/3/75
f 637/3/97 634/3/78 638/3/98
f 634/3/78 636/3/78 638/3/98
f 634/3/78 635/3/99 636/3/78
f 83/1/100 81/1/101 82/1/102
f 83/1/100 82/1/102 84/1/100
f 83/1/100 84/1/100 101/1/103
f 83/1/100 101/1/103 102/1/103
f 81/1/101 167/1/104 82/1/102
f 81/1/101 168/1/104 167/1/104
f 101/1/103 99/1/105 102/1/103
f 168/1/104 165/1/106 167/1/104
f 168/1/104 166/1/106 165/1/106
f 99/1/105 100/1/105 102/1/103
f 99/1/105 98/1/107 100/1/105
f 99/1/105 97/1/107 98/1/107
f 166/1/106 164/1/108 165/1/106
f 97/1/107 95/1/109 98/1/107
f 164/1/108 163/1/110 165/1/106
f 164/1/108 161/1/111 163/1/110
f 164/1/108 162/1/111 161/1/111
f 95/1/109 96/1/109 98/1/107
f 95/1/109 93/1/112 96/1/109
f 162/1/111 159/1/113 161/1/111
f 162/1/111 160/1/114 159/1/113
f 93/1/112 94/1/115 96/1/109
f 93/1/112 92/1/116 94/1/115
f 93/1/112 91/1/116 92/1/116
f 160/1/114 158/1/117 159/1/113
f 91/1/116 89/1/118 92/1/116
f 158/1/117 157/1/117 159/1/113
f 158/1/117 155/1/119 157/1/117
f 158/1/117 156/1/119 155/1/119
f 89/1/118 90/1/118 92/1/116
f 89/1/118 86/1/120 90/1/118
f 156/1/119 88/1/121 155/1/119
f 156/1/119 87/1/121 88/1/121
f 88/1/121 87/1/121 86/1/120
f 90/1/118 86/1/120 85/1/120
f 85/1/120 86/1/120 87/1/121
f 134/1/122 135/1/123 133/1/122
f 134/1/122 136/1/124 135/1/123
f 134/1/122 133/1/122 137/1/125
f 134/1/122 137/1/125 138/1/125
f 136/1/124 191/1/126 135/1/123
f 136/1/124 192/1/126 191/1/126
f 137/1/125 139/1/127 138/1/125
f 137/1/125 140/1/127 139/1/127
f 192/1/126 193/1/128 191/1/126
f 140/1/127 141/1/129 139/1/127
f 140/1/127 142/1/129 141/1/129
f 193/1/128 195/1/128 191/1/126
f 193/1/128 194/1/130 195/1/128
f 142/1/129 143/1/131 141/1/129
f 194/1/130 196/1/130 195/1/128
f 194/1/130 197/1/132 196/1/130
f 194/1/130 198/1/132 197/1/132
f 143/1/131 144/1/131 141/1/129
f 143/1/131 145/1/133 144/1/131
f 143/1/131 146/1/134 145/1/133
f 198/1/132 199/1/135 197/1/132
f 146/1/134 147/1/136 145/1/133
f 146/1/134 148/1/136 147/1/136
f 199/1/135 201/1/135 197/1/132
f 199/1/135 200/1/137 201/1/135
f 148/1/136 149/1/138 147/1/136
f 200/1/137 202/1/137 201/1/135
f 200/1/137 203/1/139 202/1/137
f 200/1/137 204/1/139 203/1/139
f 149/1/138 150/1/138 147/1/136
f 149/1/138 152/1/140 150/1/138
f 149/1/138 154/1/140 152/1/140
f 204/1/139 151/1/141 203/1/139
f 154/1/140 153/1/141 152/1/140
f 153/1/141 151/1/141 152/1/140
f 153/1/141 203/1/139 151/1/141
f 507/3/142 503/3/143 508/3/144
f 507/3/142 508/3/144 512/3/145
f 507/3/142 512/3/145 509/3/146
f 507/3/142 509/3/146 511/3/146
f 503/3/143 505/3/143 508/3/144
f 503/3/143 504/3/147 505/3/143
f 509/3/146 510/3/148 511/3/146
f 504/3/147 506/3/147 505/3/143
f 504/3/147 582/3/149 506/3/147
f 582/3/149 583/3/149 506/3/147
f 582/3/149 580/3/150 583/3/149
f 580/3/150 584/3/151 583/3/149
f 580/3/150 581/3/152 584/3/151
f 580/3/150 577/3/153 581/3/152
f 577/3/153 579/3/153 581/3/152
f 577/3/153 578/3/154 579/3/153
f 516/3/155 513/3/156 517/3/157
f 516/3/155 517/3/157 522/3/158
f 516/3/155 522/3/158 519/3/146
f 516/3/155 519/3/146 521/3/146
f 513/3/156 515/3/156 517/3/157
f 513/3/156 514/3/159 515/3/156
f 519/3/146 520/3/160 521/3/146
f 517/3/157 515/3/156 518/3/161
f 526/3/162 523/3/163 527/3/164
f 526/3/162 527/3/164 530/3/165
f 526/3/162 530/3/165 529/3/166
f 526/3/162 529/3/166 528/3/167
f 523/3/163 525/3/163 527/3/164
f 523/3/163 524/3/168 525/3/163
f 529/3/166 532/3/169 528/3/167
f 532/3/169 531/3/169 528/3/167
f 532/3/169 562/3/170 531/3/169
f 562/3/170 561/3/171 531/3/169
f 562/3/170 564/3/172 561/3/171
f 564/3/172 563/3/173 561/3/171
f 564/3/172 568/3/174 563/3/173
f 568/3/174 565/3/175 563/3/173
f 565/3/175 567/3/176 563/3/173
f 565/3/175 566/3/177 567/3/176
f 537/3/142 533/3/143 538/3/144
f 537/3/142 538/3/144 542/3/145
f 537/3/142 542/3/145 539/3/178
f 537/3/142 539/3/178 541/3/146
f 533/3/143 535/3/143 538/3/144
f 533/3/143 534/3/147 535/3/143
f 539/3/178 540/3/160 541/3/146
f 534/3/147 536/3/147 535/3/143
f 534/3/147 574/3/149 536/3/147
f 574/3/149 575/3/149 536/3/147
f 574/3/149 572/3/150 575/3/149
f 572/3/150 576/3/151 575/3/149
f 572/3/150 573/3/152 576/3/151
f 572/3/150 569/3/153 573/3/152
f 569/3/153 571/3/153 573/3/152
f 569/3/153 570/3/154 571/3/153
f 546/3/162 543/3/163 547/3/164
f 546/3/162 547/3/164 550/3/165
f 546/3/162 550/3/165 549/3/166
f 546/3/162 549/3/166 548/3/166
f 543/3/163 545/3/163 547/3/164
f 543/3/163 544/3/179 545/3/163
f 549/3/166 552/3/169 548/3/166
f 552/3/169 551/3/169 548/3/166
f 552/3/169 554/3/170 551/3/169
f 554/3/170 553/3/170 551/3/169
f 554/3/170 556/3/172 553/3/170
f 556/3/172 555/3/173 553/3/170
f 556/3/172 560/3/180 555/3/173
f 560/3/180 557/3/175 555/3/173
f 557/3/175 559/3/176 555/3/173
f 557/3/175 558/3/181 559/3/176
f 654/3/27 652/3/182 653/3/182
f 654/3/27 653/3/182 655/3/27
f 654/3/27 655/3/27 657/3/30
f 654/3/27 657/3/30 656/3/30
f 657/3/30 659/3/19 656/3/30
f 659/3/19 658/3/19 656/3/30
f 659/3/19 664/3/37 658/3/19
f 664/3/37 665/3/37 658/3/19
f 664/3/37 662/3/41 665/3/37
f 662/3/41 663/3/41 665/3/37
f 662/3/41 661/3/183 663/3/41
f 662/3/41 660/3/184 661/3/183
f 671/3/27 670/3/27 666/3/30
f 671/3/27 711/3/185 670/3/27
f 671/3/27 666/3/30 668/3/30
f 671/3/27 710/3/182 711/3/185
f 666/3/30 667/3/19 668/3/30
f 667/3/19 669/3/19 668/3/30
f 667/3/19 676/3/37 669/3/19
f 676/3/37 677/3/186 669/3/19
f 676/3/37 674/3/41 677/3/186
f 674/3/41 675/3/41 677/3/186
f 674/3/41 673/3/184 675/3/41
f 674/3/41 672/3/184 673/3/184
f 680/3/187 678/3/188 679/3/189
f 680/3/187 683/3/44 678/3/188
f 680/3/187 679/3/189 681/3/190
f 680/3/187 684/3/191 683/3/44
f 678/3/188 683/3/44 682/3/44
f 683/3/44 686/3/7 682/3/44
f 686/3/7 685/3/7 682/3/44
f 686/3/7 688/3/47 685/3/7
f 688/3/47 687/3/47 685/3/7
f 688/3/47 690/3/192 687/3/47
f 690/3/192 689/3/192 687/3/47
f 690/3/192 692/3/193 689/3/192
f 690/3/192 691/3/194 692/3/193
f 698/3/192 697/3/192 693/3/47
f 698/3/192 700/3/193 697/3/192
f 698/3/192 693/3/47 695/3/47
f 698/3/192 699/3/195 700/3/193
f 693/3/47 694/3/7 695/3/47
f 694/3/7 696/3/196 695/3/47
f 694/3/7 705/3/44 696/3/196
f 705/3/44 706/3/55 696/3/196
f 705/3/44 703/3/187 706/3/55
f 703/3/187 704/3/188 706/3/55
f 703/3/187 702/3/197 704/3/188
f 703/3/187 701/3/198 702/3/197
s 0
f 712/3/199 713/3/199 714/3/199
s 1
f 712/3/200 715/3/200 713/3/200
s 0
f 712/3/199 714/3/199 719/3/199
f 712/3/201 719/3/201 720/3/201
f 715/3/202 717/3/202 713/3/202
f 715/3/203 716/3/203 717/3/203
f 719/3/48 722/3/48 720/3/48
f 716/3/48 718/3/48 717/3/48
f 722/3/48 721/3/48 720/3/48
f 729/3/204 728/3/204 727/3/204
f 729/3/205 727/3/205 745/3/205
f 729/3/206 745/3/206 744/3/206
f 729/3/207 744/3/207 743/3/207
f 728/3/204 726/3/204 727/3/204
f 728/3/208 742/3/208 726/3/208
f 744/3/209 746/3/209 743/3/209
f 742/3/31 741/3/31 726/3/31
f 746/3/31 747/3/31 743/3/31
f 736/3/31 737/3/31 723/3/31
f 736/3/210 738/3/210 737/3/210
f 736/3/31 723/3/31 725/3/31
f 736/3/210 739/3/210 738/3/210
f 737/3/31 738/3/31 740/3/31
f 723/3/31 724/3/31 725/3/31
f 205/1/211 206/1/211 207/1/211
f 205/1/211 212/1/211 206/1/211
f 205/1/211 211/1/211 212/1/211
f 207/1/211 206/1/211 208/1/211
f 207/1/211 208/1/211 209/1/211
f 211/1/211 222/1/211 212/1/211
f 211/1/211 221/1/211 222/1/211
f 208/1/211 210/1/211 209/1/211
f 221/1/211 220/1/211 222/1/211
f 221/1/211 219/1/211 220/1/211
f 210/1/211 213/1/211 209/1/211
f 210/1/211 214/1/211 213/1/211
f 214/1/211 218/1/211 213/1/211
f 214/1/211 217/1/211 218/1/211
f 217/1/211 216/1/211 218/1/211
f 217/1/211 215/1/211 216/1/211
f 232/2/212 233/2/212 231/2/212
f 232/2/212 238/2/212 233/2/212
f 232/2/212 231/2/212 256/2/212
f 245/2/212 243/2/212 244/2/212
f 245/2/212 254/2/212 243/2/212
f 245/2/212 255/2/212 254/2/212
f 297/2/211 298/2/211 299/2/211
f 297/2/211 299/2/211 301/2/211
f 297/2/211 301/2/211 302/2/211
f 298/2/211 300/2/211 299/2/211
f 298/2/211 309/2/211 300/2/211
f 301/2/211 304/2/211 302/2/211
f 309/2/211 308/2/211 300/2/211
f 309/2/211 310/2/211 308/2/211
f 304/2/211 303/2/211 302/2/211
f 304/2/211 305/2/211 303/2/211
f 310/2/211 311/2/211 308/2/211
f 310/2/211 312/2/211 311/2/211
f 305/2/211 306/2/211 303/2/211
f 305/2/211 307/2/211 306/2/211
s 1
f 313/2/213 314/2/214 315/2/213
f 313/2/213 315/2/213 318/2/215
f 313/2/213 318/2/215 317/2/215
f 314/2/214 316/2/214 315/2/213
f 314/2/214 329/2/216 316/2/214
f 318/2/215 320/2/217 317/2/215
f 329/2/216 330/2/216 316/2/214
f 329/2/216 327/2/218 330/2/216
f 320/2/217 319/2/130 317/2/215
f 320/2/217 322/2/132 319/2/130
f 327/2/218 328/2/218 330/2/216
f 327/2/218 323/2/219 328/2/218
f 322/2/132 321/2/132 319/2/130
f 322/2/132 340/2/135 321/2/132
f 323/2/219 325/2/129 328/2/218
f 323/2/219 324/2/131 325/2/129
f 340/2/135 339/2/135 321/2/132
f 340/2/135 342/2/220 339/2/135
f 324/2/131 326/2/131 325/2/129
f 324/2/131 337/2/134 326/2/131
f 342/2/220 341/2/220 339/2/135
f 342/2/220 344/2/221 341/2/220
f 337/2/134 338/2/133 326/2/131
f 337/2/134 335/2/222 338/2/133
f 344/2/221 343/2/221 341/2/220
f 344/2/221 334/2/223 343/2/221
f 335/2/222 336/2/222 338/2/133
f 335/2/222 331/2/224 336/2/222
f 334/2/223 332/2/223 343/2/221
f 334/2/223 333/2/225 332/2/223
f 333/2/225 331/2/224 332/2/223
f 333/2/225 336/2/222 331/2/224
s 0
f 345/2/211 346/2/211 347/2/211
f 345/2/211 347/2/211 355/2/211
f 345/2/211 355/2/211 354/2/211
f 346/2/211 348/2/211 347/2/211
f 346/2/211 350/2/211 348/2/211
f 355/2/211 356/2/211 354/2/211
f 350/2/211 349/2/211 348/2/211
f 350/2/211 351/2/211 349/2/211
f 356/2/211 357/2/211 354/2/211
f 356/2/211 359/2/211 357/2/211
f 351/2/211 352/2/211 349/2/211
f 351/2/211 353/2/211 352/2/211
f 359/2/211 358/2/211 357/2/211
f 359/2/211 360/2/211 358/2/211
f 367/2/19 365/2/19 366/2/19
f 367/2/19 368/2/19 365/2/19
f 367/2/19 369/2/19 368/2/19
f 378/2/226 379/2/226 380/2/226
s 1
f 378/2/227 381/2/228 379/2/229
f 378/2/227 382/2/230 381/2/228
f 397/2/231 395/2/232 396/2/231
f 397/2/231 401/2/231 395/2/232
f 397/2/231 402/2/231 401/2/231
f 398/2/226 399/2/233 400/2/234
f 398/2/226 404/2/235 399/2/233
s 0
f 398/2/226 400/2/226 403/2/226
f 407/2/212 405/2/212 406/2/212
f 407/2/212 408/2/212 405/2/212
f 407/2/212 409/2/212 408/2/212
s 1
f 424/2/236 422/2/237 423/2/238
f 424/2/236 425/2/239 422/2/237
f 424/2/236 426/2/240 425/2/239
f 440/2/238 441/2/238 439/2/238
s 0
f 440/2/237 439/2/237 445/2/237
s 1
f 440/2/241 445/2/241 446/2/241
s 0
f 444/2/242 442/2/242 443/2/242
f 444/2/243 447/2/243 442/2/243
s 1
f 444/2/244 448/2/244 447/2/244
f 603/3/91 604/3/245 605/3/91
f 603/3/91 605/3/91 612/3/90
f 603/3/91 612/3/90 611/3/89
f 612/3/90 610/3/88 611/3/89
f 610/3/88 609/3/87 611/3/89
f 610/3/88 608/3/87 609/3/87
f 608/3/87 607/3/85 609/3/87
f 608/3/87 606/3/85 607/3/85
f 606/3/85 614/3/246 607/3/85
f 606/3/85 615/3/246 614/3/246
f 615/3/246 613/3/247 614/3/246
s 0
f 731/3/31 732/3/31 730/3/31
f 731/3/210 733/3/210 732/3/210
f 731/3/210 734/3/210 733/3/210
f 734/3/31 735/3/31 733/3/31
f 748/3/203 749/3/203 750/3/203
f 748/3/248 750/3/248 757/3/248
f 748/3/249 757/3/249 756/3/249
f 749/3/48 751/3/48 750/3/48
f 757/3/248 755/3/248 756/3/248
f 755/3/202 753/3/202 756/3/202
f 755/3/203 754/3/203 753/3/203
f 754/3/48 752/3/48 753/3/48
f 2/1/19 3/1/19 1/1/19
f 2/1/19 4/1/19 3/1/19
f 6/1/212 7/1/212 5/1/212
f 6/1/212 8/1/212 7/1/212
f 10/1/211 11/1/211 9/1/211
f 10/1/211 12/1/211 11/1/211
f 14/1/48 15/1/48 13/1/48
f 14/1/48 16/1/48 15/1/48
f 18/1/31 19/1/31 17/1/31
f 18/1/31 20/1/31 19/1/31
f 22/1/19 23/1/19 21/1/19
f 22/1/19 24/1/19 23/1/19
f 26/1/212 27/1/212 25/1/212
f 26/1/212 28/1/212 27/1/212
f 30/1/211 31/1/211 29/1/211
f 30/1/211 32/1/211 31/1/211
f 34/1/31 35/1/31 33/1/31
f 34/1/31 36/1/31 35/1/31
f 38/1/48 39/1/48 37/1/48
f 38/1/48 40/1/48 39/1/48
f 42/1/7 43/1/7 41/1/7
f 42/1/7 44/1/7 43/1/7
f 46/1/212 47/1/212 45/1/212
f 46/1/212 48/1/212 47/1/212
f 50/1/211 51/1/211 49/1/211
f 50/1/211 52/1/211 51/1/211
f 54/1/48 55/1/48 53/1/48
f 54/1/48 56/1/48 55/1/48
f 58/1/31 59/1/31 57/1/31
f 58/1/31 60/1/31 59/1/31
f 62/1/7 63/1/7 61/1/7
f 62/1/7 64/1/7 63/1/7
f 66/1/212 67/1/212 65/1/212
f 66/1/212 68/1/212 67/1/212
f 70/1/211 71/1/211 69/1/211
f 70/1/211 72/1/211 71/1/211
f 74/1/31 75/1/31 73/1/31
f 74/1/31 76/1/31 75/1/31
f 78/1/48 79/1/48 77/1/48
f 78/1/48 80/1/48 79/1/48
f 224/2/48 225/2/48 223/2/48
f 224/2/48 226/2/48 225/2/48
f 228/2/19 229/2/19 227/2/19
f 228/2/19 230/2/19 229/2/19
f 235/2/31 236/2/31 234/2/31
f 235/2/31 237/2/31 236/2/31
f 240/2/48 241/2/48 239/2/48
f 240/2/48 242/2/48 241/2/48
f 247/2/31 248/2/31 246/2/31
f 247/2/31 249/2/31 248/2/31
f 251/2/7 252/2/7 250/2/7
f 251/2/7 253/2/7 252/2/7
s 1
f 362/2/250 363/2/251 361/2/232
f 362/2/250 364/2/252 363/2/251
f 371/2/31 372/2/31 370/2/31
f 371/2/31 373/2/31 372/2/31
f 375/2/48 376/2/48 374/2/48
f 375/2/48 377/2/48 376/2/48
f 384/2/31 385/2/31 383/2/31
f 384/2/31 386/2/31 385/2/31
f 388/2/48 389/2/48 387/2/48
f 388/2/48 390/2/48 389/2/48
s 0
f 392/2/19 393/2/19 391/2/19
f 392/2/19 394/2/19 393/2/19
s 1
f 411/2/48 412/2/48 410/2/48
f 411/2/48 413/2/48 412/2/48
f 415/2/31 416/2/31 414/2/31
f 415/2/31 417/2/31 416/2/31
s 0
f 419/2/7 420/2/7 418/2/7
f 419/2/7 421/2/7 420/2/7
s 1
f 428/2/48 429/2/48 427/2/48
f 428/2/48 430/2/48 429/2/48
f 432/2/31 433/2/31 431/2/31
f 432/2/31 434/2/31 433/2/31
s 0
f 436/2/7 437/2/7 435/2/7
f 436/2/7 438/2/7 437/2/7
f 707/3/253 708/3/253 709/3/253
o Mesh1
v -0.054975 0.052829 0.091036
v -0.052379 0.052829 0.093564
v 0.048867 0.052829 -0.094456
v 0.052379 0.052829 -0.093564
v -0.048867 0.052829 0.094456
v 0.054975 0.052829 -0.091036
v -0.106234 0.052829 0.004907
v -0.051352 0.052829 -0.093128
v 0.051352 0.052829 0.093128
v 0.106234 0.052829 -0.004907
v 0.054839 0.052829 0.092144
v 0.107219 0.052829 -0.001420
v -0.054839 0.052829 -0.092144
v -0.107219 0.052829 0.001420
v -0.057367 0.052829 -0.089548
v -0.106327 0.052829 -0.002092
v 0.057367 0.052829 0.089548
v 0.106327 0.052829 0.002092
vn -0.0000 1.0000 -0.0000
vt 0.003736 0.460449
vt 0.262625 0.917886
vt 0.722394 0.916670
vt 0.246558 0.913512
vt 0.232552 0.051159
vt -0.000524 0.476939
vt 0.738437 0.912212
vt 0.234773 0.901480
vt 0.003821 0.493407
vt 0.244273 0.039065
vt 0.750159 0.900118
vt 0.260317 0.034607
vt 0.978976 0.490828
vt 0.720086 0.033388
vt 0.736153 0.037762
vt 0.983235 0.474338
vt 0.747937 0.049794
vt 0.978890 0.457870
s 0
usemtl FO_Pegasus_baku0A_Mat.001
f 765/4/254 764/5/254 758/6/254
f 765/4/254 771/7/254 764/5/254
f 765/4/254 758/6/254 760/8/254
f 765/4/254 770/9/254 771/7/254
f 758/6/254 759/10/254 760/8/254
f 770/9/254 773/11/254 771/7/254
f 770/9/254 772/12/254 773/11/254
f 759/10/254 761/13/254 760/8/254
f 759/10/254 762/14/254 761/13/254
f 762/14/254 763/15/254 761/13/254
f 762/14/254 766/16/254 763/15/254
f 766/16/254 767/17/254 763/15/254
f 766/16/254 769/18/254 767/17/254
f 766/16/254 768/19/254 769/18/254
f 768/19/254 775/20/254 769/18/254
f 768/19/254 774/21/254 775/20/254
