# Blender v2.93.5 OBJ File: ''
# www.blender.org
mtllib battle_informer.mtl
o Cube.003
v 0.568575 0.261066 0.629882
v 0.597859 0.305638 0.680602
v 0.389174 0.305638 0.680602
v 0.418458 0.261066 0.629882
v 0.418458 0.261066 0.369871
v 0.389174 0.305638 0.319150
v 0.597859 0.305638 0.319150
v 0.568575 0.261066 0.369871
v 0.343399 0.261066 0.499876
v 0.284832 0.305638 0.499876
v 0.643634 0.261066 0.499876
v 0.702201 0.305638 0.499876
v 0.420860 0.358459 0.374031
v 0.348203 0.358459 0.499876
v 0.348203 0.337454 0.499876
v 0.420860 0.337454 0.374031
v 0.566173 0.358459 0.625722
v 0.420860 0.358459 0.625722
v 0.566173 0.358459 0.374031
v 0.638830 0.358459 0.499876
v 0.420860 0.337454 0.625722
v 0.566173 0.337454 0.374031
v 0.638830 0.337454 0.499876
v 0.566173 0.337454 0.625722
v 0.389174 0.000103 0.680602
v 0.284832 0.000103 0.499876
v 0.389174 0.000103 0.319150
v 0.597859 0.000103 0.319150
v 0.702201 0.000103 0.499876
v 0.597859 0.000103 0.680602
v 0.569034 0.065465 0.369075
v 0.644552 0.065465 0.499876
v 0.569034 0.065465 0.630677
v 0.417999 0.065465 0.630677
v 0.342481 0.065465 0.499876
v 0.417999 0.065465 0.369075
v 0.568575 0.261066 0.629882
v 0.418458 0.261066 0.629882
v 0.343399 0.261066 0.499876
v 0.418458 0.261066 0.369871
v 0.643634 0.261066 0.499876
v 0.568575 0.261066 0.369871
v 0.388966 0.311013 0.286364
v 0.598067 0.311013 0.286364
v 0.360884 0.311013 0.697176
v 0.256334 0.311013 0.516090
v 0.730699 0.311013 0.516090
v 0.626149 0.311013 0.697176
v 0.572830 0.353083 0.330074
v 0.414203 0.353083 0.330074
v 0.306807 0.353083 0.516090
v 0.386120 0.353083 0.653465
v 0.600913 0.353083 0.653465
v 0.680227 0.353083 0.516090
v 0.399306 0.315261 0.294534
v 0.587727 0.315261 0.294534
v 0.362790 0.315261 0.684136
v 0.268579 0.315261 0.520959
v 0.718454 0.315261 0.520959
v 0.624243 0.315261 0.684136
v 0.567586 0.348836 0.329419
v 0.419446 0.348836 0.329419
v 0.308861 0.348836 0.520959
v 0.382931 0.348836 0.649252
v 0.604102 0.348836 0.649252
v 0.678172 0.348836 0.520959
vt 0.625000 0.250000
vt 0.500000 0.500000
vt 0.500000 0.250000
vt 0.500000 0.250000
vt 0.625000 0.500000
vt 0.500000 0.500000
vt 0.625000 0.250000
vt 0.500000 0.500000
vt 0.500000 0.250000
vt 0.625000 0.250000
vt 0.500000 0.500000
vt 0.500000 0.250000
vt 0.500000 0.250000
vt 0.625000 0.500000
vt 0.500000 0.500000
vt 0.500000 0.250000
vt 0.625000 0.500000
vt 0.500000 0.500000
vt 0.625000 0.258959
vt 0.625000 0.257208
vt 0.625000 0.257208
vt 0.625000 0.284624
vt 0.625000 0.405626
vt 0.625000 0.258959
vt 0.625000 0.250000
vt 0.625000 0.250000
vt 0.625000 0.258959
vt 0.625000 0.258959
vt 0.625000 0.284624
vt 0.625000 0.405626
vt 0.625000 0.284624
vt 0.625000 0.284624
vt 0.375000 0.500000
vt 0.375000 0.500000
vt 0.375000 0.500000
vt 0.437500 0.500000
vt 0.437500 0.250000
vt 0.437500 0.250000
vt 0.437500 0.500000
vt 0.437500 0.500000
vt 0.437500 0.250000
vt 0.437500 0.250000
vt 0.437500 0.500000
vt 0.437500 0.500000
vt 0.437500 0.250000
vt 0.437500 0.500000
vt 0.437500 0.250000
vt 0.500000 0.250000
vt 0.500000 0.500000
vt 0.500000 0.250000
vt 0.500000 0.500000
vt 0.500000 0.250000
vt 0.500000 0.500000
vt 0.500000 0.250000
vt 0.500000 0.500000
vt 0.500000 0.250000
vt 0.500000 0.500000
vt 0.500000 0.250000
vt 0.500000 0.500000
vt 0.375000 0.250000
vt 0.375000 0.500000
vt 0.375000 0.500000
vt 0.375000 0.250000
vt 0.375000 0.250000
vt 0.375000 0.500000
vt 0.375000 0.250000
vt 0.375000 0.250000
vt 0.375000 0.250000
vt 0.625000 0.251596
vt 0.625000 0.250000
vt 0.625000 0.251338
vt 0.625000 0.255852
vt 0.625000 0.465829
vt 0.625000 0.273327
vt 0.625000 0.255997
vt 0.625000 0.257236
vt 0.625000 0.258753
vt 0.625000 0.407755
vt 0.625000 0.276920
vt 0.625000 0.293340
vt 0.625000 0.252059
vt 0.625000 0.252107
vt 0.625000 0.251784
vt 0.625000 0.257612
vt 0.625000 0.280631
vt 0.625000 0.255594
vt 0.625000 0.256681
vt 0.625000 0.274516
vt 0.625000 0.258575
vt 0.625000 0.296413
vt 0.625000 0.408221
vt 0.625000 0.454985
vt 0.625000 0.252879
vt 0.625000 0.500000
vt 0.625000 0.500000
vt 0.625000 0.500000
vn 0.0000 -0.7512 0.6601
vn 0.0000 -0.7512 -0.6601
vn -0.5717 -0.7512 -0.3301
vn -0.5717 -0.7512 0.3301
vn 0.5717 -0.7512 0.3301
vn 0.5717 -0.7512 -0.3301
vn 0.8660 0.0000 0.5000
vn 0.0000 0.7205 0.6935
vn 0.6006 0.7205 -0.3467
vn -0.6006 0.7205 -0.3467
vn 0.8660 0.0000 -0.5000
vn 0.0000 0.0000 1.0000
vn -0.8660 0.0000 -0.5000
vn -0.8660 0.0000 0.5000
vn -0.0000 0.0000 -1.0000
vn 0.0000 -1.0000 -0.0000
vn 0.8660 0.0041 -0.5000
vn 0.8660 0.0041 0.5000
vn -0.8660 0.0041 0.5000
vn -0.8660 0.0041 -0.5000
vn -0.0000 0.0041 -1.0000
vn 0.0000 0.0041 1.0000
vn 0.0000 0.6070 0.7947
vn -0.0000 0.6070 -0.7947
vn -0.6882 0.6070 -0.3973
vn -0.6882 0.6070 0.3973
vn 0.6882 0.6070 0.3973
vn 0.6882 0.6070 -0.3973
vn 0.0000 -0.9868 -0.1618
vn -0.1401 -0.9868 0.0809
vn 0.1401 -0.9868 0.0809
vn 0.0000 0.9926 -0.1214
vn -0.1051 0.9926 0.0607
vn 0.1051 0.9926 0.0607
vn -0.5134 0.4507 0.7302
vn 0.5134 0.4507 0.7302
vn -0.8891 0.4507 0.0795
vn 0.8891 0.4507 0.0795
vn 0.3757 0.4507 -0.8098
vn -0.3757 0.4507 -0.8098
vn 0.0000 0.8873 -0.4612
vn -0.3995 0.8873 0.2306
vn 0.3995 0.8873 0.2306
vn 0.0000 0.1526 -0.9883
vn -0.8559 0.1525 0.4942
vn -0.8559 0.1526 0.4942
vn 0.8559 0.1526 0.4941
vn 0.8559 0.1526 0.4942
vn 0.8264 0.5597 0.0615
vn -0.8264 0.5597 0.0615
vn -0.8264 0.5596 0.0615
vn 0.3600 0.5597 -0.7465
vn -0.3600 0.5597 -0.7465
vn 0.4665 0.5597 0.6850
vn -0.4665 0.5597 0.6850
vn 0.0000 0.7205 -0.6935
vn -0.6006 0.7205 0.3467
vn 0.6006 0.7205 0.3467
vn -0.0000 1.0000 0.0000
usemtl white
s 1
f 2/1/1 4/2/1 1/3/1
f 5/4/2 7/5/2 8/6/2
f 10/7/3 5/8/3 9/9/3
f 3/10/4 9/11/4 4/12/4
f 11/13/5 2/14/5 1/15/5
f 8/16/6 12/17/6 11/18/6
f 14/19/7 16/20/7 13/21/7
f 18/22/8 2/14/8 17/23/8
f 19/24/9 12/25/9 7/26/9
f 13/21/10 10/7/10 14/19/10
f 18/22/11 15/27/11 14/19/11
f 13/21/12 22/28/12 19/24/12
f 20/29/13 24/30/13 17/23/13
f 19/24/14 23/31/14 20/29/14
f 17/23/15 21/32/15 18/22/15
f 29/33/16 30/34/16 26/35/16
f 8/16/17 32/36/17 31/37/17
f 32/38/18 1/15/18 33/39/18
f 4/12/19 35/40/19 34/41/19
f 35/42/20 5/8/20 36/43/20
f 5/4/21 31/44/21 36/45/21
f 1/3/22 34/46/22 33/47/22
f 4/2/12 37/48/12 38/49/12
f 5/8/12 39/50/12 40/51/12
f 1/15/12 41/52/12 37/53/12
f 8/6/12 40/54/12 42/55/12
f 9/11/12 38/56/12 39/57/12
f 11/18/12 42/58/12 41/59/12
f 30/60/23 34/46/23 25/61/23
f 36/45/24 28/62/24 27/63/24
f 26/64/25 36/43/25 27/65/25
f 34/41/26 26/35/26 25/66/26
f 32/38/27 30/34/27 29/67/27
f 31/37/28 29/33/28 28/68/28
f 44/69/29 6/70/29 43/71/29
f 45/72/30 10/7/30 3/10/30
f 48/73/31 12/25/31 47/74/31
f 50/75/32 19/24/32 49/76/32
f 51/77/33 18/22/33 14/19/33
f 53/78/34 20/29/34 17/23/34
f 53/78/35 2/14/35 48/73/35
f 52/79/36 3/10/36 18/22/36
f 50/75/37 6/70/37 13/21/37
f 49/76/38 7/26/38 44/69/38
f 54/80/39 12/25/39 20/29/39
f 51/77/40 10/7/40 46/81/40
f 56/82/41 43/71/41 55/83/41
f 57/84/42 46/81/42 45/72/42
f 59/85/43 48/73/43 47/74/43
f 62/86/44 49/76/44 61/87/44
f 64/88/45 51/77/46 63/89/46
f 66/90/47 53/78/48 65/91/48
f 60/92/49 53/78/49 48/73/49
f 57/84/50 52/79/51 64/88/51
f 55/83/52 50/75/52 62/86/52
f 56/82/53 49/76/53 44/69/53
f 59/85/54 54/80/54 66/90/54
f 58/93/55 51/77/55 46/81/55
f 2/1/1 3/94/1 4/2/1
f 5/4/2 6/70/2 7/5/2
f 10/7/3 6/95/3 5/8/3
f 3/10/4 10/96/4 9/11/4
f 11/13/5 12/25/5 2/14/5
f 8/16/6 7/26/6 12/17/6
f 14/19/7 15/27/7 16/20/7
f 18/22/8 3/10/8 2/14/8
f 19/24/9 20/29/9 12/25/9
f 13/21/10 6/70/10 10/7/10
f 18/22/11 21/32/11 15/27/11
f 13/21/12 16/20/12 22/28/12
f 20/29/13 23/31/13 24/30/13
f 19/24/14 22/28/14 23/31/14
f 17/23/15 24/30/15 21/32/15
f 30/34/16 25/66/16 26/35/16
f 26/35/16 27/65/16 28/62/16
f 28/62/16 29/33/16 26/35/16
f 8/16/17 11/18/17 32/36/17
f 32/38/18 11/13/18 1/15/18
f 4/12/19 9/11/19 35/40/19
f 35/42/20 9/9/20 5/8/20
f 5/4/21 8/6/21 31/44/21
f 1/3/22 4/2/22 34/46/22
f 4/2/12 1/3/12 37/48/12
f 5/8/12 9/9/12 39/50/12
f 1/15/12 11/13/12 41/52/12
f 8/6/12 5/4/12 40/54/12
f 9/11/12 4/12/12 38/56/12
f 11/18/12 8/16/12 42/58/12
f 30/60/23 33/47/23 34/46/23
f 36/45/24 31/44/24 28/62/24
f 26/64/25 35/42/25 36/43/25
f 34/41/26 35/40/26 26/35/26
f 32/38/27 33/39/27 30/34/27
f 31/37/28 32/36/28 29/33/28
f 44/69/29 7/26/29 6/70/29
f 45/72/30 46/81/30 10/7/30
f 48/73/31 2/14/31 12/25/31
f 50/75/32 13/21/32 19/24/32
f 51/77/33 52/79/33 18/22/33
f 53/78/34 54/80/34 20/29/34
f 53/78/35 17/23/35 2/14/35
f 52/79/36 45/72/36 3/10/36
f 50/75/37 43/71/37 6/70/37
f 49/76/38 19/24/38 7/26/38
f 54/80/39 47/74/39 12/25/39
f 51/77/40 14/19/40 10/7/40
f 56/82/41 44/69/41 43/71/41
f 57/84/42 58/93/42 46/81/42
f 59/85/43 60/92/43 48/73/43
f 62/86/44 50/75/44 49/76/44
f 64/88/45 52/79/45 51/77/46
f 66/90/47 54/80/47 53/78/48
f 60/92/49 65/91/49 53/78/49
f 57/84/50 45/72/50 52/79/51
f 55/83/52 43/71/52 50/75/52
f 56/82/53 61/87/53 49/76/53
f 59/85/54 47/74/54 54/80/54
f 58/93/55 63/89/55 51/77/55
usemtl blue
f 62/86/56 56/82/56 55/83/56
f 63/89/57 57/84/57 64/88/57
f 65/91/58 59/85/58 66/90/58
f 16/20/59 15/27/59 21/32/59
f 62/86/56 61/87/56 56/82/56
f 63/89/57 58/93/57 57/84/57
f 65/91/58 60/92/58 59/85/58
f 21/32/59 24/30/59 16/20/59
f 24/30/59 23/31/59 16/20/59
f 23/31/59 22/28/59 16/20/59
